<svg xmlns="http://www.w3.org/2000/svg" viewBox="0 0 441.03 594"><defs><style>.cls-1{isolation:isolate;}.cls-2{fill:#878787;}.cls-10,.cls-12,.cls-13,.cls-14,.cls-15,.cls-16,.cls-20,.cls-24,.cls-25,.cls-27,.cls-3,.cls-5,.cls-6{fill:#cecece;}.cls-3{opacity:0.32;}.cls-18,.cls-28,.cls-4{fill:#5b5b5b;}.cls-4{opacity:0.65;}.cls-5,.cls-8{opacity:0.47;}.cls-26,.cls-7,.cls-8{fill:#8e8e8e;}.cls-9{fill:#777;}.cls-10{opacity:0.38;}.cls-11{fill:#969696;}.cls-12{opacity:0.2;}.cls-13{opacity:0.3;}.cls-14{opacity:0.15;}.cls-15{opacity:0.1;}.cls-16{opacity:0.05;}.cls-17{fill:#1e1e1e;opacity:0.22;mix-blend-mode:multiply;}.cls-19{opacity:0.58;}.cls-20,.cls-29{opacity:0.35;}.cls-21{fill:#b2b2b2;}.cls-22{opacity:0.43;}.cls-23{opacity:0.61;}.cls-24{opacity:0.56;}.cls-25{opacity:0.4;}.cls-26{opacity:0.52;}.cls-27{opacity:0.24;}.cls-28{opacity:0.69;}.cls-29,.cls-30,.cls-31,.cls-32{fill:#fcfcfc;}.cls-30{opacity:0.73;}.cls-31{opacity:0.31;}</style></defs><title>castleAsset 62</title><g class="cls-1"><g id="Layer_2" data-name="Layer 2"><g id="Layer_5" data-name="Layer 5"><path class="cls-2" d="M413.55,309.67s23.15,15.6,25.17,26.67-29.5,6.54-29.5,6.54Z"/><path class="cls-2" d="M22.88,594V305S.28,293.2.28,261.1,63.88,209,63.88,209s-10-10,0-17l5-21v17s18,16,0,18l51,40s28,47-23,65V424h45V353h-19V318h28V233h-9V197l9,20,47-156s-9.67,0-9.67-14,13.48-14,13.48-14l6.52-33,8.67,32s13.33,3.52,13.33,14.52S225.29,60,220.29,61l40.59,144,7-21v58h-8v71h20v40h44V262s-25-3.67-25-37,38-56.67,38-56.67-13.33-2.67-14.67-12,12-12,12-12L340.88,119l6.67,24s16,.67,16,10.67-14,15.33-14,15.33,30.67,21.33,38,39.33-.67,50-14.67,55.33V496h29V370s-21-2.33-21-20,26-39.67,26-39.67-6.67-3.33-4.67-9.33,4.67-4,4.67-4l4-17.33L413.55,297s9.33,4,0,12.67l25.17,26.67s7.17,25.33-8.83,34V592Z"/><path class="cls-3" d="M325.48,263.05s10.41,6.58,30.45,5.84l-2,134.11h-29Z"/><path class="cls-4" d="M76.55,313.35c-18.52.45-39.29,2-54.58-8.89l.92,27.79S25.55,318.66,57.21,318s39.67,12,39.67,12V309.71C90.38,313,82.85,314.74,76.55,313.35Z"/><path class="cls-4" d="M361.69,267.22c-.25,0-.49,0-.75,0-13.15.06-26.48.57-37.86-5.91l.54,24.35s1.79-13.58,23.07-14.25,26.65,12,26.65,12V263.17C369.64,265.91,365.46,267.6,361.69,267.22Z"/><polygon class="cls-5" points="197.88 61 210.88 61 194.88 216 149.88 216 197.88 61"/><path class="cls-3" d="M22.71,305s17.17,9,37.17,9v74h-38Z"/><path class="cls-6" d="M207.55,59.67"/><rect class="cls-6" x="141.88" y="212" width="126" height="30"/><polygon class="cls-6" points="141.88 219 141.88 186 152.39 212 141.88 219"/><rect class="cls-7" x="198.88" y="212" width="69" height="30"/><polygon class="cls-7" points="267.88 215 267.88 184 257.88 215 267.88 215"/><rect class="cls-8" x="145.88" y="216" width="49" height="22"/><rect class="cls-6" x="149.88" y="216" width="47" height="20"/><rect class="cls-9" x="198.88" y="212" width="69" height="30"/><polygon class="cls-9" points="267.88 215 267.88 184 257.88 215 267.88 215"/><rect class="cls-10" x="205.88" y="216" width="54" height="22"/><rect class="cls-9" x="210.88" y="216" width="51" height="20"/><path class="cls-5" d="M214.88,32.77s-12.42,4.86-13.55,14,6,13.31,9.79,14.75c0,0-15.5,3.25-21.11-7.64S196.91,27.46,214.88,32.77Z"/><path class="cls-6" d="M208,1.22s-3.16,28.07,5.37,32.43L201.69,33Z"/><circle class="cls-6" cx="216.21" cy="47.5" r="8"/><circle class="cls-11" cx="218.88" cy="47.5" r="8"/><circle class="cls-2" cx="65.88" cy="199.5" r="12.5"/><path class="cls-2" d="M72.23,210.27s34,13.73,47.65,35.73-55.33-8-55.33-8Z"/><path class="cls-12" d="M38.55,308s-25.67-7.92-19.33-29.29,38.25-37,46.67-62.71c0,0-4.67,21.39-14.67,34.36s-9,62.64,18.33,64C69.55,314.33,41.21,311.67,38.55,308Z"/><path class="cls-13" d="M62.55,215s-21,22.67-32.33,28.67S-3.56,273.12,9.55,291.4c0,0,4.62,7.27,10.27,10.6,0,0-10.28-17-1.61-30.33S59.21,231.5,62.55,215Z"/><path class="cls-13" d="M1.57,273.81S3.9,253.29,25.88,242s36.67-30.45,36.67-30.45l-3-1.28S25.29,225,11.59,238C11.59,238-5.08,253.62,1.57,273.81Z"/><path class="cls-14" d="M68.21,216s-3.33,20-8.33,30S45.21,294,64,308s39.83-3,39.83-3-20,2.29-28.67-18S83,232.5,68.21,216Z"/><path class="cls-15" d="M70.92,215a25.39,25.39,0,0,1,11.3,25.67c-2.67,17.67-8,57,18.67,61s26.66-27.86,26.66-27.86-13.33,26.86-25.33,12.53S93.11,252,93.11,252,92,223.33,70.92,215Z"/><path class="cls-16" d="M74.21,212s32.08,11.73,47.87,38.36-11.21,37.64-15.21,32.3S98,268,100.61,256.33,99.21,222.67,74.21,212Z"/><path class="cls-12" d="M38.55,308s-25.67-7.92-19.33-29.29,38.25-37,46.67-62.71c0,0-4.67,21.39-14.67,34.36s-9,62.64,18.33,64C69.55,314.33,41.21,311.67,38.55,308Z"/><path class="cls-13" d="M62.55,215s-21,22.67-32.33,28.67S-3.56,273.12,9.55,291.4c0,0,4.62,7.27,10.27,10.6,0,0-10.28-17-1.61-30.33S59.21,231.5,62.55,215Z"/><path class="cls-13" d="M1.57,273.81S3.9,253.29,25.88,242s36.67-30.45,36.67-30.45l-3-1.28S25.29,225,11.59,238C11.59,238-5.08,253.62,1.57,273.81Z"/><path class="cls-14" d="M68.21,216s-3.33,20-8.33,30S45.21,294,64,308s39.83-3,39.83-3-20,2.29-28.67-18S83,232.5,68.21,216Z"/><path class="cls-15" d="M70.92,215a25.39,25.39,0,0,1,11.3,25.67c-2.67,17.67-8,57,18.67,61s26.66-27.86,26.66-27.86-13.33,26.86-25.33,12.53S93.11,252,93.11,252,92,223.33,70.92,215Z"/><path class="cls-16" d="M74.21,212s32.08,11.73,47.87,38.36-11.21,37.64-15.21,32.3S98,268,100.61,256.33,99.21,222.67,74.21,212Z"/><path class="cls-12" d="M327.55,260.88s-17-7.36-12.82-27.22,25.36-34.36,30.93-58.26c0,0-3.09,19.88-9.72,31.93s-6,58.2,12.15,59.44C348.1,266.77,329.32,264.29,327.55,260.88Z"/><path class="cls-13" d="M343.46,174.48S329.54,195.54,322,201.11s-22.39,27.37-13.7,44.35c0,0,3.06,6.75,6.81,9.85,0,0-6.81-15.8-1.06-28.18S341.25,189.81,343.46,174.48Z"/><path class="cls-13" d="M303,229.12s1.55-19.07,16.12-29.55,24.31-28.29,24.31-28.29l-2-1.19s-22.71,13.69-31.8,25.77C309.68,195.85,298.63,210.35,303,229.12Z"/><path class="cls-14" d="M347.22,175.4S345,194,341.69,203.28s-9.72,44.6,2.76,57.61,26.4-2.75,26.4-2.75-13.26,2.13-19-16.76S357,190.74,347.22,175.4Z"/><path class="cls-15" d="M349,174.48s9.26,7.43,7.49,23.85-5.3,53,12.37,56.68,17.67-25.88,17.67-25.88-8.84,25-16.79,11.64-6-31.9-6-31.9S363,182.22,349,174.48Z"/><path class="cls-16" d="M351.19,171.69a76.07,76.07,0,0,1,31.73,35.64c10.47,24.75-7.43,35-10.08,30a38.84,38.84,0,0,1-4.16-24.47C370.42,202,367.77,181.6,351.19,171.69Z"/><path class="cls-12" d="M327.55,260.88s-17-7.36-12.82-27.22,25.36-34.36,30.93-58.26c0,0-3.09,19.88-9.72,31.93s-6,58.2,12.15,59.44C348.1,266.77,329.32,264.29,327.55,260.88Z"/><path class="cls-13" d="M343.46,174.48S329.54,195.54,322,201.11s-22.39,27.37-13.7,44.35c0,0,3.06,6.75,6.81,9.85,0,0-6.81-15.8-1.06-28.18S341.25,189.81,343.46,174.48Z"/><path class="cls-13" d="M303,229.12s1.55-19.07,16.12-29.55,24.31-28.29,24.31-28.29l-2-1.19s-22.71,13.69-31.8,25.77C309.68,195.85,298.63,210.35,303,229.12Z"/><path class="cls-14" d="M347.22,175.4S345,194,341.69,203.28s-9.72,44.6,2.76,57.61,26.4-2.75,26.4-2.75-13.26,2.13-19-16.76S357,190.74,347.22,175.4Z"/><path class="cls-15" d="M349,174.48s9.26,7.43,7.49,23.85-5.3,53,12.37,56.68,17.67-25.88,17.67-25.88-8.84,25-16.79,11.64-6-31.9-6-31.9S363,182.22,349,174.48Z"/><path class="cls-16" d="M351.19,171.69a76.07,76.07,0,0,1,31.73,35.64c10.47,24.75-7.43,35-10.08,30a38.84,38.84,0,0,1-4.16-24.47C370.42,202,367.77,181.6,351.19,171.69Z"/><path class="cls-12" d="M400.19,367.93s-11.06-4.63-8.33-17.13,16.49-21.63,20.11-36.68c0,0-2,12.51-6.32,20.1s-3.88,36.64,7.9,37.42C413.55,371.63,401.34,370.07,400.19,367.93Z"/><path class="cls-13" d="M410.53,313.53s-9.05,13.26-13.94,16.77-14.56,17.23-8.91,27.92c0,0,2,4.25,4.43,6.2,0,0-4.43-9.94-.69-17.74S409.09,323.18,410.53,313.53Z"/><path class="cls-13" d="M384.25,347.93s1-12,10.48-18.6,15.8-17.81,15.8-17.81l-1.29-.75s-14.77,8.62-20.68,16.22C388.57,327,381.38,336.12,384.25,347.93Z"/><path class="cls-14" d="M413,314.12s-1.44,11.7-3.59,17.55-6.32,28.07,1.8,36.26,17.17-1.73,17.17-1.73-8.62,1.34-12.36-10.55S419.37,323.77,413,314.12Z"/><path class="cls-15" d="M414.14,313.53s6,4.68,4.87,15-3.45,33.34,8,35.68,11.49-16.29,11.49-16.29-5.75,15.71-10.92,7.33-3.92-20.08-3.92-20.08S423.21,318.4,414.14,313.53Z"/><path class="cls-16" d="M415.56,311.78a48.62,48.62,0,0,1,20.63,22.44c6.81,15.58-4.83,22-6.55,18.89a23.79,23.79,0,0,1-2.7-15.4C428.06,330.88,426.34,318,415.56,311.78Z"/><path class="cls-12" d="M400.19,367.93s-11.06-4.63-8.33-17.13,16.49-21.63,20.11-36.68c0,0-2,12.51-6.32,20.1s-3.88,36.64,7.9,37.42C413.55,371.63,401.34,370.07,400.19,367.93Z"/><path class="cls-13" d="M410.53,313.53s-9.05,13.26-13.94,16.77-14.56,17.23-8.91,27.92c0,0,2,4.25,4.43,6.2,0,0-4.43-9.94-.69-17.74S409.09,323.18,410.53,313.53Z"/><path class="cls-13" d="M384.25,347.93s1-12,10.48-18.6,15.8-17.81,15.8-17.81l-1.29-.75s-14.77,8.62-20.68,16.22C388.57,327,381.38,336.12,384.25,347.93Z"/><path class="cls-14" d="M413,314.12s-1.44,11.7-3.59,17.55-6.32,28.07,1.8,36.26,17.17-1.73,17.17-1.73-8.62,1.34-12.36-10.55S419.37,323.77,413,314.12Z"/><path class="cls-15" d="M414.14,313.53s6,4.68,4.87,15-3.45,33.34,8,35.68,11.49-16.29,11.49-16.29-5.75,15.71-10.92,7.33-3.92-20.08-3.92-20.08S423.21,318.4,414.14,313.53Z"/><path class="cls-16" d="M415.56,311.78a48.62,48.62,0,0,1,20.63,22.44c6.81,15.58-4.83,22-6.55,18.89a23.79,23.79,0,0,1-2.7-15.4C428.06,330.88,426.34,318,415.56,311.78Z"/><path class="cls-12" d="M38.55,308s-25.67-7.92-19.33-29.29,38.25-37,46.67-62.71c0,0-4.67,21.39-14.67,34.36s-9,62.64,18.33,64C69.55,314.33,41.21,311.67,38.55,308Z"/><path class="cls-13" d="M62.55,215s-21,22.67-32.33,28.67S-3.56,273.12,9.55,291.4c0,0,4.62,7.27,10.27,10.6,0,0-10.28-17-1.61-30.33S59.21,231.5,62.55,215Z"/><path class="cls-13" d="M1.57,273.81S3.9,253.29,25.88,242s36.67-30.45,36.67-30.45l-3-1.28S25.29,225,11.59,238C11.59,238-5.08,253.62,1.57,273.81Z"/><path class="cls-14" d="M68.21,216s-3.33,20-8.33,30S45.21,294,64,308s39.83-3,39.83-3-20,2.29-28.67-18S83,232.5,68.21,216Z"/><path class="cls-15" d="M70.92,215a25.39,25.39,0,0,1,11.3,25.67c-2.67,17.67-8,57,18.67,61s26.66-27.86,26.66-27.86-13.33,26.86-25.33,12.53S93.11,252,93.11,252,92,223.33,70.92,215Z"/><path class="cls-16" d="M74.21,212s32.08,11.73,47.87,38.36-11.21,37.64-15.21,32.3S98,268,100.61,256.33,99.21,222.67,74.21,212Z"/><path class="cls-17" d="M74.21,212s30.86,12.11,18.9,40-33.2,59.24-14.71,61.46,49.26-16.51,48.6-34.75S124.88,232.33,74.21,212Z"/><path class="cls-17" d="M342.93,168s28,12.11,17.15,40S330,267.24,346.72,269.46s44.7-16.51,44.1-34.75S388.91,188.33,342.93,168Z"/><path class="cls-17" d="M408.06,308s19.28,8.16,11.8,27-20.87,35.17-9.33,36.66S441.43,365.26,441,353,439.7,321.71,408.06,308Z"/><path class="cls-18" d="M49.18,341a8.65,8.65,0,1,0-17.3.05c0,.27,0-.06,0,.94h0v22h17V342h.26C49.16,341,49.18,341.27,49.18,341Z"/><path class="cls-6" d="M54.54,341a8.65,8.65,0,1,0-17.3.05c0,.27,0-.06,0,.94h-.4v22h18V342H54.5C54.52,341,54.54,341.27,54.54,341Z"/><path class="cls-18" d="M332.88,322h13V300h-.13c0-1,0-.73,0-1,0-4.78-3-8.75-6.62-8.75s-6.45,4-6.45,8.8"/><path class="cls-6" d="M335.88,322h13V300h0c0-1,0-.73,0-1,0-4.78-3-8.75-6.62-8.75s-6.56,4-6.56,8.8"/><path class="cls-18" d="M158.88,314h24V281h-.45c0-1,.06-.85.06-1.25,0-7.07-5.39-12.84-12-12.84s-11.8,6-11.8,13.08"/><path class="cls-6" d="M164.88,314h23V281h.19c0-1,.06-.85.06-1.25,0-7.07-5.39-12.84-12-12.84s-11.73,6-11.73,13.08"/><g class="cls-19"><path class="cls-18" d="M243.88,314h-24V281h.46c0-1-.06-.85-.06-1.25,0-7.07,5.39-12.84,12-12.84s11.8,6,11.8,13.08"/><path class="cls-6" d="M237.88,314h-23V281h-.19c0-1-.06-.85-.06-1.25,0-7.07,5.39-12.84,12-12.84s11.73,6,11.73,13.08"/></g><rect class="cls-20" x="151.88" y="246" width="44" height="72"/><rect class="cls-21" x="122.88" y="311.78" width="157" height="41.22"/><rect class="cls-9" x="220.29" y="311.78" width="59.59" height="41.22"/><path class="cls-9" d="M65.88,187"/><path class="cls-6" d="M65.88,187s-15.2,15.18,0,25c0,0-12.5-1.5-12.5-12.5S65.88,187,65.88,187Z"/><polygon class="cls-6" points="68.88 171 63.55 187.33 65.88 187 68.88 171"/><path class="cls-6" d="M64.55,210.27S13.4,233.12,1.31,254.06C1.31,254.06,9.21,225.87,64.55,210.27Z"/><g class="cls-22"><polygon class="cls-2" points="156.88 196 196.88 196 197.19 194 157.88 194 156.88 196"/><polygon class="cls-2" points="161.88 181 198.32 181 198.6 179 162.79 179 161.88 181"/><polygon class="cls-2" points="166.88 166 200.04 166 200.3 164 167.71 164 166.88 166"/><polygon class="cls-2" points="170.88 151 201.46 151 201.69 149 171.65 149 170.88 151"/><polygon class="cls-2" points="174.88 136 203.03 136 203.24 134 175.58 134 174.88 136"/><polygon class="cls-2" points="179.88 121 204.6 121 204.79 119 180.5 119 179.88 121"/><polygon class="cls-2" points="184.88 106 206.22 106 206.39 104 185.41 104 184.88 106"/><polygon class="cls-2" points="188.88 91 207.74 91 207.89 89 189.35 89 188.88 91"/><polygon class="cls-2" points="193.88 76 208.92 76 209.03 74 194.26 74 193.88 76"/></g><g class="cls-23"><polygon class="cls-9" points="253.32 196 197.88 196 197.46 194 251.93 194 253.32 196"/><polygon class="cls-9" points="249.41 181 198.98 181 198.6 179 248.15 179 249.41 181"/><polygon class="cls-9" points="245.51 166 200.42 166 200.07 164 244.38 164 245.51 166"/><polygon class="cls-9" points="242.39 151 201.91 151 201.6 149 241.37 149 242.39 151"/><polygon class="cls-9" points="239.26 136 204.18 136 203.91 134 238.39 134 239.26 136"/><polygon class="cls-9" points="235.36 121 204.84 121 204.6 119 234.6 119 235.36 121"/><polygon class="cls-9" points="231.46 106 206.51 106 206.32 104 230.83 104 231.46 106"/><polygon class="cls-9" points="228.33 91 208.61 91 208.46 89 227.84 89 228.33 91"/><polygon class="cls-9" points="224.43 76 209.55 76 209.44 74 224.06 74 224.43 76"/></g><polygon class="cls-8" points="143.88 198 143.88 212 146.88 212 143.88 198"/><polygon class="cls-24" points="265.88 198 265.88 211 262.88 211 265.88 198"/><polygon class="cls-25" points="194.26 212 210.28 61 214.52 62.15 198.88 212 194.26 212"/><rect class="cls-26" x="130.88" y="318" width="77" height="30"/><rect class="cls-21" x="136.88" y="318" width="74" height="27"/><rect class="cls-27" x="224.88" y="318" width="48" height="28"/><rect class="cls-9" x="228.88" y="318" width="45" height="26"/><rect class="cls-28" x="196.88" y="353" width="63" height="19.35"/><polygon class="cls-29" points="340.88 119 334.21 144.33 339.21 143.5 340.88 119"/><path class="cls-29" d="M339.21,143.5s-11.83,4.33-11.33,12.17,10.1,12.5,15,12.33c0,0-14,2.56-20.2-9.63S339.21,143.5,339.21,143.5Z"/><path class="cls-30" d="M340.41,168.22S303.72,194,299,222.36c0,0-.75-29.36,37.91-54Z"/><rect class="cls-31" x="324.92" y="150" width="15.58" height="11.67" rx="5.83" ry="5.83"/><path class="cls-32" d="M406.88,310.33S380.44,323.51,381,347.93C381,347.93,383.38,328.83,406.88,310.33Z"/><path class="cls-32" d="M408,295.83a7.3,7.3,0,0,0-6.21,7.33c-.29,6.67,6.21,7.17,6.21,7.17S399.21,302.17,408,295.83Z"/><polygon class="cls-32" points="407.1 296.05 410.88 279.67 408.99 295.83 406.88 297 407.1 296.05"/></g></g></g></svg>