<svg xmlns="http://www.w3.org/2000/svg" viewBox="0 0 365.87 322"><defs><style>.cls-1{fill:#bfbfbf;}.cls-2,.cls-3{fill:#333035;}.cls-3,.cls-5{opacity:0.56;}.cls-11,.cls-12,.cls-14,.cls-4,.cls-5,.cls-7{fill:#fff;}.cls-4{opacity:0.31;}.cls-6{fill:#ff245e;}.cls-8{fill:#ffde1a;}.cls-9{fill:#24915a;}.cls-10{fill:#165634;}.cls-11{opacity:0.47;}.cls-12{opacity:0.2;}.cls-13{fill:#1c1c1c;opacity:0.17;}.cls-14{opacity:0.48;}</style></defs><title>boatAsset 56</title><g id="Layer_2" data-name="Layer 2"><g id="Layer_5" data-name="Layer 5"><path class="cls-1" d="M215.56,238V0h-8V238h-3V.38L91.1,107.17S182.33,130,199.79,238Z"/><polygon class="cls-2" points="215.56 0 215.56 225.26 212.56 231.76 212.56 0 215.56 0"/><path class="cls-3" d="M204.56,239.47V131.91s-.42,81.73-20.47,54C184.09,185.93,197.56,217.42,204.56,239.47Z"/><path class="cls-4" d="M204,.38,90.81,106.74S147.48,125.3,168,161.1c0,0,26.55-1.19,5.59-32.59S132.73,79.3,204,.38Z"/><path class="cls-5" d="M204,.38,90.81,106.74s34.6,13.08,45.59,22.66,7.5-8-.19-21.53S153.68,47.34,204,.38Z"/><path class="cls-6" d="M347.63,227H20.26s-28.7,1.08-15.75,19.59S45.84,322,45.84,322H302.25l62-82.56S373.49,227,347.63,227Z"/><polygon class="cls-7" points="361.4 243 2.44 243 10.48 255 351.68 255 361.4 243"/><polygon class="cls-8" points="31.37 293.92 18.64 270 341.14 270 318.9 299.77 296.85 281.43 265.91 306 265.13 306 234.19 280.94 203.24 306 202.46 306 171.52 280.94 140.58 306 139.8 306 108.86 280.94 77.92 306 77.13 306 46.19 281.43 31.37 293.92"/><polygon class="cls-9" points="318.9 299.07 313.59 306 265.91 306 296.85 281.08 318.9 299.07"/><polygon class="cls-9" points="265.13 306 203.24 306 234.19 280.94 265.13 306"/><polygon class="cls-9" points="202.46 306 140.58 306 171.52 280.94 202.46 306"/><polygon class="cls-9" points="139.8 306 77.92 306 108.86 280.94 139.8 306"/><polygon class="cls-9" points="31.37 293.22 46.19 281.08 77.13 306 38.19 306 31.37 293.22"/><polygon class="cls-10" points="249.66 306 218.71 306 234.19 293.47 249.66 306"/><polygon class="cls-10" points="312.05 306 281.11 306 296.58 293.47 312.05 306"/><polygon class="cls-10" points="187.26 306 156.32 306 171.79 293.47 187.26 306"/><polygon class="cls-10" points="124.06 306 93.12 306 108.59 293.47 124.06 306"/><path class="cls-10" d="M37.31,304.23a4.55,4.55,0,0,0-1.37-1.92L46.19,294l15.47,12.53H37.83A8.73,8.73,0,0,0,37.31,304.23Z"/><path class="cls-11" d="M14.32,257H83.85s-66.74,1.23-66.74,3.49C17.11,260.49,16.1,261,14.32,257Z"/><path class="cls-12" d="M72.65,226.11s-41.35,0-41.28,14.43,25.91,72.13,25.91,72.13L62.49,322H45.84L10.48,255S-37.72,217.62,72.65,226.11Z"/><path class="cls-13" d="M341.26,226.11s7.18,7.21-4,23.34S281.11,322,281.11,322h21.37l51-69.07S387.9,222.71,341.26,226.11Z"/><path class="cls-14" d="M41.21,227.81S8.42,230.35,5.83,240.53C5.83,240.53-1.68,225.68,41.21,227.81Z"/><rect class="cls-3" x="204.56" width="11" height="8"/></g></g></svg>