<svg xmlns="http://www.w3.org/2000/svg" viewBox="0 0 1605.98 966.67"><defs><style>.cls-1,.cls-18,.cls-5{fill:#542e15;}.cls-2{fill:#ffae2c;}.cls-3{opacity:0.55;}.cls-4{opacity:0.62;}.cls-5,.cls-7{opacity:0.33;}.cls-6{opacity:0.34;}.cls-8{fill:#9e6b21;}.cls-9{fill:#704b19;opacity:0.56;}.cls-10,.cls-15{fill:#d28e23;}.cls-11{fill:#ffc571;}.cls-12{fill:#ba7e2f;}.cls-13{opacity:0.71;}.cls-14{fill:#b5741f;}.cls-14,.cls-15{opacity:0.53;}.cls-16{opacity:0.31;}.cls-17{fill:#fffefd;}.cls-18{opacity:0.2;}</style></defs><title>bridgeAsset 99</title><g id="Layer_2" data-name="Layer 2"><g id="Layer_5" data-name="Layer 5"><rect class="cls-1" x="1462.98" y="864.67" width="143" height="102"/><rect class="cls-2" x="1462.58" y="864.67" width="77.4" height="102"/><rect class="cls-1" x="639.5" y="864.67" width="143" height="102"/><rect class="cls-2" x="639.11" y="864.67" width="77.4" height="102"/><rect class="cls-1" x="198.68" y="864.67" width="143" height="102"/><rect class="cls-2" x="22.98" y="864.67" width="252.7" height="102"/><rect class="cls-1" x="1041.83" y="864.67" width="168.79" height="102"/><rect class="cls-2" x="1041.32" y="864.67" width="99.78" height="102"/><path class="cls-1" d="M367,583.67H254v318h85V713.21c155-153.81,342,0,342,0V901.67H781V727.78c162-145.71,324,0,324,0V901.67h102V730.52c156-138.43,321,0,321,0V901.67h78v-318Z"/><path class="cls-2" d="M23,882.6v-795l23.47,52.11H94.71L132.05,17.08,190.34,30l34.61,112.11,34.63,19.17L276,129.45V583.67H1540v318h-77V730.52s-163-183.05-321,0V901.67H1039V727.78s-181-179.41-323,0V901.67H615V713.21s-186-153.81-341,0V901.67H23Z"/><g class="cls-3"><g class="cls-4"><rect class="cls-5" x="624.74" y="715.64" width="81.05" height="43.53" rx="12" ry="12"/><rect class="cls-5" x="624.74" y="763.47" width="81.05" height="43.53" rx="12" ry="12"/><rect class="cls-5" x="624.74" y="811.29" width="81.05" height="43.53" rx="12" ry="12"/><rect class="cls-5" x="624.74" y="859.11" width="81.05" height="43.53" rx="12" ry="12"/><rect class="cls-5" x="1050.93" y="715.64" width="81.05" height="43.53" rx="12" ry="12"/><rect class="cls-5" x="1050.93" y="763.47" width="81.05" height="43.53" rx="12" ry="12"/><rect class="cls-5" x="1050.93" y="811.29" width="81.05" height="43.53" rx="12" ry="12"/><rect class="cls-5" x="1050.93" y="859.11" width="81.05" height="43.53" rx="12" ry="12"/><rect class="cls-5" x="1473.02" y="715.64" width="57.76" height="43.53" rx="12" ry="12"/><rect class="cls-5" x="1473.02" y="763.47" width="57.76" height="43.53" rx="12" ry="12"/><rect class="cls-5" x="1473.02" y="811.29" width="57.76" height="43.53" rx="12" ry="12"/><rect class="cls-5" x="1473.02" y="859.11" width="57.76" height="43.53" rx="12" ry="12"/><g class="cls-6"><path class="cls-1" d="M246.87,902.64h11.62c6.12,0,11.08-4.39,11.08-9.81V868.92c0-5.42-5-9.81-11.08-9.81H228.74c-6.12,0-11.08,4.39-11.08,9.81v23.91c0,5.42,5,9.81,11.08,9.81Z"/><path class="cls-1" d="M246.87,854.81h11.62c6.12,0,11.08-4.39,11.08-9.81V821.1c0-5.42-5-9.81-11.08-9.81H228.74c-6.12,0-11.08,4.39-11.08,9.81V845c0,5.42,5,9.81,11.08,9.81Z"/><path class="cls-1" d="M246.87,807h11.62c6.12,0,11.08-4.39,11.08-9.81V773.27c0-5.42-5-9.81-11.08-9.81H228.74c-6.12,0-11.08,4.39-11.08,9.81v23.91c0,5.42,5,9.81,11.08,9.81Z"/><path class="cls-1" d="M246.87,759.17h11.62c6.12,0,11.08-4.39,11.08-9.81V725.45c0-5.42-5-9.81-11.08-9.81H228.74c-6.12,0-11.08,4.39-11.08,9.81v23.91c0,5.42,5,9.81,11.08,9.81Z"/></g></g><g class="cls-7"><path class="cls-1" d="M257.91,709.55H244.3a11.51,11.51,0,0,1-10-17.23,123.56,123.56,0,0,1,21.43-27.66,19.13,19.13,0,0,1,25-1.36l11.58,9a11,11,0,0,1-.48,17.71c-5.42,3.76-12,12-17.06,16.5C270.07,710.78,264.28,709.55,257.91,709.55Z"/><path class="cls-1" d="M286.13,654.92,300,669.78a9.56,9.56,0,0,0,11.55,1.9,262.26,262.26,0,0,1,27.56-13.08l5.84-2.28a9.57,9.57,0,0,0,4.72-13.84l-10.79-18a9.59,9.59,0,0,0-10.38-4.4c-9.84,2.25-28.16,8-42.07,21.47A9.55,9.55,0,0,0,286.13,654.92Z"/><path class="cls-1" d="M351.1,622.21l6.41,17.22a9.56,9.56,0,0,0,10.74,6.07c8.78-1.66,23.13-4.2,33.9-5.26a9.57,9.57,0,0,0,8.49-11.2l-3.29-18.49a9.57,9.57,0,0,0-10.19-7.86,212.09,212.09,0,0,0-39.63,7A9.59,9.59,0,0,0,351.1,622.21Z"/><path class="cls-1" d="M418.92,606.95v19.63a9.56,9.56,0,0,0,9.89,9.56c10.63-.37,27.77-.24,40.89,3.32a9.57,9.57,0,0,0,12-7.84l3-20.23a9.57,9.57,0,0,0-8-10.84c-11.51-1.84-31.68-4.41-48.87-3.16A9.58,9.58,0,0,0,418.92,606.95Z"/><path class="cls-1" d="M494.84,645.43a229.46,229.46,0,0,1,31.07,9.29,9.55,9.55,0,0,0,12.37-5.34l10.27-25.58a9.56,9.56,0,0,0-5.71-12.59c-9.74-3.38-25.69-8.1-41.06-9a9.59,9.59,0,0,0-10,7.93l-4.19,24.3A9.56,9.56,0,0,0,494.84,645.43Z"/><path class="cls-1" d="M553.35,665.76c8,3.61,20,9.49,30.15,16.49A9.59,9.59,0,0,0,596.78,680l17.5-24.6a9.56,9.56,0,0,0-2.88-13.75c-9.82-5.87-26-15-38.75-19.2A9.58,9.58,0,0,0,561,627.32l-12.31,25.56A9.57,9.57,0,0,0,553.35,665.76Z"/><path class="cls-1" d="M608.55,696.43a66.49,66.49,0,0,1,11.1,7.09,15,15,0,0,0,14.91,2.43l15.58-6A16,16,0,0,0,656,673.92c-4.11-4.26-8.68-8.74-13.28-12.75a16.13,16.13,0,0,0-23.5,2.57l-13.81,18.5A9.56,9.56,0,0,0,608.55,696.43Z"/></g><g class="cls-7"><path class="cls-1" d="M704.38,709.55H691.83c-8.15,0-13.25-9.55-9.21-17.23a123,123,0,0,1,19.76-27.66,16.63,16.63,0,0,1,23.07-1.36l10.68,9a11.56,11.56,0,0,1-.44,17.71c-5,3.76-11.07,12-15.73,16.5C715.59,710.78,710.25,709.55,704.38,709.55Z"/><path class="cls-1" d="M730.4,654.92l12.77,14.86a8.33,8.33,0,0,0,10.65,1.9,234,234,0,0,1,25.41-13.08l5.38-2.28c5.09-2.15,7.17-8.76,4.36-13.84l-9.95-18a8.57,8.57,0,0,0-9.57-4.4c-9.07,2.25-26,8-38.79,21.47A10.13,10.13,0,0,0,730.4,654.92Z"/><path class="cls-1" d="M790.31,622.21l5.91,17.22a8.73,8.73,0,0,0,9.9,6.07c8.1-1.66,21.33-4.2,31.26-5.26,5.12-.55,8.73-5.7,7.83-11.2l-3-18.49c-.8-4.86-4.86-8.25-9.4-7.86a181.76,181.76,0,0,0-36.54,7C791.25,611.16,788.5,616.94,790.31,622.21Z"/><path class="cls-1" d="M852.85,606.95v19.63c0,5.41,4.13,9.75,9.12,9.56,9.8-.37,25.61-.24,37.7,3.32,5.11,1.5,10.28-2.15,11.05-7.84l2.74-20.23c.7-5.18-2.57-10-7.34-10.84-10.61-1.84-29.21-4.41-45.06-3.16C856.44,597.76,852.85,601.92,852.85,606.95Z"/><path class="cls-1" d="M922.86,645.43a199.33,199.33,0,0,1,28.65,9.29c4.5,1.93,9.6-.47,11.4-5.34l9.47-25.58c1.87-5.06-.52-10.8-5.27-12.59-9-3.38-23.69-8.1-37.86-9a9,9,0,0,0-9.23,7.93l-3.87,24.3C915.36,639.48,918.3,644.29,922.86,645.43Z"/><path class="cls-1" d="M976.8,665.76c7.4,3.61,18.45,9.49,27.8,16.49a8.41,8.41,0,0,0,12.25-2.29l16.13-24.6a10,10,0,0,0-2.65-13.75c-9.06-5.87-24-15-35.73-19.2a8.6,8.6,0,0,0-10.77,4.92l-11.35,25.56C970.31,657.73,972.27,663.55,976.8,665.76Z"/><path class="cls-1" d="M1027.71,696.43a60.93,60.93,0,0,1,10.23,7.09,13,13,0,0,0,13.75,2.43l14.36-6c9.87-4.11,12.69-17.8,5.36-26.05-3.79-4.26-8-8.74-12.25-12.75-6.52-6.15-16.5-4.94-21.67,2.57l-12.73,18.5C1021.52,687,1022.91,693.69,1027.71,696.43Z"/></g><g class="cls-7"><path class="cls-1" d="M1129.51,709.55h-12.76c-8.29,0-13.47-9.55-9.36-17.23a123,123,0,0,1,20.09-27.66,17.1,17.1,0,0,1,23.45-1.36l10.85,9a11.44,11.44,0,0,1-.45,17.71c-5.08,3.76-11.25,12-16,16.5C1140.91,710.78,1135.48,709.55,1129.51,709.55Z"/><path class="cls-1" d="M1156,654.92l13,14.86a8.56,8.56,0,0,0,10.82,1.9,239.34,239.34,0,0,1,25.83-13.08l5.47-2.28c5.17-2.15,7.29-8.76,4.43-13.84l-10.11-18a8.76,8.76,0,0,0-9.73-4.4c-9.22,2.25-26.4,8-39.43,21.47A10,10,0,0,0,1156,654.92Z"/><path class="cls-1" d="M1216.86,622.21l6,17.22a8.89,8.89,0,0,0,10.07,6.07c8.23-1.66,21.69-4.2,31.78-5.26,5.21-.55,8.87-5.7,8-11.2l-3.08-18.49a9.1,9.1,0,0,0-9.55-7.86,187.51,187.51,0,0,0-37.14,7C1217.82,611.16,1215,616.94,1216.86,622.21Z"/><path class="cls-1" d="M1280.44,606.95v19.63c0,5.41,4.2,9.75,9.27,9.56,10-.37,26-.24,38.33,3.32,5.2,1.5,10.45-2.15,11.23-7.84l2.79-20.23c.71-5.18-2.61-10-7.46-10.84-10.79-1.84-29.7-4.41-45.81-3.16A9.35,9.35,0,0,0,1280.44,606.95Z"/><path class="cls-1" d="M1351.6,645.43a205,205,0,0,1,29.13,9.29,8.78,8.78,0,0,0,11.59-5.34l9.63-25.58c1.9-5.06-.53-10.8-5.36-12.59-9.13-3.38-24.08-8.1-38.49-9a9.14,9.14,0,0,0-9.38,7.93l-3.93,24.3A9.57,9.57,0,0,0,1351.6,645.43Z"/><path class="cls-1" d="M1406.44,665.76c7.52,3.61,18.75,9.49,28.26,16.49a8.64,8.64,0,0,0,12.45-2.29l16.4-24.6a9.94,9.94,0,0,0-2.7-13.75c-9.21-5.87-24.38-15-36.33-19.2a8.78,8.78,0,0,0-11,4.92L1402,652.88A9.84,9.84,0,0,0,1406.44,665.76Z"/><path class="cls-1" d="M1458.19,696.43a62,62,0,0,1,10.4,7.09,13.33,13.33,0,0,0,14,2.43l14.6-6c10-4.11,12.9-17.8,5.45-26.05-3.85-4.26-8.13-8.74-12.45-12.75a14.52,14.52,0,0,0-22,2.57l-12.94,18.5A9.91,9.91,0,0,0,1458.19,696.43Z"/></g></g><polygon class="cls-8" points="223.98 137.65 223.98 598.67 275.98 598.67 275.98 154.13 223.98 137.65"/><path class="cls-9" d="M269.67,440.67c-1.37-20-8.05-34.33-16.09-34.33s-14.71,14.33-16.09,34.33H237v149h33v-149Z"/><path class="cls-10" d="M264.95,440.67c-1.37-20-8.05-34.33-16.09-34.33s-14.71,14.33-16.09,34.33H233v149h32v-149Z"/><polygon class="cls-8" points="132.05 17.45 159.37 137.67 224.94 137.67 190.34 30.2 132.05 17.45"/><path class="cls-8" d="M75.54,235.67c-1.54-12-9-21-18-21s-16.5,9-18,21H39v92H76v-92Z"/><path class="cls-10" d="M82.49,235.67c-1.54-12-9-21-18-21s-16.5,9-18,21H45v92H83v-92Z"/><path class="cls-8" d="M136.52,235.67c-1.54-12-9-21-18-21s-16.5,9-18,21H100v92h38v-92Z"/><path class="cls-10" d="M143.47,235.67c-1.54-12-9-21-18-21s-16.5,9-18,21H107v92h37v-92Z"/><path class="cls-8" d="M200.23,235.67c-1.54-12-9-21-18-21s-16.5,9-18,21H164v92h37v-92Z"/><path class="cls-10" d="M207.19,235.67c-1.54-12-9-21-18-21s-16.5,9-18,21H170v92h38v-92Z"/><path class="cls-8" d="M244.68,235.67c-.49-12-2.87-21-5.73-21s-5.24,9-5.73,21H233v92h12v-92Z"/><path class="cls-10" d="M246.89,235.67c-.49-12-2.87-21-5.73-21s-5.24,9-5.73,21H236v92h11v-92Z"/><path class="cls-8" d="M264.92,235.67c-.49-12-2.87-21-5.73-21s-5.24,9-5.73,21H253v92h12v-92Z"/><path class="cls-10" d="M267.05,235.67c-.49-12-2.83-21-5.69-21s-5.2,9-5.69,21H256v92h11v-92Z"/><polygon class="cls-10" points="129.02 56.1 106.55 138.67 148.44 138.67 129.02 56.1"/><polygon class="cls-8" points="132.05 72.59 114.44 138.67 106.55 138.67 129.02 56.3 132.05 72.59"/><path class="cls-2" d="M224,139.47V86.65L200.3,139.47S215,148.27,224,139.47Z"/><polygon class="cls-8" points="223.98 86.65 223.98 139.47 234.88 143.38 223.98 86.65"/><rect class="cls-8" x="32.33" y="153.67" width="17.14" height="17.14"/><rect class="cls-10" x="36.14" y="153.67" width="17.14" height="17.14"/><rect class="cls-8" x="63.75" y="153.67" width="17.14" height="17.14"/><rect class="cls-10" x="67.56" y="153.67" width="17.14" height="17.14"/><rect class="cls-8" x="95.17" y="153.67" width="17.14" height="17.14"/><rect class="cls-10" x="98.98" y="153.67" width="17.14" height="17.14"/><rect class="cls-8" x="126.59" y="153.67" width="17.14" height="17.14"/><rect class="cls-10" x="130.4" y="153.67" width="17.14" height="17.14"/><rect class="cls-8" x="158.01" y="153.67" width="17.14" height="17.14"/><rect class="cls-10" x="161.82" y="153.67" width="17.14" height="17.14"/><rect class="cls-8" x="189.43" y="153.67" width="17.14" height="17.14"/><rect class="cls-10" x="193.23" y="153.67" width="17.14" height="17.14"/><rect class="cls-8" x="234.05" y="153.67" width="7.21" height="17.14"/><rect class="cls-10" x="235.65" y="153.67" width="7.21" height="17.14"/><polygon class="cls-8" points="224.03 138.67 275.98 138.67 275.98 178.63 224.03 138.67"/><rect class="cls-8" x="247.26" y="153.67" width="7.21" height="17.14"/><rect class="cls-10" x="248.86" y="153.67" width="7.21" height="17.14"/><rect class="cls-8" x="260.47" y="153.67" width="7.21" height="17.14"/><rect class="cls-10" x="262.07" y="153.67" width="7.21" height="17.14"/><polygon class="cls-8" points="232.64 330.06 270.98 351.74 270.98 374.89 229.17 352.47 232.64 330.06"/><polygon class="cls-8" points="275.98 138.67 275.98 86.65 257.73 138.67 275.98 138.67"/><rect class="cls-11" y="352.47" width="244.98" height="28.33"/><rect class="cls-11" x="224.03" y="553.02" width="1314.23" height="31.14"/><rect class="cls-12" x="1536.99" y="553.02" width="68.58" height="31.14"/><rect class="cls-12" x="244.98" y="352.47" width="44.62" height="28.33"/><g class="cls-13"><rect class="cls-14" x="39.16" y="401.75" width="43.71" height="25.06" rx="11.63" ry="11.63"/><rect class="cls-15" x="59.03" y="419.1" width="43.71" height="25.06" rx="11.63" ry="11.63"/><rect class="cls-15" x="145.57" y="482.71" width="43.71" height="25.06" rx="11.63" ry="11.63"/><rect class="cls-15" x="86.68" y="528" width="43.71" height="25.06" rx="11.63" ry="11.63"/><rect class="cls-15" x="137.54" y="602.21" width="43.71" height="25.06" rx="11.63" ry="11.63"/><rect class="cls-15" x="153.61" y="627.27" width="43.71" height="25.06" rx="11.63" ry="11.63"/><rect class="cls-15" x="54.27" y="638.48" width="43.71" height="25.06" rx="11.63" ry="11.63"/><rect class="cls-15" x="62.84" y="747.08" width="43.71" height="25.06" rx="11.63" ry="11.63"/><rect class="cls-15" x="148.44" y="782.43" width="43.71" height="25.06" rx="11.63" ry="11.63"/></g><rect class="cls-11" y="553.02" width="244.98" height="45.45"/><rect class="cls-12" x="244.98" y="553.02" width="44.62" height="45.45"/><g class="cls-16"><path class="cls-17" d="M232.77,722.62s20.71-3.64,25,4.86,7,15.33,7,15.33S272.78,711.69,232.77,722.62Z"/><path class="cls-17" d="M232.77,772.71s20.71-3.64,25,4.86,7,15.33,7,15.33S272.78,761.78,232.77,772.71Z"/><path class="cls-17" d="M232.77,822.8s20.71-3.64,25,4.86,7,15.33,7,15.33S272.78,811.87,232.77,822.8Z"/><path class="cls-17" d="M669.91,722.62s20.71-3.64,25,4.86,7,15.33,7,15.33S709.92,711.69,669.91,722.62Z"/><path class="cls-17" d="M669.91,772.71s20.71-3.64,25,4.86,7,15.33,7,15.33S709.92,761.78,669.91,772.71Z"/><path class="cls-17" d="M669.91,822.8s20.71-3.64,25,4.86,7,15.33,7,15.33S709.92,811.87,669.91,822.8Z"/><path class="cls-17" d="M1095.21,722.62s20.71-3.64,25,4.86,7,15.33,7,15.33S1135.22,711.69,1095.21,722.62Z"/><path class="cls-17" d="M1095.21,772.71s20.71-3.64,25,4.86,7,15.33,7,15.33S1135.22,761.78,1095.21,772.71Z"/><path class="cls-17" d="M1095.21,822.8s20.71-3.64,25,4.86,7,15.33,7,15.33S1135.22,811.87,1095.21,822.8Z"/><path class="cls-17" d="M1495,722.62s20.71-3.64,25,4.86,7,15.33,7,15.33S1535,711.69,1495,722.62Z"/><path class="cls-17" d="M1495,772.71s20.71-3.64,25,4.86,7,15.33,7,15.33S1535,761.78,1495,772.71Z"/><path class="cls-17" d="M1495,822.8s20.71-3.64,25,4.86,7,15.33,7,15.33S1535,811.87,1495,822.8Z"/></g><rect class="cls-15" x="1066.19" y="609.6" width="50.54" height="17.67" rx="8.2" ry="8.2"/><rect class="cls-18" x="1502.32" y="618.43" width="50.54" height="17.67" rx="8.2" ry="8.2"/><polygon class="cls-2" points="128.72 35.39 131.76 0 133.29 35.78 128.72 35.39"/><polygon class="cls-8" points="187 45.4 190.05 10.02 191.58 45.8 187 45.4"/></g></g></svg>