<svg xmlns="http://www.w3.org/2000/svg" viewBox="0 0 2043 162.59"><defs><style>.cls-1{fill:#88c9ff;}</style></defs><title>water highAsset 67</title><g id="Layer_2" data-name="Layer 2"><g id="Layer_5" data-name="Layer 5"><path class="cls-1" d="M1994.5,40c-26.88,0-48.59-17.89-48.59-40,0,22.07-21.75,40-48.63,40s-48.65-17.89-48.65-40c0,22.07-21.78,40-48.66,40s-48.66-17.89-48.66-40c0,22.07-21.79,40-48.67,40S1654,22.07,1654,0c0,22.07-21.79,40-48.67,40s-48.67-17.89-48.67-40c0,22.07-21.79,40-48.67,40s-48.67-17.89-48.67-40c0,22.07-21.79,40-48.67,40S1362,22.07,1362,0c0,22.07-21.79,40-48.67,40s-48.67-17.89-48.67-40c0,22.07-21.79,40-48.67,40s-48.67-17.89-48.67-40c0,22.07-21.79,40-48.67,40S1070,22.07,1070,0c0,22.07-21.79,40-48.67,40S972.64,22.07,972.64,0c0,22.07-21.79,40-48.67,40S875.3,22.07,875.3,0c0,22.07-21.79,40-48.67,40S778,22.07,778,0c0,22.07-21.79,40-48.67,40S680.63,22.07,680.63,0c0,22.07-21.79,40-48.67,40S583.29,22.07,583.29,0c0,22.07-21.79,40-48.67,40S486,22.07,486,0c0,22.07-21.79,40-48.67,40S388.62,22.07,388.62,0c0,22.07-21.79,40-48.67,40S291.29,22.07,291.29,0c0,22.07-21.79,40-48.67,40S194,22.07,194,0c0,22.07-21.79,40-48.67,40S96.62,22.07,96.62,0c0,22.07-21.43,40-48.31,40a58.65,58.65,0,0,1-11-1c-5,6.46-11.75,10.67-20.83,12.61C4.82,54-.11,36.14,11.54,33.66A32.48,32.48,0,0,0,17.18,32a9.89,9.89,0,0,1-8-3.63C6.68,32,4.26,35.56,2,39.26a9.19,9.19,0,0,1-2,2.31v121H2043V0C2043,22.07,2021.37,40,1994.5,40Z"/></g></g></svg>