<svg xmlns="http://www.w3.org/2000/svg" viewBox="0 0 2043 162.26"><defs><style>.cls-1{fill:#4eb0f2;}</style></defs><title>water centerAsset 66</title><g id="Layer_2" data-name="Layer 2"><g id="Layer_5" data-name="Layer 5"><path class="cls-1" d="M1994.5,40c-26.88,0-48.59-17.89-48.59-40,0,22.07-21.75,40-48.63,40s-48.65-17.89-48.65-40c0,22.07-21.78,40-48.66,40s-48.66-17.89-48.66-40c0,22.07-21.79,40-48.67,40S1654,22.07,1654,0c0,22.07-21.79,40-48.67,40s-48.67-17.89-48.67-40c0,22.07-21.79,40-48.67,40s-48.67-17.89-48.67-40c0,22.07-21.79,40-48.67,40S1362,22.07,1362,0c0,22.07-21.79,40-48.67,40s-48.67-17.89-48.67-40c0,22.07-21.79,40-48.67,40s-48.67-17.89-48.67-40c0,22.07-21.79,40-48.67,40S1070,22.07,1070,0c0,22.07-21.79,40-48.67,40S972.64,22.07,972.64,0c0,22.07-21.79,40-48.67,40S875.3,22.07,875.3,0c0,22.07-21.79,40-48.67,40S778,22.07,778,0c0,22.07-21.79,40-48.67,40S680.63,22.07,680.63,0c0,22.07-21.79,40-48.67,40S583.29,22.07,583.29,0c0,22.07-21.79,40-48.67,40S486,22.07,486,0c0,22.07-21.79,40-48.67,40S388.62,22.07,388.62,0c0,22.07-21.79,40-48.67,40S291.29,22.07,291.29,0c0,22.07-21.79,40-48.67,40S194,22.07,194,0c0,22.07-21.79,40-48.67,40S96.62,22.07,96.62,0c0,22.07-21.43,40-48.31,40S0,22.07,0,0V162.26H2043V0C2043,22.07,2021.37,40,1994.5,40Z"/></g></g></svg>