<svg xmlns="http://www.w3.org/2000/svg" viewBox="0 0 2271.7 123.24"><defs><style>.cls-1{fill:#144c3b;}.cls-2{fill:#2bb254;}</style></defs><title>grass aloneAsset 80</title><g id="Layer_2" data-name="Layer 2"><g id="Layer_5" data-name="Layer 5"><path class="cls-1" d="M0,121.35S12.86,35.48,60,60.86l47.16,25.38S84,10.31,147.74,23.61s23.75,70.9,23.75,70.9,15-24.73,32.5-11.76l17.52,13s-2.86-49.36,18.58-56.94,34.3,4.66,34.3,4.66S269.84-5.52,310.7.52s0,89.9,0,89.9S321.54,60.2,343,74.17l21.44,14S361.78-.08,412.28,16.7s48,66.05,48,66.05,7.26-69.77,48.6-49.27,22.14,61,22.14,61,28.18-22.7,36.55-4.1l8.37,18.6S538,61.55,584.13,38.79s61,46.4,61,46.4,22.05-35.29,30.75-11,0,32.38,0,32.38S679,54,713.19,73.91s39.31,32.64,39.31,32.64,10.17-104,79-71.36,66,69.25,66,69.25-3-76.92,41.56-48.23,34,48.23,34,48.23,14.43-46,34.43-21.67l20,24.36s-43-65,11.35-84.66,70.59,1.16,70.59,1.16l5.24,66.8s17.22-13,31.26,5.48l14,18.45s-9.89-40.46,25.28-51.36,33.88,59.31,33.88,59.31,11.29-46.69,28.44-31.88l17.15,14.81s-45.19-101.76,41-97.37,36,115.39,36,115.39,59-91.11,83.88-60.26,36.3,51.36,36.3,51.36,4.29-63.23,42.87-51.36,28.58,59.31,28.58,59.31,17.15-33.84,34.3-17.87l17.15,16h0Z"/><path class="cls-1" d="M2265.07,106.6c-.56-4.63-1-9.26-1.3-13.9-.26,4.2-.29,7.68-.28,9.72-.57-8.07-6.74-39.11-66-67.24-68.82-32.66-79,71.36-79,71.36s-5.1-12.71-39.31-32.64c-20.09-11.7-29.45,1.61-33.76,14.58a65.65,65.65,0,0,0-3.55-14.32c-8.69-24.26-30.75,11-30.75,11s-14.92-69.15-61-46.4c-24.51,12.1-25.27,31.19-20.62,46.42-11-8-32.52,9.3-32.52,9.3s19.19-40.52-22.14-61-48.59,49.27-48.59,49.27,2.53-49.27-48-66.05-47.87,71.44-47.87,71.44l-21.44-14c-15.76-10.27-25.78,3.32-30,11.25,8-18.12,32.52-79.76-2.29-84.91-40.85-6-36.32,42.93-36.32,42.93s-12.86-12.23-34.3-4.66-18.58,56.94-18.58,56.94l-17.52-13c-15.22-11.27-28.52,5.91-31.75,10.61,5.19-8.13,34-57.56-24.5-69.76-63.76-13.3-40.56,62.63-40.56,62.63L1426,60.86c-47.16-25.38-60,60.48-60,60.48l903-.54v-7.12A10.4,10.4,0,0,1,2265.07,106.6Z"/><path class="cls-2" d="M48,122.12s12.6-50.78,58.82-35.77l46.22,15s-22.74-44.9,39.75-37,23.27,41.93,23.27,41.93,14.68-14.63,31.85-7L265.08,107s-2.8-29.19,18.21-33.67,33.61,2.75,33.61,2.75-4.44-29,35.59-25.39,0,53.16,0,53.16,10.63-17.87,31.63-9.6l21,8.26S402.55,50.32,452,60.24s47,39.06,47,39.06S506.17,58,546.68,70.17s21.7,36.09,21.7,36.09S596,92.83,604.2,103.83l8.2,11s-37.11-28.07,8.05-41.52,59.79,27.44,59.79,27.44,21.61-20.87,30.13-6.52,0,19.15,0,19.15,3-31.08,36.57-19.3,38.52,19.3,38.52,19.3,10-61.51,77.41-42.2,64.73,40.95,64.73,40.95-3-45.48,40.73-28.52,33.28,28.52,33.28,28.52,14.14-27.22,33.75-12.82L1055,113.71s-42.18-38.42,11.12-50.06,69.18.68,69.18.68l5.13,39.5s16.88-7.67,30.64,3.24L1184.79,118s-9.69-23.93,24.77-30.37,33.2,35.07,33.2,35.07,11.07-27.61,27.87-18.85l16.81,8.76S1243.15,52.41,1327.62,55s35.31,68.24,35.31,68.24,57.83-53.88,82.2-35.63S1480.71,118,1480.71,118s4.2-37.39,42-30.37,28,35.07,28,35.07,16.81-20,33.61-10.57l16.81,9.44h0Z"/><path class="cls-2" d="M2267.81,113.4c-.54-2.74-1-5.48-1.27-8.22a50.63,50.63,0,0,0-.27,5.75c-.56-4.77-6.6-23.13-64.69-39.76-67.45-19.31-77.41,42.2-77.41,42.2s-5-7.52-38.52-19.3c-19.69-6.92-28.86,1-33.08,8.62a27.06,27.06,0,0,0-3.48-8.47c-8.52-14.35-30.13,6.52-30.13,6.52s-14.62-40.89-59.79-27.44c-24,7.16-24.77,18.45-20.2,27.45-10.8-4.74-31.87,5.5-31.87,5.5s18.81-24-21.7-36.09-47.62,29.13-47.62,29.13,2.48-29.13-47-39.06-46.92,42.24-46.92,42.24l-21-8.26c-15.44-6.07-25.27,2-29.39,6.65,7.85-10.72,31.87-47.17-2.24-50.21-40-3.57-35.59,25.39-35.59,25.39S1643,68.83,1622,73.31,1603.78,107,1603.78,107l-17.17-7.67c-14.92-6.67-27.95,3.5-31.11,6.28,5.08-4.81,33.28-34-24-41.25-62.49-7.86-39.75,37-39.75,37l-46.22-15c-46.22-15-58.82,35.77-58.82,35.77l885-.32v-4.21C2269.72,116.67,2268.17,115.23,2267.81,113.4Z"/></g></g></svg>