<svg xmlns="http://www.w3.org/2000/svg" viewBox="0 0 336.72 74.31"><defs><style>.cls-1{fill:#fff;}</style></defs><title>highlightsAsset 59</title><g id="Layer_2" data-name="Layer 2"><g id="Layer_5" data-name="Layer 5"><path class="cls-1" d="M0,59.12V0H15.68V22.17h8.79V0H40.15V59.12H24.47v-24H15.68v24Z"/><path class="cls-1" d="M46.39,11.25V0H61.17V11.25Zm0,47.87V14.78H61.17V59.12Z"/><path class="cls-1" d="M89.17,20.53V14.78h14.21V58.54q0,7.31-3.48,11T88.63,74.14a23.89,23.89,0,0,1-3.2.17H82.32q-7,0-10.36-2.46a10.8,10.8,0,0,1-4.22-7.31,13.23,13.23,0,0,1-.16-1.72v-1h13.3v.49a3.45,3.45,0,0,0,3.37,3.2q4.93.66,4.93-5.5V52l-.66,1.23a10.62,10.62,0,0,1-4,3.9,13.09,13.09,0,0,1-5.83,1.11q-5.91,0-9.52-5.82A21.3,21.3,0,0,1,66.79,46a46.47,46.47,0,0,1-.86-9.75q0-10.65,3-16.15a10.82,10.82,0,0,1,8-6,25.42,25.42,0,0,1,3.2-.25,8.83,8.83,0,0,1,4.8,1.18,11.4,11.4,0,0,1,3.49,4Zm-8.29,18.8a15,15,0,0,0,.62,5.09,4.94,4.94,0,0,0,1.87,2.38,3.08,3.08,0,0,0,1.74.49,3.52,3.52,0,0,0,3.15-2.05,10.19,10.19,0,0,0,.87-3,36.51,36.51,0,0,0,.29-5.34,50.22,50.22,0,0,0-.41-8,5.83,5.83,0,0,0-1.64-3.24,3,3,0,0,0-2.05-.82,3,3,0,0,0-1.44.37,6,6,0,0,0-1.48,1.19q-.78.82-1.15,3.65a44.76,44.76,0,0,0-.37,5.79v3.45Z"/><path class="cls-1" d="M109.28,59.12V0h14.78V19l1-1.31a13.39,13.39,0,0,1,3.65-3,9.54,9.54,0,0,1,3.53-1.15q1.68-.16,2.67-.16a11.36,11.36,0,0,1,2.38.25q4.84.91,6.77,3.65T146,26.11v33H131.21v-30a5.55,5.55,0,0,0-1-3.82,3.31,3.31,0,0,0-3.11-.78q-2.66.49-3,3.94V59.12Z"/><path class="cls-1" d="M151.9,59.12V0h14.78V59.12Z"/><path class="cls-1" d="M172.59,11.25V0h14.78V11.25Zm0,47.87V14.78h14.78V59.12Z"/><path class="cls-1" d="M215.37,20.53V14.78h14.21V58.54q0,7.31-3.48,11t-11.26,4.64a23.89,23.89,0,0,1-3.2.17h-3.11q-7,0-10.36-2.46a10.8,10.8,0,0,1-4.22-7.31,13.23,13.23,0,0,1-.16-1.72v-1h13.3v.49a3.45,3.45,0,0,0,3.37,3.2q4.93.66,4.93-5.5V52l-.66,1.23a10.62,10.62,0,0,1-4,3.9,13.09,13.09,0,0,1-5.83,1.11q-5.91,0-9.52-5.82A21.3,21.3,0,0,1,193,46a46.47,46.47,0,0,1-.86-9.75q0-10.65,3-16.15a10.82,10.82,0,0,1,8-6,25.42,25.42,0,0,1,3.2-.25,8.83,8.83,0,0,1,4.8,1.18,11.4,11.4,0,0,1,3.49,4Zm-8.29,18.8a15,15,0,0,0,.62,5.09,4.94,4.94,0,0,0,1.87,2.38,3.08,3.08,0,0,0,1.74.49,3.52,3.52,0,0,0,3.15-2.05,10.19,10.19,0,0,0,.87-3,36.51,36.51,0,0,0,.29-5.34,50.22,50.22,0,0,0-.41-8,5.83,5.83,0,0,0-1.64-3.24,3,3,0,0,0-2.05-.82,3,3,0,0,0-1.44.37,6,6,0,0,0-1.48,1.19q-.78.82-1.15,3.65a44.76,44.76,0,0,0-.37,5.79v3.45Z"/><path class="cls-1" d="M235.48,59.12V0h14.78V19l1-1.31a13.39,13.39,0,0,1,3.65-3,9.54,9.54,0,0,1,3.53-1.15q1.68-.16,2.67-.16a11.36,11.36,0,0,1,2.38.25q4.84.91,6.77,3.65t1.93,8.91v33H257.41v-30a5.55,5.55,0,0,0-1-3.82,3.31,3.31,0,0,0-3.11-.78q-2.66.49-3,3.94V59.12Z"/><path class="cls-1" d="M274.48,24.8v-10h5.42V1.89h14.78V14.78h5.75v10h-5.75V46.15q0,3.37,3,3.37h2.71v9.58q-1.65.25-3.05.41a24.58,24.58,0,0,1-2.88.17H290a6.22,6.22,0,0,1-1.15-.08q-5.19-.49-6.84-2.13t-2.06-6.81V24.8Z"/><path class="cls-1" d="M301.33,45.16h13.38v1.31q0,4.93,4.1,4.93h.84A3.42,3.42,0,0,0,323,48.6a4.8,4.8,0,0,0,.08-1.07,4.22,4.22,0,0,0-1.49-3.13l-.66-.49-.41-.16-.42-.16-9.43-3.46a12.75,12.75,0,0,1-8.77-10.45,22.16,22.16,0,0,1-.17-2.3,10.86,10.86,0,0,1,.33-2.8A12.66,12.66,0,0,1,306.38,17q3.24-2.59,9.57-3.33.82-.08,1.6-.12t1.93,0h2.13a8.17,8.17,0,0,0,1.31.16q6.73.74,9.85,3.65t3.12,8.25v2.05H323.09V26.36q0-3.86-3.61-3.86h-.9a3.13,3.13,0,0,0-2.26.82,2.73,2.73,0,0,0-.86,2.06,3.18,3.18,0,0,0,2.13,3.54l.58.25.49.17,10.59,3.79A12.34,12.34,0,0,1,334.92,37q1.8,2.43,1.81,7,0,7.65-4.19,11.85-4.52,4.53-13.22,4.53a35.21,35.21,0,0,1-4-.25q-14-1.48-14-13.79Z"/></g></g></svg>