<svg xmlns="http://www.w3.org/2000/svg" viewBox="0 0 788 261.63"><defs><style>.cls-1{fill:#7032a0;}.cls-2{fill:#421e66;opacity:0.22;}.cls-3{fill:#8947c9;}.cls-4{fill:#9960ea;}</style></defs><title>mountainAsset 57</title><g id="Layer_2" data-name="Layer 2"><g id="Layer_5" data-name="Layer 5"><path class="cls-1" d="M788,261.63,451.88,17.92s-47.73-40.42-103.07.15S0,261.63,0,261.63Z"/><path class="cls-2" d="M236,97.69s-33,88.52,27.15,118S788,261.63,788,261.63H0Z"/><path class="cls-3" d="M284.52,63.62l-29.6,20.74s36.53-16.75,44.47-17.62,23.12,18.41,33.67,27.48,14.26.14,30.55-14.1,44.71-22.19,61.69-7.44,29,33.17,46.21,18.28,26-40.05,53.51-20.08l-73.15-53S397.49-39.69,289.3,60.27"/><path class="cls-4" d="M316.19,42.72,294.62,56.5S321.24,45.37,327,44.79,343.88,57,351.58,63s10.39.1,22.27-9.37,32.59-14.74,45-4.94,21.11,22,33.69,12.14,18.92-26.6,39-13.34L438.19,12.32S398.54-25.9,319.67,40.5"/><path class="cls-2" d="M134.07,168.44s-18.72,50.31,15.43,67.06,298.26,26.12,298.26,26.12H0Z"/></g></g></svg>