<svg xmlns="http://www.w3.org/2000/svg" viewBox="0 0 812.82 133.8"><defs><style>.cls-1{fill:#ffe473;}.cls-2{fill:#4f3920;opacity:0.2;}</style></defs><title>waterblockinglandAsset 50</title><g id="Layer_2" data-name="Layer 2"><g id="Layer_5" data-name="Layer 5"><path class="cls-1" d="M385.47,0s126,1.25,160.77,56.84S570,133.24,570,133.24H373.85Z"/><path class="cls-1" d="M540.34,48.81s118.2-50,157.74,13.51-7.91,70.92-7.91,70.92H570L546.24,56.82Z"/><path class="cls-1" d="M713.81,95.36s76.16-29.12,99,37.88H655.37Z"/><path class="cls-2" d="M532.8,48.81s-33.2,14.81-39.85,53.3-6.56,31.13-6.56,31.13H388.28S439.49,4.78,540.34,48.86"/><path class="cls-2" d="M713.71,95.36s-27.83,15.88-23.54,37.88H626.88S663.05,57.48,713.71,95.36Z"/><path class="cls-1" d="M403.69,0s-119,1.25-151.87,56.84-22.41,76.4-22.41,76.4H414.67Z"/><path class="cls-1" d="M257.4,48.81s-111.65-50-149,13.51,7.47,70.92,7.47,70.92H229.41l22.41-76.42Z"/><path class="cls-1" d="M93.53,95.36S21.59,66.24,0,133.24H148.73Z"/><path class="cls-2" d="M264.52,48.81s31.36,14.81,37.65,53.3,6.2,31.13,6.2,31.13H401S352.66,4.78,257.4,48.86"/><path class="cls-2" d="M93.62,95.36s26.29,15.88,22.24,37.88h59.79S141.47,57.48,93.62,95.36Z"/></g></g></svg>