<svg xmlns="http://www.w3.org/2000/svg" viewBox="0 0 255.73 345.88"><defs><style>.cls-1{fill:#49474c;}.cls-2{fill:#2f0c59;opacity:0.3;}.cls-3{fill:#ff3372;}.cls-4,.cls-8{fill:#c63939;}.cls-5{fill:#ff6464;}.cls-6{fill:#681f1f;}.cls-7{fill:#ffe269;}.cls-8{opacity:0.48;}.cls-9{fill:#7a1342;}.cls-10{fill:#ffcfda;}</style></defs><title>balloonAsset 94</title><g id="Layer_2" data-name="Layer 2"><g id="Layer_6" data-name="Layer 6"><path class="cls-1" d="M64,223.38s35.73,25,35.17,69.92l6.22.08S106,243.75,64,219.57Z"/><path class="cls-1" d="M206.11,213.94s-30.36,26-27.3,80.78l-4.42,5.05s-12.56-41.41,22.85-85.94Z"/><polygon class="cls-1" points="120.7 235.22 119.86 302.82 123.83 302.87 124.95 212.86 120.7 235.22"/><polygon class="cls-2" points="152.41 238.1 151.57 305.86 156.86 305.92 157.98 215.76 152.41 238.1"/><circle class="cls-3" cx="128.67" cy="120.77" r="120.77" transform="translate(6.32 247.93) rotate(-89.29)"/><rect class="cls-4" x="113.04" y="279.25" width="51.59" height="80.69" transform="translate(-182.45 454.45) rotate(-89.29)"/><rect class="cls-5" x="85.27" y="306.68" width="51.59" height="25.13" transform="translate(-209.53 426.34) rotate(-89.29)"/><rect class="cls-6" x="132.89" y="299.26" width="39.68" height="39.68" transform="translate(-168.23 467.87) rotate(-89.29)"/><rect class="cls-4" x="127.64" y="296.54" width="38.36" height="38.36" transform="translate(-170.69 458.62) rotate(-89.29)"/><rect class="cls-4" x="91.87" y="313.31" width="41" height="14.55" transform="translate(-209.58 428.97) rotate(-89.29)"/><rect class="cls-5" x="90.57" y="311.96" width="39.68" height="13.23" transform="translate(-209.51 425.03) rotate(-89.29)"/><path class="cls-7" d="M109,1.6S47,47.54,42.87,111.4s46.65,120.94,78.08,130C120.95,241.45,22.91,115.69,109,1.6Z"/><path class="cls-7" d="M109,1.6s47.94,150.23,12,239.85C120.95,241.45,236.92,127.47,109,1.6Z"/><path class="cls-7" d="M109,1.6s91.75,10.84,98.43,107.69-86.46,132.16-86.46,132.16,86.36-2.67,113.11-84.51S205.25,3.4,109,1.6Z"/><path class="cls-8" d="M16.18,164.77s23-24.69,35.52.44,38.8,21.7,52.61,11.91,41.33-19.19,53.62-6.7,35,16.51,48.63,6.72,26.52-28.28,35.29-14.18c0,0-26.91,79.65-114.68,78.56S16.18,164.77,16.18,164.77Z"/><path class="cls-9" d="M7.11,110.9s33.07,29,120.84,29.51,121.38-31.49,121.38-31.49l-.89-6.88s7.34,2,7.29,5.72-30.93,42.57-117.79,40.87S0,115.17,0,115.17s.59-12.44,7.21-12.36Z"/><path class="cls-10" d="M105.36,2.25s-90.52,37.65-89.18,115l-9-6.65S10.54,25.93,105.36,2.25Z"/><path class="cls-10" d="M12.18,121.52s9.31,103,115,120c0,0-114.2,1.78-119.26-122.25Z"/><path class="cls-10" d="M109,1.6s24.13,64,23.66,138.81C132.65,140.41,143.12,58,109,1.6Z"/><path class="cls-10" d="M205.47,143.49s-12.64,61.66-78.3,98C127.17,241.52,202.09,213.07,205.47,143.49Z"/><rect class="cls-10" x="98.85" y="293.57" width="3" height="51"/></g></g></svg>