<svg xmlns="http://www.w3.org/2000/svg" viewBox="0 0 54.81 54.81"><defs><style>.cls-1{fill:#fff;}.cls-2{fill:#272828;}</style></defs><title>ballAsset 122</title><g id="Layer_2" data-name="Layer 2"><g id="Layer_6" data-name="Layer 6"><path class="cls-1" d="M10.85,5.57l1.39-1Q11.53,5.05,10.85,5.57Z"/><polygon class="cls-1" points="37.17 6.63 29.09 14.39 29 14.41 29 24.26 39.57 31.13 48.86 25.63 46.68 10.12 37.17 6.63"/><path class="cls-1" d="M28.44,14.24l8.2-8.67L35.45,1.2A27.44,27.44,0,0,0,12.28,4.55L16,12.07Z"/><polygon class="cls-1" points="29 24.96 29 25.1 19.85 29.78 19.59 29.59 19.39 40.81 29.99 49.31 43.29 40.81 43.89 41.89 38.43 31.72 38.66 31.37 38.43 31.37 29 24.96"/><path class="cls-1" d="M50.23,24.87l4.52,4.23c0-.56.06-1.13.06-1.7a27.3,27.3,0,0,0-7-18.3l-1.08,1Z"/><path class="cls-1" d="M30,49.31,27,54.8h.42A27.38,27.38,0,0,0,50.2,42.62l-6.31-.73Z"/><path class="cls-1" d="M19.11,29.78l.21-.39-9.29-5,6-12.37L10.81,5.6A27.36,27.36,0,0,0,0,27.41l10-2.89-10,4.57A27.33,27.33,0,0,0,9.29,48l9.18-6.47Z"/><polygon class="cls-2" points="19.7 29.59 19.85 29.78 29 25.1 29 24.96 27 22.93 29 24.26 29 14.41 29.09 14.39 27.3 16.25 28.39 14.24 28.39 14.24 16.02 12.07 10.01 24.44 19.31 29.39 19.72 28.61 19.7 29.59"/><path class="cls-2" d="M50.23,24.87l-1.1,1.95L49,25.63l-9.18,5.28,1,.45H38.66l-.23.35L43.9,41.79l6.31.78a27.15,27.15,0,0,0,4.55-13.49Z"/><path class="cls-2" d="M37.6,4.55l.83.84L37.17,6.62l9.56,3.5,1.08-1A27.42,27.42,0,0,0,35.45,1.2l1.19,4.36Z"/><path class="cls-2" d="M19.44,40.81,18.38,43.1l.09-1.61L9.29,48A27.29,27.29,0,0,0,27,54.8l3-5.49Z"/><path class="cls-2" d="M0,29.12l.06,0C0,28.53,0,28,0,27.41Z"/><path class="cls-2" d="M0,27.41c0,.57,0,1.13.06,1.68l10-4.57Z"/><polygon class="cls-2" points="19.32 29.39 19.11 29.78 18.47 41.49 19.44 40.81 19.7 29.59 19.32 29.39"/><polygon class="cls-2" points="19.72 28.61 19.32 29.39 19.7 29.59 19.72 28.61"/><polygon class="cls-2" points="18.38 43.1 19.44 40.81 18.47 41.49 18.38 43.1"/><polygon class="cls-2" points="29 24.96 38.43 31.37 38.66 31.37 39.57 30.91 29 24.26 29 24.96"/><polygon class="cls-2" points="29 24.96 29 24.26 27 22.93 29 24.96"/><polygon class="cls-2" points="40.78 31.37 39.77 30.7 38.66 31.37 40.78 31.37"/><polygon class="cls-2" points="37.17 6.63 36.9 6.53 36.64 5.57 28.44 14.24 29.29 14.39 37.17 6.63"/><polygon class="cls-2" points="27.41 16.25 29.29 14.39 28.44 14.24 28.44 14.24 27.41 16.25"/><polygon class="cls-2" points="37.17 6.63 38.43 5.38 37.6 4.55 36.64 5.57 36.9 6.53 37.17 6.63"/><polygon class="cls-2" points="30.02 49.31 43.9 41.89 43.3 40.81 30.02 49.31"/><path class="cls-2" d="M10.81,5.6h0l0,0Z"/><path class="cls-2" d="M12.28,4.55l0,0,0,0Z"/><path class="cls-2" d="M12.28,4.55l0,0-1.39,1,0,0L16,12.07Z"/><polygon class="cls-2" points="48.96 25.63 50.23 24.87 46.73 10.12 48.96 25.63"/><polygon class="cls-2" points="49.13 26.82 50.23 24.87 48.96 25.63 49.13 26.82"/></g></g></svg>