<svg xmlns="http://www.w3.org/2000/svg" viewBox="0 0 409.91 216.09"><defs><style>.cls-1{fill:#fff;}.cls-2{fill:#ff3351;}.cls-3{fill:#ff5c7b;}.cls-4,.cls-9{fill:#232021;}.cls-4{opacity:0.42;}.cls-5{fill:#302d2a;}.cls-6{fill:none;}.cls-7{fill:#9631af;}.cls-8{fill:#31eaf4;}.cls-9{opacity:0.24;}</style></defs><title>udanja muttaAsset 95</title><g id="Layer_2" data-name="Layer 2"><g id="Layer_6" data-name="Layer 6"><path class="cls-1" d="M323,205.08c14.12-3.94,27.89-11,40.87-20.66A140.7,140.7,0,0,0,382.52,168C363.19,187.81,338.07,199.42,323,205.08Z"/><path class="cls-1" d="M405.92,129.48a87.61,87.61,0,0,0,1.32-47.7C411.07,99.93,410.07,115.75,405.92,129.48Z"/><path class="cls-1" d="M372.07,131.22a8.55,8.55,0,0,1-4.38.1c-.2-.05-.1-.36-.3-.42-1.44,1.46-2.57,2.66-4,4.07l1.21,1.63-8.84,6.55-.5-.68c-.71.73-2.23,2-3.76,3.33l.24.32-8,6,.14.19c-.76.65-2.34,1.89-3.12,2.51l-.24-.32L331.64,161l.28.38c-.81.58-1.94,1.09-2.86,1.73,0,0,0-.17,0-.18l-7.81,5.79-.21-.1v0c-.71.45-1.38,1-2.08,1.39a8.26,8.26,0,0,1-2,3.09,12,12,0,0,1-1.48,1.33,7.28,7.28,0,0,1-6.11,1.57c-.08,0,.17-.28.09-.3-1.4.79-2.92,1.65-3.86,2.06l1.22,1.65-6.46,4.78-2-2.22v1.14a7.91,7.91,0,0,1-1.16,4,11.8,11.8,0,0,1-3.18,3.31c-3.36,2.49-6.42,3.34-9.18,2.52a13.57,13.57,0,0,1-5.14-3.25,192.19,192.19,0,0,1-24.32,7.44A87,87,0,0,0,319.56,206C356.77,191.07,371.54,163,372.07,131.22Z"/><path class="cls-1" d="M363,107a3.48,3.48,0,0,0-.63.4,2.11,2.11,0,0,0-.86,2.15,8.36,8.36,0,0,0,1.86,3.51l.38.51,4.82-3.57-.41-.56a8.81,8.81,0,0,0-2.79-2.51A3,3,0,0,0,363,107Z"/><path class="cls-1" d="M369.7,122.06a3,3,0,0,0,1.91,1.37,59.65,59.65,0,0,0-.85-8.81l-4.16,3.08Z"/><path class="cls-1" d="M330.79,134.65c-.61-.82-1.71-.63-2.55,0a2.13,2.13,0,0,0-.45.48,4.15,4.15,0,0,0-.3.57c-.22.49,0,.8.12,1.35s.63.88,1,1.4l12.09,16.33c.78-.63,2.35-1.86,3.12-2.51L331.5,135.61Z"/><path class="cls-1" d="M310.14,160.92a3.71,3.71,0,0,0,.23,3.7,4.9,4.9,0,0,0,2.39,1.92,2.43,2.43,0,0,0,2.27-.38,2.48,2.48,0,0,0,.63-.61,3,3,0,0,0,.56-2.31,8.61,8.61,0,0,0-1.57-3.34l-2.09-2.82-2,3.27Z"/><path class="cls-1" d="M320.64,168.2l-.34-.66-.5-.68-.3-.41a14.83,14.83,0,0,1-.4,3.54l2-1.29-.17-.17Z"/><path class="cls-1" d="M342.88,126a2,2,0,0,0-2.59-.2,2.24,2.24,0,0,0-.77,1.06c-.39,1,.35,1.57.29,3.16l.3.41,11.38,15.37c1.53-1.3,3.05-2.6,3.76-3.33L343.76,127Z"/><path class="cls-1" d="M274.91,184.4q-8.75-11.82-10-17.12t3.8-10.23a20.36,20.36,0,0,1,1.87-1.67l1.24-1c3.1-2.3,6.35-3.51,9.11-3.16s5.19,2.1,8.23,4.53l.88,1.19-8.84,6.55.13.17-.84-1.14a6.43,6.43,0,0,0-2.76-2.25,2.43,2.43,0,0,0-2.43.32,3.19,3.19,0,0,0-.86.92,3.06,3.06,0,0,0-.27,2.52c.27,1,1.38,2.15,2.72,4l4.43,5.73.61.82,3.14,4.5a34.37,34.37,0,0,0,2.21,3,9.5,9.5,0,0,0,1.61,1.45,2.59,2.59,0,0,0,2.93-.27A3.19,3.19,0,0,0,293,181.5a3.83,3.83,0,0,0,.12-2.51,16.88,16.88,0,0,0-2.14-4l-1.21-1.63-3.21,2.38-4.17-5.63,11.25-8.33,11.87,16c.94-.41,2.46-1.27,3.86-2.05a10.64,10.64,0,0,1-5.71-4.2c-1.44-1.94-2.28-3.62-2.38-5.15a8.85,8.85,0,0,1,1.69-5.2l.87-1.28,3.78-4.63a3.63,3.63,0,0,0,1-2,3,3,0,0,0-.73-1.89q-1.48-2-3.25-1.26a4.56,4.56,0,0,0-.59.3c-1.3,1-1.14,2,0,3.54l.64.86-8,6-.27-.36c-.31-.42-.61-.7-.73-.93a8.56,8.56,0,0,1-1-6.34,12,12,0,0,1,4-6.14c4.27-3.16,7.64-4.8,10.14-4.94s4.8,1.24,6.93,4.12L326,160.09l.47.64.47.64a5.51,5.51,0,0,0,1,1.09,10.87,10.87,0,0,0,1.22.85l2.72-1.93-18.13-24.49,8-6,2,2.65-.06-1.08a8.22,8.22,0,0,1,3.44-6.77,6.27,6.27,0,0,1,.65-.41,6,6,0,0,0,.62-.39,8.45,8.45,0,0,1,3.42-1.27,7,7,0,0,1,3.34.91l.82.45-.14-1.23a8,8,0,0,1,.57-3.34,9.26,9.26,0,0,1,2.07-2.84,13.62,13.62,0,0,1,1.1-.88,12.67,12.67,0,0,1,1.17-.79c2-1,4-1.55,5.44-1.14a8.91,8.91,0,0,1,4.73,3.39L363.38,135c1.45-1.41,2.58-2.61,4-4.07-3-1-6.28-3.65-9.69-8.25-2.9-3.92-4.5-7.32-4.67-10.33a9.5,9.5,0,0,1,3.2-7.76,35.77,35.77,0,0,1,3.08-2.64Q364,98.49,367.83,99c.16,0,.32.07.48.1a182,182,0,0,0-9.68-29c-29.82,37.56-76.91,81.55-140.45,94.78,11.86,14.59,24.33,25.18,37.09,32.27a192.15,192.15,0,0,0,24.32-7.44A38.73,38.73,0,0,1,274.91,184.4Z"/><path class="cls-2" d="M349.08,50.57q-2.86-5.21-6-10.25c-28.35,37.53-87.58,108.63-132.94,114,.95,1.35,1.91,2.69,2.88,4C259.9,152.87,317.49,89.74,349.08,50.57Z"/><path class="cls-3" d="M358.64,70.16a217.88,217.88,0,0,0-9.56-19.59C317.49,89.74,259.9,152.87,213,158.28c1.71,2.31,3.43,4.52,5.17,6.65C281.73,151.71,328.82,107.71,358.64,70.16Z"/><path class="cls-4" d="M309.9,209.4s5.15-1.33,13.1-4.32q-1.72.48-3.44.89C316.49,207.21,313.29,208.36,309.9,209.4Z"/><path class="cls-4" d="M405.92,129.48c-4.48,14.13-12.58,27-23.4,38.51C392.71,157.54,401.28,144.82,405.92,129.48Z"/><path class="cls-1" d="M402.11,96.46q3.14,4.24,2.54,8.27-.64,4.36-5.46,7.92a24.2,24.2,0,0,1-2.33,1.51q-8,4.72-13-1.43l-1.45,1.69a10.21,10.21,0,0,1,.77,7.32q-1.06,3.32-5.38,6.52a17.27,17.27,0,0,1-5.74,3c-.53,31.78-15.3,59.85-52.51,74.75q1.72-.42,3.44-.89c15.06-5.66,40.18-17.27,59.51-37.09,10.82-11.46,18.92-24.38,23.4-38.51,4.15-13.73,5.15-29.55,1.32-47.7q-4.15,6.13-8.34,11.84A8.66,8.66,0,0,1,402.11,96.46Z"/><path class="cls-4" d="M402.11,96.46q3.14,4.24,2.54,8.27-.64,4.36-5.46,7.92a24.2,24.2,0,0,1-2.33,1.51q-8,4.72-13-1.43l-1.45,1.69a10.21,10.21,0,0,1,.77,7.32q-1.06,3.32-5.38,6.52a17.27,17.27,0,0,1-5.74,3c-.53,31.78-15.3,59.85-52.51,74.75q1.72-.42,3.44-.89c15.06-5.66,40.18-17.27,59.51-37.09,10.82-11.46,18.92-24.38,23.4-38.51,4.15-13.73,5.15-29.55,1.32-47.7q-4.15,6.13-8.34,11.84A8.66,8.66,0,0,1,402.11,96.46Z"/><path class="cls-1" d="M390.67,106.29l.37.5c1.35,1.82,2.58,2.09,4.1,1l.46-.34a2.15,2.15,0,0,0,.76-2.85,2.94,2.94,0,0,0-2.46-1.69h-.56L393,103l-.29.08-1.28.44c-1.27,1.62-2.81,2.85-3.78,4.81l2.88-2.13Z"/><path class="cls-4" d="M390.67,106.29l.37.5c1.35,1.82,2.58,2.09,4.1,1l.46-.34a2.15,2.15,0,0,0,.76-2.85,2.94,2.94,0,0,0-2.46-1.69h-.56L393,103l-.29.08-1.28.44c-1.27,1.62-2.81,2.85-3.78,4.81l2.88-2.13Z"/><path class="cls-1" d="M358.64,70.16a182,182,0,0,1,9.67,29c2.41.5,4.69,2.2,6.86,5.12l1,1.16q1,1.12,1.61,2a6.6,6.6,0,0,1,.51.81c.24.41.32.6.28.63l-7.8,5.77a62.53,62.53,0,0,1,1,9,3.53,3.53,0,0,0,2.54-.65c1.5-1.11,1.83-2.72.31-4.78l-.66-.89L381,112c.21-.16.36-.17.54.07a3,3,0,0,1,.45,1c.11.41.23.78.36,1.15l.08.2c.48-.56,1.09-1.22,1.58-1.79-.13-.16-.13-.42-.26-.59l-.4-.54,4.35-3.22c1-2,2.51-3.2,3.78-4.81L386.14,105a8.8,8.8,0,0,1-9.15-2.2,15.25,15.25,0,0,1-1-1.21,7.51,7.51,0,0,1-1-1.69,8.73,8.73,0,0,1-.7-5.94,12.9,12.9,0,0,1,3.93-5.77c.28-.25.53-.54.8-.77s.59-.54,1-.86l1.18-.87a6.69,6.69,0,0,1,.83-.4c2.69-1.57,5.23-2.37,7.18-2.15a7.61,7.61,0,0,1,5.33,3.15l.57.77.37.5L388.26,93l-.27-.36-.37-.5a2.74,2.74,0,0,0-4-.67l-.5.37a2.26,2.26,0,0,0-.83,1.49,2,2,0,0,0,.41,1.55,2.23,2.23,0,0,0,2.65,1.11l.43-.09.35-.1,7.42-2.24a8.5,8.5,0,0,1,4.74-.16,5.23,5.23,0,0,1,.63.27q4.19-5.72,8.34-11.84C403.58,66.61,396.06,50.62,384,34A373.6,373.6,0,0,1,358.64,70.16Z"/><path class="cls-4" d="M358.64,70.16a182,182,0,0,1,9.67,29c2.41.5,4.69,2.2,6.86,5.12l1,1.16q1,1.12,1.61,2a6.6,6.6,0,0,1,.51.81c.24.41.32.6.28.63l-7.8,5.77a62.53,62.53,0,0,1,1,9,3.53,3.53,0,0,0,2.54-.65c1.5-1.11,1.83-2.72.31-4.78l-.66-.89L381,112c.21-.16.36-.17.54.07a3,3,0,0,1,.45,1c.11.41.23.78.36,1.15l.08.2c.48-.56,1.09-1.22,1.58-1.79-.13-.16-.13-.42-.26-.59l-.4-.54,4.35-3.22c1-2,2.51-3.2,3.78-4.81L386.14,105a8.8,8.8,0,0,1-9.15-2.2,15.25,15.25,0,0,1-1-1.21,7.51,7.51,0,0,1-1-1.69,8.73,8.73,0,0,1-.7-5.94,12.9,12.9,0,0,1,3.93-5.77c.28-.25.53-.54.8-.77s.59-.54,1-.86l1.18-.87a6.69,6.69,0,0,1,.83-.4c2.69-1.57,5.23-2.37,7.18-2.15a7.61,7.61,0,0,1,5.33,3.15l.57.77.37.5L388.26,93l-.27-.36-.37-.5a2.74,2.74,0,0,0-4-.67l-.5.37a2.26,2.26,0,0,0-.83,1.49,2,2,0,0,0,.41,1.55,2.23,2.23,0,0,0,2.65,1.11l.43-.09.35-.1,7.42-2.24a8.5,8.5,0,0,1,4.74-.16,5.23,5.23,0,0,1,.63.27q4.19-5.72,8.34-11.84C403.58,66.61,396.06,50.62,384,34A373.6,373.6,0,0,1,358.64,70.16Z"/><path class="cls-2" d="M343.09,40.31q3.12,5,6,10.25c14.49-18,23.51-30.89,23.51-30.89-3.76-4.33-7.76-8.56-11.92-12.7-.59,6.42-1,10.49-1,10.49S353.39,26.68,343.09,40.31Z"/><path class="cls-4" d="M343.09,40.31q3.12,5,6,10.25c14.49-18,23.51-30.89,23.51-30.89-3.76-4.33-7.76-8.56-11.92-12.7-.59,6.42-1,10.49-1,10.49S353.39,26.68,343.09,40.31Z"/><path class="cls-3" d="M358.64,70.16A373.6,373.6,0,0,0,384,34c-.36-.5-.71-1-1.08-1.49-3.21-4.34-6.67-8.62-10.33-12.83,0,0-9,12.93-23.51,30.89A217.88,217.88,0,0,1,358.64,70.16Z"/><path class="cls-4" d="M358.64,70.16A373.6,373.6,0,0,0,384,34c-.36-.5-.71-1-1.08-1.49-3.21-4.34-6.67-8.62-10.33-12.83,0,0-9,12.93-23.51,30.89A217.88,217.88,0,0,1,358.64,70.16Z"/><path class="cls-5" d="M284.75,193q4.14,1.23,9.19-2.51a11.84,11.84,0,0,0,3.2-3.28,9.52,9.52,0,0,0,1.2-4l-.07-1.24,2,2.22,6.46-4.78-1.22-1.65a220.94,220.94,0,0,1-25.58,11.73C281.74,191.2,283.13,192.54,284.75,193Z"/><path class="cls-5" d="M282.38,170.09l4.17,5.63,3.21-2.38L291,175a16.76,16.76,0,0,1,2.13,4,3.72,3.72,0,0,1-1.23,4.18,2.73,2.73,0,0,1-3,.32,8.81,8.81,0,0,1-1.71-1.38c-.63-.63-1.12-1.81-2.06-3.08l-3.15-4.49-.61-.82L276.91,168a16.2,16.2,0,0,1-2.57-4.08,2.92,2.92,0,0,1,.18-2.45,2.79,2.79,0,0,1,.8-.87,2.5,2.5,0,0,1,2.46-.34,6.44,6.44,0,0,1,2.74,2.26l.84,1.14-.13-.17,8.84-6.55-.88-1.19c-3-2.43-5.48-4.18-8.23-4.53s-5.85.74-9,3l-1.32,1.05a21.28,21.28,0,0,0-1.91,1.7c-3.36,3.29-4.65,6.71-3.82,10.25s4.15,9.25,10,17.13a36.08,36.08,0,0,0,5,5.13A220.83,220.83,0,0,0,305.5,177.8l-11.87-16Z"/><path class="cls-5" d="M309.27,176.05a7.28,7.28,0,0,0,6.11-1.56,11.9,11.9,0,0,0,1.49-1.32,8.24,8.24,0,0,0,2.07-3.07q-5,3.15-9.91,5.88Z"/><path class="cls-5" d="M321,168.61l.21.1,7.81-5.79s.09.16.06.15q-4.12,2.89-8.18,5.48Z"/><path class="cls-5" d="M326.93,161.37l-.47-.64-.47-.64-10.3-13.91c-2.13-2.88-4.44-4.26-6.94-4.12s-5.88,1.79-10.15,4.95a12.07,12.07,0,0,0-4,6.15,8.51,8.51,0,0,0,1,6.31c.13.23.42.51.73.93l.27.36,8-6L304,154c-1.12-1.51-1.28-2.57,0-3.53a5.48,5.48,0,0,1,.71-.39c1.18-.5,2.2,0,3.19,1.3a3,3,0,0,1,.7,1.92,3.73,3.73,0,0,1-1.05,2l-3.8,4.65-.89,1.29a9,9,0,0,0-1.73,5.23,10.21,10.21,0,0,0,2.3,5.21c1.75,2.37,3.6,3.8,5.55,4.32,3.26-1.83,6.71-3.89,10.06-6a14.82,14.82,0,0,0,.4-3.54l.3.41.5.68.34.66.29.35.17.17c2.7-1.73,5.41-3.54,8.16-5.47a12.28,12.28,0,0,1-1.27-.81A5.49,5.49,0,0,1,326.93,161.37Zm-12.28-1.46a8.61,8.61,0,0,1,1.57,3.34,2.76,2.76,0,0,1-1.15,2.89,2.47,2.47,0,0,1-2.29.39,4.89,4.89,0,0,1-2.4-1.92,3.7,3.7,0,0,1-.23-3.7l.38-.56,2-3.27Z"/><path class="cls-5" d="M331.91,161.38l-.28-.38,8.84-6.55.24.32C337.55,157.23,335.16,159,331.91,161.38Z"/><path class="cls-5" d="M343.69,152.07l8-6-.24-.32c-2.24,2-4.53,4-7.66,6.46Z"/><path class="cls-5" d="M355.75,143.15l8.84-6.55L363.38,135c-2.94,2.75-5.11,4.86-8.13,7.5Z"/><path class="cls-5" d="M346.22,114.79a7.53,7.53,0,0,0-5.29,1,14.72,14.72,0,0,0-1.24.85c-.48.36-.89.68-1.14.91a9.39,9.39,0,0,0-2.09,2.85,8,8,0,0,0-.58,3.35L336,125l-.82-.44a7,7,0,0,0-3.34-.9,8.49,8.49,0,0,0-3.42,1.27,6.12,6.12,0,0,1-.63.39,6.61,6.61,0,0,0-.67.43,8.14,8.14,0,0,0-3.41,6.75l.06,1.08-2-2.65-8,6,18.13,24.49c3.24-2.34,5.64-4.15,8.8-6.6l-12.09-16.33c-.38-.51-.91-.84-1-1.39a2.3,2.3,0,0,1,0-1.46,3.26,3.26,0,0,1,.22-.52,1.91,1.91,0,0,1,.42-.45c.84-.62,1.91-.78,2.52,0l.71,1,12.33,16.65c3.13-2.5,5.41-4.45,7.66-6.46l-11.38-15.37-.3-.41c.06-1.59-.67-2.17-.28-3.17a2.15,2.15,0,0,1,.75-1,2,2,0,0,1,2.59.2l.9,1,11.49,15.52c3-2.65,5.19-4.75,8.13-7.5L351,118.18A8.91,8.91,0,0,0,346.22,114.79Z"/><path class="cls-5" d="M367.09,131.12c.2.07.4.15.6.2a8.55,8.55,0,0,0,4.38-.1q0-2.6,0-5.22Q369.56,128.62,367.09,131.12Z"/><path class="cls-5" d="M359.3,101.94a36.13,36.13,0,0,0-3.1,2.65,9.59,9.59,0,0,0-3.24,7.79q.24,4.51,4.59,10.38c3.41,4.61,6.59,7.38,9.54,8.36q2.47-2.5,4.94-5.12,0-1.06-.08-2.12a4.69,4.69,0,0,1-2.25-1.82l-3.09-4.37,4.16-3.08a93,93,0,0,0-2.67-15.77c-.16,0-.21.07-.38,0C365.12,98.53,362.39,99.65,359.3,101.94Zm9.25,8.09-4.82,3.57-.38-.51a8.36,8.36,0,0,1-1.86-3.51,2.19,2.19,0,0,1,.9-2.18A3.16,3.16,0,0,1,363,107a3,3,0,0,1,2.36-.06,8.86,8.86,0,0,1,2.78,2.52Z"/><path class="cls-5" d="M372.07,131.22a17.27,17.27,0,0,0,5.74-3q4.32-3.2,5.38-6.52a10.21,10.21,0,0,0-.77-7.32Q377.23,120.5,372,126,372.11,128.63,372.07,131.22Z"/><path class="cls-5" d="M378.56,108.84s0-.22-.28-.63a9.28,9.28,0,0,0-.62-1c-.43-.58-.91-1.16-1.55-1.9l-1-1.12c-2.16-2.92-4.66-4.9-7.07-5.4a93.31,93.31,0,0,1,2.69,15.79Z"/><path class="cls-5" d="M382.42,114.43l-.09-.21q-.2-.56-.37-1.17a2.78,2.78,0,0,0-.43-1c-.18-.24-.33-.23-.54-.07l-7.08,5.24.66.89c1.53,2.06,1.3,3.82-.19,4.93a3.07,3.07,0,0,1-2.31.72c0,.71,0,1.46,0,2.17C375.56,122.29,379,118.47,382.42,114.43Z"/><path class="cls-5" d="M396.86,114.17a24.2,24.2,0,0,0,2.33-1.51q4.82-3.57,5.46-7.92.6-4-2.54-8.27a8.66,8.66,0,0,0-3.22-2.84q-3.71,5.06-7.45,9.82l1.31-.39.3-.08.3-.08h.57A2.9,2.9,0,0,1,396,104a2.46,2.46,0,0,1,.34.55,2.15,2.15,0,0,1-.76,2.85l-.46.34c-1.51,1.12-2.75.85-4.1-1l-.37-.5-.1-.13-2.88,2.13c-1.54,1.14-2.54,3-3.8,4.49C387.22,116.88,391.51,117.32,396.86,114.17Z"/><path class="cls-5" d="M398.26,93.35a8.5,8.5,0,0,0-4.74.16l-7.41,2.25-.34.11-.42.1a2.59,2.59,0,0,1-3.08-2.68,2.26,2.26,0,0,1,.83-1.49l.5-.37a2.74,2.74,0,0,1,4,.67l.37.5.27.36,7.23-5.36-.37-.5-.57-.77a7.55,7.55,0,0,0-5.32-3.13c-1.95-.22-4.4.48-7.09,2a10,10,0,0,0-.93.48L380,86.6c-.42.31-.74.63-1,.86s-.54.49-.82.75A12.89,12.89,0,0,0,374.27,94a8.74,8.74,0,0,0,.7,5.94,7.51,7.51,0,0,0,1,1.68,15.16,15.16,0,0,0,1,1.21,8.78,8.78,0,0,0,9.14,2.19l5.33-1.57q3.74-4.75,7.45-9.82A5.21,5.21,0,0,0,398.26,93.35Z"/><path class="cls-5" d="M383.34,111.52l.4.54c.13.17.16.47.29.63,1.25-1.49,2.12-3.25,3.66-4.4Z"/><path class="cls-2" d="M210.15,154.28l-3.24-33.47L246,139.55l20.24-27.65,20,2.67,1-35.7,39.43-2.41-2-25.27,17.64-4.33-2.91-29.3L356,22.63,353,0l19.62,19.68S276.73,152.29,210.15,154.28Z"/><polygon class="cls-6" points="24.28 148.18 24.31 148.19 30.66 144.11 24.28 148.18"/><polygon class="cls-6" points="25.56 172.84 25.67 172.94 48.02 173.39 25.56 172.84"/><polygon class="cls-6" points="18.08 137.22 18.03 137.28 49.45 132.04 49.59 131.96 18.08 137.22"/><path class="cls-6" d="M137.38,45l-1.06.15a200.4,200.4,0,0,1,22.25,39.09A148.69,148.69,0,0,0,137.38,45Z"/><polygon class="cls-6" points="26.62 160.52 53.22 173.49 53.38 173.49 26.62 160.52"/><path class="cls-6" d="M62.79,155.7l.2,0c0-.09,0-.19,0-.28l-.19,0C62.8,155.46,62.79,155.57,62.79,155.7Z"/><path class="cls-7" d="M158.57,84.19A200.4,200.4,0,0,0,136.32,45.1l-1,.15a9.34,9.34,0,0,1,2.25,2.9c3.26,6.61-1.47,16.22-10.56,21.47S108,73.76,104.7,67.15c-2.34-4.75-.55-11,4-16.15a144.45,144.45,0,0,0-14.78,5.07A221.6,221.6,0,0,1,114.18,111a242.48,242.48,0,0,1,3.07,102.72,268.41,268.41,0,0,0,46,2.2c7.11-17,11.2-58.85,2.27-105.95A168,168,0,0,0,158.57,84.19Zm-42,9.55c-1.46-7.69,6.06-15.56,16.78-17.6s20.6,2.55,22.06,10.24-6.06,15.56-16.78,17.6S118.07,101.42,116.61,93.74Zm27.67,90.51c9.67.11,17.67,5.78,17.87,12.66s-7.49,12.37-17.16,12.25-17.67-5.78-17.87-12.66S134.61,184.13,144.28,184.24Zm2.48-36.45c10.42.12,19,6.23,19.25,13.65s-8.07,13.32-18.49,13.2-19-6.23-19.25-13.65S136.33,147.67,146.76,147.79Zm17.49-25.73c1.46,7.69-6.06,15.56-16.78,17.6s-20.6-2.55-22.06-10.24,6.06-15.56,16.78-17.6S162.79,114.38,164.25,122.07Z"/><path class="cls-1" d="M83.19,83.72A39.23,39.23,0,0,0,64.35,72.2,159.72,159.72,0,0,0,51,82.72C60.17,93.87,68,110.63,71.81,135c5.38,34.91-3,53.09-14.16,62.86,17.81,7.61,38.36,12.95,59.6,15.79C117.25,213.69,105,107.55,83.19,83.72Z"/><path class="cls-1" d="M63.66,155.53l-.66-.15c0,.09,0,.19,0,.28Z"/><path class="cls-1" d="M114.18,111a221.6,221.6,0,0,0-20.25-54.9l-.26.11A250.86,250.86,0,0,1,114.18,111Z"/><path class="cls-1" d="M48.54,193.7q3.59,1.79,7.36,3.45L49,193.27Z"/><path class="cls-2" d="M146.4,43.83q-4.53.48-9,1.12a148.69,148.69,0,0,1,21.19,39.24A174.85,174.85,0,0,1,169.51,120c8.92,47.1.87,78.87-6.24,95.85a229.58,229.58,0,0,0,27.92-2.78C206.11,169.94,167.86,85.68,146.4,43.83Z"/><path class="cls-2" d="M158.57,84.19a168,168,0,0,1,7,25.75c8.92,47.1,4.84,89-2.27,105.95,7.11-17,15.17-48.75,6.24-95.85A174.85,174.85,0,0,0,158.57,84.19Z"/><path class="cls-7" d="M61.37,136.37a113,113,0,0,1,1.43,19l.19,0a110.54,110.54,0,0,0-1.39-19.06C58.3,114.84,51.42,99.9,43.35,89.81l-.1.1C51.26,100,58.07,114.94,61.37,136.37Z"/><path class="cls-7" d="M55.9,197.15l1.18,1.24h0l.56-.49-1.75-.75Z"/><path class="cls-7" d="M62.93,155.33l-.2,0c-.36,19.41-6.84,30.85-14,37.61l.2,0C55.75,186.37,62.46,174.76,62.93,155.33Z"/><polygon class="cls-7" points="29.17 182.18 29.18 182.19 29.17 182.18 29.17 182.18"/><path class="cls-7" d="M71.81,135C68,110.63,60.17,93.87,51,82.72q-4,3.49-7.62,7.09c8.08,10.1,15,25,18.26,46.52A108.48,108.48,0,0,1,63,155.22h.63l-.67.13c-.47,19.43-7.16,31.12-14,37.78l6.94,4c.58.25,1.17.54,1.76.79C68.76,188.08,77.19,169.94,71.81,135Z"/><path class="cls-8" d="M48.07,193.77l-.29.05,0,.17c1-.34.59-.53.82-.74l-3.38-2Z"/><polygon class="cls-8" points="48.07 193.78 48.07 193.79 48.07 193.78 48.07 193.78"/><path class="cls-8" d="M30.9,147.9l28-17.71L24,135.87l24.15-26.59-25.7,4.87c-.5,1.11-1,2.22-1.63,2.35l19-3.61L18.05,137.05l31.52-5.18-.13.13h.15L30.66,144.1,24.28,148,54,155l-27.39,5.19,26.8,13.14-.15.08.06.07L48,173.37l-22.34-.43,8.15,7.59,22.5-8.18L33.37,160.93l29.36-5.56s0-.08,0-.2Z"/><path class="cls-8" d="M62.73,155.37l-29.36,5.56,22.94,11.41-22.51,8.1,11.5,10.73L48.72,193C55.88,186.2,62.38,174.78,62.73,155.37Z"/><path class="cls-8" d="M24,135.87l34.84-5.76L30.9,147.86l31.9,7.46a112.91,112.91,0,0,0-1.43-19c-3.3-21.43-10.14-36.52-18.16-46.62-8.27,8.21-15,17.22-20.75,24.41l25.7-4.87Z"/><path class="cls-1" d="M25.58,172.94h.1l-.12-.11,22.46.55,5.17-.06L26.56,160.19,54,155l-29.7-7,0,.07,0,0,6.38-4.05L49.45,132,18,137.27l.06-.06-.1-.15,21.88-24.18-19,3.61A182.16,182.16,0,0,0,3,149.28c4.49,12.55,13.79,23.59,26.2,32.81l4.61-1.6Z"/><path class="cls-1" d="M29.18,182.18a133.06,133.06,0,0,0,18.89,11.6l-2.79-2.58Z"/><polygon class="cls-1" points="33.78 180.54 29.17 182.18 29.18 182.19 45.28 191.2 33.78 180.54"/><polygon class="cls-1" points="53.22 173.49 48.02 173.39 53.27 173.51 53.22 173.49"/><polygon class="cls-1" points="24.29 148.2 54.01 155.32 24.31 148.19 24.29 148.2"/><polygon class="cls-1" points="18.02 137.23 18.08 137.22 39.93 113.21 18.02 137.23"/><polygon class="cls-1" points="49.45 132.04 30.66 144.11 49.6 132.02 49.45 132.04"/><polygon class="cls-1" points="25.5 172.73 33.62 180.11 33.66 180.1 25.55 172.62 25.5 172.73"/><polygon class="cls-1" points="45.31 191.22 45.28 191.2 48.07 193.78 48.07 193.78 45.31 191.22"/><polygon class="cls-1" points="48.07 193.78 48.07 193.79 48.07 193.79 48.07 193.78"/><polygon class="cls-1" points="45.2 190.99 45.19 190.9 33.66 180.1 33.62 180.11 45.2 190.99"/><path class="cls-7" d="M93.93,56.07A144.45,144.45,0,0,1,108.71,51a26.56,26.56,0,0,1,6.55-5.32c7.53-4.35,15.68-4.32,20.11-.43l1-.15c-4.29-5.93-8.63-11.28-12.79-16a32.75,32.75,0,0,1-11.26,10.58c-11.61,6.7-24.4,5.29-28.56-3.15a12.77,12.77,0,0,1-1.22-4.23l-2.43,1.36s1.45,1.92,3.81,5.57Q89.41,47.54,93.93,56.07Z"/><path class="cls-4" d="M93.93,56.07A144.45,144.45,0,0,1,108.71,51a26.56,26.56,0,0,1,6.55-5.32c7.53-4.35,15.68-4.32,20.11-.43l1-.15c-4.29-5.93-8.63-11.28-12.79-16a32.75,32.75,0,0,1-11.26,10.58c-11.61,6.7-24.4,5.29-28.56-3.15a12.77,12.77,0,0,1-1.22-4.23l-2.43,1.36s1.45,1.92,3.81,5.57Q89.41,47.54,93.93,56.07Z"/><path class="cls-1" d="M39.26,71.76A60,60,0,0,1,51,82.72,159.72,159.72,0,0,1,64.35,72.2C55.35,69.72,46.28,70.38,39.26,71.76Z"/><path class="cls-4" d="M39.26,71.76A60,60,0,0,1,51,82.72,159.72,159.72,0,0,1,64.35,72.2C55.35,69.72,46.28,70.38,39.26,71.76Z"/><path class="cls-1" d="M26.37,75.61l.24.13.27-.35Z"/><path class="cls-4" d="M26.37,75.61l.24.13.27-.35Z"/><path class="cls-1" d="M72.74,38A224.2,224.2,0,0,0,33.47,68.23l.3.16C42,60.7,56.29,48.26,72.74,38Z"/><path class="cls-4" d="M72.74,38A224.2,224.2,0,0,0,33.47,68.23l.3.16C42,60.7,56.29,48.26,72.74,38Z"/><path class="cls-1" d="M29.09,72.67q-1.39,1.46-2.72,2.93S27,75,28.14,73.81Z"/><path class="cls-4" d="M29.09,72.67q-1.39,1.46-2.72,2.93S27,75,28.14,73.81Z"/><path class="cls-1" d="M93.66,56.17l.26-.11q-4.53-8.51-10-16.88C86.35,43,89.82,48.74,93.66,56.17Z"/><path class="cls-4" d="M93.66,56.17l.26-.11q-4.53-8.51-10-16.88C86.35,43,89.82,48.74,93.66,56.17Z"/><path class="cls-2" d="M133,19s-3.47-2.19-9-5.51c-3.74,1.31-7.47,2.69-11.17,4.19C120.56,25.34,129.21,34,137.38,45q4.48-.65,9-1.12C138.6,28.62,133,19,133,19Z"/><path class="cls-4" d="M133,19s-3.47-2.19-9-5.51c-3.74,1.31-7.47,2.69-11.17,4.19C120.56,25.34,129.21,34,137.38,45q4.48-.65,9-1.12C138.6,28.62,133,19,133,19Z"/><path class="cls-7" d="M33.09,68c-1.39,1.54-2.71,3.09-4,4.64,1.42-1.49,2.89-3,4.38-4.44Z"/><path class="cls-4" d="M33.09,68c-1.39,1.54-2.71,3.09-4,4.64,1.42-1.49,2.89-3,4.38-4.44Z"/><path class="cls-7" d="M43.24,89.91l.1-.1A52.52,52.52,0,0,0,26.61,75.74l0,.06A52.24,52.24,0,0,1,43.24,89.91Z"/><path class="cls-4" d="M43.24,89.91l.1-.1A52.52,52.52,0,0,0,26.61,75.74l0,.06A52.24,52.24,0,0,1,43.24,89.91Z"/><path class="cls-7" d="M43.35,89.81Q47,86.22,51,82.72a60,60,0,0,0-11.71-11,68.18,68.18,0,0,0-12.37,3.63l-.27.35A52.52,52.52,0,0,1,43.35,89.81Z"/><path class="cls-4" d="M43.35,89.81Q47,86.22,51,82.72a60,60,0,0,0-11.71-11,68.18,68.18,0,0,0-12.37,3.63l-.27.35A52.52,52.52,0,0,1,43.35,89.81Z"/><path class="cls-7" d="M33.77,68.39l-.3-.16c-1.5,1.47-3,2.95-4.38,4.44l-.95,1.14C29.4,72.56,31.32,70.68,33.77,68.39Z"/><path class="cls-4" d="M33.77,68.39l-.3-.16c-1.5,1.47-3,2.95-4.38,4.44l-.95,1.14C29.4,72.56,31.32,70.68,33.77,68.39Z"/><path class="cls-8" d="M9.37,118.55l11.43-2.11c.65-.12,1.15-1.21,1.64-2.32l-7.9,1.51L37.11,92.48,10.23,102.71c.93-2.22,2-4.39,3.09-6.59l15.8-16L23,80.46c1.14-1.57,2.34-3.12,3.55-4.67l-.31-.16a139,139,0,0,0-9.14,11.28h.06l5.51-.28L8.34,101.13v0l0,0c-1,2-2,3.9-2.87,5.91l24.29-9.36h0v-.2Z"/><path class="cls-4" d="M9.37,118.55l11.43-2.11c.65-.12,1.15-1.21,1.64-2.32l-7.9,1.51L37.11,92.48,10.23,102.71c.93-2.22,2-4.39,3.09-6.59l15.8-16L23,80.46c1.14-1.57,2.34-3.12,3.55-4.67l-.31-.16a139,139,0,0,0-9.14,11.28h.06l5.51-.28L8.34,101.13v0l0,0c-1,2-2,3.9-2.87,5.91l24.29-9.36h0v-.2Z"/><path class="cls-8" d="M29.13,80.16l-15.8,16c-1.13,2.21-2.15,4.42-3.08,6.64L37.11,92.49,14.56,115.64l7.9-1.5c5.72-7.19,12.48-16.2,20.76-24.4a51.86,51.86,0,0,0-16.66-14c-1.22,1.55-2.4,3.15-3.54,4.72Z"/><path class="cls-4" d="M29.13,80.16l-15.8,16c-1.13,2.21-2.15,4.42-3.08,6.64L37.11,92.49,14.56,115.64l7.9-1.5c5.72-7.19,12.48-16.2,20.76-24.4a51.86,51.86,0,0,0-16.66-14c-1.22,1.55-2.4,3.15-3.54,4.72Z"/><path class="cls-1" d="M9.41,118.65,29.87,97.74,5.53,107.11C.72,118.61-1.29,130.31.86,141.65a49.57,49.57,0,0,0,2.09,7.62,182.44,182.44,0,0,1,17.87-32.77Z"/><path class="cls-4" d="M9.41,118.65,29.87,97.74,5.53,107.11C.72,118.61-1.29,130.31.86,141.65a49.57,49.57,0,0,0,2.09,7.62,182.44,182.44,0,0,1,17.87-32.77Z"/><polygon class="cls-1" points="29.75 97.28 29.74 97.28 9.31 118.36 29.75 97.28"/><polygon class="cls-4" points="29.75 97.28 29.74 97.28 9.31 118.36 29.75 97.28"/><path class="cls-1" d="M17.16,86.91a107.48,107.48,0,0,0-8.81,14.2L22.65,86.63Z"/><path class="cls-4" d="M17.16,86.91a107.48,107.48,0,0,0-8.81,14.2L22.65,86.63Z"/><path class="cls-1" d="M22.68,86.62l-5.51.28h0l5.48-.28L8.35,101.11v0Z"/><path class="cls-4" d="M22.68,86.62l-5.51.28h0l5.48-.28L8.35,101.11v0Z"/><path class="cls-7" d="M114.18,111c10.1,44.24,6.09,84,3.07,102.72A242.48,242.48,0,0,0,114.18,111Z"/><path class="cls-9" d="M114.18,111c10.1,44.24,6.09,84,3.07,102.72A242.48,242.48,0,0,0,114.18,111Z"/><path class="cls-1" d="M114.18,111a250.86,250.86,0,0,0-20.52-54.8,147.9,147.9,0,0,0-29.31,16A39.23,39.23,0,0,1,83.19,83.72c21.82,23.83,34.05,130,34.05,130C120.27,195,124.28,155.21,114.18,111Z"/><path class="cls-9" d="M114.18,111a250.86,250.86,0,0,0-20.52-54.8,147.9,147.9,0,0,0-29.31,16A39.23,39.23,0,0,1,83.19,83.72c21.82,23.83,34.05,130,34.05,130C120.27,195,124.28,155.21,114.18,111Z"/><path class="cls-4" d="M72.74,38q3.61-2.22,7.32-4.35C77.59,35,75.14,36.47,72.74,38Z"/><path class="cls-9" d="M72.74,38q3.61-2.22,7.32-4.35C77.59,35,75.14,36.47,72.74,38Z"/><path class="cls-7" d="M80.07,33.62c1.31,1.85,2.58,3.7,3.81,5.57C81.52,35.54,80.07,33.62,80.07,33.62Z"/><path class="cls-4" d="M80.07,33.62c1.31,1.85,2.58,3.7,3.81,5.57C81.52,35.54,80.07,33.62,80.07,33.62Z"/><path class="cls-9" d="M80.07,33.62c1.31,1.85,2.58,3.7,3.81,5.57C81.52,35.54,80.07,33.62,80.07,33.62Z"/><path class="cls-1" d="M39.26,71.76c7-1.38,16.1-2,25.1.43a147.9,147.9,0,0,1,29.31-16c-3.84-7.43-7.31-13.16-9.78-17-1.23-1.86-2.5-3.72-3.81-5.57Q76.36,35.74,72.74,38C56.29,48.26,42,60.7,33.77,68.39A51.33,51.33,0,0,1,39.26,71.76Z"/><path class="cls-4" d="M39.26,71.76c7-1.38,16.1-2,25.1.43a147.9,147.9,0,0,1,29.31-16c-3.84-7.43-7.31-13.16-9.78-17-1.23-1.86-2.5-3.72-3.81-5.57Q76.36,35.74,72.74,38C56.29,48.26,42,60.7,33.77,68.39A51.33,51.33,0,0,1,39.26,71.76Z"/><path class="cls-9" d="M39.26,71.76c7-1.38,16.1-2,25.1.43a147.9,147.9,0,0,1,29.31-16c-3.84-7.43-7.31-13.16-9.78-17-1.23-1.86-2.5-3.72-3.81-5.57Q76.36,35.74,72.74,38C56.29,48.26,42,60.7,33.77,68.39A51.33,51.33,0,0,1,39.26,71.76Z"/><path class="cls-1" d="M28.14,73.81C27,75,26.37,75.61,26.37,75.61l.51-.22C27.3,74.87,27.71,74.34,28.14,73.81Z"/><path class="cls-4" d="M28.14,73.81C27,75,26.37,75.61,26.37,75.61l.51-.22C27.3,74.87,27.71,74.34,28.14,73.81Z"/><path class="cls-9" d="M28.14,73.81C27,75,26.37,75.61,26.37,75.61l.51-.22C27.3,74.87,27.71,74.34,28.14,73.81Z"/><path class="cls-7" d="M33.77,68.39c-2.45,2.29-4.37,4.16-5.63,5.42-.43.52-.84,1.05-1.26,1.58a68.18,68.18,0,0,1,12.37-3.63A51.33,51.33,0,0,0,33.77,68.39Z"/><path class="cls-4" d="M33.77,68.39c-2.45,2.29-4.37,4.16-5.63,5.42-.43.52-.84,1.05-1.26,1.58a68.18,68.18,0,0,1,12.37-3.63A51.33,51.33,0,0,0,33.77,68.39Z"/><path class="cls-9" d="M33.77,68.39c-2.45,2.29-4.37,4.16-5.63,5.42-.43.52-.84,1.05-1.26,1.58a68.18,68.18,0,0,1,12.37-3.63A51.33,51.33,0,0,0,33.77,68.39Z"/><path class="cls-8" d="M127.12,196.49c.19,6.88,8.19,12.55,17.87,12.66s17.36-5.37,17.16-12.25-8.19-12.55-17.87-12.66S126.92,189.61,127.12,196.49Z"/><path class="cls-8" d="M128.26,161c.21,7.41,8.83,13.52,19.25,13.65s18.7-5.79,18.49-13.2-8.83-13.52-19.25-13.65S128.05,153.58,128.26,161Z"/><ellipse class="cls-8" cx="144.83" cy="125.74" rx="19.77" ry="14.16" transform="translate(-20.88 29.16) rotate(-10.73)"/><ellipse class="cls-8" cx="136.03" cy="90.06" rx="19.77" ry="14.16" transform="translate(-14.39 26.9) rotate(-10.73)"/><path class="cls-8" d="M109.52,50.76l-.81.24c-4.56,5.11-6.35,11.4-4,16.15,3.26,6.61,13.27,7.71,22.36,2.47s13.82-14.86,10.56-21.47a9.34,9.34,0,0,0-2.25-2.9A224.28,224.28,0,0,0,109.52,50.76Z"/><path class="cls-8" d="M115.25,45.68A26.56,26.56,0,0,0,108.71,51l.81-.24a224.28,224.28,0,0,1,25.85-5.51C130.93,41.36,122.78,41.34,115.25,45.68Z"/><path class="cls-8" d="M88.16,33.37c3.45,7,14,8.16,23.66,2.61a27.13,27.13,0,0,0,9.33-8.76c-3.11-3.55-6.1-6.7-8.85-9.43A224.71,224.71,0,0,0,87.15,29.87,10.58,10.58,0,0,0,88.16,33.37Z"/><path class="cls-1" d="M180.13,214.43,205.39,192l-7.09-13.31,9.44-19.77-24.08-23.1L196.58,120l-8.69-8.41,6.24-22L165.73,75.22l3.46-21.12,16.19-10.72-29-10.45,17.33-20.19-39.11-4S188.89,123.74,180.13,214.43Z"/></g></g></svg>