<svg xmlns="http://www.w3.org/2000/svg" viewBox="0 0 213.26 289.82"><defs><style>.cls-1{fill:#9631af;}.cls-2{fill:#fff;}.cls-3{fill:#ff3351;}.cls-4{fill:#ff5c7b;}.cls-5{fill:#31eaf4;}.cls-6,.cls-7{fill:#232021;}.cls-6{opacity:0.42;}.cls-7{opacity:0.24;}.cls-8{fill:#302d2a;}</style></defs><title>games muttaAsset 83</title><g id="Layer_2" data-name="Layer 2"><g id="Layer_6" data-name="Layer 6"><path class="cls-1" d="M193.6,101.41A12.77,12.77,0,0,1,198,101c-.29-.88-.58-1.76-.89-2.64-77.06,35.42-155.79,13.17-183.84,3A268.36,268.36,0,0,0,2.53,146.17c15.36,10.15,45.07,24,93,24,40.58,0,74.85-14.65,97.94-28.24a32.74,32.74,0,0,1-8.3-13C180.77,116.23,184.53,103.93,193.6,101.41Z"/><path class="cls-2" d="M10.8,235.47C28,273.4,64,289.82,105.69,289.82c42.5,0,79.14-17.09,95.92-56.7C109.62,265.52,44.91,250.23,10.8,235.47Z"/><path class="cls-2" d="M197.1,98.35c-7.82-22.67-18.52-43.8-31.26-60.57C156,50.52,135.78,62.34,99.63,61.1,67.1,60,52.36,48,45.69,37.58c-13.37,17.54-24.5,39.88-32.43,63.78C41.32,111.52,120,133.78,197.1,98.35Z"/><path class="cls-2" d="M.19,187.47c.85,18.79,4.58,34.72,10.61,48,34.11,14.76,98.82,30.05,190.81-2.35,6.09-14.36,9.56-31.69,9.76-52.23C169.66,197.62,80.24,224.38.19,187.47Z"/><path class="cls-3" d="M210.71,162.59c-.45-5.71-1.14-11.49-2-17.29-4.29,4.81-7.08,7.81-7.08,7.81s-147.5,52-201.54,21C0,175.77,0,177.42,0,179,59.66,213.38,210.71,162.59,210.71,162.59Z"/><path class="cls-3" d="M201.61,153.1s2.79-3,7.08-7.81c-.59-3.91-1.26-7.84-2-11.76-22,15.08-51.25,34.59-100.45,34.59-47.94,0-88.32-11.81-103.67-22A229.67,229.67,0,0,0,.07,174.12C54.11,205.07,201.61,153.1,201.61,153.1Z"/><path class="cls-4" d="M0,179c0,2.87.07,5.67.19,8.42,80,36.91,169.47,10.15,211.17-6.58,0-.61,0-1.22,0-1.84,0-5.4-.23-10.9-.67-16.46C210.71,162.59,59.66,213.38,0,179Z"/><path class="cls-1" d="M99,71.36c39.88,1.37,62.15-11.52,73-25.57a153.13,153.13,0,0,0-10.35-12.21l-.83,6.06-12.78-18.5c-2-1.52-3.94-2.94-5.95-4.26l5,28.31L128.38,18.72v34.2L106.91,24.24l-.74,35.3L94,28.78,80.38,59.54V28.78L65.06,49.2l-4.44-28.5L40.93,44.17l-1.44.93h0C46.85,58.1,63.11,70.13,99,71.36Z"/><path class="cls-5" d="M99.63,60.86C135.78,62.1,156,50.4,165.85,37.66a139,139,0,0,0-9.38-11.08l-.75,5.49L144.12,15.3q-2.66-2.07-5.39-3.86l4.56,25.67-16.91-24v31l-19.52-26-.7,32L94.91,22.22,82.38,50.1V22.22L64.64,46.1l5.72-27.22L45.69,37.1h0C52.36,48.1,67.1,59.75,99.63,60.86Z"/><path class="cls-2" d="M45.69,37.1h0L70.47,18.88,64.64,46,82.38,22.22V50.1L94.93,22.22,106.1,50.1l.71-32,19.57,26v-31l16.91,24-4.6-25.66c-10.4-6.87-21.48-11-33-11C83.38.42,62.74,15.1,45.69,37.1Z"/><path class="cls-2" d="M144.12,15.31,155.71,32.1l.75-5.46A107.51,107.51,0,0,0,144.12,15.31Z"/><path class="cls-6" d="M97,.66s71,42.78,77.77,123.44S143.37,311.43,47.44,277.78c0,0,112.81,45.67,154.16-44.66C242.08,144.71,169.88-11.4,97,.66Z"/><path class="cls-7" d="M13.26,101.36s106.56,7.74,134-9.26,18.55-54.32,18.55-54.32,20.66,28.9,31.26,60.57C197.1,98.35,113.09,140.12,13.26,101.36Z"/><path class="cls-5" d="M37.16,133.41c-1.91,9.48-9,16.29-15.77,15.2s-10.75-9.66-8.84-19.14,9-16.29,15.77-15.2S39.07,123.92,37.16,133.41Z"/><path class="cls-5" d="M72.51,142.63c-2.06,10.22-9.67,17.55-17,16.38S43.93,148.59,46,138.38,55.66,120.82,63,122,74.57,132.41,72.51,142.63Z"/><ellipse class="cls-5" cx="94.53" cy="144.84" rx="14.16" ry="19.77"/><ellipse class="cls-5" cx="131.23" cy="142.84" rx="14.16" ry="19.77"/><path class="cls-5" d="M178.7,130.68c3.46,9.91.51,19.54-6.59,21.51s-15.66-4.46-19.12-14.37-.51-19.54,6.59-21.51S175.24,120.77,178.7,130.68Z"/><path class="cls-5" d="M199.48,106a10.58,10.58,0,0,0-3.64.34c-7.51,2.09-10.63,12.28-7,22.76a27.13,27.13,0,0,0,6.87,10.79c4.06-2.39,7.72-4.75,10.91-6.94A224.62,224.62,0,0,0,199.48,106Z"/><path class="cls-8" d="M61.91,224.48H51.45v-1.87a6.51,6.51,0,0,0-.75-3.45A2.33,2.33,0,0,0,48.63,218a3,3,0,0,0-2.91,2.09,14.76,14.76,0,0,0-.55,4.81l-.23,7.24v1l.23,5.49a27.06,27.06,0,0,0,.19,3.7,8.93,8.93,0,0,0,.53,2.12A2.66,2.66,0,0,0,48.45,246a3.29,3.29,0,0,0,3.2-2.63,22.28,22.28,0,0,0,.31-4.5v-1.41H48.34v-6.9H61.91V252.3H54.67l-.28-3.22-.68.79a9.52,9.52,0,0,1-3.34,2.49,11.84,11.84,0,0,1-4.52.74q-6.28,0-8.88-3.45Q34.2,246,34.2,236.86q0-14.7,2.16-19.71t9.14-6A20.36,20.36,0,0,1,48,211l1.59-.06q5.79,0,8.8,2.88t3.52,8.54Z"/><path class="cls-8" d="M75.09,231.09H65.53v-.73a9.06,9.06,0,0,1,.06-1.19,8.61,8.61,0,0,1,3-5.68,12.08,12.08,0,0,1,6.87-2.57q8,0,11.11,2.06t3.14,7.44V249.3a5.54,5.54,0,0,0,.18,1.5,11.89,11.89,0,0,0,.55,1.5H80.75l-.11-.45-.12-.34-.11-.45-.06-.74V249a7,7,0,0,1-5.73,3.84,11.9,11.9,0,0,1-2,.17,7.28,7.28,0,0,1-5.85-2.38q-2-2.38-2-7A10.21,10.21,0,0,1,66,238.07a9,9,0,0,1,4.5-3.17l1.48-.51,5.81-1.47a3.66,3.66,0,0,0,2-1,3,3,0,0,0,.54-2q0-2.49-1.87-2.95a6.82,6.82,0,0,0-1-.11q-2.43,0-2.43,2.83Zm1.86,7.63-.46.23a3.71,3.71,0,0,0-2,3.11,4.9,4.9,0,0,0,.78,3,2.43,2.43,0,0,0,2,1,2.48,2.48,0,0,0,.86-.11,2.65,2.65,0,0,0,1.64-1.53,9.07,9.07,0,0,0,.55-3.62v-3.51Z"/><path class="cls-8" d="M93.8,252.3V221.76h9.73v3.34l.68-.9a8.31,8.31,0,0,1,6.84-3.39,6.61,6.61,0,0,1,.79.06,6.11,6.11,0,0,0,.74.06,8.48,8.48,0,0,1,3.51,1,7,7,0,0,1,2.15,2.71l.4.85.62-1.07a8,8,0,0,1,2.45-2.35,9.26,9.26,0,0,1,3.35-1,13.63,13.63,0,0,1,1.41-.06,12.67,12.67,0,0,1,1.41.06,7,7,0,0,1,4.68,2.32q1.41,1.81,1.41,5.54V252.3H123.78V231.66l-.17-1.3a2,2,0,0,0-2-1.7,2,2,0,0,0-1.19.4,3.49,3.49,0,0,0-1.58,2.71V252.3H108.68V230.13a2,2,0,0,0-2-1.53,2.08,2.08,0,0,0-.64.11,4.11,4.11,0,0,0-.58.28,2.64,2.64,0,0,0-1.07,1.16,3.85,3.85,0,0,0-.38,1.72V252.3Z"/><path class="cls-8" d="M162.46,238.56H147.58l-.11,5q0,3.22,2.86,3.22t2.8-3.85v-1.24h9.39q.39,0,.39.45a3.12,3.12,0,0,1-.23,1.1q-.23.59-.4,1.16a10.33,10.33,0,0,1-3.79,6.56q-2.83,2-8.2,2-7.07,0-10-3.57-3.05-3.74-3.05-12.92,0-7.31,2.49-11.07a9.59,9.59,0,0,1,7.24-4.33,36.13,36.13,0,0,1,4.07-.28q5.77,0,8.57,2.74t2.8,8.57s0,.55.11,1.53.11,1.83.11,2.54a12.43,12.43,0,0,1-.08,1.33Q162.53,238.22,162.46,238.56ZM153.13,233v-.9a10.08,10.08,0,0,0-.46-3.68,2.43,2.43,0,0,0-1.66-1.36,3.48,3.48,0,0,0-.74-.06,2.28,2.28,0,0,0-2.08,1.22,8.11,8.11,0,0,0-.71,3.93V233Z"/><path class="cls-8" d="M164.38,242.69h9.22v.9q0,3.39,2.83,3.39H177a2.35,2.35,0,0,0,2.31-1.93,3.33,3.33,0,0,0,.06-.74,2.9,2.9,0,0,0-1-2.15l-.46-.34-.28-.11-.29-.11-6.5-2.38a8.78,8.78,0,0,1-6-7.2,15.14,15.14,0,0,1-.11-1.59,7.48,7.48,0,0,1,.23-1.93,8.72,8.72,0,0,1,3-5.19,12.9,12.9,0,0,1,6.59-2.29l1.1-.08q.54,0,1.33,0h1.47a5.63,5.63,0,0,0,.91.11q4.64.51,6.79,2.52a7.39,7.39,0,0,1,2.15,5.68v1.41h-8.82v-.9q0-2.66-2.49-2.66h-.62a2.16,2.16,0,0,0-1.56.57,1.88,1.88,0,0,0-.59,1.42,2.19,2.19,0,0,0,1.47,2.44l.4.17.34.11,7.29,2.61a8.5,8.5,0,0,1,3.9,2.69,7.92,7.92,0,0,1,1.24,4.79q0,5.27-2.88,8.16-3.11,3.12-9.1,3.12A24.2,24.2,0,0,1,174,253q-9.61-1-9.61-9.5Z"/></g></g></svg>