<svg xmlns="http://www.w3.org/2000/svg" viewBox="0 0 573.12 777"><defs><style>.cls-1{fill:#c47439;}.cls-2,.cls-9{fill:#c6ab38;}.cls-3{fill:#ffda3e;}.cls-4{fill:#ffe576;}.cls-5{fill:#1e1e1e;}.cls-5,.cls-6{opacity:0.36;}.cls-6{fill:#897628;}.cls-7{fill:#a08a2e;opacity:0.51;}.cls-11,.cls-8{fill:#fff;}.cls-8{opacity:0.25;}.cls-9{opacity:0.26;}.cls-10{fill:#262828;opacity:0.33;}</style></defs><title>eiffel tower finalAsset 101</title><g id="Layer_2" data-name="Layer 2"><g id="Layer_6" data-name="Layer 6"><path class="cls-1" d="M343.47,137h14.65V60h-26v77H317.47c-5.13,51-23.2,358.14,229.65,640h26C320.27,495.14,338.34,188,343.47,137Z"/><polygon class="cls-2" points="281.28 60 255.12 60 255.12 60 281.33 60 281.28 60"/><path class="cls-1" d="M105.9,773h26s42.91-163.43,163.44-174.62c-4.18-.4-8.48-.61-12.89-.61C151.9,597.77,105.9,773,105.9,773Z"/><path class="cls-3" d="M308.44,597.77c-4.47,0-8.83.21-13.11.61C414.7,609.71,438.76,777,438.76,777h26S439,597.77,308.44,597.77Z"/><path class="cls-3" d="M276.7,137h-26C266.89,550,0,773,0,773H26S292.89,550,276.7,137Z"/><path class="cls-3" d="M317.64,137H276.87c16.19,413-250.7,636-250.7,636h79.9s46-175.23,176.54-175.23c4.42,0,8.71.21,12.89.61,4.27-.4,8.64-.61,13.11-.61C439.16,597.77,464.93,777,464.93,777h82.36C294.44,495.14,312.51,188,317.64,137ZM258.29,453c8.41-17.41,19.7-71.24,27.38-111.47C294,392.11,311.29,453,311.29,453Z"/><path class="cls-3" d="M255.12,129V60h-26v77H250.7c-.1-3-.2-5.46-.32-8Z"/><path class="cls-3" d="M318.34,129s-.37,3-.87,8h14.65V60h-43V77l-7.78-17H255.12v69Z"/><path class="cls-3" d="M255.12,129h-4.74c.12,2.54.22,5,.32,8h4.42Z"/><path class="cls-3" d="M255.12,129v8h62.35c.49-5,.87-8,.87-8Z"/><polygon class="cls-3" points="289.12 0 281.12 0 281.12 59.64 281.28 60 289.12 60 289.12 0"/><polygon class="cls-3" points="289.12 60 289.12 60 281.28 60 281.33 60 289.12 60"/><polygon class="cls-3" points="289.12 77 289.12 60 281.33 60 289.12 77"/><rect class="cls-4" x="136.49" y="473.24" width="300.97" height="70.37"/><rect class="cls-1" x="424.79" y="473.24" width="25.71" height="70.37"/><rect class="cls-5" x="147.65" y="480.92" width="8.67" height="52.41"/><rect class="cls-5" x="166.15" y="480.92" width="8.67" height="52.41"/><rect class="cls-5" x="184.65" y="480.92" width="8.67" height="52.41"/><rect class="cls-5" x="203.15" y="480.92" width="8.67" height="52.41"/><rect class="cls-5" x="221.65" y="480.92" width="8.67" height="52.41"/><rect class="cls-5" x="240.28" y="480.92" width="8.67" height="52.41"/><rect class="cls-5" x="258.78" y="480.92" width="8.67" height="52.41"/><rect class="cls-5" x="277.28" y="480.92" width="8.67" height="52.41"/><rect class="cls-5" x="295.78" y="480.92" width="8.67" height="52.41"/><rect class="cls-5" x="314.28" y="480.92" width="8.67" height="52.41"/><rect class="cls-5" x="332.92" y="480.92" width="8.67" height="52.41"/><rect class="cls-5" x="351.42" y="480.92" width="8.67" height="52.41"/><rect class="cls-5" x="369.92" y="480.92" width="8.67" height="52.41"/><rect class="cls-5" x="388.42" y="480.92" width="8.67" height="52.41"/><rect class="cls-5" x="406.92" y="480.92" width="8.67" height="52.41"/><rect class="cls-6" x="241.84" y="72.15" width="8.67" height="52.41"/><rect class="cls-6" x="260.34" y="72.15" width="8.67" height="52.41"/><rect class="cls-6" x="278.84" y="72.15" width="8.67" height="52.41"/><rect class="cls-6" x="297.34" y="72.15" width="8.67" height="52.41"/><rect class="cls-6" x="315.84" y="72.15" width="8.67" height="52.41"/><rect class="cls-7" x="250.5" y="136.7" width="92.57" height="5.57"/><rect class="cls-2" x="289.12" width="8.22" height="60"/><path class="cls-8" d="M251.5,142.27,279.84,170l-27.62,21,30.4,34.22L251.5,249l28.33,27-37,18,31.72,38-40,17.09,29.58,38.75L223,397.26l28.45,41.16-52.93,34.82S257.89,296.54,251.5,142.27Z"/><path class="cls-9" d="M315.21,142.27,289.77,170l24.8,21-27.3,34.22L315.21,249l-25.45,27L323,294,294.5,332l35.95,17.09-26.57,38.75,36.88,9.42-25.55,41.16,47.54,34.82S309.48,296.54,315.21,142.27Z"/><polygon class="cls-10" points="164.78 544 420.78 544 425.45 555 161.78 555 164.78 544"/><path class="cls-1" d="M281.12,294s-22,130-36,159h13c8.41-17.41,19.7-71.24,27.38-111.47C282.46,323.2,280.58,306.23,281.12,294Z"/><path class="cls-11" d="M164.12,544S98.88,696,0,773C0,773,123.12,676,164.12,544Z"/><path class="cls-11" d="M250.5,136.7S263,315.48,198.57,473.24C198.57,473.24,273.89,309.41,250.5,136.7Z"/><polygon class="cls-11" points="136.12 473 136.12 544 140.87 473.24 136.12 473"/><path class="cls-11" d="M281.12,294s8.2,78.67,30,159C311.12,453,279.12,382,281.12,294Z"/><polygon class="cls-11" points="229.12 60 332.12 60 235.12 66 229.44 136.6 229.12 60"/></g></g></svg>