<svg xmlns="http://www.w3.org/2000/svg" viewBox="0 0 1583.5 138.76"><defs><style>.cls-1{fill:#26350d;}.cls-2{fill:#76821d;}</style></defs><title>grassAsset 85</title><g id="Layer_2" data-name="Layer 2"><g id="Layer_6" data-name="Layer 6"><path class="cls-1" d="M182.86,138.76s-2-43,34-32c0,0-12-51.06,24-27,0,0-36-19.13-12-33.55s32,19.7,32,19.7,4-50.34,24-40.23l20,10.11s4-20.22,30-10.11,14,30.11,14,30.11,12-46.22,28-30.11,0,34.11,0,34.11,26-29.16,36-13.58,0,31.14,0,31.14,18-23.32,30-11.44,0,29.76,0,29.76,36-26.63,44-11.26l8,15.37s24-40.75,36-15.37c0,0,4-42.39,48-18.51,0,0-14-40.61,22-50.37s28,50.37,28,50.37,26-41.28,46-19.7-14,38.2-14,38.2,38-49.77,66-8.2c0,0-30-66.65,36-50.54,0,0,44-69.9,72,21.11,0,0,42-8.14,14,29.43,0,0,20-30.19,34-10.31s0,29.76,0,29.76,16-22.12,26,0,0,38.83,0,38.83,9.39-46.72,37.7-27.72c0,0,14.3-17.23,30.3-11.12l16,6.12s-22-30.88,8-24.44c0,0,20-44.72,40-31.14l20,13.58s28-62.22,54-34.11,18,43.73,18,43.73,26-31.38,34-3.5l8,27.88s18-12.23,30,1.88l12,14.12s12-24,38-8l26,16s-16-13.75,10-9.88,24,19.88,24,19.88-14-50.88,10-50.44,26,50.44,26,50.44,4-24,22-26l18-2,10,12s18-65.76,29-45.88l11,19.88s16-31.76,34-19.88,10,35.88,10,35.88,14-18,22,0c0,0,46-16,44,10,0,0,38,2.21,32,25.1Z"/><path class="cls-2" d="M504.29,138.76s.72-17-12.24-12.64c0,0,4.32-20.17-8.64-10.68,0,0,13-7.56,4.32-13.25S476.21,110,476.21,110s-1.44-19.89-8.64-15.89l-7.2,4s-1.44-8-10.8-4-5,11.89-5,11.89-4.32-18.26-10.08-11.89,0,13.47,0,13.47-9.36-11.52-13-5.36,0,12.3,0,12.3-6.48-9.21-10.8-4.52,0,11.76,0,11.76-13-10.52-15.84-4.45L392,123.35s-8.64-16.09-13-6.07c0,0-1.44-16.74-17.28-7.31,0,0,5-16-7.92-19.89S343.71,110,343.71,110s-9.36-16.3-16.56-7.78,5,15.09,5,15.09S318.51,97.62,308.43,114c0,0,10.8-26.33-13-20,0,0-15.84-27.61-25.92,8.34,0,0-15.12-3.21-5,11.63,0,0-7.2-11.92-12.24-4.07s0,11.76,0,11.76-5.76-8.74-9.36,0,0,15.34,0,15.34-3.38-18.45-13.57-10.95c0,0-5.15-6.81-10.91-4.39l-5.76,2.42s7.92-12.2-2.88-9.65c0,0-7.2-17.66-14.4-12.3l-7.2,5.36S178.09,83,168.73,94.08s-6.48,17.27-6.48,17.27S152.89,99,150,110l-2.88,11s-6.48-4.83-10.8.74L132,127.3s-4.32-9.48-13.68-3.16L109,130.46s5.76-5.43-3.6-3.9-8.64,7.85-8.64,7.85,5-20.1-3.6-19.92-9.36,19.92-9.36,19.92-1.44-9.48-7.92-10.27l-6.48-.79-3.6,4.74s-6.48-26-10.44-18.12l-4,7.85S45.6,105.28,39.12,110s-3.6,14.17-3.6,14.17-5-7.11-7.92,0c0,0-16.56-6.32-15.84,4,0,0-13.68.87-11.52,9.92Z"/><path class="cls-2" d="M786,138.76s.4-9.49-6.84-7.06c0,0,2.41-11.27-4.83-6,0,0,7.24-4.22,2.41-7.4s-6.44,4.35-6.44,4.35-.8-11.11-4.83-8.88l-4,2.23s-.8-4.46-6-2.23-2.82,6.65-2.82,6.65-2.41-10.2-5.63-6.65,0,7.53,0,7.53-5.23-6.43-7.24-3a7.22,7.22,0,0,0,0,6.87s-3.62-5.15-6-2.52,0,6.57,0,6.57-7.24-5.88-8.85-2.48l-1.61,3.39s-4.83-9-7.24-3.39c0,0-.8-9.36-9.66-4.08,0,0,2.82-9-4.43-11.12s-5.63,11.12-5.63,11.12-5.23-9.11-9.25-4.35,2.82,8.43,2.82,8.43-7.64-11-13.28-1.81c0,0,6-14.71-7.24-11.15,0,0-8.85-15.43-14.48,4.66,0,0-8.45-1.8-2.82,6.5,0,0-4-6.66-6.84-2.28s0,6.57,0,6.57-3.22-4.88-5.23,0a10.49,10.49,0,0,0,0,8.57s-1.89-10.31-7.58-6.12c0,0-2.88-3.8-6.1-2.45L623,130.59s4.43-6.82-1.61-5.39c0,0-4-9.87-8-6.87l-4,3s-5.63-13.73-10.86-7.53-3.62,9.65-3.62,9.65-5.23-6.93-6.84-.77l-1.61,6.15s-3.62-2.7-6,.42l-2.41,3.12s-2.41-5.3-7.64-1.77l-5.23,3.53s3.22-3-2-2.18-4.83,4.39-4.83,4.39,2.82-11.23-2-11.13S551,136.33,551,136.33s-.8-5.3-4.43-5.74l-3.62-.44-2,2.65s-3.62-14.51-5.83-10.13l-2.21,4.39s-3.22-7-6.84-4.39-2,7.92-2,7.92-2.82-4-4.43,0c0,0-9.25-3.53-8.85,2.21,0,0-7.64.49-6.44,5.54Z"/><path class="cls-2" d="M1288.29,138.76s.72-17-12.24-12.64c0,0,4.32-20.17-8.64-10.68,0,0,13-7.56,4.32-13.25s-11.52,7.78-11.52,7.78-1.44-19.89-8.64-15.89l-7.2,4s-1.44-8-10.8-4-5,11.89-5,11.89-4.32-18.26-10.08-11.89,0,13.47,0,13.47-9.36-11.52-13-5.36,0,12.3,0,12.3-6.48-9.21-10.8-4.52,0,11.76,0,11.76-13-10.52-15.84-4.45l-2.88,6.07s-8.64-16.09-13-6.07c0,0-1.44-16.74-17.28-7.31,0,0,5-16-7.92-19.89S1127.71,110,1127.71,110s-9.36-16.3-16.56-7.78,5,15.09,5,15.09-13.68-19.66-23.76-3.24c0,0,10.8-26.33-13-20,0,0-15.84-27.61-25.92,8.34,0,0-15.12-3.21-5,11.63,0,0-7.2-11.92-12.24-4.07s0,11.76,0,11.76-5.76-8.74-9.36,0,0,15.34,0,15.34-3.38-18.45-13.57-10.95c0,0-5.15-6.81-10.91-4.39l-5.76,2.42s7.92-12.2-2.88-9.65c0,0-7.2-17.66-14.4-12.3l-7.2,5.36S962.09,83,952.73,94.08s-6.48,17.27-6.48,17.27S936.89,99,934,110l-2.88,11s-6.48-4.83-10.8.74L916,127.3s-4.32-9.48-13.68-3.16L893,130.46s5.76-5.43-3.6-3.9-8.64,7.85-8.64,7.85,5-20.1-3.6-19.92-9.36,19.92-9.36,19.92-1.44-9.48-7.92-10.27l-6.48-.79-3.6,4.74s-6.48-26-10.44-18.12l-4,7.85s-5.76-12.54-12.24-7.85-3.6,14.17-3.6,14.17-5-7.11-7.92,0c0,0-16.56-6.32-15.84,4,0,0-13.68.87-11.52,9.92Z"/><path class="cls-2" d="M1570,138.76s.4-9.49-6.84-7.06c0,0,2.41-11.27-4.83-6,0,0,7.24-4.22,2.41-7.4s-6.44,4.35-6.44,4.35-.8-11.11-4.83-8.88l-4,2.23s-.8-4.46-6-2.23-2.82,6.65-2.82,6.65-2.41-10.2-5.63-6.65,0,7.53,0,7.53-5.23-6.43-7.24-3a7.22,7.22,0,0,0,0,6.87s-3.62-5.15-6-2.52,0,6.57,0,6.57-7.24-5.88-8.85-2.48l-1.61,3.39s-4.83-9-7.24-3.39c0,0-.8-9.36-9.66-4.08,0,0,2.82-9-4.43-11.12s-5.63,11.12-5.63,11.12-5.23-9.11-9.25-4.35,2.82,8.43,2.82,8.43-7.64-11-13.28-1.81c0,0,6-14.71-7.24-11.15,0,0-8.85-15.43-14.48,4.66,0,0-8.45-1.8-2.82,6.5,0,0-4-6.66-6.84-2.28s0,6.57,0,6.57-3.22-4.88-5.23,0a10.49,10.49,0,0,0,0,8.57s-1.89-10.31-7.58-6.12c0,0-2.88-3.8-6.1-2.45l-3.22,1.35s4.43-6.82-1.61-5.39c0,0-4-9.87-8-6.87l-4,3s-5.63-13.73-10.86-7.53-3.62,9.65-3.62,9.65-5.23-6.93-6.84-.77l-1.61,6.15s-3.62-2.7-6,.42l-2.41,3.12s-2.41-5.3-7.64-1.77l-5.23,3.53s3.22-3-2-2.18-4.83,4.39-4.83,4.39,2.82-11.23-2-11.13-5.23,11.13-5.23,11.13-.8-5.3-4.43-5.74l-3.62-.44-2,2.65s-3.62-14.51-5.83-10.13l-2.21,4.39s-3.22-7-6.84-4.39-2,7.92-2,7.92-2.82-4-4.43,0c0,0-9.25-3.53-8.85,2.21,0,0-7.64.49-6.44,5.54Z"/></g></g></svg>