<svg xmlns="http://www.w3.org/2000/svg" viewBox="0 0 173.48 179.53"><defs><style>.cls-1{fill:#e6b24c;}.cls-2{fill:#4f3920;}.cls-3{fill:#a87e35;}.cls-4{fill:#1d1e1c;}</style></defs><title>hole fullAsset 124</title><g id="Layer_2" data-name="Layer 2"><g id="Layer_6" data-name="Layer 6"><rect class="cls-1" x="0.45" y="33.72" width="173.03" height="145.81"/><rect class="cls-2" x="0.45" y="70.53" width="173.03" height="109"/><path class="cls-3" d="M12.53,19.22c9-1.49,52.16-7.45,62.25-7.45s76.83-9.54,93.66,15.79a40.31,40.31,0,0,1,3.67,7h.74c1.47-4,.45-9.7-4.41-17C151.62-7.82,84.88,1.79,74.79,1.79S21.51,7.71,12.53,9.2.76,24.83.76,24.83c-.69,2.05-1.34,8,.14,9.7C2.49,30.24,6.84,20.17,12.53,19.22Z"/><path class="cls-4" d="M10.15,35l162-.43a40.31,40.31,0,0,0-3.67-7C151.62,2.23,84.88,11.85,74.79,11.85s-53.28,5.92-62.25,7.41c-5.69.94-10,11-11.64,15.27C2,35.87,7.93,34,10.15,35Z"/><path class="cls-4" d="M172.47,35.19c.15-.31.27-.63.39-1h-.74Q172.31,34.72,172.47,35.19Z"/><path class="cls-4" d="M172.47,35.19l0,.08c-.1-.32-.2-.74-.31-.74H.9c-.1,0-.14.48-.14.48C-6.54,56.61,118,60.2,137,58,153.95,56,178.79,53.41,172.47,35.19Z"/></g></g></svg>