<svg xmlns="http://www.w3.org/2000/svg" viewBox="0 0 200.4 281.26"><defs><style>.cls-1{fill:#5d5d5d;}.cls-2,.cls-4{fill:#aaa;}.cls-3{fill:#ffce78;}.cls-4{opacity:0.28;}</style></defs><title>river stepsAsset 81</title><g id="Layer_2" data-name="Layer 2"><g id="Layer_6" data-name="Layer 6"><polyline class="cls-1" points="169.34 281.26 0.34 281.26 0.34 120.09 200.34 17.26 200.34 88.14 166.34 173.33 166.34 117.26"/><polygon class="cls-2" points="200.34 88.14 166.34 173.33 166.34 117.26 178.08 37.51 200.34 17.26 200.34 88.14"/><path class="cls-3" d="M71.76,2.45s-25.5-5.52-36,15.18-33,82.64-33,82.64-13.18,34.83,18,35.2,120,0,120,0,18-4.49,30-26.06,24-72.65,24-72.65,24-37.57-27-36.74S71.76,2.45,71.76,2.45Z"/><rect class="cls-4" x="20.76" y="162.01" width="47.04" height="27.22" rx="12" ry="12"/><rect class="cls-4" x="44.28" y="185.86" width="47.04" height="27.22" rx="12" ry="12"/><rect class="cls-4" x="89.22" y="227.99" width="47.04" height="27.22" rx="12" ry="12"/></g></g></svg>