<svg xmlns="http://www.w3.org/2000/svg" viewBox="0 0 216.97 314.98"><defs><style>.cls-1{fill:#aa2141;}.cls-2{fill:#ff244e;}.cls-3{fill:#ff557e;}.cls-4{fill:#ff507a;}.cls-5{fill:#842842;}.cls-6{fill:#ffaed9;}</style></defs><title>tower2Asset 91</title><g id="Layer_2" data-name="Layer 2"><g id="Layer_6" data-name="Layer 6"><rect class="cls-1" x="156.46" y="0.13" width="54.45" height="314.84"/><rect class="cls-2" x="6.38" y="0.13" width="158.16" height="314.84"/><rect class="cls-3" x="31.57" y="157" width="89.96" height="142.16"/><rect class="cls-1" x="44.53" y="157" width="89.96" height="142.16"/><ellipse class="cls-4" cx="36.43" cy="65.64" rx="13.76" ry="19.43"/><ellipse class="cls-1" cx="41.29" cy="65.64" rx="13.76" ry="19.43"/><ellipse class="cls-4" cx="81.41" cy="65.64" rx="13.76" ry="19.43"/><ellipse class="cls-1" cx="86.27" cy="65.64" rx="13.76" ry="19.43"/><ellipse class="cls-4" cx="126.39" cy="65.64" rx="13.76" ry="19.43"/><ellipse class="cls-1" cx="131.25" cy="65.64" rx="13.76" ry="19.43"/><rect class="cls-3" y="0.13" width="165.97" height="24.21"/><rect class="cls-5" x="165.97" y="0.13" width="51.01" height="24.21"/><rect class="cls-3" y="104.8" width="165.97" height="24.21"/><rect class="cls-5" x="165.97" y="104.8" width="51.01" height="24.21"/><ellipse class="cls-4" cx="197.33" cy="65.64" rx="6.63" ry="19.43"/><ellipse class="cls-1" cx="194.99" cy="65.64" rx="6.63" ry="19.43"/><ellipse class="cls-4" cx="175.66" cy="65.64" rx="6.63" ry="19.43"/><ellipse class="cls-1" cx="173.32" cy="65.64" rx="6.63" ry="19.43"/><polygon class="cls-6" points="0.46 0 0.46 7 165.97 0.13 0.46 0"/><polygon class="cls-6" points="0.46 105 166.46 105 0 112 0.46 105"/><polygon class="cls-6" points="31.46 157 134.46 157 31.57 163 31.46 157"/></g></g></svg>