<svg xmlns="http://www.w3.org/2000/svg" viewBox="0 0 138.85 498.97"><defs><style>.cls-1{fill:#671b7a;}.cls-2{fill:#4c1559;}.cls-3{fill:#ff557e;}.cls-4{fill:#aa2141;}.cls-5{fill:#842842;}.cls-6{fill:#ffaed9;}.cls-7{fill:#ffebf1;}</style></defs><title>tower1Asset 90</title><g id="Layer_2" data-name="Layer 2"><g id="Layer_6" data-name="Layer 6"><ellipse class="cls-1" cx="69.4" cy="99.51" rx="65.58" ry="74.25"/><path class="cls-2" d="M60.72,25.83s46.52,11.58,45.61,73.64-.91,62.08-.91,62.08L135,130.23V99.33S129.23,18.49,60.72,25.83Z"/><rect class="cls-2" x="100.26" y="99.51" width="34.72" height="399.46"/><rect class="cls-1" x="4.57" y="99.51" width="100.84" height="399.46"/><path class="cls-3" d="M49.31,298.54h0A28.68,28.68,0,0,1,78,327.22V478.91a0,0,0,0,1,0,0H20.63a0,0,0,0,1,0,0V327.22a28.68,28.68,0,0,1,28.68-28.68Z"/><path class="cls-4" d="M51.39,298.54h0A34.86,34.86,0,0,1,86.25,333.4V478.91a0,0,0,0,1,0,0H28.89a0,0,0,0,1,0,0V321A22.5,22.5,0,0,1,51.39,298.54Z"/><path class="cls-3" d="M53.44,153.23h0A22.8,22.8,0,0,1,76.24,176V219.3a0,0,0,0,1,0,0H30.64a0,0,0,0,1,0,0V176a22.8,22.8,0,0,1,22.8-22.8Z"/><path class="cls-4" d="M55.09,153.23h0A27.71,27.71,0,0,1,82.8,180.94V219.3a0,0,0,0,1,0,0H37.21a0,0,0,0,1,0,0V171.12A17.88,17.88,0,0,1,55.09,153.23Z"/><path class="cls-3" d="M115.75,153.23h12a0,0,0,0,1,0,0v60.09a6,6,0,0,1-6,6h0a6,6,0,0,1-6-6V153.23A0,0,0,0,1,115.75,153.23Z" transform="translate(243.45 372.53) rotate(180)"/><path class="cls-4" d="M114,153.23h12a0,0,0,0,1,0,0V212a7.27,7.27,0,0,1-7.27,7.27h0a4.69,4.69,0,0,1-4.69-4.69V153.23A0,0,0,0,1,114,153.23Z" transform="translate(240.01 372.53) rotate(180)"/><path class="cls-3" d="M115.75,279.54h12a0,0,0,0,1,0,0v29.87a6,6,0,0,1-6,6h0a6,6,0,0,1-6-6V279.54A0,0,0,0,1,115.75,279.54Z" transform="translate(243.45 594.93) rotate(180)"/><path class="cls-4" d="M114,279.54h12a0,0,0,0,1,0,0v28.58a7.27,7.27,0,0,1-7.27,7.27h0A4.69,4.69,0,0,1,114,310.7V279.54A0,0,0,0,1,114,279.54Z" transform="translate(240.01 594.93) rotate(180)"/><path class="cls-3" d="M115.75,337.56h12a0,0,0,0,1,0,0v29.87a6,6,0,0,1-6,6h0a6,6,0,0,1-6-6V337.56A0,0,0,0,1,115.75,337.56Z" transform="translate(243.45 710.97) rotate(180)"/><path class="cls-4" d="M114,337.56h12a0,0,0,0,1,0,0v28.58a7.27,7.27,0,0,1-7.27,7.27h0a4.69,4.69,0,0,1-4.69-4.69V337.56A0,0,0,0,1,114,337.56Z" transform="translate(240.01 710.97) rotate(180)"/><path class="cls-3" d="M115.75,395.58h12a0,0,0,0,1,0,0v29.87a6,6,0,0,1-6,6h0a6,6,0,0,1-6-6V395.58A0,0,0,0,1,115.75,395.58Z" transform="translate(243.45 827.01) rotate(180)"/><path class="cls-4" d="M114,395.58h12a0,0,0,0,1,0,0v28.58a7.27,7.27,0,0,1-7.27,7.27h0a4.69,4.69,0,0,1-4.69-4.69V395.58A0,0,0,0,1,114,395.58Z" transform="translate(240.01 827.01) rotate(180)"/><path class="cls-3" d="M115.75,453.6h12a0,0,0,0,1,0,0v29.87a6,6,0,0,1-6,6h0a6,6,0,0,1-6-6V453.6a0,0,0,0,1,0,0Z" transform="translate(243.45 943.04) rotate(180)"/><path class="cls-4" d="M114,453.6h12a0,0,0,0,1,0,0v28.58a7.27,7.27,0,0,1-7.27,7.27h0a4.69,4.69,0,0,1-4.69-4.69V453.6A0,0,0,0,1,114,453.6Z" transform="translate(240.01 943.04) rotate(180)"/><rect class="cls-3" x="0.5" y="99.51" width="105.83" height="30.72"/><rect class="cls-5" x="106.32" y="99.51" width="32.52" height="30.72"/><rect class="cls-3" x="0.5" y="232.31" width="105.83" height="30.72"/><rect class="cls-5" x="106.32" y="232.31" width="32.52" height="30.72"/><path class="cls-6" d="M3.57,100.13S-1.06,40.93,59.72,24.26c0,0-53.72,17.18-52.72,75.87Z"/><polygon class="cls-6" points="4 130.13 4 232.13 7 232.13 7 130.23 4 130.13"/><polygon class="cls-3" points="69.28 0 59.72 25.13 76 25.13 69.28 0"/><polygon class="cls-7" points="69.28 0 64.5 25.88 59.72 25.13 69.28 0"/><polygon class="cls-7" points="0 99.13 106 99.13 105 103.13 0 103.13 0 99.13"/><polygon class="cls-6" points="4 263.13 4 389.13 4 478.13 8 481.69 8 263.13 4 263.13"/></g></g></svg>