<svg xmlns="http://www.w3.org/2000/svg" viewBox="0 0 385.7 218.24"><defs><style>.cls-1{fill:#4f3920;}.cls-2{fill:#e6b24c;}</style></defs><title>obstacle muttaAsset 84</title><g id="Layer_2" data-name="Layer 2"><g id="Layer_6" data-name="Layer 6"><path class="cls-1" d="M343.44,157.42s5.66,53.77,4.63,59.68-74.87-13-74.87-13S326.9,154.54,343.44,157.42Z"/><path class="cls-1" d="M382.9,16.58S359.79,26.33,356.46,65s0,44,0,44-5.35,13.33-6.69,15.33,2,6,4,16,4,30.67,2,34.67S333,197,333,197H117.38l59-44L255,59l64.67-42.41s42.67-14.41,60,0"/><path class="cls-2" d="M59.38,111s111,3.62,157-35.69S291.38,8,330.38,2s53,3,55,8-5,12-28,12-58,18-96,75-50,93.89-127,99.44S0,164,0,164Z"/></g></g></svg>