<svg xmlns="http://www.w3.org/2000/svg" viewBox="0 0 218.37 795.12"><defs><style>.cls-1{fill:#bcbcbc;}.cls-2{fill:#f4f93a;}.cls-2,.cls-6{opacity:0.22;}.cls-3,.cls-4{fill:none;stroke-miterlimit:10;}.cls-3{stroke:#aaa;stroke-width:5px;}.cls-4{stroke:#fff;stroke-width:3px;opacity:0.36;}.cls-5{fill:#fff;}.cls-6{fill:#3cf7f7;}.cls-7{fill:#757575;}.cls-8{fill:#353535;opacity:0.34;}</style></defs><title>balloonAsset 111</title><g id="Layer_2" data-name="Layer 2"><g id="Layer_6" data-name="Layer 6"><path class="cls-1" d="M151.49,46.38q2.57,2.91,4.94,6l.87-.47Q154.49,49,151.49,46.38Z"/><path class="cls-2" d="M151.49,46.38q2.57,2.91,4.94,6l.87-.47Q154.49,49,151.49,46.38Z"/><path class="cls-3" d="M91.28,204.9s21.25,4.36,20.22,23.47-19.91,10.82-20.22,39,38.77,37.94,17.73,78S54.66,436,76.57,476.71,104.72,549,94.85,595.45s0,199.51,0,199.51"/><path class="cls-4" d="M92.28,204.9s21.25,4.36,20.22,23.47-19.91,10.82-20.22,39,38.77,37.94,17.73,78S55.66,436,77.57,476.71,105.72,549,95.85,595.45s0,199.51,0,199.51"/><path class="cls-1" d="M208.68,93.35c.12,2.1.19,4.21.19,6.34a109.37,109.37,0,0,1-3.36,27q6.49-3.71,12.43-7.87c.28-3.17.42-6.37.42-9.6A109.58,109.58,0,0,0,216,86.29c-1.42,2.63-2.27,4.17-2.27,4.17S211.93,91.53,208.68,93.35Z"/><path class="cls-1" d="M99.69,208.87A109,109,0,0,1,64.29,203q-5.09.32-10.21.46A109.21,109.21,0,0,0,203,165c-7.37,3.42-15.78,7.1-25.07,10.79A108.85,108.85,0,0,1,99.69,208.87Z"/><path class="cls-1" d="M200.55,57.82q1.77-1.35,3.47-2.75A109.6,109.6,0,0,0,187.3,32.92l-.87.47A109.09,109.09,0,0,1,200.55,57.82Z"/><path class="cls-5" d="M99.69,208.87a108.85,108.85,0,0,0,78.26-33.06C147.09,188.05,106.74,200.3,64.29,203A109,109,0,0,0,99.69,208.87Z"/><path class="cls-5" d="M186.43,33.39C158.78,48.14,82.35,84.47,3.27,82.59A109.4,109.4,0,0,0,0,109.18c0,.47,0,.93,0,1.4,47.44-2,146.3-11.33,200.53-52.76A109.09,109.09,0,0,0,186.43,33.39Z"/><path class="cls-5" d="M109.18,0A109,109,0,0,0,21,44.79c41.32-4,94.85-13.16,136.24-33.66A108.69,108.69,0,0,0,109.18,0Z"/><path class="cls-5" d="M208.87,99.69c0-2.13-.07-4.24-.19-6.34C186.8,105.59,96.42,152.4,6,145A108.73,108.73,0,0,0,17.5,168.47c41.23-1.5,130.07-8.65,188-41.81A109.37,109.37,0,0,0,208.87,99.69Z"/><path class="cls-5" d="M186.43,33.39q-2.36-3.09-4.94-6a109.42,109.42,0,0,0-24.24-16.25C115.86,31.63,62.33,40.75,21,44.79A108.71,108.71,0,0,0,3.27,82.59C82.35,84.47,158.78,48.14,186.43,33.39Z"/><path class="cls-6" d="M186.43,33.39q-2.36-3.09-4.94-6a109.42,109.42,0,0,0-24.24-16.25C115.86,31.63,62.33,40.75,21,44.79A108.71,108.71,0,0,0,3.27,82.59C82.35,84.47,158.78,48.14,186.43,33.39Z"/><path class="cls-1" d="M208.68,93.35c3.25-1.82,5-2.88,5-2.88s.85-1.54,2.27-4.17A108.43,108.43,0,0,0,204,55.07q-1.7,1.4-3.47,2.75A108.58,108.58,0,0,1,208.68,93.35Z"/><path class="cls-1" d="M208.68,93.35c3.25-1.82,5-2.88,5-2.88s.85-1.54,2.27-4.17A108.43,108.43,0,0,0,204,55.07q-1.7,1.4-3.47,2.75A108.58,108.58,0,0,1,208.68,93.35Z"/><path class="cls-5" d="M208.68,93.35a108.58,108.58,0,0,0-8.13-35.52C146.32,99.26,47.46,108.55,0,110.58A108.9,108.9,0,0,0,6,145C96.42,152.4,186.8,105.59,208.68,93.35Z"/><path class="cls-6" d="M208.68,93.35a108.58,108.58,0,0,0-8.13-35.52C146.32,99.26,47.46,108.55,0,110.58A108.9,108.9,0,0,0,6,145C96.42,152.4,186.8,105.59,208.68,93.35Z"/><path class="cls-1" d="M205.51,126.66a109,109,0,0,1-27.56,49.15c9.29-3.69,17.71-7.37,25.07-10.79a108.5,108.5,0,0,0,14.92-46.23Q212,122.95,205.51,126.66Z"/><path class="cls-1" d="M205.51,126.66a109,109,0,0,1-27.56,49.15c9.29-3.69,17.71-7.37,25.07-10.79a108.5,108.5,0,0,0,14.92-46.23Q212,122.95,205.51,126.66Z"/><path class="cls-1" d="M27.38,181.49a109.72,109.72,0,0,0,26.7,22q5.12-.13,10.21-.46A109.11,109.11,0,0,1,27.38,181.49Z"/><path class="cls-1" d="M27.38,181.49a109.72,109.72,0,0,0,26.7,22q5.12-.13,10.21-.46A109.11,109.11,0,0,1,27.38,181.49Z"/><path class="cls-5" d="M64.29,203c42.45-2.69,82.8-14.94,113.66-27.19a109,109,0,0,0,27.56-49.15C147.57,159.82,58.72,167,17.5,168.47a109.65,109.65,0,0,0,9.88,13A109.11,109.11,0,0,0,64.29,203Z"/><path class="cls-6" d="M64.29,203c42.45-2.69,82.8-14.94,113.66-27.19a109,109,0,0,0,27.56-49.15C147.57,159.82,58.72,167,17.5,168.47a109.65,109.65,0,0,0,9.88,13A109.11,109.11,0,0,0,64.29,203Z"/><path class="cls-7" d="M36.69,116.12h6.67v.71q0,3.27,2.17,3.27a4.53,4.53,0,0,0,.6-.07q1.91-.37,1.91-2.7a3.28,3.28,0,0,0-.41-1.7,2.64,2.64,0,0,0-1.35-1.07l-4.72-2.1a7.41,7.41,0,0,1-4.69-7.26,8.44,8.44,0,0,1,1.74-5.6A8,8,0,0,1,43.76,97a17.32,17.32,0,0,1,2.69-.22,8,8,0,0,1,5.93,2,7.79,7.79,0,0,1,2,5.75v.6H47.79v-1.35a2.57,2.57,0,0,0-.58-1.57,1.71,1.71,0,0,0-1.33-.56,2.5,2.5,0,0,0-1,.22,2,2,0,0,0-1.09,2,3,3,0,0,0,.43,1.72A4.44,4.44,0,0,0,46,106.89L50.44,109a10.82,10.82,0,0,1,3.7,2.68,6,6,0,0,1,1.07,3.76v1c0,.25,0,.47,0,.67s-.07.6-.17,1.2a7.59,7.59,0,0,1-2.38,4.49,9.51,9.51,0,0,1-5.16,1.87q-1.2.11-2.25.11-4.39,0-6.5-2.05a7.83,7.83,0,0,1-2.12-5.9Z"/><path class="cls-7" d="M57.09,131.08v-27h6.49V106a6,6,0,0,1,4.4-2.59c.29,0,.54,0,.77,0A4.52,4.52,0,0,1,73,106.31q1.39,2.94,1.39,9.45a16.7,16.7,0,0,1-.32,3.65,9.12,9.12,0,0,1-1,2.53,5.52,5.52,0,0,1-2.16,2.1,5.76,5.76,0,0,1-2.79.75,4.5,4.5,0,0,1-3.45-1.41,7.83,7.83,0,0,1-.56-1,3.85,3.85,0,0,1-.3-.33v9Zm6.64-16.53.11,1.87a5.25,5.25,0,0,0,.32,2.08,1.72,1.72,0,0,0,.82.92,2.11,2.11,0,0,0,.8.23q.85,0,1.32-1.11a9.86,9.86,0,0,0,.46-3.54v-3.52a4.22,4.22,0,0,0-.49-2.36,1.77,1.77,0,0,0-1.54-.67,1.13,1.13,0,0,0-1,.54,3.88,3.88,0,0,0-.51,1.54q-.15,1-.17,1.27t0,1.44l-.11.79Z"/><path class="cls-7" d="M76.13,112.67q0-5.21,1.91-7.24t6.56-2q4.65,0,6.58,2t1.93,7.22v3q0,5.21-1.95,7.24t-6.64,2q-4.57,0-6.49-2t-1.91-7.24Zm6.6,4.27v.82a9.58,9.58,0,0,0,.27,1.82,1.8,1.8,0,0,0,.57.82,1.4,1.4,0,0,0,.92.36,1.46,1.46,0,0,0,1.42-1,5.72,5.72,0,0,0,.23-.92,6.4,6.4,0,0,0,.08-1v-7.12a4.24,4.24,0,0,0-.46-2.27,1.44,1.44,0,0,0-1.26-.69,1.47,1.47,0,0,0-1.3.69,4.24,4.24,0,0,0-.46,2.27v6.3Z"/><path class="cls-7" d="M95.33,124.33V104.09h6.49v2l.45-.6a5.65,5.65,0,0,1,4-2h.88a4.09,4.09,0,0,1,.92.11,4.62,4.62,0,0,1,3.09,1.67,7.25,7.25,0,0,1,.88,4.07v15h-6.75V110.65a2.53,2.53,0,0,0-.47-1.74,1.51,1.51,0,0,0-1.42-.36q-1.21.22-1.37,1.8v14Z"/><path class="cls-7" d="M113.85,118H120v.6q0,2.25,1.87,2.25h.38a1.56,1.56,0,0,0,1.53-1.28,2.23,2.23,0,0,0,0-.49,1.92,1.92,0,0,0-.68-1.43l-.3-.23-.19-.08-.19-.07-4.31-1.58a5.82,5.82,0,0,1-4-4.77,10,10,0,0,1-.08-1.05,5,5,0,0,1,.15-1.28,5.78,5.78,0,0,1,2-3.44,8.54,8.54,0,0,1,4.37-1.52l.73-.06.88,0h1a3.7,3.7,0,0,0,.6.08,7.73,7.73,0,0,1,4.5,1.67,4.9,4.9,0,0,1,1.42,3.77V110h-5.85v-.6q0-1.76-1.65-1.76h-.41a1.43,1.43,0,0,0-1,.38,1.25,1.25,0,0,0-.39.94,1.45,1.45,0,0,0,1,1.62l.26.11.23.08,4.84,1.73a5.63,5.63,0,0,1,2.59,1.79,5.25,5.25,0,0,1,.82,3.17,7.32,7.32,0,0,1-1.91,5.41,8.17,8.17,0,0,1-6,2.07,16.13,16.13,0,0,1-1.84-.11q-6.37-.68-6.37-6.3Z"/><path class="cls-7" d="M131.32,112.67q0-5.21,1.91-7.24t6.56-2q4.65,0,6.58,2t1.93,7.22v3q0,5.21-1.95,7.24t-6.64,2q-4.57,0-6.49-2t-1.91-7.24Zm6.6,4.27v.82a9.58,9.58,0,0,0,.27,1.82,1.8,1.8,0,0,0,.57.82,1.4,1.4,0,0,0,.92.36,1.46,1.46,0,0,0,1.42-1,5.72,5.72,0,0,0,.23-.92,6.4,6.4,0,0,0,.08-1v-7.12a4.24,4.24,0,0,0-.46-2.27,1.44,1.44,0,0,0-1.26-.69,1.47,1.47,0,0,0-1.3.69,4.24,4.24,0,0,0-.46,2.27v6.3Z"/><path class="cls-7" d="M150.51,124.33V104.09H157v2.77l.3-.52a7,7,0,0,1,2-2.21,5,5,0,0,1,2.64-.64h.94v6.41l-.86-.11a6.65,6.65,0,0,0-3.73.77,3.09,3.09,0,0,0-1.07,2.69v11.09Z"/><path class="cls-7" d="M162.92,118H169v.6q0,2.25,1.87,2.25h.38a1.56,1.56,0,0,0,1.53-1.28,2.23,2.23,0,0,0,0-.49,1.92,1.92,0,0,0-.68-1.43l-.3-.23-.19-.08-.19-.07-4.31-1.58a5.82,5.82,0,0,1-4-4.77,10,10,0,0,1-.08-1.05,5,5,0,0,1,.15-1.28,5.78,5.78,0,0,1,2-3.44,8.54,8.54,0,0,1,4.37-1.52l.73-.06.88,0h1a3.7,3.7,0,0,0,.6.08,7.73,7.73,0,0,1,4.5,1.67A4.9,4.9,0,0,1,178.7,109V110h-5.85v-.6q0-1.76-1.65-1.76h-.41a1.43,1.43,0,0,0-1,.38,1.25,1.25,0,0,0-.39.94,1.45,1.45,0,0,0,1,1.62l.26.11.23.08,4.84,1.73a5.63,5.63,0,0,1,2.59,1.79,5.25,5.25,0,0,1,.82,3.17,7.32,7.32,0,0,1-1.91,5.41,8.17,8.17,0,0,1-6,2.07,16.13,16.13,0,0,1-1.84-.11q-6.37-.68-6.37-6.3Z"/><path class="cls-8" d="M105.64,218.36s2.83-.89,3,9h5.5s.75-7.25-1.25-9Z"/></g></g></svg>