<svg xmlns="http://www.w3.org/2000/svg" viewBox="0 0 613.35 415.25"><defs><style>.cls-1{fill:#507f26;}.cls-2{fill:#3a561c;}.cls-3{fill:#8aed2b;}</style></defs><title>bushes1Asset 105</title><g id="Layer_2" data-name="Layer 2"><g id="Layer_6" data-name="Layer 6"><rect class="cls-1" y="186.56" width="580.65" height="228.69"/><path class="cls-1" d="M57,159.41s4.32-42.25,21.65-37.83,21.2,18.36,21.2,18.36-24.8-25.2,0-32.45,24.8,0,24.8,0-28-35.91,28-46.58,40.64,45.42,40.64,45.42,41.36,6.61,39.36,22.26l-2,15.65s26-55.52,48-34.76l22,20.76s-54-77.5-10-110.75,82,29.61,82,29.61,52-65.52,80-45.19,22,57,22,57,38-16.67,52,18.33,0,41.72,0,41.72,28.64-12.35,48,10.65,8,34.5,8,34.5l-36,80.13S71.35,194.58,57,159.41Z"/><path class="cls-2" d="M201,164.61s2.92-28.51,14.61-25.53,14.3,12.39,14.3,12.39-16.74-17,0-21.9,16.74,0,16.74,0-18.89-24.24,18.9-31.43S293,128.79,293,128.79s27.91,4.46,26.56,15l-1.35,10.56s17.55-37.46,32.39-23.46l14.85,14S329,92.63,358.67,70.19s55.34,20,55.34,20S449.1,46,468,59.68s14.85,38.47,14.85,38.47,25.64-11.25,35.09,12.37,0,28.15,0,28.15,19.33-8.33,32.39,7.19,5.4,23.28,5.4,23.28l-24.29,54.07S210.68,188.34,201,164.61Z"/><path class="cls-3" d="M0,186.56s3-29,14.88-26,14.57,12.62,14.57,12.62-17-17.32,0-22.3,17,0,17,0-19.25-24.69,19.25-32,27.94,31.22,27.94,31.22,28.43,4.54,27.05,15.3l-1.37,10.76s17.87-38.16,33-23.89l15.12,14.27s-37.12-53.27-6.87-76.12S217,110.74,217,110.74s35.74-45,55-31.06,15.12,39.18,15.12,39.18,26.12-11.46,35.74,12.6,0,28.68,0,28.68,19.69-8.49,33,7.32,5.5,23.72,5.5,23.72l-24.74,55.08S9.86,210.73,0,186.56Z"/><path class="cls-3" d="M316,198.54s2.43-32.46,12.17-29.07,11.91,14.11,11.91,14.11-13.94-19.36,0-24.93,13.94,0,13.94,0-15.74-27.59,15.74-35.79,22.85,34.9,22.85,34.9,23.25,5.07,22.12,17.1l-1.12,12s14.62-42.65,27-26.7L453,176.13S422.61,116.59,447.34,91s46.1,22.75,46.1,22.75,29.23-50.34,45-34.72,12.37,43.79,12.37,43.79,21.36-12.8,29.23,14.08S580,169,580,169s16.1-9.49,27,8.18,4.5,26.51,4.5,26.51l-20.24,61.56S324.07,225.55,316,198.54Z"/></g></g></svg>