<svg xmlns="http://www.w3.org/2000/svg" viewBox="0 0 270.54 809"><defs><style>.cls-1{fill:#ffa233;}.cls-2{fill:#b77023;}.cls-10,.cls-3{fill:#b56128;}.cls-3{opacity:0.24;}.cls-17,.cls-4,.cls-7{fill:#fff;}.cls-5{fill:#ffb583;}.cls-6,.cls-8{fill:#f4f93a;}.cls-6{opacity:0.22;}.cls-7{opacity:0.62;}.cls-8{opacity:0.13;}.cls-9{fill:#72401e;}.cls-11{fill:#ff8533;}.cls-12{fill:#ffae55;}.cls-13{fill:#2a0d3f;opacity:0.3;}.cls-14{fill:#353535;}.cls-15{fill:#ff9852;}.cls-16{fill:#ffe35a;}.cls-17{opacity:0.37;}</style></defs><title>clock towerAsset 102</title><g id="Layer_2" data-name="Layer 2"><g id="Layer_6" data-name="Layer 6"><path class="cls-1" d="M27.79,274c13-.58,25.17,5.75,34.46,14.27A43.89,43.89,0,0,1,72.92,304.6c31.07-10.13,62.19-21.33,95.18-22.66,22.27-.9,44.42,2,66.62,2.31-1.51-5.72-3-11.46-4-17.24a68,68,0,0,1-1.26-14H206.59s.06.22.09.32a28.72,28.72,0,0,1,1,10.12c-11.24,0-21.11,0-25.87.05l-59.4,0A22.49,22.49,0,0,1,121,254a6,6,0,0,1,.13-1H64.24a25.65,25.65,0,0,1,.25,10.41c-4.34,0-8.58,0-12.74,0v0H9.05v14.49A57.71,57.71,0,0,1,27.79,274Z"/><path class="cls-1" d="M256.53,380.92a249.19,249.19,0,0,1-26.52,1c-21.42-.21-43.18-4.14-64.62-2.46-24.48,4.38-48,13.19-71.62,20.78-13,4.17-26,8.13-39.43,10.77-14.76,2.91-30.17,5.31-45.29,4.38V657h1V809h252V380.38Z"/><path class="cls-1" d="M9.7,14.17V752h252V14.17S10.7,13.83,9.7,14.17Z"/><rect class="cls-2" x="178.7" y="14" width="83" height="738"/><path class="cls-3" d="M47,253.35s28.87,8,60.11,9,39.63,0,39.63,0V166h7.08s3.47-16.54-2.78-16.88-79.48,51.95-79.48,51.95Z"/><rect class="cls-4" x="46.88" y="161.04" width="92.32" height="92.32"/><rect class="cls-5" x="36.47" y="148.54" width="114.53" height="12.84"/><rect class="cls-4" x="204.04" y="161.04" width="30.77" height="92.32"/><rect class="cls-5" x="200.57" y="148.54" width="38.18" height="12.84"/><rect class="cls-6" x="10.09" y="14.17" width="19.98" height="531.58"/><rect class="cls-7" x="10.09" y="14.17" width="7.29" height="531.58"/><rect class="cls-8" x="179.22" y="14.17" width="30.88" height="531.58"/><rect class="cls-9" x="30.08" y="332.48" width="123.55" height="11.11"/><rect class="cls-10" x="37.37" y="332.48" width="123.55" height="11.11"/><rect class="cls-9" x="30.08" y="362.16" width="123.55" height="11.11"/><rect class="cls-10" x="37.37" y="362.16" width="123.55" height="11.11"/><rect class="cls-9" x="30.08" y="391.83" width="123.55" height="11.11"/><rect class="cls-10" x="37.37" y="391.83" width="123.55" height="11.11"/><rect class="cls-9" x="30.08" y="421.51" width="123.55" height="11.11"/><rect class="cls-10" x="37.37" y="421.51" width="123.55" height="11.11"/><rect class="cls-9" x="30.08" y="451.18" width="123.55" height="11.11"/><rect class="cls-10" x="37.37" y="451.18" width="123.55" height="11.11"/><rect class="cls-11" x="199.39" y="332.48" width="46.7" height="11.11" transform="translate(445.49 676.08) rotate(180)"/><rect class="cls-11" x="196.64" y="332.48" width="46.7" height="11.11" transform="translate(439.98 676.08) rotate(180)"/><rect class="cls-11" x="199.39" y="362.16" width="46.7" height="11.11" transform="translate(445.49 735.42) rotate(180)"/><rect class="cls-11" x="196.64" y="362.16" width="46.7" height="11.11" transform="translate(439.98 735.42) rotate(180)"/><rect class="cls-11" x="199.39" y="391.83" width="46.7" height="11.11" transform="translate(445.49 794.77) rotate(180)"/><rect class="cls-11" x="196.64" y="391.83" width="46.7" height="11.11" transform="translate(439.98 794.77) rotate(180)"/><rect class="cls-11" x="199.39" y="421.51" width="46.7" height="11.11" transform="translate(445.49 854.12) rotate(180)"/><rect class="cls-11" x="196.64" y="421.51" width="46.7" height="11.11" transform="translate(439.98 854.12) rotate(180)"/><rect class="cls-11" x="199.39" y="451.18" width="46.7" height="11.11" transform="translate(445.49 913.47) rotate(180)"/><rect class="cls-11" x="196.64" y="451.18" width="46.7" height="11.11" transform="translate(439.98 913.47) rotate(180)"/><path class="cls-10" d="M176.62,84.39A66.71,66.71,0,0,0,164.9,60.3a68.89,68.89,0,0,0-4.83-5.78C137.25,43.94,117.3,30.85,121.15,0H71.87S82.28,17.46,58.68,43.14,14.26,67,14.26,107.24v27C18.94,127,25.24,121.07,33,118a12.91,12.91,0,0,1,5.53-2.4C55.91,112.79,94.78,76,97.21,62.82l2.43-13.19S101,78.78,121.85,92c15.85,10,43,7.21,55,28a10.54,10.54,0,0,1,2.16-1V98A97.48,97.48,0,0,0,176.62,84.39Z"/><path class="cls-12" d="M166.39,68.35c-7.06-7.75-16.19-13.08-24-19.92C124.9,38.6,111.95,25.26,115.14,0H65.27S75.81,17.46,51.92,43.14,7,67,7,107.24v36.4l.64.61c.46.41.93.82,1.42,1.2l.13.1.36.24.06,0a34,34,0,0,1,2.81-5.48C16.32,129,22.55,117,31.55,115.57,49.12,112.79,88.45,76,90.91,62.82l2.46-13.19S94.77,78.78,115.84,92c16,10,43.4,7.22,55.61,27.86a11,11,0,0,1,6.2,2.07V86.42s.07-.17.17-.48A71.89,71.89,0,0,0,166.39,68.35Z"/><path class="cls-1" d="M253.49,60.07C241,48.37,229.18,35.1,231.27,0H206.59s5.21,18.39-6.6,45.45c-7.85,18-15.08,23.15-19.05,37a142.47,142.47,0,0,0-1.16,20,47.79,47.79,0,0,0,2.16,14.93c.91,2.74,2,5.41,2.9,8.12l.44,0a11.31,11.31,0,0,1,1.14.06c1.06-2,2.22-3.34,3.49-3.77,8.69-2.92,28.15-41.68,29.37-55.57l1.22-13.89s.67,30.71,11.1,44.6c4.49,6,10.77,7.63,16.47,11.87a10.51,10.51,0,0,1,2.43.93c5.73,3.06,8.55,8.59,11.66,14V91S266,71.77,253.49,60.07Z"/><path class="cls-10" d="M260.69,60.07c-12.51-11.7-24.3-25-22.22-60.07H213.8s5.21,18.39-6.6,45.45S185,70.56,185,113v13a16.28,16.28,0,0,1,9-1.13,6.55,6.55,0,0,1,3.13-3.1c8.69-2.92,28.15-41.68,29.37-55.57l1.22-13.89s.67,30.71,11.1,44.6c7.33,9.77,19.47,8,26,24.86q2.32-12.46,4.54-24.95V91S273.2,71.77,260.69,60.07Z"/><rect class="cls-13" x="46.88" y="161.38" width="92.32" height="2.6"/><rect class="cls-13" x="204.04" y="161.04" width="30.77" height="2.95"/><polygon class="cls-14" points="88.18 206 96.69 206 96.69 211 90.27 211 88.18 206"/><polygon class="cls-14" points="218.14 205 222.69 205 222.69 210 219.2 210 218.14 205"/><polygon class="cls-14" points="108.69 169 113.17 169 112.68 179 108.69 179 108.69 169"/><polygon class="cls-14" points="87.69 169 92.35 169 91.86 179 87.69 179 87.69 169"/><polygon class="cls-14" points="128.69 177 132.95 177 132.46 187 128.69 187 128.69 177"/><polygon class="cls-14" points="128.69 201 132.95 201 132.46 211 128.69 211 128.69 201"/><polygon class="cls-14" points="52.7 201 56.95 201 56.46 211 52.7 211 52.7 201"/><polygon class="cls-14" points="52.7 177 56.95 177 56.46 187 52.7 187 52.7 177"/><polygon class="cls-14" points="69.69 169 73.61 169 73.11 179 69.69 179 69.69 169"/><polygon class="cls-14" points="87.69 249 92.35 249 91.86 238 87.69 238 87.69 249"/><polygon class="cls-14" points="108.69 249 113.17 249 112.68 238 108.69 238 108.69 249"/><polygon class="cls-14" points="128.69 241 132.95 241 132.46 230 128.69 230 128.69 241"/><polygon class="cls-14" points="52.7 241 56.95 241 56.46 230 52.7 230 52.7 241"/><polygon class="cls-14" points="69.69 249 73.61 249 73.11 238 69.69 238 69.69 249"/><polygon class="cls-14" points="90.04 184.44 88.18 205 94.43 205 90.04 184.44"/><polygon class="cls-14" points="99.69 206.15 127 207.2 99.69 211.36 99.69 206.15"/><polygon class="cls-14" points="224.69 169 225.53 169 225.39 179 224.69 179 224.69 169"/><polygon class="cls-14" points="218.69 169 219.81 169 219.68 179 218.69 179 218.69 169"/><polygon class="cls-14" points="229.69 177 230.95 177 230.82 187 229.69 187 229.69 177"/><polygon class="cls-14" points="229.69 201 230.95 201 230.82 211 229.69 211 229.69 201"/><polygon class="cls-14" points="208.69 201 210.1 201 209.97 211 208.69 211 208.69 201"/><polygon class="cls-14" points="208.69 177 210.1 177 209.97 187 208.69 187 208.69 177"/><polygon class="cls-14" points="213.69 169 214.67 169 214.54 179 213.69 179 213.69 169"/><polygon class="cls-14" points="218.69 249 219.81 249 219.68 238 218.69 238 218.69 249"/><polygon class="cls-14" points="224.69 249 225.53 249 225.39 238 224.69 238 224.69 249"/><polygon class="cls-14" points="229.69 241 230.95 241 230.82 230 229.69 230 229.69 241"/><polygon class="cls-14" points="208.69 241 210.1 241 209.97 230 208.69 230 208.69 241"/><polygon class="cls-14" points="213.69 249 214.67 249 214.54 238 213.69 238 213.69 249"/><polygon class="cls-14" points="219.18 184.44 218.67 205 220.38 205 219.18 184.44"/><polygon class="cls-14" points="221.69 206.15 229.18 207.2 221.69 211.36 221.69 206.15"/><path class="cls-15" d="M93.74,107s-32.28,4-25.34,41h52.06S133,123.67,93.74,106.66"/><path class="cls-10" d="M93.74,106.66S135,108,126.71,149h-6.25S132.26,123.66,93.74,106.66Z"/><path class="cls-10" d="M223.36,107s15.28,4,12,41H210.71s-5.91-24.33,12.65-41.34"/><path class="cls-1" d="M223.36,106.66S203.81,108,207.75,149h3S205.12,123.66,223.36,106.66Z"/><path class="cls-16" d="M9.31,145.8S0,103.6,17.3,86.42C28.44,75.34,76,48.24,76,0H64.24S74,36.15,27.46,63.71,7.61,144.25,7.61,144.25"/><path class="cls-10" d="M134.16,38.52s17.62,13.27,25.91,16,19.46,18.88,18.95,41c0,0-4-23-17.36-31.81S134.16,38.52,134.16,38.52Z"/><path class="cls-10" d="M121.15,0s-5.52,33.84,41.4,55.7l-2.27,1.82s-32.28-18.74-35.4-26S114.3,4.43,121.15,0Z"/><path class="cls-10" d="M126.83,37.1s35.71,27,40.23,32.4S156.6,55.33,156.6,55.33Z"/><path class="cls-16" d="M210,0h-3.41c9.09,31.29-19.6,65.61-25.68,78.69-1.78,3.83-2.67,10.49-3,18,.43,1,.85,2,1.26,3,2.64-19.36,10.17-31.56,21.43-49.53C217.68,22.85,210,0,210,0Z"/><path class="cls-16" d="M179.14,99.69l.62,26.28s-1.66-22.49-1.88-29.31S179,95.53,179,95.53Z"/><path class="cls-1" d="M185,126h-5.21s-2-23.1-.79-28,2.8-2.5,2.8-2.5Z"/><path class="cls-10" d="M185,126s9.56,2.85,20.4-12.5,1.81-26.8,1.81-26.8Z"/><path class="cls-10" d="M265.08,120.33s9.63-28.64,3.31-47.42-16.22,15.53-16.22,15.53Z"/><path class="cls-1" d="M262.06,124h2.08s3-1.2-3.71-10.1S262.06,124,262.06,124Z"/><path class="cls-16" d="M179.81,126s-4.19-.55-8.35-6.15-11.69-13.54-23-16.81S94.65,96.4,93.37,49.63c0,0,6.5,32.28,23,38.18s39.83,8.5,46.15,14,15.82,14.81,15.55-.51C178.1,101.26,180.39,109.84,179.81,126Z"/><path class="cls-10" d="M14.26,134.28s4.52-11.7,12.93-13.3,19.69-8.39,19.69-8.39l.69-2.75-16.14,7.46A29.52,29.52,0,0,0,14.26,134.28Z"/><path class="cls-10" d="M21,126s8.49-5.33,11.45-6.47-3.79-1-3.79-1Z"/><path class="cls-12" d="M15.76,131.16S24,117.45,35,114.69s-5.14-10.92-5.14-10.92l-17,9.89Z"/><path class="cls-7" d="M17.38,46.84S17.38,14,40.29,14H10.09Z"/><path class="cls-17" d="M178.77,15h15.62S179,17.43,179,52.14Z"/><polygon class="cls-4" points="37.84 161.61 38.77 151.31 151 149 36.12 149 37.84 161.61"/><path class="cls-4" d="M68.4,147.85s-13.17-33.74,25.34-41.3c0,0-35.05,6.59-22.21,42.34Z"/><polygon class="cls-4" points="29.7 332 161.07 332 29.7 330.4 29.7 332"/><rect class="cls-6" x="9.57" y="13.54" width="42.69" height="531.58"/></g></g></svg>