<svg xmlns="http://www.w3.org/2000/svg" viewBox="0 0 2797.49 420.56"><defs><style>.cls-1{fill:#565038;}.cls-2{fill:#e5e5e5;}.cls-3{fill:#a39a74;}.cls-4{fill:#6d6750;opacity:0.24;}.cls-5{fill:#bcbcbc;}.cls-6{fill:#8e8e8e;}.cls-7{fill:#60593d;opacity:0.32;}.cls-8{fill:#fff;}.cls-9{fill:#507f26;}.cls-10{fill:#ff335a;}.cls-11{opacity:0.22;}.cls-12{fill:#f4f93a;}</style></defs><title>nitt wallAsset 121</title><g id="Layer_2" data-name="Layer 2"><g id="Layer_6" data-name="Layer 6"><rect class="cls-1" x="93.4" y="159.45" width="1782.62" height="259.63"/><rect class="cls-2" x="53.51" y="159.45" width="1782.62" height="261.1"/><rect class="cls-3" x="53.51" y="200.76" width="1782.62" height="218.32"/><path class="cls-4" d="M314.94,200.92s104.92-3.83,204.12,60.49,199.31,145.52,393,146.9,424.75-100.57,499.75-135.1S1704.36,163,1836.36,419.08v-218Z"/><rect class="cls-5" x="1337.71" y="133.43" width="57.29" height="287.13"/><rect class="cls-6" x="1395" y="133.43" width="12" height="287.13"/><polygon class="cls-7" points="0.35 201.08 400.36 201.08 400.36 420.08 387.36 420.08 387.36 220.08 0 220.08 0.35 201.08"/><rect class="cls-5" x="867.71" y="133.43" width="57.29" height="287.13"/><rect class="cls-6" x="925" y="133.43" width="12" height="287.13"/><rect class="cls-2" x="1052.17" y="277.02" width="125.67" height="74.06"/><rect class="cls-4" x="1072.5" y="291.41" width="72" height="45.29"/><rect class="cls-4" x="1085.5" y="291.41" width="72" height="45.29"/><rect class="cls-4" x="1085.5" y="293.24" width="59" height="45.29"/><rect class="cls-4" x="1085.5" y="291.41" width="59" height="45.29"/><rect class="cls-2" x="574.32" y="277.02" width="125.67" height="74.06"/><rect class="cls-4" x="594.65" y="291.41" width="72" height="45.29"/><rect class="cls-4" x="607.65" y="291.41" width="72" height="45.29"/><rect class="cls-4" x="607.65" y="293.24" width="59" height="45.29"/><rect class="cls-4" x="607.65" y="291.41" width="59" height="45.29"/><rect class="cls-5" x="397.71" y="133.43" width="57.29" height="287.13"/><rect class="cls-6" x="455" y="133.43" width="12" height="287.13"/><rect class="cls-2" x="2099.04" y="147.46" width="698.44" height="243"/><rect class="cls-3" x="2099.04" y="201.76" width="698.44" height="218.32"/><rect class="cls-5" x="2568.36" y="133.43" width="57.29" height="287.13"/><rect class="cls-6" x="2625.65" y="133.43" width="12" height="287.13"/><polygon class="cls-7" points="1407.36 201.08 1807.36 201.08 1807.36 420.08 1794.36 420.08 1794.36 220.08 1407 220.08 1407.36 201.08"/><polygon class="cls-7" points="2168.36 201.08 2568.36 201.08 2568.36 420.08 2555.36 420.08 2555.36 220.08 2168 220.08 2168.36 201.08"/><polygon class="cls-7" points="938.36 201.08 1338.36 201.08 1338.36 420.08 1325.36 420.08 1325.36 220.08 938 220.08 938.36 201.08"/><polygon class="cls-7" points="469.36 201.08 869.36 201.08 869.36 420.08 856.36 420.08 856.36 220.08 469 220.08 469.36 201.08"/><path class="cls-6" d="M1865,163.55l11,.7c-4.87-72.89,40.33-93.36,106.64-94.53-1.57,0-3.15-.06-4.74-.06C1908.43,69.67,1860.31,89,1865,163.55Z"/><path class="cls-8" d="M1989.33.41c103.45,2.27,167.56,70.27,164.55,149.17-9,.09-37.49,1.29-54.82,1.81l0,.23c11.41,0,54.43-1.93,65.84-2C2168,67.92,2099.21-2.07,1989.33.41Z"/><path class="cls-6" d="M2157.19,133.43c0-76.59-76.84-133.08-181.21-133h-.41c3.75-.08-3.77,1,11.41,0,97-6.14,181.21,56.43,181.21,133,0,3.47.32,22.61,0,26-8.87,1-59.42,4.28-68.31,4.8,0-.23,0-.46,0-.7,18.09-1.17,50.35-3.35,57.27-4.1C2157.51,156,2157.19,136.9,2157.19,133.43Z"/><path class="cls-8" d="M1989.33.41h-.41c-97.19,2.35-181.21,56.43-181.21,133,0,3.47-.32,22.61,0,26,6.92.75,39.18,2.93,57.27,4.1-4.67-74.58,43.45-93.89,112.94-93.89,1.58,0,3.16,0,4.74.06q3.1-.05,6.26-.06c62.66,0,116.47,26.35,110.14,81.73,17.32-.52,45.84-1.72,54.82-1.81C2156.89,70.68,2092.78,2.68,1989.33.41Z"/><rect class="cls-5" x="1807.71" y="133.43" width="57.29" height="287.13"/><rect class="cls-6" x="1865" y="133.43" width="12" height="287.13"/><rect class="cls-5" x="2099.04" y="133.43" width="57.29" height="287.13"/><rect class="cls-6" x="2156.33" y="133.43" width="12" height="287.13"/><rect class="cls-2" x="1530.02" y="277.02" width="125.67" height="74.06"/><rect class="cls-4" x="1550.36" y="291.41" width="72" height="45.29"/><rect class="cls-4" x="1563.36" y="291.41" width="72" height="45.29"/><rect class="cls-4" x="1563.36" y="293.24" width="59" height="45.29"/><rect class="cls-4" x="1563.36" y="291.41" width="59" height="45.29"/><rect class="cls-2" x="2295.03" y="277.02" width="125.67" height="74.06"/><rect class="cls-4" x="2315.37" y="291.41" width="72" height="45.29"/><rect class="cls-4" x="2328.37" y="291.41" width="72" height="45.29"/><rect class="cls-4" x="2328.37" y="293.24" width="59" height="45.29"/><rect class="cls-4" x="2328.37" y="291.41" width="59" height="45.29"/><polygon class="cls-2" points="2797.36 337.08 2784.36 337.08 2784.36 291.08 2797.36 291.08 2797.36 277.08 2764.36 277.08 2764.36 351.08 2797.36 351.08 2797.36 338.52 2797.36 337.08"/><polygon class="cls-2" points="2784.36 337.08 2797.36 337.08 2797.36 293.24 2797.36 291.08 2784.36 291.08 2784.36 337.08"/><polygon class="cls-4" points="2784.36 337.08 2797.36 337.08 2797.36 293.24 2797.36 291.08 2784.36 291.08 2784.36 337.08"/><path class="cls-9" d="M1731.36,419.08s-15.74-26.82,4.52-28.62l20.26-1.8s-9-33.15,15-25.57,7.5,27.38,7.5,27.38,4.56-27.3,21-13.8,10.47,17.84,10.47,17.84,30-19.66,31.5,0,0,10.66,0,10.66,22.5,2.3,22.5,15.4Z"/><path class="cls-10" d="M1942.54,58.06l-5.83-28.38,8.19-1.63,8.47,16.12-3.52-17.11,6.87-1.37,5.83,28.38-8.09,1.62-8.52-16,3.5,17Z"/><path class="cls-10" d="M1971.31,53.12,1970,24.2l7.78-.32,1.26,28.92Z"/><path class="cls-10" d="M1988.39,29.87l.61-6.32,19.12,1.82-.61,6.32-5.52-.53-2.18,22.49-7.75-.74,2.18-22.49Z"/><path class="cls-10" d="M2016.68,33.23l1.82-6.09,18.42,5.37-1.82,6.09L2029.78,37l-6.46,21.67-7.47-2.18,6.46-21.67Z"/><g class="cls-11"><path class="cls-12" d="M1941.16,58l-5.83-28.38,8.19-1.63L1952,44.09,1948.47,27l6.87-1.37L1961.18,54l-8.09,1.62-8.52-16,3.5,17Z"/><path class="cls-12" d="M1969.93,53l-1.26-28.92,7.78-.32,1.26,28.92Z"/><path class="cls-12" d="M1987,29.79l.61-6.32,19.12,1.82-.61,6.32-5.52-.53-2.18,22.49-7.75-.74,2.18-22.49Z"/><path class="cls-12" d="M2015.3,33.15l1.82-6.09,18.42,5.37-1.82,6.09L2028.4,37l-6.46,21.67-7.47-2.18,6.46-21.67Z"/></g></g></g></svg>