<svg xmlns="http://www.w3.org/2000/svg" viewBox="0 0 500.23 156.18"><defs><style>.cls-1{fill:#191718;opacity:0.19;}.cls-2{fill:#af2049;}.cls-3{fill:#ff335a;}.cls-4{fill:#fff;}.cls-5{fill:#ffebf6;opacity:0.55;}</style></defs><title>contactsAsset 110</title><g id="Layer_2" data-name="Layer 2"><g id="Layer_6" data-name="Layer 6"><path class="cls-1" d="M2.23,63h498v54s-.78,39-23.57,39H31.18S2.23,160.67,2.23,123.08Z"/><rect class="cls-2" x="17.19" width="468.27" height="135.08" rx="12" ry="12"/><rect class="cls-3" width="468.27" height="135.08" rx="12" ry="12"/><rect class="cls-2" x="17.99" y="17.83" width="432.3" height="98.85" rx="12" ry="12"/><path class="cls-4" d="M148.36,59.42H134.64l-.08-2.93a30.93,30.93,0,0,0-.15-3.82,8.9,8.9,0,0,0-.56-2,3.06,3.06,0,0,0-1.31-1.54,4,4,0,0,0-2-.53A3.38,3.38,0,0,0,128,49.67q-1.05,1.05-1.28,4T126.54,68q0,8.79.22,11.58a11.73,11.73,0,0,0,.83,4,3.52,3.52,0,0,0,3.38,2.1,3.38,3.38,0,0,0,2.48-1.06,5.17,5.17,0,0,0,1.35-2.9,60.42,60.42,0,0,0,.3-7.66V72.32h14v3.24q0,9.86-4.47,14.6T130.63,94.9a39.58,39.58,0,0,1-4.1-.23q-7.83-.68-11-5.93-3.43-5.56-3.43-18.4l-.22-2.25v-1l.22-8.64q0-9.09,3.74-13.59t11.83-5.41q2.39-.22,4.49-.22,8.53,0,12.39,4.46t3.85,14.21Z"/><path class="cls-4" d="M151.89,70.67q0-10.42,3.83-14.48t13.13-4q9.3,0,13.16,4.09t3.86,14.44v6.08q0,10.43-3.9,14.48t-13.28,4.05q-9.15,0-13-4.05t-3.83-14.48Zm13.2,8.55v1.65a19.17,19.17,0,0,0,.54,3.64,3.61,3.61,0,0,0,1.15,1.65,2.79,2.79,0,0,0,1.84.71,2.92,2.92,0,0,0,2.84-2.1,11.43,11.43,0,0,0,.46-1.84,12.8,12.8,0,0,0,.15-2.06V66.62a8.49,8.49,0,0,0-.92-4.54,2.88,2.88,0,0,0-2.53-1.39A3,3,0,0,0,166,62.08a8.48,8.48,0,0,0-.92,4.54v12.6Z"/><path class="cls-4" d="M190.29,94V53.49h13v4.05l.9-1.2a11.3,11.3,0,0,1,8.1-4H214a8.18,8.18,0,0,1,1.84.23q4.42.83,6.19,3.34t1.76,8.14V94h-13.5V66.62a5.06,5.06,0,0,0-.95-3.49,3,3,0,0,0-2.84-.71q-2.43.45-2.73,3.6V94Z"/><path class="cls-4" d="M225.92,62.64V53.49h5V41.72h13.5V53.49h5.25v9.15h-5.25v19.5q0,3.08,2.78,3.08h2.47V94q-1.51.23-2.79.38a22.51,22.51,0,0,1-2.64.15h-4.14a5.81,5.81,0,0,1-1.05-.07q-4.74-.45-6.25-1.95t-1.88-6.22V62.64Z"/><path class="cls-4" d="M264.39,65.87H251.72v-1a12.14,12.14,0,0,1,.08-1.57,11.43,11.43,0,0,1,4-7.54,16,16,0,0,1,9.11-3.41q10.57,0,14.74,2.74T283.82,65V90a7.31,7.31,0,0,0,.24,2,15.74,15.74,0,0,0,.73,2H271.9l-.15-.6-.15-.45-.15-.6-.08-1v-1.8q-2.11,4.34-7.6,5.1a15.83,15.83,0,0,1-2.63.23q-5,0-7.75-3.16t-2.71-9.25q0-4.81,1.66-7.37t6-4.21l2-.68,7.71-2A4.84,4.84,0,0,0,270.65,67a4,4,0,0,0,.72-2.59q0-3.31-2.48-3.91a9.08,9.08,0,0,0-1.27-.15q-3.23,0-3.23,3.75ZM266.86,76l-.61.3q-2.68,1.73-2.68,4.13a6.49,6.49,0,0,0,1,3.94,3.22,3.22,0,0,0,2.71,1.39,3.31,3.31,0,0,0,1.15-.15,3.52,3.52,0,0,0,2.18-2,12,12,0,0,0,.73-4.8V74.12Z"/><path class="cls-4" d="M322.14,68.42h-12.3v-1.5l-.15-1.65a10.55,10.55,0,0,0-.69-3.15,3.13,3.13,0,0,0-3-1.73,3.27,3.27,0,0,0-1.87.6,4.38,4.38,0,0,0-1.45,1.84,8.29,8.29,0,0,0-.57,3.41q0,12.6.6,16.13t3.08,3.52a4,4,0,0,0,2-.52,3.65,3.65,0,0,0,1.5-1.87,11.09,11.09,0,0,0,.56-4.05V76.67h12.3V80q-1.28,14.63-16.2,14.63h-2.25c-1.1-.15-1.93-.25-2.48-.3A14.15,14.15,0,0,1,291.54,89q-3.82-4.87-3.83-13.43a55,55,0,0,1,1.8-12.9q2.78-11,16.31-11,8.72,0,12.18,3.11t4.13,11.36Z"/><path class="cls-4" d="M322.59,62.64V53.49h5V41.72H341V53.49h5.25v9.15H341v19.5q0,3.08,2.78,3.08h2.47V94q-1.51.23-2.79.38a22.51,22.51,0,0,1-2.64.15h-4.14a5.81,5.81,0,0,1-1.05-.07q-4.74-.45-6.25-1.95t-1.88-6.22V62.64Z"/><path class="cls-4" d="M347.12,81.24h12.23v1.2q0,4.5,3.75,4.5h.76a3.12,3.12,0,0,0,3.06-2.56,4.47,4.47,0,0,0,.08-1,3.85,3.85,0,0,0-1.36-2.86l-.6-.45-.38-.15-.38-.15-8.62-3.16a11.64,11.64,0,0,1-8-9.55,20,20,0,0,1-.15-2.1,9.94,9.94,0,0,1,.3-2.55,11.57,11.57,0,0,1,3.94-6.88q3-2.37,8.74-3,.75-.07,1.46-.11t1.76,0h2a7.4,7.4,0,0,0,1.2.15q6.15.68,9,3.34t2.85,7.54v1.88H367v-1.2q0-3.53-3.3-3.53h-.83a2.86,2.86,0,0,0-2.06.75,2.49,2.49,0,0,0-.79,1.88,2.9,2.9,0,0,0,2,3.23l.52.22.45.15,9.68,3.46a11.27,11.27,0,0,1,5.17,3.57,10.5,10.5,0,0,1,1.65,6.35q0,7-3.83,10.82-4.13,4.14-12.08,4.13a32.26,32.26,0,0,1-3.68-.22q-12.75-1.35-12.75-12.6Z"/><path class="cls-5" d="M10.29,51.25S8.44,13.12,30.41,12.18,72.06,12,78.36,8H21.56S8.23,2.81,8.23,19.52V54S11.17,56,10.29,51.25Z"/></g></g></svg>