<svg xmlns="http://www.w3.org/2000/svg" viewBox="0 0 216.97 468.58"><defs><style>.cls-1{fill:#135e1c;}.cls-2{fill:#239b34;}.cls-3{fill:#8aed2b;}.cls-4{fill:#1b1c1a;opacity:0.19;}.cls-5{fill:#5b8420;}</style></defs><title>tree 1Asset 103</title><g id="Layer_2" data-name="Layer 2"><g id="Layer_6" data-name="Layer 6"><rect class="cls-1" x="7.95" y="242.17" width="206.5" height="226.41"/><path class="cls-2" d="M166.56,41.55s-24-2.73-36.8,126.17-17.6,254.06,28.8,273.39,62.4-115.36,57.6-177.25S198.56,34,166.56,41.55Z"/><path class="cls-3" d="M174.23,43.86s-18.18,13.72-23.23,55,6.28,208.75,6.28,208.75L126,202.25S133,15.87,174.23,43.86Z"/><path class="cls-4" d="M143.32,81.05l4.84-20.2s33.05,77.21,30.94,128.25-41.84.23-41.84.23S113.88,99.43,143.32,81.05Z"/><path class="cls-1" d="M116.56.55s-24-2.73-36.8,126.17-17.6,254.06,28.8,273.39,62.4-115.36,57.6-177.25S148.56-7,116.56.55Z"/><path class="cls-5" d="M126.23,2.86s-18.18,13.72-23.23,55,6.28,208.75,6.28,208.75L78,161.25S85-25.13,126.23,2.86Z"/><path class="cls-4" d="M82.28,104.08l3.34-20.5S124.29,158.14,126,209.19s-41.71,3.32-41.71,3.32S54.28,124.58,82.28,104.08Z"/><path class="cls-2" d="M45.56.55s-24-2.73-36.8,126.17-17.6,254.06,28.8,273.39S100,284.75,95.16,222.86,77.56-7,45.56.55Z"/><path class="cls-3" d="M55.23,2.86S37.05,16.58,32,57.91s6.28,208.75,6.28,208.75L7,161.25S14-25.13,55.23,2.86Z"/></g></g></svg>