<svg xmlns="http://www.w3.org/2000/svg" viewBox="0 0 101.59 35.25"><defs><style>.cls-1{fill:#ff335a;}.cls-2{opacity:0.22;}.cls-3{fill:#f4f93a;}</style></defs><title>nitt titleAsset 113</title><g id="Layer_2" data-name="Layer 2"><g id="Layer_6" data-name="Layer 6"><path class="cls-1" d="M7.22,34.59,1.38,6.22,9.57,4.59,18,20.71,14.53,3.6,21.4,2.24l5.83,28.38-8.09,1.62-8.52-16,3.5,17Z"/><path class="cls-1" d="M36,29.66,34.72.74,42.5.42l1.26,28.92Z"/><path class="cls-1" d="M53.06,6.41,53.67.08,72.79,1.91l-.61,6.32L66.65,7.7,64.48,30.19l-7.75-.74L58.9,7Z"/><path class="cls-1" d="M81.35,9.77l1.82-6.09L101.59,9l-1.82,6.09-5.32-1.55L88,35.25l-7.47-2.18L87,11.41Z"/><g class="cls-2"><path class="cls-3" d="M5.83,34.51,0,6.13,8.19,4.51l8.47,16.12L13.15,3.52,20,2.16l5.83,28.38-8.09,1.62-8.52-16,3.5,17Z"/><path class="cls-3" d="M34.6,29.58,33.34.66,41.12.34l1.26,28.92Z"/><path class="cls-3" d="M51.68,6.32,52.29,0,71.4,1.82l-.61,6.32-5.52-.53L63.1,30.11l-7.75-.74L57.52,6.88Z"/><path class="cls-3" d="M80,9.68l1.82-6.09L100.21,9l-1.82,6.09L93.07,13.5,86.61,35.17,79.14,33,85.6,11.33Z"/></g></g></g></svg>