<svg xmlns="http://www.w3.org/2000/svg" viewBox="0 0 559.23 483.39"><defs><style>.cls-1{fill:#fff;}.cls-2,.cls-4{fill:#aaa;}.cls-3{fill:#bc2b40;}.cls-4{opacity:0.41;}.cls-5{fill:#ff313c;}.cls-6{fill:#b22d3a;}.cls-7{fill:#ffb852;}.cls-8{fill:#d6d6d6;}</style></defs><title>orionAsset 112</title><g id="Layer_2" data-name="Layer 2"><g id="Layer_6" data-name="Layer 6"><path class="cls-1" d="M338.14,47.61,389.2.15,546.23,35V483.39h-207S338.15,47.61,338.14,47.61Z"/><rect class="cls-2" x="42.23" y="61.24" width="48" height="421.65"/><polygon class="cls-3" points="292.86 22.39 50.69 22.39 0 61.39 269.76 61.39 292.86 22.39"/><rect class="cls-4" x="446.92" y="42.36" width="98.9" height="439.06"/><polygon class="cls-1" points="89.02 82.2 146.68 6.83 348.23 86.33 348.23 481.39 90.23 481.39 89.02 82.2"/><polygon class="cls-5" points="147 6.92 63.04 82.39 89.23 82.39 152.88 20.2 210.03 90.39 381.23 90.39 300.34 3.29 147 6.92"/><polygon class="cls-5" points="389.2 0.03 338.14 47.37 343.46 56.99 387.21 13.05 444.3 42.39 559.23 42.39 559.23 31.87 505.51 0 389.2 0.03"/><polygon class="cls-6" points="389.2 0.03 451.73 28.5 444.3 42.36 387.21 13.04 346.88 53.56 339.75 45.87 389.2 0.03"/><polygon class="cls-6" points="147.1 6.92 213.28 78.07 210.05 90.63 152.89 20.33 89.23 82.39 63.23 82.39 147.1 6.92"/><polygon class="cls-7" points="451.7 28.51 559.23 31.87 559.23 42.39 444.23 42.39 451.7 28.51"/><path class="cls-7" d="M213.37,78l157.1.94,5.17,5.6h0c-5.58.42-8.58,5-12.41,7.37l-153-1.31Z"/><rect class="cls-4" x="213.28" y="90.63" width="147.26" height="391.35"/><ellipse class="cls-2" cx="390.31" cy="75.17" rx="17.25" ry="16.75"/><ellipse class="cls-8" cx="394.31" cy="75.17" rx="13.25" ry="16.75"/><path class="cls-6" d="M147.1,6.52"/><ellipse class="cls-2" cx="141.74" cy="97.64" rx="15.82" ry="19.61"/><ellipse class="cls-8" cx="145.41" cy="97.64" rx="12.16" ry="19.61"/><polygon class="cls-7" points="170.23 21.39 314.55 18.59 318.08 22.39 170.23 21.39"/><polygon class="cls-7" points="182.23 44.39 318.23 44.39 186.03 48.78 182.23 44.39"/><polygon class="cls-7" points="240.23 64.39 354.3 61.39 357.08 64.39 240.23 64.39"/><polygon class="cls-7" points="410.73 6.27 513.29 4.89 515.8 6.76 410.73 6.27"/><polygon class="cls-7" points="431.26 18.39 527.91 18.39 433.96 20.55 431.26 18.39"/><polygon class="cls-7" points="468.48 29.39 549.54 27.91 551.52 29.39 468.48 29.39"/></g></g></svg>