<svg xmlns="http://www.w3.org/2000/svg" viewBox="0 0 435 503.33"><defs><style>.cls-1{fill:#ffd833;}.cls-2,.cls-3{fill:#db9037;}.cls-2{opacity:0.22;}.cls-4{fill:#ffefae;}.cls-5{fill:#ddbd36;}</style></defs><title>malaikottaiAsset 96</title><g id="Layer_2" data-name="Layer 2"><g id="Layer_7" data-name="Layer 7"><path class="cls-1" d="M229,77.33v-42h18s1.91-26.48,16.91-24.69S279,27.43,279,37.93v33.4Z"/><path class="cls-1" d="M0,270.94s20.84-55.12,66.84-70.37,34.08-3.24,46.08-15.24,14-55.64,46-75.82,40-36.18,46-38.18,46-16,78,0,46,45,38,68.5c0,0,36,8.81,24,31.15,0,0,38-2.65,44,20.85s26,13.5,36,31.5,10,47.61,10,47.61V503.33H0Z"/><path class="cls-2" d="M201.5,79.9S245.67,67.33,263,94.67s17.26,59.93-30.75,61.94l25.88,5.14,7.86,2.95s61.25-2.7,28.13,27l18.21,3.76,12.77,1.77S367,192.67,369,210.67s-2,28,6,38.67-4.67,44.67-13.33,52,59.3,0,59.3,0,15.3-46,0-66.67-32.63-29.16-39-39.24-19.37-20.76-34.85-18.09L331.67,180,335,154.32l-35.11-7L304.33,112l-8-24.67S236.68,42.46,201.5,79.9Z"/><path class="cls-3" d="M229,65.31s64.31,19.11,65.81,34.11,12,55.32-51,56.91-72.51.09-83.5,15.09-29.49,24-29.49,24,28.66-7.5,43.08-16.5,20.79-12,55.1-12,76.18-4.68,92-27.09S307.18,56.7,229,65.31Z"/><path class="cls-3" d="M299.89,156.37s29.52,3.63,26.22,28.3c0,0,21.38,1.55,21-28.3S310,140.4,299.89,156.37Z"/><path class="cls-3" d="M264.31,194.42s51,10.5,67.5,0,42-7.33,45,2.33,18,34,25.5,34,16.5,33.4,18,53.3a198.84,198.84,0,0,1,0,33.4s13.15-78.33,9.42-86.7-4.29-15-28.61-24.48S403.69,172.55,346,170C346,170,309.31,195.92,264.31,194.42Z"/><path class="cls-4" d="M229,35.33v30S237,50,229,35.33Z"/><path class="cls-4" d="M247,35.33h32S262.33,28.48,247,35.33Z"/><path class="cls-4" d="M263.91,10.64S248.33,24,247,35.33C247,35.33,246.15,12,263.91,10.64Z"/><path class="cls-4" d="M263.91,0l-2.78,10.64S266.81,15.33,263.91,0Z"/><path class="cls-4" d="M263.91,10.64s-5.32,12-2.78,24.69C261.13,35.33,252.81,19.29,263.91,10.64Z"/><polygon class="cls-5" points="266 35.33 266 66.33 279 71.33 279 35.33 266 35.33"/><path class="cls-4" d="M263.91,10.64l6.43,23.17S271.71,12.65,261,5.66"/><path class="cls-4" d="M232,44.33h47S241,50.67,232,44.33Z"/><path class="cls-4" d="M232,56.33h47S246.33,64,232,56.33Z"/><path class="cls-5" d="M261.13,10.64s13.54.65,9.21,23.17L279,35.33S282.58,11.29,261.13,10.64Z"/><path class="cls-4" d="M229,65.33s-25.33,8-32.67,20.67-10,17.33-22.67,22.67-35.7,24.16-42.85,53.08S116.22,198.44,87,201.33,20.28,232.07,14.64,243.7c0,0,19.72-35.51,64.36-48.28s43-32.76,51.82-59.42,34.11-29.63,42.54-36.41S195,80,201,71.33,229,65.33,229,65.33Z"/></g></g></svg>