<svg xmlns="http://www.w3.org/2000/svg" viewBox="0 0 190.14 345.1"><defs><style>.cls-1{fill:#135e1c;}.cls-2{fill:#239b34;}.cls-3{fill:#8aed2b;}.cls-4{fill:#1b1c1a;opacity:0.19;}.cls-5{fill:#5b8420;}</style></defs><title>trees2Asset 108</title><g id="Layer_2" data-name="Layer 2"><g id="Layer_6" data-name="Layer 6"><rect class="cls-1" x="22.49" y="170.61" width="129.85" height="174.49"/><path class="cls-2" d="M146,25.73s-21-1.69-32.25,78.13S98.29,261.17,138.95,273.15s54.68-71.44,50.47-109.76S174,21.07,146,25.73Z"/><path class="cls-3" d="M152.68,27.16s-15.93,8.49-20.36,34.09,5.51,129.26,5.51,129.26l-27.46-65.28S116.54,9.83,152.68,27.16Z"/><path class="cls-4" d="M125.6,50.19l4.24-12.51S158.8,85.5,157,117.1s-36.67.14-36.67.14S99.79,61.57,125.6,50.19Z"/><path class="cls-1" d="M102.14.34s-21-1.69-32.25,78.13S54.47,235.79,95.13,247.76,149.81,176.32,145.61,138,130.18-4.32,102.14.34Z"/><path class="cls-5" d="M110.62,1.77S94.69,10.27,90.26,35.86s5.51,129.26,5.51,129.26L68.31,99.85S74.47-15.56,110.62,1.77Z"/><path class="cls-4" d="M72.1,64.45,75,51.76s33.88,46.17,35.34,77.78-36.55,2.06-36.55,2.06S47.56,77.14,72.1,64.45Z"/><path class="cls-2" d="M39.93.34s-21-1.69-32.25,78.13S-7.74,235.79,32.92,247.76,87.59,176.32,83.39,138,68-4.32,39.93.34Z"/><path class="cls-3" d="M48.4,1.77S32.47,10.27,28,35.86s5.51,129.26,5.51,129.26L6.09,99.85S12.26-15.56,48.4,1.77Z"/></g></g></svg>