<svg xmlns="http://www.w3.org/2000/svg" viewBox="0 0 6054.35 243"><defs><style>.cls-1{fill:#663;}.cls-2{fill:#fff543;opacity:0.25;}</style></defs><title>backlandAsset 79</title><g id="Layer_2" data-name="Layer 2"><g id="Layer_6" data-name="Layer 6"><rect class="cls-1" width="1915.65" height="243"/><path class="cls-2" d="M1915.74,121.5s-30.65,19.43-54.65,38.47-73,65.35-169,48.19S1464,12,1298,46,1027,237,831,240H760l-23,3H1916Z"/><rect class="cls-1" x="1133" width="1920" height="243"/><path class="cls-2" d="M1133,119.58S1268.45,59.42,1389.85,94,1550,215.57,1805.09,200.58s450.33-75.66,519.16-95.58,266.9-74.58,440.09,0S3053,105,3053,105V243H1133Z"/><rect class="cls-1" x="3049" width="2307" height="243"/><path class="cls-2" d="M3049,242V107.35s57-19,89-35.93C3169.17,55,3265.49-.59,3370.48,61S3495,213.43,3690,243Z"/><path class="cls-1" d="M5352,0V243h702.35c-137.92-15.75-215.82-96.4-328.94-155.24C5586.55,15.54,5358.88.45,5352,0Z"/></g></g></svg>