<svg xmlns="http://www.w3.org/2000/svg" viewBox="0 0 1558.87 127.3"><defs><style>.cls-1{fill:#663;}.cls-2{fill:#a3a028;}</style></defs><title>cactusAsset 38</title><g id="Layer_2" data-name="Layer 2"><g id="page_2" data-name="page 2"><path class="cls-1" d="M28.61,127.3V103.43S0,109.11,0,74.83,10,40.56,10,40.56s10.35,5.62,9.39,22.33,5.24,21,5.24,21V14.3S35-1.18,42.31,6.39s4.37,42.13,4.37,42.13,14.57,2.65,16-2.65,0-18,0-18S60.94,14,68.9,13s15.55,6.9,14.94,19.63S79.94,64.52,71.5,65.8,52.59,65,51.72,69.21s0,58.09,0,58.09Z"/><path class="cls-2" d="M31.09,9.64s8.83,5.33,10.84,18l2,12.67S46.24,1,31.09,9.64Z"/><path class="cls-2" d="M65,18.3S75.9,20.59,78.78,35s0,12,0,12S86.88,15,65,18.3Z"/><path class="cls-2" d="M8.38,47.28s7.23,15.36,7.23,18.52v3.5S18.82,51.6,8.38,47.28Z"/><path class="cls-1" d="M1543.61,127.3v-15.7s15.26,3.73,15.26-18.8-5.52-22.53-5.52-22.53-5.51,3.7-5,14.68-2.75,13.83-2.75,13.83V53s-5.79-10.18-9.73-5.2-2.44,27.7-2.44,27.7-7.92,1.74-8.71-1.74,0-11.86,0-11.86.93-9.07-3.38-9.77-8.43,4.53-8.09,12.91,2.11,21,6.68,21.83,10.24-.55,10.71,2.24,0,38.19,0,38.19Z"/><path class="cls-2" d="M1541.81,49.94s-4.78,3.51-5.87,11.83l-1.09,8.33S1533.6,44.24,1541.81,49.94Z"/><path class="cls-2" d="M1523.43,55.64s-5.88,1.5-7.45,11,0,7.89,0,7.89S1511.6,53.44,1523.43,55.64Z"/><path class="cls-2" d="M1554.52,74.69s-3.91,10.1-3.91,12.18v2.3S1548.87,77.53,1554.52,74.69Z"/><path class="cls-1" d="M654.66,37.53s-9.27,5.82-8.4,23.12-4.65,21.77-4.65,21.77V10.35S632-5.68,625.4,2.16C623,5,621.81,11.61,621.27,18.82a8,8,0,0,1,.3,1.48,94.39,94.39,0,0,1-.51,19.85c.13,3.41.29,5.61.29,5.61s-.39.08-1,.18c-1.2,8.75-2.66,17.49-2.76,26.35a7.14,7.14,0,0,1-.58,2.81c.2,16.51-.3,52.19-.3,52.19h21.92V102.59s25.34,5.88,25.34-29.6S654.66,37.53,654.66,37.53Z"/><path class="cls-2" d="M635.33,5.52s-8,5.52-9.8,18.63l-1.82,13.11S621.64-3.45,635.33,5.52Z"/><path class="cls-2" d="M655.14,44.48s-6.53,15.89-6.53,19.17v3.62S645.71,48.95,655.14,44.48Z"/></g></g></svg>