<svg xmlns="http://www.w3.org/2000/svg" viewBox="0 0 1738.04 186.77"><defs><style>.cls-1{fill:#e6b24c;opacity:0.32;}</style></defs><title>skyAsset 43</title><g id="Layer_2" data-name="Layer 2"><g id="page_2" data-name="page 2"><path class="cls-1" d="M0,83.53s90.41.1,134.41-27.9,144-86,215-36,179,75.8,246,63.9S758,66.71,851.61,113.17,1149,69.63,1192.72,47.63s194.73,3.93,241.21,31,204.41,40.4,249.45,29.72,84.22,47.32,23.63,42.32-203.42-11-264,0-43.48-11-143-11S1193.24,165,1058.41,184.3s-209.33-81.3-334.67-76-191.33,67-282.33,63.15S282.26-4.37,196.34,41.63,17.59,121.43,0,83.53Z"/></g></g></svg>