<svg xmlns="http://www.w3.org/2000/svg" viewBox="0 0 1077.88 233.01"><defs><style>.cls-1{fill:#c69742;}.cls-2{fill:#592f1d;}.cls-3{fill:#e8672e;}.cls-4{fill:#e6b24c;opacity:0.29;}.cls-5{opacity:0.48;}.cls-6{fill:#ff952c;}</style></defs><title>jumping wallAsset 45</title><g id="Layer_2" data-name="Layer 2"><g id="page_2" data-name="page 2"><rect class="cls-1" y="215.01" width="1077.88" height="18" rx="9" ry="9"/><path class="cls-2" d="M864.44,222V99s-1.13-54-41.17-56c-49.58-2.5-49.43,55.45-48.59,61.5,1.54,11.16.13,118.5.13,118.5H699.44V90s1-47-40.75-47c-33,0-45.25,26-45.25,48V223h-175V102S440,44,382.9,46.72c-48,2.29-43.46,64-43.46,64V224h-56V95s3.44-48-45.15-48-39.85,63.75-39.85,63.75V223h-43V18S158.1,0,181.77,0H888.44s34-1.3,34,32V222"/><path class="cls-2" d="M867,0h62.2a31.47,31.47,0,0,1,31.47,31.47V222a0,0,0,0,1,0,0H867a0,0,0,0,1,0,0V0A0,0,0,0,1,867,0Z"/><path class="cls-3" d="M833.44,222V99s-1.13-54-41.17-56c-49.58-2.5-49.43,55.45-48.59,61.5,1.54,11.16.13,118.5.13,118.5H668.44V90s1-47-40.75-47c-33,0-45.25,26-45.25,48V223h-175V102S409,44,351.9,46.72c-48,2.29-43.46,64-43.46,64V224h-56V95s3.44-48-45.15-48-39.85,63.75-39.85,63.75V223h-43V18S127.1,0,150.77,0H857.44s34-1.3,34,32V222"/><path class="cls-3" d="M37.64,107.46h87.63a0,0,0,0,1,0,0V223.06a0,0,0,0,1,0,0H9.67a0,0,0,0,1,0,0V135.43A28,28,0,0,1,37.64,107.46Z"/><path class="cls-2" d="M951,107.46h115.61a0,0,0,0,1,0,0V223.06a0,0,0,0,1,0,0H979a28,28,0,0,1-28-28V107.46A0,0,0,0,1,951,107.46Z" transform="translate(2017.7 330.52) rotate(180)"/><path class="cls-3" d="M886.58,107.46h115.61a0,0,0,0,1,0,0V223.06a0,0,0,0,1,0,0H914.55a28,28,0,0,1-28-28V107.46A0,0,0,0,1,886.58,107.46Z" transform="translate(1888.76 330.52) rotate(180)"/><path class="cls-4" d="M907.44,121h39s33.65,3,36.83,32,0,49,0,49-4.24,5-8-17-3.94-47-28.87-50C946.36,135,898.44,134.56,907.44,121Z"/><path class="cls-4" d="M804.13,12.29S860.89,10,866.15,32s0,186,0,186h9.26V39S881.83-2.43,804.13,12.29Z"/><g class="cls-5"><rect class="cls-6" x="418.44" y="59.01" width="28.21" height="12"/><rect class="cls-6" x="432.54" y="71.01" width="28.21" height="12"/><rect class="cls-6" x="524.83" y="132.01" width="28.21" height="12"/><rect class="cls-6" x="235.75" y="26.01" width="28.21" height="12"/><rect class="cls-6" x="101.1" y="120.01" width="28.21" height="12"/><rect class="cls-6" x="33.55" y="188.01" width="28.21" height="12"/><rect class="cls-6" x="466.43" y="182.01" width="28.21" height="12"/><rect class="cls-6" x="667.65" y="32.01" width="28.21" height="12"/><rect class="cls-6" x="711.3" y="138.01" width="28.21" height="12"/><rect class="cls-6" x="862.58" y="202.5" width="28.21" height="12"/><rect class="cls-6" x="852.93" y="26.01" width="28.21" height="12"/></g><rect class="cls-6" x="432.54" y="71.01" width="28.21" height="12"/></g></g></svg>