<svg xmlns="http://www.w3.org/2000/svg" viewBox="0 0 505.68 86.28"><defs><style>.cls-1{fill:#1e1e1e;opacity:0.27;}.cls-2{fill:#ff4a82;}.cls-3,.cls-8{fill:#fff;}.cls-3{opacity:0.34;}.cls-4{fill:#fc9163;}.cls-5{fill:#2b2b2b;opacity:0.35;}.cls-6{fill:#ffb399;}.cls-7{fill:#ffece6;}</style></defs><title>eventsAsset 46</title><g id="Layer_2" data-name="Layer 2"><g id="page_2" data-name="page 2"><path class="cls-1" d="M1.56,68.13s-11.12,18.72,26,18.14,462.59,0,462.59,0,17.73-4.6,7.1-16.12L450.66,58.63l-338.8-15Z"/><rect class="cls-2" x="118.85" y="10" width="282.14" height="55"/><path class="cls-3" d="M178.62,16.92s-2.5,8.34,6.67,10.42,74.64-3.34,90.91,0,45.58,21.27,64.91,22.1,23.73-24.5,17.15-28.93S253.91,14,227.52,14.21,178.74,12.58,178.62,16.92Z"/><path class="cls-4" d="M374.36,81.88S356.85,75.64,365,39,409.26,0,409.26,0h51.19s39.12,2.78,43.28,26.09,3.71,55.59-22.28,55.86S374.36,81.88,374.36,81.88Z"/><path class="cls-4" d="M132.68,81.88S150.09,75.64,142,39,98,0,98,0H47S8.13,2.78,4,26.09.31,81.68,26.16,81.95,132.68,81.88,132.68,81.88Z"/><rect class="cls-5" x="8.34" y="47" width="130.21" height="30" rx="12" ry="12"/><rect class="cls-5" x="372.07" y="47" width="130.21" height="30" rx="12" ry="12"/><rect class="cls-6" x="16.68" y="14.25" width="19.48" height="59.75" rx="9.74" ry="9.74"/><rect class="cls-6" x="45.43" y="14.25" width="19.48" height="59.75" rx="9.74" ry="9.74"/><rect class="cls-6" x="74.19" y="14.25" width="19.48" height="59.75" rx="9.74" ry="9.74"/><rect class="cls-6" x="102.95" y="14.25" width="19.48" height="59.75" rx="9.74" ry="9.74"/><rect class="cls-6" x="381.38" y="14.25" width="19.48" height="59.75" rx="9.74" ry="9.74"/><rect class="cls-6" x="410.13" y="14.25" width="19.48" height="59.75" rx="9.74" ry="9.74"/><rect class="cls-6" x="438.89" y="14.25" width="19.48" height="59.75" rx="9.74" ry="9.74"/><rect class="cls-6" x="467.64" y="14.25" width="19.48" height="59.75" rx="9.74" ry="9.74"/><path class="cls-7" d="M100.68.35s39.81,12.86,43.41,59.09C144.08,59.44,153.68,12.71,100.68.35Z"/><path class="cls-7" d="M477.38,3.29S495.18,11,500.43,29s1.85,25,1.85,25S518.42,15.58,477.38,3.29Z"/><path class="cls-8" d="M188.89,60.92V25.14H210v7.5H198.38V39.1h10.88v7.16H198.38v7.16h12v7.5Z"/><path class="cls-8" d="M210.9,34.08h9.29l2.58,18.83,2.53-18.83h9.34l-6.46,26.83H217.36Z"/><path class="cls-8" d="M257.51,48.84H244.44l-.1,4.37q0,2.83,2.51,2.83t2.46-3.38V51.57h8.25c.23,0,.34.13.34.4a2.76,2.76,0,0,1-.2,1q-.2.52-.35,1A9.08,9.08,0,0,1,254,59.72q-2.49,1.79-7.21,1.79-6.21,0-8.75-3.14Q235.4,55.09,235.4,47q0-6.42,2.19-9.73a8.43,8.43,0,0,1,6.36-3.81,31.8,31.8,0,0,1,3.58-.25q5.07,0,7.53,2.41t2.46,7.53s0,.48.1,1.34.1,1.61.1,2.24a10.77,10.77,0,0,1-.07,1.17Q257.57,48.54,257.51,48.84ZM249.31,44v-.79a8.88,8.88,0,0,0-.4-3.23,2.13,2.13,0,0,0-1.46-1.19,3.12,3.12,0,0,0-.65,0A2,2,0,0,0,245,39.77a7.14,7.14,0,0,0-.63,3.45V44Z"/><path class="cls-8" d="M260.44,60.92V34.08H269v2.68l.6-.79A7.48,7.48,0,0,1,275,33.34h1.17a5.44,5.44,0,0,1,1.22.15,6.13,6.13,0,0,1,4.1,2.21q1.17,1.67,1.17,5.39V60.92h-8.94V42.78a3.36,3.36,0,0,0-.63-2.31,2,2,0,0,0-1.88-.47q-1.61.3-1.81,2.39V60.92Z"/><path class="cls-8" d="M284,40.14V34.08h3.28v-7.8h8.95v7.8h3.48v6.06h-3.48V53.06q0,2,1.84,2h1.64v5.8l-1.85.25a14.89,14.89,0,0,1-1.75.1h-2.74a3.8,3.8,0,0,1-.7,0q-3.14-.3-4.14-1.29t-1.25-4.12V40.14Z"/><path class="cls-8" d="M300.29,52.47h8.1v.8q0,3,2.48,3h.51a2.07,2.07,0,0,0,2-1.69,2.9,2.9,0,0,0,.05-.65,2.55,2.55,0,0,0-.9-1.89l-.4-.3-.25-.1-.25-.1-5.71-2.09a7.71,7.71,0,0,1-5.31-6.32,13.43,13.43,0,0,1-.1-1.39,6.61,6.61,0,0,1,.2-1.69,7.67,7.67,0,0,1,2.61-4.56,11.33,11.33,0,0,1,5.79-2l1-.07,1.17,0h1.29a5,5,0,0,0,.79.1q4.07.45,6,2.21a6.5,6.5,0,0,1,1.89,5v1.24h-7.75v-.8q0-2.33-2.19-2.34h-.55a1.89,1.89,0,0,0-1.37.5,1.65,1.65,0,0,0-.52,1.24,1.92,1.92,0,0,0,1.29,2.14l.35.15.3.1,6.41,2.29a7.47,7.47,0,0,1,3.43,2.37,7,7,0,0,1,1.09,4.21q0,4.63-2.53,7.17-2.73,2.74-8,2.74a21.28,21.28,0,0,1-2.43-.15q-8.45-.89-8.45-8.35Z"/></g></g></svg>