<svg xmlns="http://www.w3.org/2000/svg" viewBox="0 0 269.1 48.25"><defs><style>.cls-1{fill:#1c1c1c;}</style></defs><title>kaakkaAsset 35</title><g id="Layer_2" data-name="Layer 2"><g id="page_2" data-name="page 2"><path class="cls-1" d="M0,15.09s43.47,2.24,43.47,17.24,12.16,0,12.16,0,17-22,37.71-17.24c0,0-28.64-11.24-41.27-.68C52.07,14.41,24.65-.15,0,15.09Z"/><path class="cls-1" d="M97.77,13s9.69,12.3,22.5,12.3,12.48,8,12.48,8,8.32,11.81,12.32-4.09c0,0,.86-5,10.43-3.95s25.07-1,27.32-8l2.25-7A26.42,26.42,0,0,1,158.4,13c-15.33-6.7-17,6.3-17,6.3s-5.35-13.6-13.35-6.3S103.48,19.73,97.77,13Z"/><path class="cls-1" d="M206.07,5.33s7-12,15,0,48,42,48,42-11,6.44-31.52-14.78c0,0-14.52,1.37-22.52-8.43s-3.77-5.18-3.77-5.18Z"/><polygon class="cls-1" points="206.07 5.33 200.07 8.14 208.13 10.69 206.07 5.33"/><path class="cls-1" d="M219.41,28.07s-5.65,6.15,0,4.48,10.66-8.43,10.66-8.43Z"/></g></g></svg>