<svg xmlns="http://www.w3.org/2000/svg" viewBox="0 0 768 233.01"><defs><style>.cls-1{fill:#e6b24c;opacity:0.29;}</style></defs><title>obstacle2Asset 76</title><g id="Layer_2" data-name="Layer 2"><g id="page_2" data-name="page 2"><path class="cls-1" d="M744,0h-8.95C734.39,0,734,0,734,0H27.33C3.67,0,1,18,1,18v89H0V233H768V107h0V0ZM129,95V215H75V110.75s-6.87-50.11,25.44-61.47C131.59,58.81,129,95,129,95Zm155,7V215H216V110.75s-3.75-51.56,32.21-62.19C285.2,58.35,284,102,284,102ZM545,90V215H490V91c0-18,8.19-38.61,29.18-45.57C545.74,55.07,545,90,545,90ZM710,215H651.47c.29-25,1.06-101.19-.22-110.5-.71-5.15-.92-48,29.68-59C709.1,56.5,710,99,710,99Z"/></g></g></svg>