<svg xmlns="http://www.w3.org/2000/svg" viewBox="0 0 129.09 156.05"><defs><style>.cls-1{fill:#232320;opacity:0.26;}.cls-2{fill:#ff8345;}.cls-3{fill:#8e5238;opacity:0.4;}.cls-4{fill:#a09d4e;}.cls-5{fill:#353414;}.cls-6{fill:#424120;}.cls-7{fill:#ffb899;}</style></defs><title>treeAsset 44</title><g id="Layer_2" data-name="Layer 2"><g id="page_2" data-name="page 2"><ellipse class="cls-1" cx="72.96" cy="148.24" rx="26.65" ry="7.81"/><path class="cls-2" d="M72.41,45.33S59,72.45,59,83.6V151H84.71S90.25,95.39,72.41,45.33Z"/><path class="cls-3" d="M63.06,67.36s-5,19,19.47,20.09c0,0-38.58,13.94,2.14,19.55,0,0-39,14,0,19,0,0-38.14,12.54.87,17.55,0,0-25.9-.64-26.46,8C59.07,151.59,57.57,80.61,63.06,67.36Z"/><path class="cls-4" d="M72.45,45.6S31.21,23.41,15.6,53.5L0,83.6S52.39,94.55,72.45,45.6Z"/><path class="cls-5" d="M72.45,45.6S34.55,64.11,36.23,96.7c.32,6.24.52,10.59.62,13.54C42.2,109.33,77.6,101.18,72.45,45.6Z"/><path class="cls-4" d="M72.45,45.6S74.68,89,105.89,98C105.89,98,117,41,72.45,45.6Z"/><path class="cls-5" d="M72.45,45.6S49,47.44,50.16,23.72L51.27,0S85.83,7.61,72.45,45.6Z"/><path class="cls-6" d="M114.81,28.74C95.4,15.75,77,36.86,70.13,46.23c4.43-.13,8.93-.48,13.4-.58,19.71-4,41.31,12.87,41.31,12.87S139.33,45.14,114.81,28.74Z"/><path class="cls-7" d="M72.45,50.46S86.94,106,79.7,151h5S89.17,77.5,72.45,50.46Z"/></g></g></svg>