<svg xmlns="http://www.w3.org/2000/svg" viewBox="0 0 505.68 500.32"><defs><style>.cls-1{fill:#1e1e1e;opacity:0.27;}.cls-2{fill:#c63;}.cls-3{fill:#f7f000;}.cls-37,.cls-4{fill:#2b2b2b;}.cls-4{opacity:0.45;}.cls-5{fill:#ff4a82;}.cls-6{fill:#fbc600;}.cls-7{fill:#26c8ed;}.cls-8{fill:#198cd9;}.cls-9{fill:#2f0d35;opacity:0.22;}.cls-10{fill:#fea267;}.cls-11,.cls-14,.cls-15,.cls-19,.cls-24,.cls-32,.cls-33,.cls-36,.cls-38,.cls-40{fill:#fff;}.cls-11{opacity:0.42;}.cls-12{fill:#3a3a3a;}.cls-13,.cls-27{fill:#ffddac;}.cls-15{opacity:0.5;}.cls-16{fill:#ffec3e;}.cls-17,.cls-23,.cls-33{opacity:0.2;}.cls-18,.cls-23,.cls-30{fill:#e5925a;}.cls-18,.cls-36{opacity:0.63;}.cls-19{opacity:0.24;}.cls-20{fill:#4c0d25;opacity:0.4;}.cls-21{fill:#1e4873;}.cls-22{fill:#8f32e0;opacity:0.37;}.cls-24{opacity:0.34;}.cls-25{fill:#ff2e2e;}.cls-26{fill:#fc9163;}.cls-27{opacity:0.58;}.cls-28{fill:#424242;}.cls-29{fill:#d37c4c;}.cls-31{fill:#d86a44;}.cls-32{opacity:0.69;}.cls-34{opacity:0.56;}.cls-35{fill:#ff396d;}.cls-37{opacity:0.35;}.cls-38{opacity:0.19;}.cls-39{fill:#ffb399;}.cls-40{opacity:0.38;}.cls-41{fill:#ffece6;}</style></defs><title>pharaoh 1 mouthclosedAsset 47</title><g id="Layer_2" data-name="Layer 2"><g id="page_2" data-name="page 2"><path class="cls-1" d="M1.56,482.16s-11.12,18.72,26,18.14,462.59,0,462.59,0,17.73-4.6,7.1-16.12l-46.59-11.51-338.8-15Z"/><path class="cls-2" d="M441.7,427.7c0-5.81.11-11.72,1.65-17.35.06-8.32.2-22.09.48-44,.24-18.39-2.36-33.31-6.63-45.31H64.47a51.15,51.15,0,0,0-1.18,5v99.42h-.13c.34,21.87-1,43.77-2.73,65.57H441c2.26-18.86,3.81-37.93,4.24-57A7,7,0,0,1,441.7,427.7Z"/><path class="cls-3" d="M111.68,200.28c2.38,3,5.12,6.76,7.82,10.76H385.3c2.87-2,5.71-3.79,8.38-5.76A17.8,17.8,0,0,0,400.9,192H102.58A37.64,37.64,0,0,1,111.68,200.28Z"/><path class="cls-4" d="M99,433.7s2.66.54-3.09-2.69c-10.18-5.71-10.44-60,3.76-60,16.67,0,37.64,20,102.15,30.67s123.85-5.25,134.51-9.63,64.42-38.71,68.67-8.37-10,48.67-10,48.67L364,447.7Z"/><rect class="cls-4" x="62.68" y="360.04" width="4.5" height="56.5"/><rect class="cls-5" x="118.85" y="424.04" width="282.14" height="55"/><rect class="cls-3" x="124.51" y="309.04" width="257.56" height="38.41"/><path class="cls-3" d="M149.44,63l-9,18H358.79c-2.58-6-5.13-12-7.56-18Z"/><path class="cls-3" d="M118.85,125H376.18c-2.37-6-4.95-13-7.63-20H128.43Z"/><path class="cls-3" d="M73.71,297H424a76.18,76.18,0,0,0-23.4-19H93A60.58,60.58,0,0,0,73.71,297Z"/><path class="cls-3" d="M132.68,245.13a37,37,0,0,1-.54,8.91H364c-.08,0-.16-.13-.24-.24-5.46-7.18-6.26-13.76-4.22-18.76H130.9A43.74,43.74,0,0,1,132.68,245.13Z"/><path class="cls-3" d="M99.68,163.3C98.15,165,96.91,166,95.92,168H395a58.38,58.38,0,0,0-6.36-11.1s-1.14-2.9-3.08-7.9H106.85Z"/><path class="cls-6" d="M244.68,8.67C184.64,4.28,165.84,27,160.08,39H340.4C326.17,10,325.23,14.57,244.68,8.67Z"/><path class="cls-7" d="M128.43,105H368.55c-3.18-8-6.5-16-9.77-24H140.43Z"/><path class="cls-8" d="M341.18,40.64a5,5,0,0,1-.78-1.6H160.08a34.42,34.42,0,0,0-2.48,7.67L149.44,63H351.23C347.48,55,344,46.5,341.18,40.64Z"/><path class="cls-7" d="M106.85,149H385.59c-2.23-6-5.54-15-9.41-24H118.85Z"/><path class="cls-7" d="M102.58,192H400.9c.71-8-2.53-17-5.85-24H95.92C88.66,179,95.32,186,102.58,192Z"/><path class="cls-7" d="M130.9,235H359.5c3.41-9,14.8-17,25.8-24H119.5C124.06,218,128.49,226,130.9,235Z"/><path class="cls-7" d="M123.68,269.56C111.14,269.68,101.05,273,93,278H400.6a72.6,72.6,0,0,0-21.92-7.1s2,5.1-14.72-16.9H132.14C130.11,265,123.68,269.56,123.68,269.56Z"/><path class="cls-7" d="M62.86,321H437.17A75.18,75.18,0,0,0,424,297H73.71C67.64,306,64.4,316,62.86,321Z"/><path class="cls-9" d="M208.68,276s-22.39,6.89-23.2,25.22,35.48,34.89,53.34,34.89,69.55-.27,76-30.05S265.54,276,265.54,276Z"/><path class="cls-9" d="M219.55,284s-17.1,5.31-17.71,19.31S228.93,330,242.56,330s53.1-.25,58.05-23S263,284,263,284Z"/><path class="cls-10" d="M208.68,229v74.22s2.16,15.42,39.24,20.24,46.76-24.58,46.76-24.58V229Z"/><path class="cls-7" d="M62.86,356H437.17A75.18,75.18,0,0,0,424,332H73.71C67.64,341,64.4,351,62.86,356Z"/><path class="cls-11" d="M283.68,246v57s-2,12.83-10,17.58c0,0,17-8.48,21-21.7V235Z"/><path class="cls-12" d="M234.36,241.2,242.68,295h16L270.1,241S246.95,245.6,234.36,241.2Z"/><path class="cls-10" d="M177.82,65.12s11.12-19.88,66.4-22.68c37.17-1.88,62.55,6.07,75.18,11.49a15.35,15.35,0,0,1,9.28,14.13v35.58l-3.29,82.57s-1.47,52.51-53.29,62.88-90.56-24.53-90.56-69.27S177.82,65.12,177.82,65.12Z"/><path class="cls-13" d="M253.68,42V251s-58.67,1.33-70-53.4c-10-48.53-5.87-132.52-5.87-132.52S197,33.59,253.68,42Z"/><polygon class="cls-14" points="176.68 105.04 328.68 105.04 328.68 81.04 177.68 81.04 176.68 105.04"/><polygon class="cls-6" points="253.68 80.56 253.68 105.7 328.68 105.18 328.68 80.04 253.68 80.56"/><path class="cls-3" d="M177.68,81l-17.6-42S164.17-4,247.43.7s82.69,4,93,38.33L328.68,81Z"/><path class="cls-7" d="M183.68,61h18L188.82,8.12S175,13.49,169.28,21.31Z"/><path class="cls-7" d="M215.13,1.26l3,59.78h20.5L240.05.41S226.49-.94,215.13,1.26Z"/><path class="cls-7" d="M261.68,1.5V61h22.5l2.61-57.95S273.68,2.47,261.68,1.5Z"/><path class="cls-7" d="M305.19,4.94,297.43,61h19.25l15.61-43.41S327.55,6.79,305.19,4.94Z"/><polygon class="cls-15" points="286.83 3.09 284.18 61.04 285.68 61.04 293.68 3.65 286.83 3.09"/><path class="cls-16" d="M378.68,271.28s.21,2.31,0,20.26c-.5,43-122.23,99.16-122.23,99.16S109.92,347.12,123.59,269.6c0,0-60.91,5.11-60.91,51.44v46.33l115.84,55a17.71,17.71,0,0,0,7.59,1.71h71.57l61.12,1.25a21.36,21.36,0,0,0,8.14-1.43l116.74-45.14V353S443.35,271.28,378.68,271.28Z"/><polygon class="cls-17" points="283.3 40.69 327.68 83.92 327.68 106.04 254.68 106.04 257.45 52.26 283.3 40.69"/><polygon class="cls-15" points="239.68 0.4 239.68 59.04 242.68 59.04 244.53 0.57 239.68 0.4"/><polygon class="cls-17" points="149.44 63.04 177.68 81.04 177.68 125.04 149.44 63.04"/><path class="cls-18" d="M264.51,132.33s-5,25.21,12.16,42.71,38.12,29.5,31.14,52c0,0,17.23-13.76,19.08-59.88s0-29.55,0-29.55S296.44,91.12,264.51,132.33Z"/><polygon class="cls-19" points="172.66 77.9 177.68 81.04 259.68 81.04 259.68 78.04 172.66 77.9"/><path d="M281.92,39"/><path class="cls-20" d="M351.23,63,328.68,81l-1.89,70s3.74,59.54-24.69,84l76.57,36.24s-21.17-20.36-20.19-30.3c1.42-14.46,17.69-23.84,17.69-23.84s24.32-9.69,24.71-27.53c.28-12.88-4.07-17.21-9.69-28.89S351.23,63,351.23,63Z"/><path class="cls-21" d="M253.25,32.29S230.5,30,227.59,46.7,245,66,245.48,83.37s0,9.5,0,9.5.53,12.83,8.2,12.83,11-12.67,11-12.67V81S267.34,68.7,278,63.37,293.82,29.52,253.25,32.29Z"/><path class="cls-22" d="M256.45,49.37s.5,21.32,11.36,24c0,0,3.76-5.78,8.52-9.06s12.29-9,7.65-22.15S256.45,49.37,256.45,49.37Z"/><path class="cls-23" d="M242.13,132.33s5.05,25.21-12.2,42.71-38.25,29.5-31.25,52c0,0-17.29-13.76-19.15-59.88s0-29.55,0-29.55S210.09,91.12,242.13,132.33Z"/><path class="cls-24" d="M178.62,431s-2.5,8.34,6.67,10.42,74.64-3.34,90.91,0,45.58,21.27,64.91,22.1,23.73-24.5,17.15-28.93-104.34-6.51-130.73-6.3S178.74,426.61,178.62,431Z"/><path class="cls-25" d="M256.68,49v2a18,18,0,0,1-18,18h0S227.59,59,227.59,52.84,226.68,24.7,256.68,49Z"/><path class="cls-14" d="M229.93,40.6s3.83-4.89,10.12.11,8.49,7.33,16.39,8.66,12.9-3.91,15.23-5.45,7.06-4.72,12.31-1.76c0,0-5.34-11.82-25.31-11.07S235.18,34.12,229.93,40.6Z"/><path class="cls-26" d="M374.36,495.92S356.85,489.67,365,453s44.29-39,44.29-39h51.19s39.12,2.78,43.28,26.09,3.71,55.59-22.28,55.86S374.36,495.92,374.36,495.92Z"/><path class="cls-27" d="M320.68,106v57s6.5,82-67,88c0,0,68.91,7.26,74-83V105Z"/><path class="cls-26" d="M132.68,495.92S150.09,489.67,142,453,98,414,98,414H47S8.13,416.82,4,440.13.31,495.72,26.16,496,132.68,495.92,132.68,495.92Z"/><path class="cls-28" d="M182.12,136.18s10.23-22.72,31.9-22.72,29.21,15.1,29.21,15.1.94,4.89-4.71,4.44S221.2,102,182.12,136.18Z"/><path class="cls-28" d="M322.44,136.18s-10.23-22.72-31.9-22.72-29.21,15.1-29.21,15.1-.94,4.89,4.71,4.44S283.36,102,322.44,136.18Z"/><path class="cls-29" d="M238.82,186h26.72S251.94,196,238.82,186Z"/><path class="cls-30" d="M233.68,212h40s-7.75-7.5-12.5-9.25c0,0-3.5,4.5-6.25,4.63s-5.75-4.62-5.75-4.62S239.93,204.79,233.68,212Z"/><path class="cls-31" d="M233.68,212h40s-4,9.25-18.5,11.25S233.68,212,233.68,212Z"/><path class="cls-32" d="M320.68,86.41V106h7V81h-1.62A5.37,5.37,0,0,0,320.68,86.41Z"/><polygon class="cls-15" points="316.68 61.04 332.29 17.63 334.55 21.83 321.18 61.04 316.68 61.04"/><polygon class="cls-15" points="188.57 8.12 201.68 61.04 204.68 61.04 193.17 6.45 188.57 8.12"/><polygon class="cls-15" points="160.08 39.04 174.68 61.04 171.41 64.31 160.08 39.04"/><path class="cls-33" d="M348,65.64l35,88.73s20.73,31.5,12,48.42c0,0,5.93-1.42,6-16.75s-9.6-22.13-16.3-39.43S351.23,63,351.23,63Z"/><g class="cls-34"><path class="cls-14" d="M238.82,257.54s16.86,5.45,25.36,0C264.18,257.54,253.71,267.83,238.82,257.54Z"/><path class="cls-14" d="M241.93,267.83s11,3.94,18.75,0C260.67,267.83,251.43,276.31,241.93,267.83Z"/><path class="cls-14" d="M244.43,277.82s6.94,5.32,13.25,0C257.68,277.82,250.73,288.36,244.43,277.82Z"/><path class="cls-14" d="M247.68,288h6S249.18,292,247.68,288Z"/></g><polygon class="cls-6" points="264.68 81.04 327.68 81.04 265.54 78.24 264.68 81.04"/><path class="cls-35" d="M123.59,269.6S120.92,352,250.3,352s128.38-80.76,128.38-80.76,22-3.43,35.51,11.23c0,0-7.26,109.57-163.89,109.57S89.68,279.65,89.68,279.65,105.26,269.12,123.59,269.6Z"/><path class="cls-11" d="M388.68,282.51s-20.7,87.3-137,82.53C251.68,365,362.68,384,388.68,282.51Z"/><path class="cls-14" d="M401,273.78"/><path class="cls-36" d="M408.8,277.83S400.18,327,367.18,351c0,0,29.27-22,37.27-75.77A28.2,28.2,0,0,1,408.8,277.83Z"/><rect class="cls-37" x="8.34" y="461.04" width="130.21" height="30" rx="12" ry="12"/><rect class="cls-37" x="372.07" y="461.04" width="130.21" height="30" rx="12" ry="12"/><path class="cls-38" d="M108.34,272.28s4,48.76,37.67,67.09c0,0-37-8.54-43-66.77Z"/><rect class="cls-39" x="16.68" y="428.29" width="19.48" height="59.75" rx="9.74" ry="9.74"/><rect class="cls-39" x="45.43" y="428.29" width="19.48" height="59.75" rx="9.74" ry="9.74"/><rect class="cls-39" x="74.19" y="428.29" width="19.48" height="59.75" rx="9.74" ry="9.74"/><rect class="cls-39" x="102.95" y="428.29" width="19.48" height="59.75" rx="9.74" ry="9.74"/><rect class="cls-39" x="381.38" y="428.29" width="19.48" height="59.75" rx="9.74" ry="9.74"/><rect class="cls-39" x="410.13" y="428.29" width="19.48" height="59.75" rx="9.74" ry="9.74"/><rect class="cls-39" x="438.89" y="428.29" width="19.48" height="59.75" rx="9.74" ry="9.74"/><rect class="cls-39" x="467.64" y="428.29" width="19.48" height="59.75" rx="9.74" ry="9.74"/><path class="cls-40" d="M376.94,284s36.29,5.24,31.94,18.33c0,0,20.7,14.67,20.77,53.67s0,58,0,58h14.07V353s-2-83.52-65-81.76Z"/><path class="cls-41" d="M100.68,414.38s39.81,12.86,43.41,59.09C144.08,473.47,153.68,426.75,100.68,414.38Z"/><path class="cls-41" d="M477.38,417.33s17.79,7.68,23,25.71,1.85,25,1.85,25S518.42,429.62,477.38,417.33Z"/><path class="cls-14" d="M188.89,475V439.17H210v7.5H198.38v6.46h10.88v7.16H198.38v7.16h12V475Z"/><path class="cls-14" d="M210.9,448.12h9.29L222.78,467l2.53-18.83h9.34L228.19,475H217.36Z"/><path class="cls-14" d="M257.51,462.88H244.44l-.1,4.37q0,2.83,2.51,2.83t2.46-3.38v-1.09h8.25c.23,0,.34.13.34.4a2.76,2.76,0,0,1-.2,1q-.2.52-.35,1a9.08,9.08,0,0,1-3.33,5.76q-2.49,1.79-7.21,1.79-6.21,0-8.75-3.14-2.68-3.28-2.68-11.35,0-6.42,2.19-9.73a8.43,8.43,0,0,1,6.36-3.81,31.8,31.8,0,0,1,3.58-.25q5.07,0,7.53,2.41t2.46,7.53s0,.48.1,1.34.1,1.61.1,2.24a10.77,10.77,0,0,1-.07,1.17Q257.57,462.58,257.51,462.88Zm-8.2-4.87v-.79a8.88,8.88,0,0,0-.4-3.23,2.13,2.13,0,0,0-1.46-1.19,3.12,3.12,0,0,0-.65,0,2,2,0,0,0-1.83,1.07,7.14,7.14,0,0,0-.63,3.45V458Z"/><path class="cls-14" d="M260.44,475V448.12H269v2.68l.6-.79a7.48,7.48,0,0,1,5.37-2.63h1.17a5.44,5.44,0,0,1,1.22.15,6.13,6.13,0,0,1,4.1,2.21q1.17,1.67,1.17,5.39V475h-8.94V456.81a3.36,3.36,0,0,0-.63-2.31,2,2,0,0,0-1.88-.47q-1.61.3-1.81,2.39V475Z"/><path class="cls-14" d="M284,454.18v-6.06h3.28v-7.8h8.95v7.8h3.48v6.06h-3.48V467.1q0,2,1.84,2h1.64v5.8l-1.85.25a14.89,14.89,0,0,1-1.75.1h-2.74a3.8,3.8,0,0,1-.7,0q-3.14-.3-4.14-1.29t-1.25-4.12V454.18Z"/><path class="cls-14" d="M300.29,466.5h8.1v.8q0,3,2.48,3h.51a2.07,2.07,0,0,0,2-1.69,2.9,2.9,0,0,0,.05-.65,2.55,2.55,0,0,0-.9-1.89l-.4-.3-.25-.1-.25-.1-5.71-2.09a7.71,7.71,0,0,1-5.31-6.32,13.43,13.43,0,0,1-.1-1.39,6.61,6.61,0,0,1,.2-1.69,7.67,7.67,0,0,1,2.61-4.56,11.33,11.33,0,0,1,5.79-2l1-.07,1.17,0h1.29a5,5,0,0,0,.79.1q4.07.45,6,2.21a6.5,6.5,0,0,1,1.89,5v1.24h-7.75v-.8q0-2.33-2.19-2.34h-.55a1.89,1.89,0,0,0-1.37.5,1.65,1.65,0,0,0-.52,1.24,1.92,1.92,0,0,0,1.29,2.14l.35.15.3.1,6.41,2.29a7.47,7.47,0,0,1,3.43,2.37,7,7,0,0,1,1.09,4.21q0,4.63-2.53,7.17-2.73,2.74-8,2.74a21.28,21.28,0,0,1-2.43-.15q-8.45-.89-8.45-8.35Z"/></g></g></svg>