<svg xmlns="http://www.w3.org/2000/svg" viewBox="0 0 659 345.56"><defs><style>.cls-1{opacity:0.2;}.cls-2{fill:#fc3;}.cls-3{fill:#c63;}</style></defs><title>pyramidAsset 42</title><g id="Layer_2" data-name="Layer 2"><g id="page_2" data-name="page 2"><rect class="cls-1" x="20.68" y="321.56" width="635.63" height="24" rx="12" ry="12"/><path class="cls-2" d="M0,333.56l284-322s24-26,52,0,322,322,322,322Z"/><path class="cls-3" d="M305.64.48A67.54,67.54,0,0,1,330,30.56c8,20,157,303,157,303H659L360.5,35.06l-19-19S327.78-2.09,305.64.48Z"/><polygon class="cls-3" points="34 304.56 477.5 304.56 472.25 299.38 34 304.56"/><polygon class="cls-3" points="51 276.56 435 276.56 52.98 273.48 51 276.56"/><polygon class="cls-3" points="106 244.56 441 244.56 439.45 241.08 106 244.56"/><polygon class="cls-3" points="112 206.56 389 206.56 115.03 203.14 112 206.56"/><polygon class="cls-3" points="163 173.56 404 173.56 408.5 170.06 163 173.56"/><polygon class="cls-3" points="174 136.56 346 136.56 177.81 131.95 174 136.56"/><polygon class="cls-3" points="230 100.56 367 100.56 364.73 95.7 230 100.56"/><polygon class="cls-3" points="237 64.56 313 64.56 239.48 62.04 237 64.56"/><polygon class="cls-3" points="286 37.56 334 37.56 340 42.06 286 37.56"/><polygon class="cls-2" points="378 126.56 427 126.56 380.5 131.95 378 126.56"/><polygon class="cls-2" points="418 154.22 470 145.56 475.17 149.89 418 154.22"/><polygon class="cls-2" points="416.68 199.46 481 193.06 418 203.14 416.68 199.46"/><path class="cls-2" d="M443.43,250.59s6.07,9,13.07,10,105.17,0,105.17,0L468,264.22s-16.72,1.34-9.65,14.82S441,269.56,441,269.56Z"/><path class="cls-2" d="M428.6,201.56s-8.35,4.8-4.9,11.39-15.19,0-15.19,0l8.18-11.42Z"/><polygon class="cls-2" points="474 226.56 552 226.56 549.59 224.56 474 226.56"/><polygon class="cls-2" points="521.67 304.56 624.04 299.38 629.2 304.54 521.67 304.56"/><path class="cls-2" d="M374.64,118.74s6.69,7.82,15.69,7.82-19,2.7-19,2.7Z"/><polygon class="cls-2" points="382 88.56 413 88.56 408.5 83.19 382 88.56"/><polygon class="cls-2" points="344 59.56 373 59.56 338.5 54.56 344 59.56"/><polygon class="cls-2" points="337 26.56 351 26.56 349.75 24.31 337 26.56"/></g></g></svg>