<svg xmlns="http://www.w3.org/2000/svg" viewBox="0 0 636.84 445.97"><defs><style>.cls-1{fill:#450b5b;}.cls-2{fill:#25d8a9;}.cls-3,.cls-5,.cls-6{fill:#1d7259;}.cls-4{fill:#fff;}.cls-5{opacity:0.34;}.cls-6{opacity:0.2;}.cls-7{fill:#afafaf;}.cls-8{fill:#af863e;opacity:0.54;}.cls-9{fill:#896b29;}.cls-10{fill:#66605f;}.cls-11{fill:#ada6a5;}.cls-12{fill:#443d3d;}.cls-13{fill:#ffbf1f;}.cls-14{fill:#775e25;opacity:0.33;}.cls-15,.cls-17{fill:#bf305c;}.cls-16{fill:#ff396d;}.cls-17{opacity:0.77;}.cls-18{fill:#684e29;opacity:0.8;}.cls-19{fill:#211f1c;opacity:0.19;}.cls-20{fill:#ff952c;}.cls-21,.cls-27,.cls-28{fill:#ffb273;}.cls-22,.cls-24,.cls-25,.cls-26{fill:#a56226;}.cls-23{fill:#ffb133;opacity:0.5;}.cls-24{opacity:0.46;}.cls-25{opacity:0.18;}.cls-26{opacity:0.26;}.cls-27{opacity:0.42;}.cls-28{opacity:0.59;}.cls-29,.cls-30{fill:#ffd597;}.cls-30{opacity:0.63;}.cls-31{fill:#634722;}.cls-32{fill:none;stroke:#fff;stroke-linecap:round;stroke-linejoin:round;stroke-width:2px;}</style></defs><title>stall and camelAsset 40</title><g id="Layer_2" data-name="Layer 2"><g id="page_2" data-name="page 2"><rect class="cls-1" x="13.28" y="177.47" width="8.88" height="249" rx="4.44" ry="4.44"/><rect class="cls-1" x="417.28" y="147.47" width="8.88" height="249" rx="4.44" ry="4.44"/><rect class="cls-1" x="142.28" y="147.47" width="8.88" height="249" rx="4.44" ry="4.44"/><path class="cls-2" d="M211.28,3.72s-64,128.75-210,174.75h360l77-32s-161-31-211-126C227.28,20.47,219.35-10.45,211.28,3.72Z"/><rect class="cls-1" x="346.28" y="177.47" width="8.88" height="249" rx="4.44" ry="4.44"/><path class="cls-3" d="M220.28,4.47S227,147.35,356.16,180.91l83.12-35.44S275.28,122.47,220.28,4.47Z"/><path class="cls-4" d="M.21,178.2V216.3c0-16.51,7.69-29.89,17.31-29.89S34.87,199.8,34.87,216.3A48.28,48.28,0,0,1,33.2,229c2.89-3.65,6.44-5.66,10.3-5.66,5.48,0,10.36,4.29,13.55,11.14l.17,0a45.57,45.57,0,0,1-3.51-18c0-16.51,7.79-30,17.41-30s17.41,13.34,17.41,29.85a47.2,47.2,0,0,1-2.21,14.55c3.09-4.77,7.17-7.69,11.65-7.69s8.57,2.9,11.65,7.68a47.35,47.35,0,0,1-2.21-14.57c0-16.51,7.79-29.89,17.41-29.89s17.41,13.54,17.41,30c0,8-1.84,15.32-4.83,20.73l.34.06c3.09-8.45,8.52-13.91,14.71-13.91,3.86,0,7.43,2.08,10.32,5.74a48.61,48.61,0,0,1-1.65-12.74c0-16.51,7.79-29.91,17.41-29.91s17.41,13.37,17.41,29.88a45.67,45.67,0,0,1-3.2,17.25c3.19-6.35,7.91-10.37,13.18-10.37,4,0,7.74,2.36,10.69,6.31a48.06,48.06,0,0,1-1.79-13.19c0-16.51,7.79-29.89,17.41-29.89s17.41,13.38,17.41,29.89A46.7,46.7,0,0,1,247,232c3.15-5.43,7.51-8.79,12.33-8.79,4.21,0,8.08,2.57,11.09,6.84a47.77,47.77,0,0,1-1.95-13.73c0-16.51,7.79-29.89,17.41-29.89s17.41,13.38,17.41,29.89A45.46,45.46,0,0,1,300,233.93c3.19-6.56,8-10.74,13.36-10.74,4,0,7.69,2.33,10.64,6.23a48.1,48.1,0,0,1-1.76-13.12c0-16.51,7.78-29.89,17.39-29.89S357,199.8,357,216.3V178.2Z"/><path class="cls-4" d="M33.17,229a48.3,48.3,0,0,0,1.65-12.7c0-16.51-7.79-29.89-17.41-29.89S0,199.8,0,216.3s7.79,29.89,17.41,29.89c3.86,0,7.43-2.16,10.32-5.82A32.07,32.07,0,0,1,33.17,229Z"/><path class="cls-4" d="M82.76,238.51a32.86,32.86,0,0,1,3.55-7.64,47.33,47.33,0,0,0,2.21-14.57c0-16.51-7.79-29.89-17.41-29.89S53.7,199.8,53.7,216.3s7.79,29.89,17.41,29.89C75.59,246.19,79.68,243.28,82.76,238.51Z"/><path class="cls-4" d="M142.23,216.3c0-16.51-7.79-29.89-17.41-29.89s-17.41,13.38-17.41,29.89a47.33,47.33,0,0,0,2.21,14.57,32.87,32.87,0,0,1,3.55,7.64c3.09,4.77,7.17,7.68,11.65,7.68C134.43,246.19,142.23,232.81,142.23,216.3Z"/><path class="cls-4" d="M191.7,235.82q.49-1.18,1-2.26a45.69,45.69,0,0,0,3.2-17.25c0-16.51-7.79-29.89-17.41-29.89s-17.41,13.38-17.41,29.89a48.3,48.3,0,0,0,1.65,12.7,32.08,32.08,0,0,1,5.44,11.37c2.89,3.65,6.46,5.82,10.32,5.82C183.79,246.19,188.51,242.17,191.7,235.82Z"/><path class="cls-4" d="M244.56,237.4A33.16,33.16,0,0,1,247,232a46.7,46.7,0,0,0,2.59-15.67c0-16.51-7.79-29.89-17.41-29.89s-17.41,13.38-17.41,29.89a48.06,48.06,0,0,0,1.79,13.19,32.29,32.29,0,0,1,4.93,10.39c3,3.95,6.66,6.31,10.69,6.31C237,246.19,241.4,242.83,244.56,237.4Z"/><path class="cls-4" d="M299.29,235.46q.33-.78.7-1.53a45.46,45.46,0,0,0,3.35-17.62c0-16.51-7.79-29.89-17.41-29.89s-17.41,13.38-17.41,29.89A47.77,47.77,0,0,0,270.46,230a32.58,32.58,0,0,1,4.38,9.32c3,4.27,6.87,6.84,11.09,6.84C291.3,246.19,296.1,242,299.29,235.46Z"/><path class="cls-4" d="M339.63,186.42c-9.62,0-17.41,13.38-17.41,29.89A48.1,48.1,0,0,0,324,229.42,32.26,32.26,0,0,1,329,240c2.94,3.9,6.63,6.23,10.64,6.23,9.62,0,17.41-13.38,17.41-29.89S349.25,186.42,339.63,186.42Z"/><path class="cls-4" d="M27.73,240.37A32.08,32.08,0,0,0,33.17,229,32.07,32.07,0,0,0,27.73,240.37Z"/><path class="cls-4" d="M86.31,230.87a32.86,32.86,0,0,0-3.55,7.64A32.86,32.86,0,0,0,86.31,230.87Z"/><path class="cls-4" d="M109.62,230.87a32.86,32.86,0,0,0,3.55,7.64A32.87,32.87,0,0,0,109.62,230.87Z"/><path class="cls-4" d="M168.2,240.37A32.08,32.08,0,0,0,162.76,229,32.08,32.08,0,0,0,168.2,240.37Z"/><path class="cls-4" d="M192.73,233.56q-.55,1.09-1,2.26Q192.25,234.73,192.73,233.56Z"/><path class="cls-4" d="M221.53,239.88a32.29,32.29,0,0,0-4.93-10.39A32.29,32.29,0,0,0,221.53,239.88Z"/><path class="cls-4" d="M247,232a33.16,33.16,0,0,0-2.49,5.42A33.15,33.15,0,0,0,247,232Z"/><path class="cls-4" d="M270.46,230a32.57,32.57,0,0,0,4.38,9.32A32.58,32.58,0,0,0,270.46,230Z"/><path class="cls-4" d="M300,233.93q-.36.74-.7,1.53Q299.65,234.71,300,233.93Z"/><path class="cls-4" d="M329,240a32.26,32.26,0,0,0-5-10.54A32.25,32.25,0,0,0,329,240Z"/><path class="cls-5" d="M233.88,65.49s.4,20.64-14.1,30-12.83,18.67,0,13,23.82-18.33,31.06-7,10.44-18,10.44-18Z"/><path class="cls-5" d="M265.77,123.08s11.67,11.06-17.08,23.39-63.41,15.67-63.41,15.67-9.52,2,9.24,3.33,58.43-2,73.6-5,32.75-2.4,48.36,5,5.44-24,5.44-24Z"/><path class="cls-6" d="M147.76,87.84s-17.95,42.45,18.78,46,28.57,10.32,16.32,11-51.25-1.37-60.08-5.37-29.69-5.69-36.61-1.28C86.17,138.18,137.3,98.77,147.76,87.84Z"/><path class="cls-7" d="M357,178.2l82.27-32.73-1,14.56s4.33,40.11-8.33,40.78c-6.87.36-12.67-18.41-12.67-22.6s-8.67-2.66-8,8.22S404,216.67,397.64,216.3s-3.7-8.19-7.7-17.51-18.67,5.38-18,8.93,2.12,24.29-7.33,27S355.16,183,355.16,183Z"/><path class="cls-4" d="M273.28,329.47V293.88s1.32-22.61,21.07-22.61c0,0-17.07,2.66-17.07,22.61v35.58Z"/><path class="cls-4" d="M294.57,271.27s-10.64,6.26-11.48,17.79-.12,40.4-.12,40.4h4.3V293.88S285.15,277.48,294.57,271.27Z"/><path class="cls-4" d="M317.28,329.47V293.88s-1.32-22.61-20.89-22.61c0,0,16.89,2.66,16.89,22.61v35.58Z"/><path class="cls-4" d="M296,271.27s10.49,6.26,11.32,17.79.07,40.4.07,40.4h-4.06V293.88S305.29,277.48,296,271.27Z"/><path class="cls-4" d="M295.28,271.27v58.19h1.94S300.28,285.9,295.28,271.27Z"/><rect class="cls-4" x="273.28" y="325.47" width="44" height="4"/><polygon class="cls-4" points="294.98 265.96 291.89 272.47 299.05 272.47 294.98 265.96"/><rect class="cls-8" x="19.5" y="424.66" width="314.32" height="14.8" rx="6.29" ry="6.29"/><path class="cls-9" d="M336.77,328.43a30.45,30.45,0,0,1-3.74.24,31.67,31.67,0,0,1-3.85-.24H86a30.88,30.88,0,0,1-10.53.56L36,344.66l18,39.86L316.31,414.7l20.55-23.06v-63.2Z"/><path class="cls-9" d="M333,328.67c-.76,0-1.51,0-2.26-.09v5l6.09-5.12h0A30.49,30.49,0,0,1,333,328.67Z"/><ellipse class="cls-10" cx="72.12" cy="423.81" rx="13.95" ry="15.66"/><ellipse class="cls-10" cx="281.67" cy="423.81" rx="13.95" ry="15.66"/><ellipse class="cls-11" cx="68.02" cy="424.66" rx="13.95" ry="15.66"/><ellipse class="cls-11" cx="277.57" cy="424.66" rx="13.95" ry="15.66"/><ellipse class="cls-10" cx="67.71" cy="424.66" rx="6.34" ry="7.12"/><ellipse class="cls-10" cx="277.57" cy="424.66" rx="6.34" ry="7.12"/><path class="cls-12" d="M63.52,424.66a7,7,0,0,1,5.11-7,5.63,5.63,0,0,0-3.44.31,7,7,0,0,0-4.07,5.61c-.57,4.4,2.46,8.18,6.27,8.18a5.7,5.7,0,0,0,1.24-.14A7,7,0,0,1,63.52,424.66Z"/><path class="cls-12" d="M273.57,424.66a7,7,0,0,1,5.11-7,5.63,5.63,0,0,0-3.44.31,7,7,0,0,0-4.07,5.61c-.57,4.4,2.46,8.18,6.27,8.18a5.7,5.7,0,0,0,1.24-.14A7,7,0,0,1,273.57,424.66Z"/><path class="cls-13" d="M315.94,344.71q-3,0-6,0H31.67v70H316.32v-70Z"/><path class="cls-13" d="M31.67,344.48v9.57H40v-9.64Z"/><path class="cls-13" d="M315.94,344.71c-2.67,0-5.33,0-8-.1v9.45h8.37v-9.37Z"/><path class="cls-14" d="M49.76,390.69s6,12.78,27.12,12.78H285.45s20.83-6.21,20.83-18.55V341.47H256.76Z"/><rect class="cls-15" x="58.77" y="318.54" width="235.99" height="76.39" rx="12" ry="12"/><rect class="cls-16" x="45.07" y="318.54" width="235.99" height="76.39" rx="12" ry="12"/><rect class="cls-17" x="55.22" y="327.62" width="218.04" height="57.29" rx="6.67" ry="6.67"/><polygon class="cls-18" points="316.31 344.66 336.86 328.43 336.86 391.64 316.31 414.7 316.31 344.66"/><path class="cls-4" d="M79.4,369.38v-29h7.68v10.86h4.3V340.43h7.68v29H91.39V357.64h-4.3v11.74Z"/><path class="cls-4" d="M101.6,356.88q0-5.59,2.05-7.76t7-2.17q5,0,7.06,2.19t2.07,7.74v3.26q0,5.59-2.09,7.76t-7.12,2.17q-4.91,0-7-2.17t-2.05-7.76Zm7.08,4.58v.88a10.37,10.37,0,0,0,.29,1.95,1.94,1.94,0,0,0,.62.89,1.5,1.5,0,0,0,1,.38,1.56,1.56,0,0,0,1.52-1.13,6.06,6.06,0,0,0,.25-1,6.86,6.86,0,0,0,.08-1.11v-7.64a4.56,4.56,0,0,0-.49-2.43,1.55,1.55,0,0,0-1.36-.74,1.58,1.58,0,0,0-1.4.74,4.55,4.55,0,0,0-.49,2.43v6.76Z"/><path class="cls-4" d="M121.18,362.55h6.55v.64q0,2.41,2,2.41h.41a1.67,1.67,0,0,0,1.64-1.37,2.35,2.35,0,0,0,0-.52,2.06,2.06,0,0,0-.73-1.53l-.32-.24-.2-.08-.2-.08-4.62-1.69a6.24,6.24,0,0,1-4.3-5.12,10.87,10.87,0,0,1-.08-1.13,5.35,5.35,0,0,1,.16-1.37,6.21,6.21,0,0,1,2.11-3.69,9.17,9.17,0,0,1,4.68-1.63l.78-.06.95,0h1a4,4,0,0,0,.64.08,8.29,8.29,0,0,1,4.83,1.79,5.26,5.26,0,0,1,1.53,4v1h-6.27v-.64q0-1.89-1.77-1.89h-.44a1.53,1.53,0,0,0-1.11.4,1.34,1.34,0,0,0-.42,1,1.56,1.56,0,0,0,1,1.73l.28.12.24.08,5.19,1.85a6,6,0,0,1,2.77,1.91,5.63,5.63,0,0,1,.88,3.41,7.85,7.85,0,0,1-2.05,5.8Q134.25,370,130,370a17.22,17.22,0,0,1-2-.12q-6.84-.72-6.84-6.76Z"/><path class="cls-4" d="M140.45,376.62v-29h7v2.05a5.13,5.13,0,0,1,3.94-2.65,5.26,5.26,0,0,1,.78-.12c.31,0,.58,0,.82,0a4.84,4.84,0,0,1,4.58,3.15q1.49,3.15,1.49,10.14a18,18,0,0,1-.34,3.91,9.81,9.81,0,0,1-1.07,2.71,5.92,5.92,0,0,1-2.31,2.25,6.18,6.18,0,0,1-3,.8,4.82,4.82,0,0,1-3.7-1.51,8.24,8.24,0,0,1-.6-1,4.17,4.17,0,0,1-.32-.36v9.65Zm7.12-17.73.12,2a5.65,5.65,0,0,0,.34,2.23,1.85,1.85,0,0,0,.88,1,2.25,2.25,0,0,0,.86.24q.92,0,1.41-1.19a10.56,10.56,0,0,0,.5-3.8v-3.78a4.52,4.52,0,0,0-.52-2.53,1.9,1.9,0,0,0-1.65-.72,1.21,1.21,0,0,0-1.07.58,4.16,4.16,0,0,0-.54,1.65q-.16,1.07-.18,1.37c0,.2,0,.72,0,1.55l-.12.84Z"/><path class="cls-4" d="M161.4,345.94v-5.51h7.24v5.51Zm0,23.44V347.67h7.24v21.72Z"/><path class="cls-4" d="M169.76,352.58v-4.91h2.65v-6.31h7.24v6.31h2.81v4.91h-2.81V363q0,1.65,1.49,1.65h1.33v4.69l-1.49.2a12.05,12.05,0,0,1-1.41.08h-2.22a3.07,3.07,0,0,1-.56,0,5.73,5.73,0,0,1-3.35-1,5.51,5.51,0,0,1-1-3.34V352.58Z"/><path class="cls-4" d="M190.39,354.3h-6.8v-.52a6.38,6.38,0,0,1,0-.84,6.13,6.13,0,0,1,2.15-4,8.59,8.59,0,0,1,4.89-1.83q5.67,0,7.9,1.47t2.23,5.29v13.43a3.93,3.93,0,0,0,.13,1.07,8.58,8.58,0,0,0,.39,1.07h-6.91l-.08-.32-.08-.24-.08-.32,0-.52v-1a5,5,0,0,1-4.08,2.73,8.51,8.51,0,0,1-1.41.12,5.18,5.18,0,0,1-4.16-1.69,7.41,7.41,0,0,1-1.45-5,7.26,7.26,0,0,1,.89-3.95,6.41,6.41,0,0,1,3.2-2.26l1.05-.36,4.13-1a2.6,2.6,0,0,0,1.44-.7,2.14,2.14,0,0,0,.39-1.39q0-1.77-1.33-2.1a4.89,4.89,0,0,0-.68-.08q-1.73,0-1.73,2Zm1.32,5.43-.33.16a2.64,2.64,0,0,0-1.44,2.21,3.48,3.48,0,0,0,.55,2.11A1.73,1.73,0,0,0,192,365a1.77,1.77,0,0,0,.61-.08,1.89,1.89,0,0,0,1.17-1.09,6.47,6.47,0,0,0,.39-2.57v-2.49Z"/><path class="cls-4" d="M203.7,369.38v-29h7.24v29Z"/><path class="cls-4" d="M213.83,345.94v-5.51h7.24v5.51Zm0,23.44V347.67h7.24v21.72Z"/><path class="cls-4" d="M222.2,352.58v-4.91h2.65v-6.31h7.24v6.31h2.81v4.91h-2.81V363q0,1.65,1.49,1.65h1.33v4.69l-1.49.2a12.05,12.05,0,0,1-1.41.08h-2.22a3.07,3.07,0,0,1-.56,0,5.73,5.73,0,0,1-3.35-1,5.51,5.51,0,0,1-1-3.34V352.58Z"/><path class="cls-4" d="M234.46,347.67H242l2.21,14.24,2.13-14.24h7.28l-5.75,22.48q-1,4-2.71,5.33t-5.45,1.31l-3.3-.2v-4.83h1.45a5.68,5.68,0,0,0,1.37-.16,2.33,2.33,0,0,0,1-.64,1.22,1.22,0,0,0,.28-.76l-.08-.76Z"/><ellipse class="cls-19" cx="530.98" cy="428.72" rx="64.03" ry="17.25"/><path class="cls-20" d="M608.7,332.22c7.88,25.88,28.13,18,28.13,18h-8.07c-8.07,0-13.31-12.94-14.44-21.94S608.7,302.4,598,300.14c0,0,3.49,6.61,3.79,18.5C602.49,316.66,604.24,317.55,608.7,332.22Z"/><path class="cls-21" d="M596.53,301.72s9.25,2,11.5,9.5,2,13.9,5,19.25l3,5.35s-6.75-6.1-8.25-14.1S602.83,306.21,596.53,301.72Z"/><path class="cls-22" d="M549.62,366s5,23.86,6,26.86.13,24.63.13,24.63h5.5s-3.5-14.5,0-16.5,3.5-6,2-9.24,1.26-17.23,1-22.76,0-14,0-14Z"/><path class="cls-20" d="M538.33,263.87c.91-.85.29-.6,0,0Z"/><path class="cls-20" d="M591.22,297.23a52.93,52.93,0,0,1-14.72-11.71l-8.44-9c-1.09-1.23-2-7.9-3.48-8.5-2.54-1-7.15-8.31-11.71-9.22-5.63-1.13-14.07,7.6-14.63,5.91a1.09,1.09,0,0,1,.08-.83,54.22,54.22,0,0,1-6,4.49c-8,5.38-8.66,10.41-15.41,29.54s-23.63,10.13-30.38,0-6.19-29.26-6.75-39.1S473,246,473,246s0,1.83-9,.14-18.55,12.67-18.55,12.67-10.66,3.11-14.59,2.53-2.74,5.12-2.74,5.12c-4.22,10.2,2.53,10.9,2.53,10.9s8.44-.42,14.77,1.27A32.53,32.53,0,0,0,456,279.89l4.22,9.71s2.11,4.22,2.11,15.61,5.49,24.48,6.33,27.43,8.86,16,10.55,22.37.84,23.21-2.11,29.54.84,12.9,1.69,15.85-1.27,20.07-1.27,20.07h3.8c3.8,0,8.44.39,8.44.39l2.11,18.87c2.11,3,10.13,0,10.13,0s0-26.56-.42-30.36,0-12.23,2.11-15.6,0-7.59-1.27-14.76,6.33-15.61,6.33-15.61a215.82,215.82,0,0,0,24.18,3c10.25.42,26-3,26-3l7.6,4.65a51.48,51.48,0,0,0,6.33,7.17c3,2.53,4.22,10.13,2.11,13.93s-1.08,5.06.18,6.33,3.14,5.91,3.14,5.91v28h7V399.73c0-4.5,4.62-5.63,6.87-11.25s-5-6.75-6.13-12.38,9-11.82,14.1-24.75,2.26-28,2.26-28a18.32,18.32,0,0,1,.42-4.71c-.3-11.88-3.79-18.5-3.79-18.5A30.49,30.49,0,0,1,591.22,297.23Z"/><path class="cls-23" d="M567.94,285.47s26.11,12.49,28.58,25.75,8.86,53.12-16.11,40.13S527.61,287,567.94,285.47Z"/><path class="cls-24" d="M485,361.37a119.46,119.46,0,0,1-9-14.23h-.07c1.2,2.41,5.36,14.31,3.86,22.31s-2.72,15.08-3.86,20.5,2.83,10.43,3.36,12.5-2,18-2,18h12.44s.05-17.21-2.45-23.71,3-9.81,4-13.81-3-6-6-20C485.17,362.43,485.07,361.91,485,361.37Z"/><path class="cls-25" d="M456,279.89a38.44,38.44,0,0,1,13.32,20.26c3.5,13.32,12,38.82,19,41.32,0,0-7.85,5.11-3.3,19.91,0,0-17.79-23.06-20.26-40.74S463.64,291.31,456,279.89Z"/><path class="cls-26" d="M562.69,335.56c-5.38,3.32-12.64,4.12-19.91,2.91-12-2-15.5-17-19.5-17.83s-8.5,9.83-8.5,9.83l.15,8c.16,8-6.23,25-6.23,25,25,8.08,50.22,0,50.22,0h5.18A41.53,41.53,0,0,1,562.69,335.56Z"/><path class="cls-27" d="M529.28,276.13a41.85,41.85,0,0,1,9.52-8.33c5.14-3,7.49-6.33,10.82-6.67s6.33.33,9.33,4.67,5.33,10.51,9,14.09,12.47,9.65,12.47,9.65-7.14-4.74-12.47-4.07-4.33,1.48-6.33,4.07-10.67,5.93-18-2.41-15.67-4-15.67-4S524,281.39,529.28,276.13Z"/><path class="cls-28" d="M542.92,265s1.51-4.28,10.56,5.47a240,240,0,0,0,23.55,22c5.25,4.28,18.25,15.28,19.5,18.78s5,15.43,0,32.59S583.62,367,584.78,371l1.16,4s-.43-4.84,5.83-9.78,14.71-24.93,10.61-43.19-12.94-25.44-16-27.68-16.33-15.63-16.33-15.63a15.6,15.6,0,0,1-3.34-5.75c-1.16-3.58-7.54-11.07-10.7-12.59S545.31,259.27,542.92,265Z"/><path class="cls-21" d="M473.71,246s1.68,8,0,10.72-3.59,2.85-3.59,2.85-1.07.58,2.17,1.49S477.64,254,473.71,246Z"/><path class="cls-26" d="M474.9,249.22s-6.12.94-5.87,4.35l.25,3.4S470,250.72,474.9,249.22Z"/><path class="cls-26" d="M475.84,268s.18,13.35-8.57,11.92-14.75-2.61-21.25-3.14-.62,1.87-.62,1.87S460,280.63,462,280,476.41,288.47,475.84,268Z"/><path class="cls-26" d="M453.28,261.13a34.34,34.34,0,0,0,6.14-1.56S457.53,263.29,453.28,261.13Z"/><path class="cls-26" d="M426.73,272.52s.55.8,5.55,0,10.13,3,10.69,0-.69-1.6-5.69-.8A77.7,77.7,0,0,1,426.73,272.52Z"/><path class="cls-29" d="M512.28,339.47s-5.33,23.46-9.33,27.56C502.94,367,512.61,360.13,512.28,339.47Z"/><path class="cls-29" d="M600.61,327.8s-.33,23.48-9,33.57C591.61,361.37,605.89,346.29,600.61,327.8Z"/><path class="cls-29" d="M499.94,383.8s1.33,4,0,10.33C499.94,394.13,504.61,391.47,499.94,383.8Z"/><path class="cls-29" d="M587.28,383.8s.33,6.33-1.67,8.66C585.61,392.47,591.28,392.81,587.28,383.8Z"/><path class="cls-29" d="M547.43,261.81a48.13,48.13,0,0,1,14.41,8.86c6.23,5.85,3.55,6.09,3.55,6.09S558.19,258.38,547.43,261.81Z"/><path class="cls-29" d="M476.86,260.32s1.08,27.15,5.41,34.81,13,14,21.67,14.33c0,0-19.67-4.72-21.67-20S476.86,260.32,476.86,260.32Z"/><path class="cls-29" d="M472,272.19"/><path class="cls-30" d="M476.12,271.66s-3.17,8.32-14.17,9.23C461.94,280.89,478.12,282.76,476.12,271.66Z"/><path class="cls-29" d="M479.94,383.8s-2,8.66,0,13.33C479.94,397.13,475.28,390.14,479.94,383.8Z"/><rect class="cls-31" x="578.28" y="420.47" width="7" height="9"/><polygon class="cls-31" points="556.28 410.47 560.28 410.47 561.28 417.47 555.28 417.47 556.28 410.47"/><path class="cls-31" d="M490.28,431.47h12l-.32,8.31s-7.91,3.22-10.13,0Z"/><polygon class="cls-31" points="489.28 414.47 479.28 414.47 477.28 420.47 489.28 420.47 489.28 414.47"/><path class="cls-29" d="M580.28,420.47v9S582.28,424.63,580.28,420.47Z"/><path class="cls-29" d="M556.28,410.47l.66,7S557.44,412.3,556.28,410.47Z"/><path class="cls-29" d="M496.28,431.47v10S493.44,437.8,496.28,431.47Z"/><path class="cls-29" d="M481.78,414.47l-.5,6S479.61,416.47,481.78,414.47Z"/><path class="cls-22" d="M452,261.38l7.39-1.81S453.28,254.54,452,261.38Z"/><path class="cls-7" d="M453.28,258.57s.63,2,2,2.12,0-2.88,0-2.88Z"/><path class="cls-32" d="M481.22,284.58c-6.06,27.78-21,5-21,5-18.46,9-29.54-12.24-29.54-12.24s5.5,188.44-73.6,133.11c0,0-13.1,6.08-10.76-1.46"/></g></g></svg>