<svg xmlns="http://www.w3.org/2000/svg" viewBox="0 0 1498.1 547.53"><defs><style>.cls-1{fill:#254208;}.cls-2{fill:#6d841a;opacity:0.63;}</style></defs><title>grass finalAsset 54</title><g id="Layer_2" data-name="Layer 2"><g id="page_1" data-name="page 1"><path class="cls-1" d="M1497.51,416c-10.59-48.72-63.76-17.47-63.76-17.47,8.26-9,19.28-46.07-15.19-52.43s-31.19,29.66-31.19,29.66l-12.7-23.3c-10.17-18.66-35.66-14.23-45.41-11.72,3.92-2.15,8.68-8.37,3.3-26.41-8.22-27.54-31.22-23.6-31.22-23.6a82.07,82.07,0,0,0-34,.72C1284,261.35,1245,261.34,1245,261.34c50.58-33.89,1-50.84,1-50.84,68.46-57.19,0-51.9,0-51.9,32.45-56.13-5.42-51.9-5.42-51.9,1.59-59.31-36.75-19.06-36.75-19.06s20.35-27.54-22.24-33.89-19.87,53-19.87,53c-102.7-44.48-59.66,51.9-59.66,51.9-24.68,26.48,30.28,41.31,30.28,41.31-57.95-8.47-24.66,25.42-24.66,25.42-57.19-19.06-43.49,27.08-43.49,27.08-20-20.8-32-16.58-38.74-8.27-1-4.59-4-10.14-10.44-16.69-22.77-23.3-32.3,12.71-32.3,12.71-31.77-59.31-59.31-10.59-59.31-10.59-46.6-36-60.9,10.59-60.9,10.59-33.37-55.07-70.43,0-70.43,0-25.42-55.07-63.55-25.42-63.55-25.42-4.24-44.48-44.48-16.95-44.48-16.95,12.71-63.55-48.72-63.55-48.72-63.55s19.06-10.59,16.95-27.54-36,0-36,0S629,81.3,603.63,66.47s-36,40.25-36,40.25c-42.36-42.36-59.31,18-59.31,18,0-24-39.91-17.56-47.48-16.13-.76.18-1.23.25-1.23.25l1.23-.25c3.86-.93,15.36-5.09,13.59-21.34-2.12-19.47-36,0-36,0S449,47.4,417.22,33.35s-38.13,22.52-38.13,22.52-10.59-33.89-53-53-33.89,61.43-33.89,61.43c-8.47-27.54-61.43-53-89-31s33.89,50.06,33.89,50.06c-46.6-4.24-31.77,41.11-31.77,41.11-39.12-11.72-30.48,20.25-26.69,30.82.84,2,1.27,3.26,1.27,3.26s-.55-1.24-1.27-3.26c-3.75-9-15.71-33.22-34.74-30.63-23.3,3.18,0,37.06,0,37.06l-33.9-9.1c-24.76-6.64-39.35,8-45.42,16.43a29.69,29.69,0,0,1-3.33,5.34,39.81,39.81,0,0,1,3.33-5.34c4.07-8.27,7.58-24.33-18.2-34.94C10.44,119.34.82,158.56.82,158.56l.17,389H1311V468l59.44,7S1508.1,464.69,1497.51,416Z"/><path class="cls-2" d="M5.73,473.68c5.16-27.35,31.05-9.81,31.05-9.81-4-5.05-9.39-25.87,7.4-29.43s15.19,16.65,15.19,16.65L65.56,438c5-10.47,17.36-8,22.12-6.58-1.91-1.2-4.23-4.7-1.61-14.82,4-15.46,15.2-13.25,15.2-13.25a34.81,34.81,0,0,1,16.57.4c-8.13-16.88,10.86-16.88,10.86-16.88-24.63-19-.5-28.54-.5-28.54-33.34-32.11,0-29.13,0-29.13-15.8-31.51,2.64-29.13,2.64-29.13-.77-33.3,17.9-10.7,17.9-10.7s-9.91-15.46,10.83-19,9.68,29.73,9.68,29.73c50-25,29.06,29.13,29.06,29.13,12,14.86-14.75,23.19-14.75,23.19,28.22-4.76,12,14.27,12,14.27,27.85-10.7,21.18,15.2,21.18,15.2,9.75-11.68,15.57-9.31,18.87-4.64.5-2.58,2-5.69,5.08-9.37,11.09-13.08,15.73,7.13,15.73,7.13,15.47-33.3,28.89-5.95,28.89-5.95C308,348.82,315,375,315,375c16.25-30.92,34.3,0,34.3,0,12.38-30.92,30.95-14.27,30.95-14.27,2.06-25,21.66-9.51,21.66-9.51-6.19-35.67,23.73-35.67,23.73-35.67s-9.28-5.95-8.25-15.46,17.54,0,17.54,0-6.19-14.27,6.19-22.59,17.54,22.59,17.54,22.59c20.63-23.78,28.89,10.11,28.89,10.11,0-13.45,19.44-9.86,23.13-9.06a5.52,5.52,0,0,0,.6.14l-.6-.14c-1.88-.52-7.48-2.86-6.62-12,1-10.93,17.54,0,17.54,0s-5.16-22.37,10.32-30.26,18.57,12.64,18.57,12.64a52.26,52.26,0,0,1,25.79-29.73c20.63-10.7,16.51,34.48,16.51,34.48,4.13-15.46,29.92-29.73,43.33-17.4S619.54,287,619.54,287c22.7-2.38,15.47,23.08,15.47,23.08,19.05-6.58,14.84,11.37,13,17.3-.41,1.13-.62,1.83-.62,1.83s.27-.7.62-1.83c1.82-5,7.65-18.65,16.92-17.19,11.35,1.78,0,20.81,0,20.81l16.51-5.11c12.06-3.73,19.16,4.51,22.12,9.23a17.16,17.16,0,0,0,1.62,3,23.23,23.23,0,0,0-1.62-3c-2-4.64-3.69-13.66,8.86-19.62,17.54-8.32,22.22,13.69,22.22,13.69l-.08,218.36H97V502.87L67.83,506.8S.57,501,5.73,473.68Z"/><path class="cls-2" d="M1317.42,490.85c-4.22-21-25.38-7.53-25.38-7.53,3.29-3.88,7.67-19.85-6-22.59s-12.41,12.78-12.41,12.78l-5.06-10c-4-8-14.19-6.13-18.08-5,1.56-.92,3.46-3.6,1.31-11.38-3.27-11.86-12.42-10.17-12.42-10.17a30.24,30.24,0,0,0-13.54.31c6.64-13-8.87-13-8.87-13,20.13-14.6.41-21.9.41-21.9,27.25-24.64,0-22.36,0-22.36,12.92-24.18-2.16-22.36-2.16-22.36.63-25.55-14.63-8.21-14.63-8.21s8.1-11.86-8.85-14.6-7.91,22.81-7.91,22.81c-40.88-19.16-23.75,22.36-23.75,22.36-9.82,11.41,12.05,17.8,12.05,17.8-23.06-3.65-9.82,11-9.82,11-22.76-8.21-17.31,11.67-17.31,11.67-8-9-12.73-7.14-15.42-3.56-.41-2-1.6-4.37-4.15-7.19-9.06-10-12.86,5.48-12.86,5.48-12.65-25.55-23.61-4.56-23.61-4.56-18.55-15.51-24.24,4.56-24.24,4.56-13.28-23.73-28,0-28,0-10.12-23.73-25.29-11-25.29-11-1.69-19.16-17.7-7.3-17.7-7.3,5.06-27.38-19.39-27.38-19.39-27.38s7.59-4.56,6.74-11.86-14.33,0-14.33,0,5.06-11-5.06-17.34-14.33,17.34-14.33,17.34c-16.86-18.25-23.61,7.76-23.61,7.76,0-10.32-15.88-7.57-18.9-7a4.76,4.76,0,0,1-.49.11l.49-.11c1.54-.4,6.11-2.19,5.41-9.19-.84-8.39-14.33,0-14.33,0s4.22-17.17-8.43-23.22-15.18,9.7-15.18,9.7-4.22-14.6-21.08-22.81-13.49,26.46-13.49,26.46c-3.37-11.86-24.45-22.81-35.41-13.35s13.49,21.57,13.49,21.57c-18.55-1.83-12.65,17.71-12.65,17.71-15.57-5-12.13,8.72-10.62,13.28.33.87.51,1.41.51,1.41s-.22-.54-.51-1.41c-1.49-3.87-6.25-14.31-13.83-13.2-9.27,1.37,0,16,0,16l-13.49-3.92c-9.86-2.86-15.66,3.46-18.08,7.08a13,13,0,0,1-1.32,2.3,17.48,17.48,0,0,1,1.32-2.3c1.62-3.56,3-10.48-7.24-15.05C725.55,363.06,721.73,380,721.73,380l.07,167.58H1243V513.26l23.76,3S1321.64,511.84,1317.42,490.85Z"/><path class="cls-2" d="M427,342.3c-8.26,3.92-7.13,9.85-5.83,12.9a15.27,15.27,0,0,1,1.07,2,11.28,11.28,0,0,1-1.07-2c-1.94-3.1-6.62-8.52-14.55-6.07l-10.86,3.36s7.46-12.51,0-13.69c-6.1-1-9.93,8-11.13,11.31-.23.75-.41,1.21-.41,1.21s.14-.46.41-1.21c1.21-3.9,4-15.71-8.55-11.38,0,0,4.75-16.75-10.18-15.18,0,0,19.68-10.38,10.86-18.49s-25.79,1.28-28.5,11.45c0,0,2.71-29.72-10.86-22.68a34.38,34.38,0,0,0-17,19.56s-2-13.51-12.22-8.32-6.79,19.9-6.79,19.9-10.86-7.19-11.54,0c-.57,6,3.12,7.54,4.35,7.88l.4.09a3.62,3.62,0,0,1-.4-.09c-2.43-.53-15.21-2.89-15.21,6,0,0-5.43-22.29-19-6.65,0,0-3.39-20.34-11.54-14.86s-4.07,14.86-4.07,14.86-10.86-6.26-11.54,0,5.43,10.17,5.43,10.17-19.68,0-15.61,23.47c0,0-12.89-10.17-14.25,6.26,0,0-12.22-11-20.36,9.39,0,0-11.87-20.34-22.56,0,0,0-4.58-17.21-19.51-3.91,0,0-8.82-18-19,3.91,0,0-3.05-13.3-10.35-4.69a13.89,13.89,0,0,0-3.34,6.16c-2.17-3.07-6-4.63-12.41,3.05,0,0,4.39-17-13.93-10,0,0,10.66-12.52-7.9-9.39,0,0,17.61-5.48,9.7-15.25,0,0,13.79-35.59-19.11-19.16,0,0,7.28-21.9-6.36-19.56s-7.12,12.52-7.12,12.52-12.28-14.86-11.77,7c0,0-12.13-1.56-1.74,19.16,0,0-21.92-2,0,19.16,0,0-15.88,6.26.33,18.77,0,0-12.49,0-7.14,11.11A22.9,22.9,0,0,0,25,400.1s-7.37-1.46-10,8.71c-1.72,6.66-.2,9,1.06,9.75-3.13-.93-11.29-2.56-14.55,4.33L0,426.05v41.78c1.81.23,2.89.32,2.89.32L22,465.57v29h419.6l.06-143.44S438.56,336.82,427,342.3Z"/><path class="cls-2" d="M1242,509.66c-2.77-13.81-16.69-5-16.69-5,2.16-2.55,5-13.06-4-14.86s-8.17,8.4-8.17,8.4l-3.33-6.6c-2.66-5.29-9.34-4-11.89-3.32,1-.61,2.27-2.37.86-7.48-2.15-7.8-8.17-6.69-8.17-6.69a19.89,19.89,0,0,0-8.91.2c4.37-8.52-5.84-8.52-5.84-8.52,13.24-9.61.27-14.41.27-14.41,17.92-16.21,0-14.71,0-14.71,8.5-15.91-1.42-14.71-1.42-14.71.42-16.81-9.62-5.4-9.62-5.4s5.33-7.8-5.82-9.61-5.2,15-5.2,15c-26.89-12.61-15.62,14.71-15.62,14.71-6.46,7.5,7.93,11.71,7.93,11.71-15.17-2.4-6.46,7.2-6.46,7.2-15-5.4-11.39,7.67-11.39,7.67-5.24-5.89-8.37-4.7-10.14-2.34a10.46,10.46,0,0,0-2.73-4.73c-6-6.6-8.46,3.6-8.46,3.6-8.32-16.81-15.53-3-15.53-3-12.2-10.21-15.95,3-15.95,3-8.74-15.61-18.44,0-18.44,0-6.66-15.61-16.64-7.2-16.64-7.2-1.11-12.61-11.65-4.8-11.65-4.8,3.33-18-12.76-18-12.76-18s5-3,4.44-7.8-9.43,0-9.43,0,3.33-7.2-3.33-11.41S998.54,422,998.54,422c-11.09-12-15.53,5.1-15.53,5.1,0-6.79-10.45-5-12.43-4.57l-.32.07.32-.07c1-.26,4-1.44,3.56-6-.55-5.52-9.43,0-9.43,0s2.77-11.29-5.55-15.27-10,6.38-10,6.38-2.77-9.61-13.86-15S926.44,410,926.44,410c-2.22-7.8-16.08-15-23.29-8.78S912,415.41,912,415.41c-12.2-1.2-8.32,11.65-8.32,11.65-10.24-3.32-8,5.74-7,8.73.22.57.33.93.33.93s-.14-.35-.33-.93c-1-2.54-4.11-9.42-9.1-8.68-6.1.9,0,10.5,0,10.5L878.74,435c-6.48-1.88-10.3,2.28-11.89,4.66a8.53,8.53,0,0,1-.87,1.51,11.5,11.5,0,0,1,.87-1.51c1.07-2.34,2-6.9-4.76-9.9-9.43-4.2-11.95,6.71-11.95,6.71l0,110H1193V524.4l15.66,2S1244.78,523.47,1242,509.66Z"/></g></g></svg>