<svg xmlns="http://www.w3.org/2000/svg" viewBox="0 0 161.43 282.97"><defs><style>.cls-1{fill:#4f3920;opacity:0.2;}.cls-2{fill:#fffa40;}.cls-3{fill:#d3cc39;}.cls-4{fill:#a89f2c;}.cls-5{fill:#756d23;}.cls-6{opacity:0.53;}.cls-7{fill:none;stroke:#e9ff48;stroke-miterlimit:10;stroke-width:2px;}</style></defs><title>coffin topAsset 119</title><g id="Layer_2" data-name="Layer 2"><g id="transformation"><ellipse class="cls-1" cx="76.74" cy="273.39" rx="55" ry="9.58"/><polygon class="cls-2" points="42.74 0.33 111.74 0.33 161.43 80.35 102.09 273.33 42.74 273.33 0 80.39 42.74 0.33"/><polygon class="cls-2" points="42.74 0 43.07 29.82 15.97 80.91 0.43 80.21 42.74 0"/><rect class="cls-3" x="42.74" y="0.33" width="68" height="29"/><polygon class="cls-3" points="15.97 81.17 52.74 258.33 92.74 258.33 102.09 273.33 42.74 273.33 0.43 80.14 15.97 81.17"/><polygon class="cls-4" points="42.57 29.33 15.89 81 52.7 258.33 42.74 273.33 101.74 273.33 92.74 258.45 142.24 80.65 110.74 29.33 42.57 29.33"/><polygon class="cls-5" points="42.74 273.33 52.7 258.33 92.74 258.33 101.74 273.33 42.74 273.33"/><g class="cls-6"><polygon class="cls-7" points="76.64 78.17 60.75 104.33 93.07 104.33 76.64 78.17"/><polygon class="cls-7" points="77.18 111.93 93.07 87.33 60.75 87.33 77.18 111.93"/></g></g></g></svg>