<svg xmlns="http://www.w3.org/2000/svg" viewBox="0 0 1431.26 726"><defs><style>.cls-1{fill:#7f765d;}.cls-2,.cls-6,.cls-8,.cls-9{fill:#4c4636;}.cls-3{fill:#b5a886;}.cls-10,.cls-4{fill:#fcfcfc;}.cls-4{opacity:0.15;}.cls-5{fill:#c1b393;}.cls-6{opacity:0.18;}.cls-7{fill:#897e64;}.cls-8{opacity:0.19;}.cls-9{opacity:0.11;}.cls-10{opacity:0.14;}.cls-11{fill:#bcae91;}</style></defs><title>china wallAsset 27</title><g id="Layer_2" data-name="Layer 2"><g id="page_1" data-name="page 1"><path class="cls-1" d="M19,383.54V100H0V0H229V100H216v28.29s43.48-18.81,73.75,8.6c0,0,79.1-36.14,136.3,16.82S526,302,748.27,287.16c0,0,132-15.47,193.14,12.71,57,26.26,80,50.4,134.83,73.08,60.71,25.11,214.15,52.08,286.17,43.61S1277.69,726,1277.69,726H36.41Z"/><path class="cls-2" d="M299.07,155.83s63.55-30.2,134.51,58.51S617.72,330.09,698.29,321.86s151.95-21.05,231.26,10.84c102.59,41.25,184.34,106.34,400,113.61s-81.71,142.37-81.71,142.37L833.7,533.93,269.42,373.07Z"/><path class="cls-3" d="M1319,506.34s-179-54.48-237.24-60.06-114.38-14-150.39-35.22-112.27-68.3-189.58-59.3-234.29-11.65-301-73.08S294,90.16,216,128.29V100h13V0H201V27H164V0H135V27H98V0H72V27H35V0H0V100H19V322.11L16.29,486H216V716H1431.26Z"/><rect class="cls-4" x="24.75" y="100" width="44.5" height="386"/><path class="cls-5" d="M215.4,173.08s56.31-23.28,101.5,29.68,102.29,151.12,229.39,167,164.09,15.89,206.84,11.65S843.48,416,843.48,416l26.82,2.47s45.89,51.9,126.38,54,248.93,31.73,281.92,73S1265,716,1265,716H216.46Z"/><path class="cls-6" d="M215.5,341.56s50.54-24.48,87.59,52,139.1,93,191.6,91.5,197.75-33,292.38,43.47,267.14,77.32,297.13,67.16S1431.26,716,1431.26,716H216Z"/><path class="cls-7" d="M63.5,162.56c-8.9,0-16.5,7.21-16.5,16.11V211H80V178.67C80,169.77,72.4,162.56,63.5,162.56Z"/><path class="cls-2" d="M66.12,162.86a15.68,15.68,0,0,0-3.05-.3A16.07,16.07,0,0,0,47,178.67V211h6V178.67A16.21,16.21,0,0,1,66.12,162.86Z"/><path class="cls-7" d="M144.5,265.56c-8.9,0-16.5,7.21-16.5,16.11V314h33V281.67C161,272.77,153.4,265.56,144.5,265.56Z"/><path class="cls-2" d="M147.12,265.86a15.68,15.68,0,0,0-3.05-.3A16.07,16.07,0,0,0,128,281.67V314h6V281.67A16.21,16.21,0,0,1,147.12,265.86Z"/><rect class="cls-8" x="19" y="100" width="196.4" height="19.05"/><rect class="cls-9" x="128" y="162.56" width="36" height="16.44" rx="8.22" ry="8.22"/><rect class="cls-9" x="143" y="178.56" width="36" height="16.44" rx="8.22" ry="8.22"/><rect class="cls-9" x="56.56" y="289.78" width="36" height="16.44" rx="8.22" ry="8.22"/><rect class="cls-9" x="74.56" y="341.56" width="36" height="16.44" rx="8.22" ry="8.22"/><rect class="cls-9" x="146" y="393.56" width="36" height="16.44" rx="8.22" ry="8.22"/><rect class="cls-9" x="233.42" y="211" width="36" height="16.44" rx="8.22" ry="8.22"/><rect class="cls-9" x="298.42" y="281.56" width="45.58" height="20.82" rx="8.22" ry="8.22"/><rect class="cls-9" x="275.62" y="429.46" width="45.58" height="20.82" rx="8.22" ry="8.22"/><rect class="cls-9" x="422.03" y="474.66" width="45.58" height="20.82" rx="8.22" ry="8.22"/><rect class="cls-9" x="344" y="612.65" width="45.58" height="20.82" rx="8.22" ry="8.22"/><rect class="cls-9" x="280.42" y="300.81" width="45.58" height="20.82" rx="8.22" ry="8.22"/><rect class="cls-9" x="676.52" y="495.47" width="36" height="16.44" rx="8.22" ry="8.22"/><rect class="cls-9" x="741.52" y="566.03" width="45.58" height="20.82" rx="8.22" ry="8.22"/><rect class="cls-9" x="723.52" y="585.28" width="45.58" height="20.82" rx="8.22" ry="8.22"/><rect class="cls-9" x="56.56" y="441.99" width="36" height="16.44" rx="8.22" ry="8.22"/><rect class="cls-9" x="11" y="37.99" width="36" height="16.44" rx="8.22" ry="8.22"/><rect class="cls-9" x="98.5" y="72.99" width="36" height="16.44" rx="8.22" ry="8.22"/><rect class="cls-4" width="35" height="100"/><path class="cls-10" d="M764.31,321.63s112.92-12.55,163.92,19.93C928.23,341.56,830.33,321.39,764.31,321.63Z"/><path class="cls-10" d="M1130.78,416.74s42.33,29.06,149.93,33.47c0,0-107.51,10.32-156-33.47"/><rect class="cls-11" x="35" y="25" width="37" height="8"/><rect class="cls-11" x="98" y="25" width="37" height="8"/><rect class="cls-11" x="164" y="25" width="37" height="8"/></g></g></svg>