<svg xmlns="http://www.w3.org/2000/svg" viewBox="0 0 276.76 264.17"><defs><style>.cls-1{fill:#d13434;}.cls-18,.cls-2,.cls-7,.cls-9{fill:#ffd93b;}.cls-17,.cls-3{fill:#772020;}.cls-4{fill:#330f0f;opacity:0.29;}.cls-13,.cls-14,.cls-16,.cls-5{fill:#fff;}.cls-6{fill:#8e8e8e;}.cls-7{opacity:0.24;}.cls-8{fill:#4c1515;}.cls-9{opacity:0.73;}.cls-10{fill:#2b2b2b;}.cls-11{fill:#666;}.cls-12{fill:#fcfcfc;}.cls-13{opacity:0.08;}.cls-14{opacity:0.4;}.cls-15{fill:#f44a4a;}.cls-16{opacity:0.33;}.cls-17{opacity:0.5;}.cls-18{opacity:0.75;}</style></defs><title>dragon headAsset 15</title><g id="Layer_2" data-name="Layer 2"><g id="page_1" data-name="page 1"><path class="cls-1" d="M239.2,119.25s11.3-4.91,12.71,11.58c0,0,5.8-20.58-2.92-24.82S239.2,119.25,239.2,119.25Z"/><path class="cls-2" d="M229.94,68.67s19.16,1.19,28.86-12.59C258.8,56.09,248.71,79.36,229.94,68.67Z"/><path class="cls-1" d="M246,86.11s17.58,9.16,5.93,44.71c0,0,3.37-17.38-8.11-13.69s-4.6,2.11-4.6,2.11,13.59,8.47,7.33,20.65-12.62,14.83-12.62,14.83-1.06-28.65-12.71-15.38-9.5,10.09-9.5,10.09,11.09-7.94,13.21,2.12L227,161.61s-10.58-21-22.77,5.91-36.54-2.21-36.54-2.21L221.2,98.24Z"/><path class="cls-3" d="M92,174.93l7.6-6.66,32.07-37.88,91-46.61L239.5,93.83v18.53s-9.21,17.07-18.15,19.06S192.15,176.34,190,197s-31.81,37.12-63.58,36.59-57.39-4.9-55.62-18.53S92,174.93,92,174.93Z"/><path class="cls-4" d="M95,175.11s29.53-30.89,60.16-20.38,36.17,24.86,36.17,24.86L206.13,157l21.57-27.81,16.55-26.45L231.5,90l-40.89,10.2L177.5,132.53l-41,9.19-18,5.41S95.87,173.8,95,175.11Z"/><path class="cls-5" d="M68.09,132.78s-.76,24.47,6.86,35.13c0,0,2.8-25.35,7.68-25.77,0,0,4.55,15.46,6,20.58s1.4,5.12,1.4,5.12,2.05-.41,4-8.78,2.78-14.12,5.75-13.85,3.38,11.47,4,16,1.72,11,5.3,1.38,4.2-16.25,5.49-16.16,2.89,9.23,4.73,14.65,2.32,8.1,7.18-4.88,4.4-9,5.44-4.72,3,15,3,15,3.84,2.8,6-8.39l2.2-11.2s2.66,9.1,3.68,13.67l1,4.57s1.19,2.95,4.15-8.24l3-11.19a45,45,0,0,1,3.1,14.21l.39,8s5.95-4.42,9.56-18.79,3.71-12,3.71-12a101,101,0,0,1,1.59,16.27l0,7.69s10.08-17.49,10.65-23.38l.57-5.89s3.8,1.25,4.22,5l.42,3.74,3-17.64,3.3,9.43,2.08-17.3,3.81,12.53,1.31-22,5.58,13.22L209.4,99.6l-5.21-5.88-93.67,30.84S69.34,121.38,68.09,132.78Z"/><polygon class="cls-6" points="68.63 146.19 78.08 148.57 79.33 144.98 84.5 144.98 85.5 148.6 96 150.56 97.33 146.15 100.54 145.57 102.45 150.56 112.84 150.12 114 144.98 115.88 149 128.96 149.88 130.33 145.19 131.66 150.98 142.5 150.98 143.67 145.82 144.32 150.98 153.84 150.06 154.13 143.48 156.52 149.13 168.54 147.11 169.17 141.98 172.5 141.98 172.99 146.48 181.92 143.94 183.62 138.98 68.5 138.98 68.07 142.35 68.63 146.19"/><path class="cls-1" d="M70.16,1.75A31.63,31.63,0,0,1,74,20.59,37.81,37.81,0,0,0,77.87,40.7S59.34,47,72,80c0,0-17.39,8.34-8.57,34.11,0,0-13.42-1.06-7.77,16.24s36.72,16.95,54.37,17.3,66,1.41,86.14-13.06,28.6-36.36,28.6-36.36,12.71-9.69,11.65,3.8S220.17,126.48,216.45,129s-19.26,22.95-25.26,52.25-12.36,29.3-43.42,34.6S81,221.45,78.22,213.33s1.77-17.65,6.35-23.65S99.7,168.23,99.7,168.23s-17.87,13.62-27.13,33.23c0,0-11.65,23.52.71,35.17s11.65,9.89,12.36,13.77,43.51,1.46,59.71-1.74,42-7.47,44.09-15.56,2.82-42.63,12.71-61.56,21.54-38.25,30-44.48,20.3-13.38,16.59-33.23-20.39-12.18-20.39-12.18,25.42-4.52,30.45-25.56c0,0-14.56,15-28.86,12.59,0,0,17.74-1.85,19.59-29.92,0,0-1.06-6.62-4.5,1.85s-13,13.5-21.71,13.5c0,0,20.39-18.27,6.88-54,0,0-3.18-1.59-1.85,8.21s-9.53,26.21-21.45,24.62-15.77-8.47-25.36-6.09c0,0-7-10.34-30.38-8.87S123,26.57,116.08,31.07s-4.5,3.46-9.27,3.07S95.28,33,93.64,33H92S91.76-1.39,70.16,1.75Z"/><path class="cls-6" d="M85.63,185.22l-1.77-14.87s-3.56,10.91-2.47,14.87l1.09,4s-4.21-5.21-4.77-9.41l-.56-4.2s-4.26,17.12-1.25,23.6l3,6.48S81.82,193.39,87,188s3.06-6.79,3.06-6.79l-2-7.5Z"/><ellipse class="cls-7" cx="76.86" cy="109.69" rx="13.69" ry="18.63"/><path class="cls-5" d="M176.73,59.35s6.44-1.64,9.77,0L189.83,61s-1.11,10.86-6.55,12.26S176.73,59.35,176.73,59.35Z"/><ellipse class="cls-7" cx="167.83" cy="109.69" rx="13.69" ry="18.63"/><path class="cls-5" d="M178.34,204.32l-2.28-7c-2.87-8.84-6.46-7.65-6.46-7.65l-8.41,24.77c4.27-1.14,7.37-2.17,8.55-2.94A51.15,51.15,0,0,0,178.34,204.32Z"/><path class="cls-5" d="M107.75,223.65c4.67-.25,10.84-1,17.47-2-.47-2-1.68-6.59-4.06-13.59-3.23-9.49-5-2.66-5.38-.09S109,222.7,109,222.7l-8.25-21.42L91.34,222A57.36,57.36,0,0,0,107.75,223.65Z"/><path class="cls-5" d="M199.17,160.73l-3.58-2.47-2.72,16.48-4.37-7.64v21.46a40.18,40.18,0,0,0,1.25-3.83A135.63,135.63,0,0,1,199.17,160.73Z"/><path class="cls-5" d="M156,204.29c-3.23-8.1-6.1-5.89-6.1-5.89l-5.74,18a73.3,73.3,0,0,0-5.38-15.15c-3.59-7-6.82,4.61-6.82,4.61l-6,15.64c11.94-1.84,25.28-4.53,34.18-6.83C159.42,213,158.08,209.59,156,204.29Z"/><path class="cls-5" d="M202.92,137.27h0Z"/><path class="cls-5" d="M86.35,210.14a90.29,90.29,0,0,1-1.44-18.46s0-.09-4.67,6.54c-3.41,4.84-5.29,13.11-6.05,17.22a71.11,71.11,0,0,0,16.22,6.3A37.75,37.75,0,0,1,86.35,210.14Z"/><path class="cls-5" d="M180.83,178.15l-1.72,25.36a46.13,46.13,0,0,0,9.12-14.25Z"/><path class="cls-5" d="M233.85,106.34l-1.76-8.1-2.1,17.1-8.5-6.79v16.4l-6.08-8.37-1.07,16.28L211,127.4l-3.48,18.71V145c0-1.47-4.56-7.71-4.57-7.73a21,21,0,0,1-.27,3.31c-.27,2.45-1.58,12.59-2.25,17.72.91-1.76,1.49-2.78,1.49-2.78v0c4.95-9.16,11.3-17.22,19.41-26.39C235.28,113.34,233.85,106.34,233.85,106.34Z"/><path class="cls-6" d="M200.38,158.46l0-.15c-.36.7-.78,1.51-1.23,2.43l.09.06C199.62,160,200,159.23,200.38,158.46Z"/><path class="cls-6" d="M125.91,221.55l-.69.11c.17.69.24,1.06.24,1.06Z"/><path class="cls-6" d="M91.34,222l-.93-.23a10.71,10.71,0,0,0,.61.94Z"/><path class="cls-6" d="M188.5,188.56c-.09.23-.17.47-.26.7l.26.4Z"/><path class="cls-6" d="M161.2,214.42l-1.1.29.54,1.37Z"/><path class="cls-6" d="M179.11,203.5l-.77.81.59,1.82Z"/><path class="cls-6" d="M200.4,158.31l0,.15q.73-1.47,1.5-2.9v0S201.32,156.55,200.4,158.31Z"/><path class="cls-6" d="M200,161.31l.37-2.85c-.38.77-.76,1.54-1.13,2.34Z"/><path class="cls-6" d="M155,219c29.5-6.63,32.94-20.25,38.22-40.88a101.38,101.38,0,0,1,6.06-17.35l-.09-.06a135.63,135.63,0,0,0-9.42,24,40.18,40.18,0,0,1-1.25,3.83v1.09l-.26-.4a46.13,46.13,0,0,1-9.12,14.25l-.18,2.63-.59-1.82a51.15,51.15,0,0,1-8.59,7.16c-1.18.77-4.29,1.8-8.55,2.94l-.56,1.66-.54-1.37c-8.91,2.31-22.24,5-34.18,6.83l-.45,1.16s-.08-.36-.24-1.06c-6.64,1-12.81,1.75-17.47,2A57.36,57.36,0,0,1,91.34,222l-.32.71a10.71,10.71,0,0,1-.61-.94,71.11,71.11,0,0,1-16.22-6.3c-.28,1.52-.42,2.48-.42,2.48C79.5,229.93,125.47,225.65,155,219Z"/><path class="cls-8" d="M67.62,117.6s1.27,7.44,7,7.44,12-5.89,11.62-9.92-.42-13.65-9.73-14.58S67.05,115.62,67.62,117.6Z"/><path class="cls-8" d="M159,111s-.23,12.17,6.36,13.41,11.36-3.72,11.36-12.09S164,91.41,159,111Z"/><path class="cls-5" d="M156.53,75.76s1.32-9.8,4.77-12.44c0,0-3.08,12.44,7.73,12.44s17-3.71,15.89-16.42A20.14,20.14,0,0,1,187,70.2c-.53,6.35-12.44,10.33-17.21,9S159.18,73.64,156.53,75.76Z"/><path class="cls-5" d="M90.55,59.41a33.76,33.76,0,0,1,9.18,9l3.56,5.48s.59,5.3-3.59,3.53-6.35,0-9.15,1.06S78.36,82,76,81.65,98.64,82.35,90.55,59.41Z"/><path class="cls-5" d="M70.72,57.29s-1.81,14.07-.29,18.4C70.43,75.69,65,54.46,70.72,57.29Z"/><path class="cls-1" d="M219.43,141s13.42-1.06,7.59,20.65c0,0-5.45-12.72-13.58-10.33S219.43,141,219.43,141Z"/><path class="cls-1" d="M219.43,141s14.47-8.12,14.47,13.77c0,0,1.41-25-1.77-27.66S219.43,141,219.43,141Z"/><path class="cls-1" d="M221.2,154.73s-8.91,0-10.28,10.59-14.88,66-23.32,70.63-3.68-18.73-3.68-18.73l6.93-25.77s14.53-38.13,20.85-42S221.2,154.73,221.2,154.73Z"/><path class="cls-1" d="M82.69,245.33s5.41,13.19,11.41,16l6,2.82s-10.94-9.89,4.59-12-2.47-15.61-2.47-15.61Z"/><path class="cls-1" d="M180.89,233.44s0,13.68-3.08,17.47l-3.11,3.8s4.41-11.48-6.17-10.74S166,228.49,166,228.49Z"/><path class="cls-9" d="M69.41,52s15.22-23,33.91-3.5S132,66.83,143.5,59.41s19.11-29.61,42.55-18.77c0,0-11.49-15.27-30.52-7.71S146,53.49,127.73,54s-20.56-12.47-24.42-16.5S76.81,34.48,69.41,52Z"/><ellipse class="cls-10" cx="81.65" cy="68.4" rx="13.15" ry="14.3"/><ellipse class="cls-10" cx="172.91" cy="68.4" rx="13.15" ry="14.3"/><circle class="cls-11" cx="77.83" cy="72.54" r="7.92"/><circle class="cls-11" cx="169.17" cy="72.54" r="7.92"/><circle class="cls-12" cx="76.84" cy="74.69" r="4.33"/><circle class="cls-12" cx="167.71" cy="74.69" r="4.33"/><path class="cls-13" d="M63.39,114.13s-7.55-23.4,5.11-31.42S95.29,86,99.73,90.65s8.77,22.06,22.44,21.87,23.33-9.35,25.33-14.28,8.14-17.81,25.41-15.53,25.26,19.95,25.26,29.61-2.56,24.29-11.11,27.14c0,0,9.19-19.31,0-37.46s-30.55-7.69-33.22-2-17,17.54-28.34,18.1-18.21-1.71-25.77-12.74S69.62,71.94,63.39,114.13Z"/><path class="cls-9" d="M229.49,1s2.81,31.3-19.09,32C210.4,33,238.48,45.76,229.49,1Z"/><path class="cls-2" d="M246.5,36.32s-2,18.92-23.19,17.79C223.32,54.11,242.84,65.32,246.5,36.32Z"/><path class="cls-14" d="M64.83,86.11s23.49-8.82,35.7,5.52C100.54,91.64,82.42,71.24,64.83,86.11Z"/><path class="cls-14" d="M149.71,93.72s19.26-18.91,40.9-.83C190.61,92.9,167.66,68,149.71,93.72Z"/><path class="cls-9" d="M63.39,114.13s-3.49,19.19,37.14,23.52,72.3-.73,88.63-13,29-33.56,29-33.56,6.5-15.12,17.59-11.6c0,0-9.38-2-16.32,14.26S198.17,131.32,174.5,136s-49,10.67-93.33.33C81.17,136.32,60.28,135.27,63.39,114.13Z"/><path class="cls-2" d="M63.66,118.08S43.5,105.55,29.5,126.76,4.5,145.44,0,139.46c0,0,5.5,13.93,20,4.22S36.33,113,63.16,120.25Z"/><path class="cls-2" d="M38.17,68.4"/><path class="cls-2" d="M193.5,118.08s25.41-13.6,45.7,17.9,37.56-3.5,37.56-3.5S262,151.53,251.5,142,216.5,96.69,193.5,118.08Z"/><path class="cls-2" d="M70.16,1.75s20,10,18,32.93C88.17,34.68,96.16,2.85,70.16,1.75Z"/><path class="cls-15" d="M125.86,179.29s-15.63-4-20.18,16.58-20.21,23.41-23.59,22.79-5.55.5-2.62,3.17,21.82,3,26.22-3.17,13.93-28.61,24.08-27.38S129.92,179.57,125.86,179.29Z"/><path class="cls-16" d="M106.13,201.31S112,181.05,122.83,184l10.83,2.93S113.3,164.61,106.13,201.31Z"/><path class="cls-17" d="M114.83,68.4s14.67,10.66,31.33-2C146.17,66.36,128.5,85.82,114.83,68.4Z"/><path class="cls-17" d="M118.37,78.4s11.35,10.66,24.26-2C142.63,76.36,129,95.82,118.37,78.4Z"/><path class="cls-9" d="M179.5,102.21l.33-.13c-2.25-6.56-7.35-14.09-18.58-8C161.25,94.11,174.37,94.71,179.5,102.21Z"/><path class="cls-9" d="M88.3,103.56c-2-6.81-7-16-19.05-9.45C69.25,94.11,83.91,94.78,88.3,103.56Z"/><path class="cls-5" d="M113.17,34.68s30.42-25.32,68.38-7.84C181.54,26.84,145.28,4,113.17,34.68Z"/><path class="cls-18" d="M69.25,230.78s8.66,15.2,49.12,8.87,64.46-15.67,70.13-21,14.73-20.32,15.63-23.68l.9-3.36s-5.17,27.7-26.68,35.37S91.34,258.58,69.25,230.78Z"/><path class="cls-3" d="M82.69,245.33s13.08,7.65,47,3.66,62.32-17,65.65-26.3c0,0-6.31,16-34.06,22.8S98.22,255.34,82.69,245.33Z"/><path class="cls-2" d="M82.69,245.33S86,259,100.11,264.17C100.11,264.17,81.55,262.34,82.69,245.33Z"/><path class="cls-2" d="M166.92,243.88s10.32-3.43,7.78,10.84C174.7,254.71,182.67,237.1,166.92,243.88Z"/></g></g></svg>