<svg xmlns="http://www.w3.org/2000/svg" viewBox="0 0 258.74 99.68"><defs><style>.cls-1{isolation:isolate;}.cls-2{fill:#d13434;}.cls-3{fill:#ff8039;opacity:0.68;}.cls-4{fill:#421111;opacity:0.21;mix-blend-mode:darken;}.cls-5{fill:#ffd93b;opacity:0.72;}</style></defs><title>dragon tailAsset 13</title><g class="cls-1"><g id="Layer_2" data-name="Layer 2"><g id="page_1" data-name="page 1"><path class="cls-2" d="M0,27.66S24.22-3.41,62.34,1.18,178.95,71.43,258.74,25.54c0,0-15.69,63.55-137.13,37.42S0,99.68,0,99.68Z"/><path class="cls-3" d="M0,27.66S17.26,2.73,54.63.72s66.51,26.4,94.57,32.91,44,8,44,8-31.09-2-36,3.66S152.21,51,152.21,51,144.45,25.54,129.62,34L114.8,42.49s6.36-21.89-21.18-29.66S70.19,37.19,70.19,37.19,57.61-2.7,32.19,10s-13.06,35.3-13.06,35.3S0,41.78,0,62.26Z"/><path class="cls-4" d="M234.27,55.25c6.48-3.8,11.78-9.72,17-15.2a89.15,89.15,0,0,0,3-8.72C216.44,74.84,129.63,57,129.63,57,40.66,18.88.42,62.26.42,62.26V99.68C16.3,39.31,84.44,57,177.52,69.25l3.1.38A6.29,6.29,0,0,1,184,69c9.88.94,19.27-2.67,28.45-5.86,6.49-2.26,13.12-4.11,19.69-6.12A8.52,8.52,0,0,1,234.27,55.25Z"/><path class="cls-5" d="M0,27.66s34.76-56,115.38-8.57a178.66,178.66,0,0,0,25,12.26c68.25,27,118.4-5.81,118.4-5.81s-48,41.91-131.36,5.8S31.33,5.7,0,36.13Z"/></g></g></g></svg>