<svg xmlns="http://www.w3.org/2000/svg" viewBox="0 0 161.43 282.64"><defs><style>.cls-1{fill:#4f3920;opacity:0.2;}.cls-2{fill:#fffa40;}.cls-3{fill:#6d6520;}.cls-4{fill:#3f3a14;opacity:0.63;}.cls-5,.cls-6{fill:#fcfcfc;}.cls-5{opacity:0.81;}</style></defs><title>coffin bottomAsset 120</title><g id="Layer_2" data-name="Layer 2"><g id="transformation"><ellipse class="cls-1" cx="75.3" cy="273.06" rx="55" ry="9.58"/><polygon class="cls-2" points="42.74 0 111.74 0 161.43 80.01 102.09 273 42.74 273 0 80.06 42.74 0"/><path class="cls-3" d="M72.62,7.62s-25.38-.5-33.88,18.89a243.94,243.94,0,0,1-18.5,34.26s-12,17.89-2,52.21S43.79,235.79,43.79,235.79,50,266.1,72.62,265.6s30.51-12.37,38.06-38.49,35.06-122.72,35.06-122.72a55.15,55.15,0,0,0-9-46.22C120.24,35.46,100.51,3.64,72.62,7.62Z"/><path class="cls-4" d="M74.38,19.48s-20-.45-26.66,17.15a233.41,233.41,0,0,1-14.55,31.1S23.73,84,31.59,115.14s20.1,111.5,20.1,111.5,4.89,27.52,22.69,27.07,24-11.23,29.94-34.95S131.9,107.34,131.9,107.34s5.9-21.34-7.08-42S96.32,15.87,74.38,19.48Z"/><polygon class="cls-5" points="111.74 0.86 108.93 5.34 157.74 85.7 161.43 81.07 111.74 0.86"/><polygon class="cls-6" points="158.43 81.07 99.09 274.25 154.74 85.7 158.43 81.07"/></g></g></svg>