<svg xmlns="http://www.w3.org/2000/svg" viewBox="0 0 163.43 284.64"><defs><style>.cls-1{fill:#4f3920;opacity:0.2;}.cls-2{fill:#fffa40;}.cls-3{fill:#6d6520;}.cls-10,.cls-11,.cls-12,.cls-4,.cls-9{fill:#a57134;}.cls-4{opacity:0.75;}.cls-5{fill:#ffae43;}.cls-6,.cls-7,.cls-8{fill:#fff;}.cls-6{opacity:0.26;}.cls-7{opacity:0.19;}.cls-8{opacity:0.29;}.cls-10{opacity:0.7;}.cls-11{opacity:0.56;}.cls-12{opacity:0.49;}.cls-13,.cls-14{fill:#fcfcfc;}.cls-13{opacity:0.81;}</style></defs><title>coffin frontAsset 34</title><g id="Layer_2" data-name="Layer 2"><g id="transformation"><ellipse class="cls-1" cx="75.3" cy="275" rx="55" ry="9.64"/><polygon class="cls-2" points="42.74 0 111.74 0 161.43 80.68 102.09 275 42.74 275 0 80.73 42.74 0"/><path class="cls-3" d="M72.62,8S47.24,7.5,38.74,27a245.8,245.8,0,0,1-18.5,34.46s-12,18-2,52.52S43.79,237.51,43.79,237.51,50,268,72.62,267.5s30.51-12.44,38.06-38.72,35.06-123.45,35.06-123.45a55.75,55.75,0,0,0-9-46.49C120.24,36,100.51,4,72.62,8Z"/><path class="cls-4" d="M55.43,56.83l6.73-3.17,26.1,1.58L95,57l7.07,8.39-17,16.06L55.43,77.88S45.08,59.78,55.43,56.83Z"/><path class="cls-5" d="M85.74,15s-28.67-6.33-30,12,6.67,38.33,11.33,40.33S88.41,74,93.74,48,85.74,15,85.74,15Z"/><path class="cls-5" d="M55.43,56.83S58.1,72.92,75.21,72.92,95,57,95,57h9.74s16.33,3.5,17,15.92,2.67,26.42,0,29.08-10.67,8.67-10.67,8.67-3.33,68-5.33,86.67S99.07,254,99.07,254a36.13,36.13,0,0,1-23.78,6c-14.22-1.33-19.7-4.67-19.7-4.67L43.07,112.67s-9.33-5.33-12-12.67,0-36,0-36S39.11,53.67,55.43,56.83Z"/><path class="cls-6" d="M102.07,115.14,95,248.5S91.54,260,83.42,260c0,0,12-2,15.66-6l12-143.33S104.91,116.29,102.07,115.14Z"/><path class="cls-7" d="M121.89,75.49S119.51,52.6,92,57.86a24.21,24.21,0,0,1-1.5,5c5.46-.68,15.82-.88,19.6,6.49,5.22,10.2,6.26,19.7,6.61,28.2a16.56,16.56,0,0,1-5.67,13.17s12.26-6.68,12-14.66S121.89,75.49,121.89,75.49Z"/><path class="cls-8" d="M69.07,15s16.32,7,17.5,17.5S86.09,61,83.42,64l-2.68,3s11.63-12.87,13-19S100.91,9,69.07,15Z"/><path class="cls-9" d="M86.74,15s11.15,14.74,4.67,33S75.27,68.52,68.07,67.33s17.64,9.55,23.49-9.39S97.41,23.33,86.74,15Z"/><path class="cls-9" d="M63.07,91s26,21.67,48,19.67C111.07,110.67,87.74,121.33,63.07,91Z"/><path class="cls-9" d="M43.07,112.67s16,3,29.67-7.33C72.74,105.33,64.07,118,43.07,112.67Z"/><path class="cls-9" d="M69.07,77.67s26.67,5,35,11.67C104.07,89.33,93.41,77.67,69.07,77.67Z"/><path class="cls-9" d="M43.78,120.72s38.85,12.08,66.9-2.32C110.69,118.4,79.15,137.44,43.78,120.72Z"/><path class="cls-9" d="M110.13,129s-15.39,8-27.73,8.5l-12.33.5S103.86,140,110.13,129Z"/><path class="cls-9" d="M45.56,141s19.51,12.62,39.51,8.29C85.07,149.33,57.39,156.76,45.56,141Z"/><path class="cls-9" d="M57.91,158.2s19.89,3.86,32.2,0a141.65,141.65,0,0,0,18.82-7.11S93.07,167.06,57.91,158.2Z"/><path class="cls-9" d="M47.93,168s18.58,6.29,32.19,5l13.61-1.33S66.79,182.42,47.93,168Z"/><path class="cls-9" d="M92.15,40.69S76.77,46.3,56.51,42.15C56.51,42.15,77.06,50.64,92.15,40.69Z"/><path class="cls-9" d="M70.84,50a20.46,20.46,0,0,0,9.29,0l4.36-1.25S80.68,53.5,70.84,50Z"/><path class="cls-9" d="M60.18,56.23s16.48,6.44,24.9,2.61C85.07,58.84,68.36,66.21,60.18,56.23Z"/><path class="cls-9" d="M53.24,77.67s-3.75,5.83-2.75,8.58S54.61,92,60.18,91s2.9,0,2.9,0S60.24,94.5,53,92.25,49.24,80.83,53.24,77.67Z"/><path class="cls-9" d="M90.1,77.67s24.25,4.67,31.94,0l-.15-2.18S101.22,79.58,90.1,77.67Z"/><path class="cls-9" d="M31.07,64s19.22,2,25.43,0C56.51,64,40.41,70.25,31.07,64Z"/><path class="cls-9" d="M31.07,79.74s9.49-1.12,14.49,0l5,1.12S39.66,75,31.07,79.74Z"/><path class="cls-9" d="M49.32,183.83s-.33,3.92,10.42,2.67,15.25-4,15.25-4S54.15,188.66,49.32,183.83Z"/><path class="cls-9" d="M76.49,190.5s11.25,15,29.88,0C106.37,190.5,91,201.5,76.49,190.5Z"/><path class="cls-9" d="M51,203.56s12.05,8.63,23.94.94C75,204.5,63.11,216.37,51,203.56Z"/><path class="cls-9" d="M75,204.5s7.79,8.17,16.44,7.83a19.21,19.21,0,0,0,13.29-5.8S91.24,218,75,204.5Z"/><path class="cls-9" d="M52.47,219.69s11.13,7.64,18.37,4L78.07,220S65.86,234.72,52.47,219.69Z"/><path class="cls-10" d="M52.47,219.69s16.59,18.73,3.13,35.64Z"/><path class="cls-9" d="M75.3,260l2.78-19s-1.48,17,5.34,19Z"/><path class="cls-11" d="M104.72,203.56s-9,27.44-9.24,31.94,1.93,13.5,3.6,18.5Z"/><path class="cls-12" d="M43.78,120.72s23.94-9.75,33.45-8.24S105.11,117,108.93,123s1.21,6,1.21,6l.94-18.34s-25.44-1.28-31.72-5.33l-6.28-4.05s-3.17,15.55-30,11.38Z"/><polygon class="cls-13" points="113.74 0 110.93 4.5 159.74 85.34 163.43 80.68 113.74 0"/><polygon class="cls-14" points="160.43 80.68 101.09 275 156.74 85.34 160.43 80.68"/></g></g></svg>