<svg xmlns="http://www.w3.org/2000/svg" viewBox="0 0 596 314.77"><defs><style>.cls-1{fill:#ffeb33;}.cls-2{fill:#ff8533;}.cls-3{fill:#f53;}.cls-4{fill:#ffdad4;}</style></defs><title>fireAsset 117</title><g id="Layer_2" data-name="Layer 2"><g id="page_1" data-name="page 1"><path class="cls-1" d="M307,0s-46.32,65.79-80.11,62.46S211.33,27,211.33,27s-42.05-9.61-44,32.11S193.1,85.74,193.1,85.74s-38.4,28.88-57.28,11.68-1.44-34-1.44-34S93.47,85.1,97.86,110.14a40.85,40.85,0,0,0,9.19,19.27c10.58,12.55,2.79,31-14.17,32.94-9.7,1.08-19.23-.2-26.75-6-25.56-19.77-29.51-41.65-29.51-41.65s-43.73,85.37,2.88,90L62,207c5.69.57,8,7.2,3.77,10.76-7.24,6-13.61,16.42-13.55,34.29C52.33,293.2,0,294.65,0,294.65s59.59,23.52,84.4,4.67C97.67,289.24,107,269,112.77,252.44c2.21-6.33,12.19-4.93,12.31,1.74q0,.46,0,.92c.47,29.91,49.18,50.79,77.79,44.44s36.95-33,36.95-33-84.65,5-75.13-35c4.36-18.35,14-25,23.12-26.88,12.66-2.57,24.74,6.28,25.78,18.36.65,7.56-1.86,15-14.17,15,0,0,46.64,12.57,49.63-9.43s-35.13-41.4-46.18-51.63,2.72-30.3,17.13-23.7,45.91,13.45,59.53,7.28l13.62-6.17s-56.41-.71-46.56-25.77h0c2.83-7.21,13-8.82,18.14-2.8,4.67,5.52,11.91,9,23.13,5.64C316.67,122.82,321,98.05,321,98.05s-28.33,20.46-41.3.63-8.49-27.94,3.22-37.62S310.51,21,307,0Z"/><path class="cls-2" d="M268.91,57.64s-19.24,23.82-46.8,13.51-28.66-35.07-28.66-35.07S160.37,58.72,199,72.67c0,0,11,10.85-2.2,23.23s-59.53,35.07-80.47,7.22c0,0-5.51,22.69,20.94,27.85s12.13,34-8.82,38.16c-17.45,3.44-54,9.74-72.76-.18-6.38-3.38-14.3.88-14.49,7.74-.21,7.72,4.4,15.68,23.31,17.19,38.58,3.09,37.64,15.76,26.62,24s-25.52,23.43-24.41,41.48-16.54,26.3-16.54,26.3,28.66-7.22,37.48-26.3,29.88-32.51,37.6-31.48,10.91,12.4,9.81,22.71,22,43.32,58.43,35.07,15.43-5.16,15.43-5.16-56.22,1-57.32-34.07,22-49.55,36.38-49.55h0c4.61,0,7.19-5.08,4.18-8.35-5.57-6.07-10.92-15.28-8.59-27.05,4.41-22.31,34.17-36.73,41.89-27.45l.23.28c2.53,3,7.54.4,6.33-3.21a21.51,21.51,0,0,1-1.06-5.3c-1.1-15.47,3.15-34,18.11-34s13.78,14.44,24.84,22.69l.33.24c4.06,3,9.09-2.28,5.56-5.79C266.3,95.51,234,90.72,268.91,57.64Z"/><path class="cls-3" d="M233.24,80.89s-9.9,25-30.07,30-35,9-36.67,24-8.08,47-31.59,53l-23.51,6s35.15,10,49.11-6,3.27-51,34.26-58S233.24,80.89,233.24,80.89Z"/><path class="cls-4" d="M36.63,114.68s19.18,50.48,54.46,46.85C91.09,161.53,52.72,177.47,36.63,114.68Z"/><path class="cls-4" d="M129.74,66.14s-10.1,36.31,23.48,36.68C153.22,102.82,111.74,109.39,129.74,66.14Z"/><path class="cls-4" d="M80.52,210.32s-21.26,6.24-24.69,21-3.26,40-14.68,47.9a65.91,65.91,0,0,0,19.68-34.45C65.43,222.89,68.88,212.74,80.52,210.32Z"/><path class="cls-1" d="M559.11,8S515,40.26,486,44.08s-60,.82-69,22.82c0,0,20-9,32-5s12,24.53-19,30.77-59-4.19-83,30c0,0,38-18.22,51-11.5h0a4.58,4.58,0,0,1-1.27,8.57C380.66,122.67,356.31,129.87,353,147c-5,25.89-30,38.89-40,37.89l-10-1s22,25,45,11l23-14s-16,36-42,42-45,17-49,42l-4,25s-1-36,32-43a580.72,580.72,0,0,0,57-15s-41,15-47,43-25,39.74-25,39.74,67.67,4.66,100.11-40.79c6.2-8.69,19.8-1.5,16.09,8.52l-.2.54c-7,18-23,31.87-23,31.87s70-6.25,73-27.56-31-43.47-26-68.89,32-21.42,37-7.42,2,34.74,20.49,41.87A135,135,0,0,0,527,260.89s-35-8-36.51-39c-.89-18.66,2.37-34.11-.12-45.08-1.54-6.78,7.47-10.69,11.11-4.76A25.9,25.9,0,0,1,505,184.89c1,27,2,43,12,51l10,8s-14-52,9-67c13-8.47,5.24-26.84-4-41.21-4.94-7.71,5-16.21,11.89-10.2,5.29,4.6,9.43,11.4,10.08,21.46,2,31,29,54,42,50,0,0-38-39.43-11-74.21S567.09,96.11,559.11,8Z"/><path class="cls-2" d="M540.26,78.35a23.49,23.49,0,0,0-30.89-19.46c-7.34,2.47-14.74,4.16-20.78,3.86l-19.42-1S488.59,72.56,474,86.3s-39.82,16.68-43.7,20.61-4.86,27.48-15.54,33.37-27.19,2.23-27.19,31S352,223.89,352,223.89s46.27-13,36.56.78-33,17.67-37.87,34.35A164.85,164.85,0,0,1,340,286.81s33-5.21,44.67-22.88,26.22-38.27,31.08-31.41,4.86,12.76,4.86,12.76.05-57.17,19.42-56.92c41,.53,24.28-13.76,27.19-25s20.8-15.79,36.83-10,7.84-35.06,6.87-39.26,17.44-6.49,26.08-5.16C552.74,111.31,542.34,95.88,540.26,78.35Z"/><path class="cls-3" d="M504,80.89s-12,26.57-28,30.28-32,11.72-36,22.72-12,25-27,27.49-21,31.51-19,39.51,18.25,13-.37,36c0,0,24.37-27,23.37-37s6.7-22.69,18.85-25.84S460,159,461,146.94s9-14,20-17,24-26,23-41S504,80.89,504,80.89Z"/></g></g></svg>