<svg xmlns="http://www.w3.org/2000/svg" viewBox="0 0 1033.99 164.08"><defs><style>.cls-1{fill:#254208;}.cls-2{fill:#6d841a;}</style></defs><title>lower grassAsset 19</title><g id="Layer_2" data-name="Layer 2"><g id="page_1" data-name="page 1"><path class="cls-1" d="M0,164.08s19.37-91,62.2-27.2c0,0-32.63-93.83,0-74.13s28.55,41.08,28.55,41.08S94.83,37.6,117.27,60,139.7,91.35,139.7,91.35s12.24-11,24.47,18.33c0,0-24.47-97.08,0-74.95S209,103.82,209,103.82s16.32-100,28.55-69.09,0,61.66,0,61.66,36.71-71,46.91-42.46,0,49.89,0,49.89,32.63-66.66,48.95-44,0,54.7,0,54.7,57.1-85.52,51,22.34c0,0,22.43-58.62,55.06-22.34,0,0-6.12-107.53,30.59-54.7,0,0-26.51-102.72,71.38-11.74,0,0,12.24-110.06,51,2.93,0,0,42.83-99.78,51-2.93,0,0,63.22-85.35,53-13.32,0,0,38.75-59.68,28.55,47.26,0,0,30.59-126.38,57.1,54.84,0,0-3.07-123.18,47.41-22.34,0,0,9.69-84,35.19-23.15,0,0,12.24-113.72,44.87-78.51s10.2,78.51,10.2,78.51,24.93-56.18,25.49-8.91,0,32.06,0,32.06,5.43-42.61,24.47-23.15,9.18,34.48,9.18,34.48,24.47-21.56,24.47,16.39c0,0,30.59-20.27,30.59,21.86Z"/><path class="cls-2" d="M666.85,164.08s-10.6-46.21-34-13.81c0,0,17.85-47.63,0-37.63s-15.62,20.85-15.62,20.85S615,99.87,602.68,111.25s-12.27,15.91-12.27,15.91-6.7-5.6-13.39,9.31c0,0,13.39-49.28,0-38s-24.55,35.07-24.55,35.07-8.93-50.78-15.62-35.07,0,31.3,0,31.3-20.09-36-25.67-21.56,0,25.33,0,25.33-17.85-33.84-26.78-22.35,0,27.77,0,27.77-31.24-43.41-27.9,11.34c0,0-12.27-29.76-30.13-11.34,0,0,3.35-54.59-16.74-27.77,0,0,14.51-52.15-39.06-6,0,0-6.7-55.87-27.9,1.49,0,0-23.43-50.66-27.9-1.49,0,0-34.59-43.33-29-6.76,0,0-21.2-30.3-15.62,24,0,0-16.74-64.16-31.24,27.84,0,0,1.68-62.54-25.94-11.34,0,0-5.3-42.67-19.25-11.75,0,0-6.7-57.73-24.55-39.85s-5.58,39.85-5.58,39.85-13.64-28.52-13.95-4.53,0,16.28,0,16.28-3-21.63-13.39-11.75-5,17.51-5,17.51-13.39-10.94-13.39,8.32c0,0-16.74-10.29-16.74,11.1Z"/></g></g></svg>