<svg xmlns="http://www.w3.org/2000/svg" viewBox="0 0 1176.38 80.3"><defs><style>.cls-1{fill:#a0bcec;}.cls-2{fill:#b3d6ff;}</style></defs><title>water 1Asset 23</title><g id="Layer_2" data-name="Layer 2"><g id="page_1" data-name="page 1"><path class="cls-1" d="M1176,48.3v-27C1140,19.15,1133.63,0,1133.63,0c-63.29,38.54-109,0-109,0C959.13,48.6,913.35,0,913.35,0,861,45.25,795.51,0,795.51,0,716.95,50.27,682,0,682,0,620.93,50.27,577.28,0,577.28,0,500.89,55.3,450.68,0,450.68,0,367.75,55.3,321.89,0,321.89,0,243.32,57,184.34,0,184.34,0,64.31,51.95,29.28,0,29.28,0l-6,7.58L.31,48.3Z"/><path class="cls-2" d="M185.06,11.24s22.24,26.24,54,22C239.07,33.2,181.88,45,185.06,11.24Z"/><path class="cls-2" d="M321.68,11.24s22.24,26.24,54,22C375.69,33.2,318.5,45,321.68,11.24Z"/><path class="cls-2" d="M448.77,11.24s22.24,26.24,54,22C502.79,33.2,445.6,45,448.77,11.24Z"/><path class="cls-2" d="M579,11.24s22.24,26.24,54,22C633.06,33.2,575.87,45,579,11.24Z"/><path class="cls-2" d="M681.78,11.24s22.24,26.24,54,22C735.79,33.2,678.6,45,681.78,11.24Z"/><path class="cls-2" d="M796.16,11.24s22.24,26.24,54,22C850.18,33.2,793,45,796.16,11.24Z"/><path class="cls-2" d="M914.78,11.24s22.24,26.24,54,22C968.8,33.2,911.6,45,914.78,11.24Z"/><path class="cls-2" d="M1028.11,11.24s22.24,26.24,54,22C1082.12,33.2,1024.93,45,1028.11,11.24Z"/><path class="cls-2" d="M1122.37,11.24s22.24,26.24,54,22C1176.38,33.2,1119.19,45,1122.37,11.24Z"/><rect class="cls-1" y="48.3" width="1176" height="32"/></g></g></svg>