<svg xmlns="http://www.w3.org/2000/svg" viewBox="0 0 567.68 98.57"><defs><style>.cls-1{fill:#565656;}.cls-2{fill:#969696;opacity:0.31;}.cls-3,.cls-4{fill:#232323;}.cls-3{opacity:0.3;}.cls-4{opacity:0.32;}.cls-5{fill:#ddd;opacity:0.24;}</style></defs><title>rocky rockAsset 7 1</title><g id="Layer_2" data-name="Layer 2"><g id="transformation"><path class="cls-1" d="M395.9,98s0-.19,0-.43h0C395.9,97.8,395.9,97.94,395.9,98Z"/><path class="cls-1" d="M396.23,98v0Z"/><path class="cls-1" d="M281.23,98l.14-.41h0C281.28,97.84,281.23,98,281.23,98Z"/><path class="cls-1" d="M211.41,5.63C126.51-14.68,62.3,25.94,51.77,33.17,37.63,39.48-4.94,61.64.47,97.57H281.36C283.07,91.83,300.27,26.89,211.41,5.63Z"/><path class="cls-1" d="M544.4,60.7c-17.66-16-29.56,2.15-36.05,18.29,10.1-48.37-28.82-65.83-68.94-73.25-43.26-8-43.54,84.65-43.5,91.83H502.5l-.1.47.18-.47H565.4S572.9,86.56,544.4,60.7Z"/><path class="cls-1" d="M349.41,50.08C305,31.31,283.27,92,281.37,97.57H395.89C395.65,93.87,392.45,68.29,349.41,50.08Z"/><path class="cls-2" d="M20.23,72s25.21-33.87,78-52.74,77-3.72,77,8.28-43,28-77.5,39S16.58,94.17,20.23,72Z"/><path class="cls-2" d="M95.15,35.64s16.74-17.89,43.25-23.28,34.75,6.81,32.78,14.2-23.67,12.17-40.77,14.87S89.89,48.85,95.15,35.64Z"/><path class="cls-2" d="M298.23,90.57s-4.16-16.06,16-30.05,21,5,16,15-17.48,15-24.74,15"/><path class="cls-2" d="M309.52,70.12s-2.39-9.22,9.19-17.25,12.06,2.87,9.19,8.63-10,8.63-14.2,8.63"/><path class="cls-2" d="M409.57,60.52s-4.67-28,7-41.23,28.67-5.28,32.67,0,6,22.25-12,36.27S409.57,60.52,409.57,60.52Z"/><path class="cls-2" d="M436.52,36.25S434,21,440.32,13.84s15.58-2.87,17.76,0,3.28,12.09-6.51,19.71S436.52,36.25,436.52,36.25Z"/><path class="cls-2" d="M516.23,82.95s4.85-13.73,14.5-19.55,7.45,10.18,8.48,16.18-24.9,23-23,11"/><path class="cls-2" d="M525.19,72.05s2.54-7.2,7.6-10.25,3.91,5.34,4.44,8.48-13.05,12.08-12,5.77"/><path class="cls-3" d="M261.81,28s19.42,68.57-92.08,68.57h113.5S295.39,67.43,261.81,28Z"/><path class="cls-4" d="M366.53,58.76s13.85,18.81,4.32,28.81S345.28,98.51,342.78,98l-2.54-.47h56S389.73,69.57,366.53,58.76Z"/><path class="cls-4" d="M476.3,17S500.48,37.94,498,58.76s-20.25,38.81-48.75,38.81h57S526.36,33.46,476.3,17Z"/><path class="cls-4" d="M555.44,72.25s2.75,16.65-3.75,18.65-24,7.67-24,7.67h37.55S570.25,86.76,555.44,72.25Z"/><path class="cls-5" d="M232.1,12s48.41,29.21,49.27,85.54C281.37,97.57,295.3,42.16,232.1,12Z"/><path class="cls-5" d="M346,48.79s40.24,29.53,46.57,46C392.57,94.78,385.09,61.67,346,48.79Z"/><path class="cls-5" d="M446.12,7.09s46,17.73,63.77,54.61C509.9,61.7,504.68,14.94,446.12,7.09Z"/><path class="cls-5" d="M527.68,55.56s31.78,15,38.16,35S562.47,57.21,527.68,55.56Z"/></g></g></svg>