<svg xmlns="http://www.w3.org/2000/svg" viewBox="0 0 530.29 311.71"><defs><style>.cls-1{fill:#af863e;opacity:0.54;}.cls-2{fill:#896b29;}.cls-3{fill:#66605f;}.cls-4{fill:#ada6a5;}.cls-5{fill:#443d3d;}.cls-6{fill:#ffbf1f;}.cls-7{opacity:0.81;}.cls-8{fill:#b7903b;}.cls-9{fill:#684e29;opacity:0.8;}.cls-10{fill:#fefffd;}.cls-11{fill:#775e25;opacity:0.33;}.cls-12,.cls-14{fill:#bf305c;}.cls-13{fill:#ff396d;}.cls-14{opacity:0.77;}.cls-15{fill:#fff;}</style></defs><title>shop1Asset 17</title><g id="Layer_2" data-name="Layer 2"><g id="page_1" data-name="page 1"><rect class="cls-1" x="51.33" y="292.29" width="437.41" height="18.36" rx="8.67" ry="8.67"/><path class="cls-2" d="M418.09.33h18.47a14.59,14.59,0,0,1,14.37,12.08c4.27,24.44,17.28,78,50,85.35,42.56,9.53,11.5-22.24,11.5-22.24s23,19.06,10.94,33.89S433,104.5,433,104.5L400.84,35.28Z"/><polygon class="cls-2" points="74.28 193.09 131.12 172.97 492.98 172.97 492.98 240.75 492.98 251.34 464.38 279.94 99.34 242.51 74.28 193.09"/><polygon class="cls-2" points="492.98 172.97 492.98 120.01 484.5 120.01 484.5 179.32 492.98 172.97"/><rect class="cls-2" x="132.53" y="114.94" width="10.59" height="58.03"/><circle class="cls-3" cx="124.56" cy="291.23" r="19.42"/><circle class="cls-3" cx="416.16" cy="291.23" r="19.42"/><circle class="cls-4" cx="118.85" cy="292.29" r="19.42"/><circle class="cls-4" cx="410.46" cy="292.29" r="19.42"/><circle class="cls-3" cx="118.42" cy="292.29" r="8.83"/><circle class="cls-3" cx="410.46" cy="292.29" r="8.83"/><path class="cls-5" d="M112.59,292.29a8.83,8.83,0,0,1,7.11-8.66,8.73,8.73,0,0,0-4.78.39,8.82,8.82,0,0,0,4.78,16.93A8.83,8.83,0,0,1,112.59,292.29Z"/><path class="cls-5" d="M404.9,292.29a8.83,8.83,0,0,1,7.11-8.66,8.73,8.73,0,0,0-4.78.39A8.82,8.82,0,0,0,412,300.95,8.83,8.83,0,0,1,404.9,292.29Z"/><path class="cls-6" d="M114.32.33H424.18a6.11,6.11,0,0,1,6,5c2.94,15.94,12.67,87.61,67.09,101.11,12.28,3,23.46-8.36,19.76-20.47a26.63,26.63,0,0,0-4-7.88,6,6,0,0,1-.21-6.85c1.86-2.75,5.26-4.67,10.86,2.17,9.53,11.65,11.65,46.6-13.77,50.84s-455.42,0-455.42,0H34.38S-4.8,126.37.49,93.53C3.14,77.12,9.26,72.35,14.71,71.69c7.57-.92,9.32,10.48,1.87,12.07L15.32,84C2.09,86.28,12.88,113,25,109.42,41.76,104.5,85.23,92.08,108.41,4.88A6.12,6.12,0,0,1,114.32.33Z"/><rect class="cls-6" x="68.28" y="193.09" width="396.11" height="86.85"/><rect class="cls-6" x="68.28" y="115.77" width="11.65" height="88.97"/><rect class="cls-6" x="452.73" y="104.5" width="11.65" height="100.24"/><g class="cls-7"><path class="cls-8" d="M115.33,52.56A154.73,154.73,0,0,1,110,67.34a1.63,1.63,0,0,0,1.49,2.3h17.32A1.63,1.63,0,0,0,130.47,68v-.27a1.63,1.63,0,0,0-1.63-1.63H117.57A1.63,1.63,0,0,1,116,64.3a41.68,41.68,0,0,1,2.47-10.59,1.63,1.63,0,0,0-1.49-2.29h-.05A1.62,1.62,0,0,0,115.33,52.56Z"/><path class="cls-8" d="M145.3,52.56A154.73,154.73,0,0,1,140,67.34a1.63,1.63,0,0,0,1.49,2.3h17.32A1.63,1.63,0,0,0,160.44,68v-.27a1.63,1.63,0,0,0-1.63-1.63H147.54a1.63,1.63,0,0,1-1.62-1.81,41.68,41.68,0,0,1,2.47-10.59,1.63,1.63,0,0,0-1.49-2.29h-.05A1.62,1.62,0,0,0,145.3,52.56Z"/><path class="cls-8" d="M175.27,52.56A154.73,154.73,0,0,1,170,67.34a1.63,1.63,0,0,0,1.49,2.3h17.32A1.63,1.63,0,0,0,190.42,68v-.27a1.63,1.63,0,0,0-1.63-1.63H177.52a1.63,1.63,0,0,1-1.62-1.81,41.68,41.68,0,0,1,2.47-10.59,1.63,1.63,0,0,0-1.49-2.29h-.05A1.62,1.62,0,0,0,175.27,52.56Z"/><path class="cls-8" d="M205.25,52.56A154.73,154.73,0,0,1,200,67.34a1.63,1.63,0,0,0,1.49,2.3h17.32A1.63,1.63,0,0,0,220.39,68v-.27a1.63,1.63,0,0,0-1.63-1.63H207.49a1.63,1.63,0,0,1-1.62-1.81,41.68,41.68,0,0,1,2.47-10.59,1.63,1.63,0,0,0-1.49-2.29h-.05A1.62,1.62,0,0,0,205.25,52.56Z"/><path class="cls-8" d="M235.22,52.56a154.73,154.73,0,0,1-5.29,14.78,1.63,1.63,0,0,0,1.49,2.3h17.32A1.63,1.63,0,0,0,250.36,68v-.27a1.63,1.63,0,0,0-1.63-1.63H237.46a1.63,1.63,0,0,1-1.62-1.81,41.68,41.68,0,0,1,2.47-10.59,1.63,1.63,0,0,0-1.49-2.29h-.05A1.62,1.62,0,0,0,235.22,52.56Z"/><path class="cls-8" d="M92.76,79a154.73,154.73,0,0,1-5.29,14.78,1.63,1.63,0,0,0,1.49,2.3h17.32a1.63,1.63,0,0,0,1.63-1.63v-.27a1.63,1.63,0,0,0-1.63-1.63H95a1.63,1.63,0,0,1-1.62-1.81,41.68,41.68,0,0,1,2.47-10.59,1.63,1.63,0,0,0-1.49-2.29h-.05A1.62,1.62,0,0,0,92.76,79Z"/><path class="cls-8" d="M122.73,79a154.73,154.73,0,0,1-5.29,14.78,1.63,1.63,0,0,0,1.49,2.3h17.32a1.63,1.63,0,0,0,1.63-1.63v-.27a1.63,1.63,0,0,0-1.63-1.63H125a1.63,1.63,0,0,1-1.62-1.81,41.68,41.68,0,0,1,2.47-10.59,1.63,1.63,0,0,0-1.49-2.29h-.05A1.62,1.62,0,0,0,122.73,79Z"/><path class="cls-8" d="M152.7,79a154.73,154.73,0,0,1-5.29,14.78,1.63,1.63,0,0,0,1.49,2.3h17.32a1.63,1.63,0,0,0,1.63-1.63v-.27a1.63,1.63,0,0,0-1.63-1.63H154.95a1.63,1.63,0,0,1-1.62-1.81,41.68,41.68,0,0,1,2.47-10.59,1.63,1.63,0,0,0-1.49-2.29h-.05A1.62,1.62,0,0,0,152.7,79Z"/><path class="cls-8" d="M182.68,79a154.73,154.73,0,0,1-5.29,14.78,1.63,1.63,0,0,0,1.49,2.3h17.32a1.63,1.63,0,0,0,1.63-1.63v-.27a1.63,1.63,0,0,0-1.63-1.63H184.92a1.63,1.63,0,0,1-1.62-1.81,41.68,41.68,0,0,1,2.47-10.59,1.63,1.63,0,0,0-1.49-2.29h-.05A1.62,1.62,0,0,0,182.68,79Z"/><path class="cls-8" d="M212.65,79a154.73,154.73,0,0,1-5.29,14.78,1.63,1.63,0,0,0,1.49,2.3h17.32a1.63,1.63,0,0,0,1.63-1.63v-.27a1.63,1.63,0,0,0-1.63-1.63H214.89a1.63,1.63,0,0,1-1.62-1.81,41.68,41.68,0,0,1,2.47-10.59,1.63,1.63,0,0,0-1.49-2.29h-.05A1.62,1.62,0,0,0,212.65,79Z"/><path class="cls-8" d="M242.62,79a154.73,154.73,0,0,1-5.29,14.78,1.63,1.63,0,0,0,1.49,2.3h17.32a1.63,1.63,0,0,0,1.63-1.63v-.27a1.63,1.63,0,0,0-1.63-1.63H244.86a1.63,1.63,0,0,1-1.62-1.81,41.68,41.68,0,0,1,2.47-10.59,1.63,1.63,0,0,0-1.49-2.29h-.05A1.62,1.62,0,0,0,242.62,79Z"/><path class="cls-8" d="M272.6,79a154.73,154.73,0,0,1-5.29,14.78,1.63,1.63,0,0,0,1.49,2.3h17.32a1.63,1.63,0,0,0,1.63-1.63v-.27a1.63,1.63,0,0,0-1.63-1.63H274.84a1.63,1.63,0,0,1-1.62-1.81,41.68,41.68,0,0,1,2.47-10.59,1.63,1.63,0,0,0-1.49-2.29h-.05A1.62,1.62,0,0,0,272.6,79Z"/><path class="cls-8" d="M266.71,52.56a154.73,154.73,0,0,1-5.29,14.78,1.63,1.63,0,0,0,1.49,2.3h17.32A1.63,1.63,0,0,0,281.86,68v-.27a1.63,1.63,0,0,0-1.63-1.63H269a1.63,1.63,0,0,1-1.62-1.81,41.68,41.68,0,0,1,2.47-10.59,1.63,1.63,0,0,0-1.49-2.29h-.05A1.62,1.62,0,0,0,266.71,52.56Z"/><path class="cls-8" d="M296.69,52.56a154.73,154.73,0,0,1-5.29,14.78,1.63,1.63,0,0,0,1.49,2.3H310.2A1.63,1.63,0,0,0,311.83,68v-.27a1.63,1.63,0,0,0-1.63-1.63H298.93a1.63,1.63,0,0,1-1.62-1.81,41.68,41.68,0,0,1,2.47-10.59,1.63,1.63,0,0,0-1.49-2.29h-.05A1.62,1.62,0,0,0,296.69,52.56Z"/><path class="cls-8" d="M326.66,52.56a154.73,154.73,0,0,1-5.29,14.78,1.63,1.63,0,0,0,1.49,2.3h17.32A1.63,1.63,0,0,0,341.8,68v-.27a1.63,1.63,0,0,0-1.63-1.63H328.9a1.63,1.63,0,0,1-1.62-1.81,41.68,41.68,0,0,1,2.47-10.59,1.63,1.63,0,0,0-1.49-2.29h-.05A1.62,1.62,0,0,0,326.66,52.56Z"/><path class="cls-8" d="M356.63,52.56a154.73,154.73,0,0,1-5.29,14.78,1.63,1.63,0,0,0,1.49,2.3h17.32A1.63,1.63,0,0,0,371.78,68v-.27a1.63,1.63,0,0,0-1.63-1.63H358.88a1.63,1.63,0,0,1-1.62-1.81,41.68,41.68,0,0,1,2.47-10.59,1.63,1.63,0,0,0-1.49-2.29h-.05A1.62,1.62,0,0,0,356.63,52.56Z"/><path class="cls-8" d="M386.9,52.56a154.73,154.73,0,0,1-5.29,14.78,1.63,1.63,0,0,0,1.49,2.3h17.32A1.63,1.63,0,0,0,402,68v-.27a1.63,1.63,0,0,0-1.63-1.63H389.14a1.63,1.63,0,0,1-1.62-1.81A41.68,41.68,0,0,1,390,53.71a1.63,1.63,0,0,0-1.49-2.29h-.05A1.62,1.62,0,0,0,386.9,52.56Z"/><path class="cls-8" d="M416.87,52.56a154.73,154.73,0,0,1-5.29,14.78,1.63,1.63,0,0,0,1.49,2.3h17.32A1.63,1.63,0,0,0,432,68v-.27a1.63,1.63,0,0,0-1.63-1.63H419.11a1.63,1.63,0,0,1-1.62-1.81A41.68,41.68,0,0,1,420,53.71a1.63,1.63,0,0,0-1.49-2.29h-.05A1.62,1.62,0,0,0,416.87,52.56Z"/><path class="cls-8" d="M126.42,26.09a154.73,154.73,0,0,1-5.29,14.78,1.63,1.63,0,0,0,1.49,2.3h17.32a1.63,1.63,0,0,0,1.63-1.63v-.27a1.63,1.63,0,0,0-1.63-1.63H128.66A1.63,1.63,0,0,1,127,37.83a41.68,41.68,0,0,1,2.47-10.59A1.63,1.63,0,0,0,128,25H128A1.62,1.62,0,0,0,126.42,26.09Z"/><path class="cls-8" d="M156.39,26.09a154.73,154.73,0,0,1-5.29,14.78,1.63,1.63,0,0,0,1.49,2.3H169.9a1.63,1.63,0,0,0,1.63-1.63v-.27a1.63,1.63,0,0,0-1.63-1.63H158.63A1.63,1.63,0,0,1,157,37.83a41.68,41.68,0,0,1,2.47-10.59A1.63,1.63,0,0,0,158,25h-.05A1.62,1.62,0,0,0,156.39,26.09Z"/><path class="cls-8" d="M186.36,26.09a154.73,154.73,0,0,1-5.29,14.78,1.63,1.63,0,0,0,1.49,2.3h17.32a1.63,1.63,0,0,0,1.63-1.63v-.27a1.63,1.63,0,0,0-1.63-1.63H188.61A1.63,1.63,0,0,1,187,37.83a41.68,41.68,0,0,1,2.47-10.59A1.63,1.63,0,0,0,188,25h-.05A1.62,1.62,0,0,0,186.36,26.09Z"/><path class="cls-8" d="M216.34,26.09A154.73,154.73,0,0,1,211,40.87a1.63,1.63,0,0,0,1.49,2.3h17.32a1.63,1.63,0,0,0,1.63-1.63v-.27a1.63,1.63,0,0,0-1.63-1.63H218.58A1.63,1.63,0,0,1,217,37.83a41.68,41.68,0,0,1,2.47-10.59A1.63,1.63,0,0,0,217.94,25h-.05A1.62,1.62,0,0,0,216.34,26.09Z"/><path class="cls-8" d="M246.31,26.09A154.73,154.73,0,0,1,241,40.87a1.63,1.63,0,0,0,1.49,2.3h17.32a1.63,1.63,0,0,0,1.63-1.63v-.27a1.63,1.63,0,0,0-1.63-1.63H248.55a1.63,1.63,0,0,1-1.62-1.81,41.68,41.68,0,0,1,2.47-10.59A1.63,1.63,0,0,0,247.91,25h-.05A1.62,1.62,0,0,0,246.31,26.09Z"/><path class="cls-8" d="M281,26.09a154.73,154.73,0,0,1-5.29,14.78,1.63,1.63,0,0,0,1.49,2.3h17.32a1.63,1.63,0,0,0,1.63-1.63v-.27a1.63,1.63,0,0,0-1.63-1.63H283.22a1.63,1.63,0,0,1-1.62-1.81,41.68,41.68,0,0,1,2.47-10.59A1.63,1.63,0,0,0,282.59,25h-.05A1.62,1.62,0,0,0,281,26.09Z"/><path class="cls-8" d="M311,26.09a154.73,154.73,0,0,1-5.29,14.78,1.63,1.63,0,0,0,1.49,2.3h17.32a1.63,1.63,0,0,0,1.63-1.63v-.27a1.63,1.63,0,0,0-1.63-1.63H313.2a1.63,1.63,0,0,1-1.62-1.81A41.68,41.68,0,0,1,314,27.25,1.63,1.63,0,0,0,312.56,25h-.05A1.62,1.62,0,0,0,311,26.09Z"/><path class="cls-8" d="M340.93,26.09a154.73,154.73,0,0,1-5.29,14.78,1.63,1.63,0,0,0,1.49,2.3h17.32a1.63,1.63,0,0,0,1.63-1.63v-.27a1.63,1.63,0,0,0-1.63-1.63H343.17a1.63,1.63,0,0,1-1.62-1.81A41.68,41.68,0,0,1,344,27.25,1.63,1.63,0,0,0,342.53,25h-.05A1.62,1.62,0,0,0,340.93,26.09Z"/><path class="cls-8" d="M370.9,26.09a154.73,154.73,0,0,1-5.29,14.78,1.63,1.63,0,0,0,1.49,2.3h17.32A1.63,1.63,0,0,0,386,41.54v-.27a1.63,1.63,0,0,0-1.63-1.63H373.14a1.63,1.63,0,0,1-1.62-1.81A41.68,41.68,0,0,1,374,27.25,1.63,1.63,0,0,0,372.51,25h-.05A1.62,1.62,0,0,0,370.9,26.09Z"/><path class="cls-8" d="M401.16,26.09a154.73,154.73,0,0,1-5.29,14.78,1.63,1.63,0,0,0,1.49,2.3h17.32a1.63,1.63,0,0,0,1.63-1.63v-.27a1.63,1.63,0,0,0-1.63-1.63H403.41a1.63,1.63,0,0,1-1.62-1.81,41.68,41.68,0,0,1,2.47-10.59A1.63,1.63,0,0,0,402.77,25h-.05A1.62,1.62,0,0,0,401.16,26.09Z"/><path class="cls-8" d="M305.61,79a154.73,154.73,0,0,1-5.29,14.78,1.63,1.63,0,0,0,1.49,2.3h17.32a1.63,1.63,0,0,0,1.63-1.63v-.27a1.63,1.63,0,0,0-1.63-1.63H307.85a1.63,1.63,0,0,1-1.62-1.81,41.68,41.68,0,0,1,2.47-10.59,1.63,1.63,0,0,0-1.49-2.29h-.05A1.62,1.62,0,0,0,305.61,79Z"/><path class="cls-8" d="M335.58,79a154.73,154.73,0,0,1-5.29,14.78,1.63,1.63,0,0,0,1.49,2.3H349.1a1.63,1.63,0,0,0,1.63-1.63v-.27a1.63,1.63,0,0,0-1.63-1.63H337.83a1.63,1.63,0,0,1-1.62-1.81,41.68,41.68,0,0,1,2.47-10.59,1.63,1.63,0,0,0-1.49-2.29h-.05A1.62,1.62,0,0,0,335.58,79Z"/><path class="cls-8" d="M365.56,79a154.73,154.73,0,0,1-5.29,14.78,1.63,1.63,0,0,0,1.49,2.3h17.32a1.63,1.63,0,0,0,1.63-1.63v-.27a1.63,1.63,0,0,0-1.63-1.63H367.8a1.63,1.63,0,0,1-1.62-1.81,41.68,41.68,0,0,1,2.47-10.59,1.63,1.63,0,0,0-1.49-2.29h-.05A1.62,1.62,0,0,0,365.56,79Z"/><path class="cls-8" d="M395.53,79a154.73,154.73,0,0,1-5.29,14.78,1.63,1.63,0,0,0,1.49,2.3H409a1.63,1.63,0,0,0,1.63-1.63v-.27A1.63,1.63,0,0,0,409,92.56H397.77a1.63,1.63,0,0,1-1.62-1.81,41.68,41.68,0,0,1,2.47-10.59,1.63,1.63,0,0,0-1.49-2.29h-.05A1.62,1.62,0,0,0,395.53,79Z"/><path class="cls-8" d="M425.5,79a154.73,154.73,0,0,1-5.29,14.78,1.63,1.63,0,0,0,1.49,2.3H439a1.63,1.63,0,0,0,1.63-1.63v-.27A1.63,1.63,0,0,0,439,92.56H427.75a1.63,1.63,0,0,1-1.62-1.81,41.68,41.68,0,0,1,2.47-10.59,1.63,1.63,0,0,0-1.49-2.29h-.05A1.62,1.62,0,0,0,425.5,79Z"/></g><polygon class="cls-9" points="464.38 193.09 492.98 172.97 492.98 251.34 464.38 279.94 464.38 193.09"/><path class="cls-10" d="M430.2,5.32S438.64,90,493,105.21C493,105.21,428.41,94.89,430.2,5.32Z"/><path class="cls-10" d="M463.82,280.17l.5,0V126.43h-3v154h.21A10.1,10.1,0,0,1,463.82,280.17Z"/><path class="cls-11" d="M115.28,242.79s7.22,12.64,32.75,12.64H399.88s23.44-5.25,23.44-17.69V193.43H365.24Z"/><rect class="cls-12" x="126.16" y="170.87" width="284.96" height="76.96" rx="12" ry="12"/><rect class="cls-13" x="109.62" y="170.87" width="284.96" height="76.96" rx="12" ry="12"/><rect class="cls-14" x="121.88" y="180.02" width="263.28" height="57.72" rx="6.67" ry="6.67"/><path class="cls-10" d="M365.91,170.87s28.67-7.83,28.67,22.52S397.69,166.5,365.91,170.87Z"/><polygon class="cls-10" points="127.24 0.43 410.46 3.19 418.09 0.43 127.24 0.43"/><path class="cls-10" d="M410.46,3.19S427,1.24,430.35,21.43l.82-9.14S434.1-7.55,410.46,3.19Z"/><path class="cls-15" d="M135.11,221.86v-23.6h9.24a7.13,7.13,0,0,1,4.8,1.51,5.16,5.16,0,0,1,1.75,4.13,9.2,9.2,0,0,1-.21,2.15,4.84,4.84,0,0,1-.74,1.62,4.61,4.61,0,0,1-2.66,1.8,4.6,4.6,0,0,1,3.52,2.38,6.53,6.53,0,0,1,.67,3.1,7,7,0,0,1-1.77,5.11,6.85,6.85,0,0,1-5.11,1.8Zm7.57-14.33a1.9,1.9,0,0,0,1.77-1.08,2.65,2.65,0,0,0,.26-1.34q0-2.29-2.2-2.29h-1.15v4.72Zm.3,9.83q1.7,0,2.13-2.23a5.42,5.42,0,0,0,.07-1.15q-.26-2.43-2.36-2.43h-1.44v5.8Z"/><path class="cls-15" d="M152.85,211.66q0-4.56,1.67-6.33t5.74-1.77q4.06,0,5.75,1.79t1.69,6.31v2.66q0,4.56-1.7,6.33t-5.8,1.77q-4,0-5.67-1.77t-1.67-6.33Zm5.77,3.74v.72a8.42,8.42,0,0,0,.23,1.59,1.58,1.58,0,0,0,.5.72,1.22,1.22,0,0,0,.8.31,1.28,1.28,0,0,0,1.24-.92,5,5,0,0,0,.2-.8,5.64,5.64,0,0,0,.07-.9v-6.23a3.72,3.72,0,0,0-.4-2,1.26,1.26,0,0,0-1.11-.61,1.29,1.29,0,0,0-1.14.61,3.71,3.71,0,0,0-.4,2v5.51Z"/><path class="cls-15" d="M169.63,221.86v-17.7h5.67v1.77l.39-.52a4.94,4.94,0,0,1,3.54-1.74H180a3.59,3.59,0,0,1,.8.1,4,4,0,0,1,2.7,1.46,6.34,6.34,0,0,1,.77,3.56v13.08h-5.9v-12a2.21,2.21,0,0,0-.42-1.52,1.32,1.32,0,0,0-1.24-.31q-1.06.2-1.19,1.57v12.23Z"/><path class="cls-15" d="M195.4,205.83v-7.57h5.9v23.6h-5.67v-2l-.33.59a3.85,3.85,0,0,1-1.54,1.34,4.56,4.56,0,0,1-2.06.49,5.1,5.1,0,0,1-3.74-1.67,5.91,5.91,0,0,1-1.34-2.38,13.3,13.3,0,0,1-.46-3.88q0-6,1.2-8.41a4,4,0,0,1,3.88-2.44,4.54,4.54,0,0,1,2.36.62A6.34,6.34,0,0,1,195.4,205.83Zm-3.25,8a8.79,8.79,0,0,0,.39,3.1q.39.93,1.14.93a1.87,1.87,0,0,0,.73-.2,1.5,1.5,0,0,0,.71-.77,4.56,4.56,0,0,0,.28-1.85q0-1.51,0-3a17.59,17.59,0,0,0-.08-1.89Q195,208,194,208a1.58,1.58,0,0,0-1.34.61,3.48,3.48,0,0,0-.46,2v3.11Z"/><path class="cls-15" d="M213.36,221.86v-23.6h9.24a7.13,7.13,0,0,1,4.8,1.51,5.16,5.16,0,0,1,1.75,4.13,9.2,9.2,0,0,1-.21,2.15,4.84,4.84,0,0,1-.74,1.62,4.61,4.61,0,0,1-2.66,1.8,4.6,4.6,0,0,1,3.52,2.38,6.53,6.53,0,0,1,.67,3.1,7,7,0,0,1-1.77,5.11,6.85,6.85,0,0,1-5.11,1.8Zm7.57-14.33a1.9,1.9,0,0,0,1.77-1.08,2.65,2.65,0,0,0,.26-1.34q0-2.29-2.2-2.29h-1.15v4.72Zm.3,9.83q1.7,0,2.13-2.23a5.42,5.42,0,0,0,.07-1.15q-.26-2.43-2.36-2.43h-1.44v5.8Z"/><path class="cls-15" d="M231.1,211.66q0-4.56,1.67-6.33t5.74-1.77q4.06,0,5.75,1.79t1.69,6.31v2.66q0,4.56-1.7,6.33t-5.8,1.77q-4,0-5.67-1.77t-1.67-6.33Zm5.77,3.74v.72a8.42,8.42,0,0,0,.23,1.59,1.58,1.58,0,0,0,.5.72,1.22,1.22,0,0,0,.8.31,1.28,1.28,0,0,0,1.24-.92,5,5,0,0,0,.2-.8,5.64,5.64,0,0,0,.07-.9v-6.23a3.72,3.72,0,0,0-.4-2,1.26,1.26,0,0,0-1.11-.61,1.29,1.29,0,0,0-1.14.61,3.71,3.71,0,0,0-.4,2v5.51Z"/><path class="cls-15" d="M247.88,217.2v-13h5.9v12a2.22,2.22,0,0,0,.41,1.53,1.27,1.27,0,0,0,1.21.31q1.09-.2,1.23-1.58V204.16h5.9v17.7h-5.67V220l-.39.57a5.16,5.16,0,0,1-1.54,1.3,4.24,4.24,0,0,1-2,.43h-.62a5,5,0,0,1-1-.1,4,4,0,0,1-2.69-1.44A6.43,6.43,0,0,1,247.88,217.2Z"/><path class="cls-15" d="M264.89,221.86v-17.7h5.67v1.77l.39-.52a4.94,4.94,0,0,1,3.54-1.74h.77a3.59,3.59,0,0,1,.8.1,4,4,0,0,1,2.7,1.46,6.34,6.34,0,0,1,.77,3.56v13.08h-5.9v-12a2.21,2.21,0,0,0-.42-1.52,1.32,1.32,0,0,0-1.24-.31q-1.06.2-1.19,1.57v12.23Z"/><path class="cls-15" d="M290.66,205.83v-7.57h5.9v23.6h-5.67v-2l-.33.59a3.85,3.85,0,0,1-1.54,1.34,4.56,4.56,0,0,1-2.06.49,5.1,5.1,0,0,1-3.74-1.67,5.91,5.91,0,0,1-1.34-2.38,13.3,13.3,0,0,1-.46-3.88q0-6,1.2-8.41a4,4,0,0,1,3.88-2.44,4.54,4.54,0,0,1,2.36.62A6.34,6.34,0,0,1,290.66,205.83Zm-3.25,8a8.79,8.79,0,0,0,.39,3.1q.39.93,1.14.93a1.87,1.87,0,0,0,.73-.2,1.5,1.5,0,0,0,.71-.77,4.56,4.56,0,0,0,.28-1.85q0-1.51,0-3a17.59,17.59,0,0,0-.08-1.89q-.33-2.13-1.34-2.13a1.58,1.58,0,0,0-1.34.61,3.48,3.48,0,0,0-.46,2v3.11Z"/><path class="cls-15" d="M299,221.86v-23.6h5.9v23.6Z"/><path class="cls-15" d="M321.37,213.89h-8.62l-.07,2.88q0,1.87,1.66,1.87t1.62-2.23v-.72h5.44c.15,0,.23.09.23.26a1.8,1.8,0,0,1-.13.64q-.13.34-.23.67a6,6,0,0,1-2.2,3.8,8.07,8.07,0,0,1-4.75,1.18q-4.1,0-5.77-2.07t-1.77-7.49a11.7,11.7,0,0,1,1.44-6.42,5.56,5.56,0,0,1,4.2-2.51,21,21,0,0,1,2.36-.16,6.85,6.85,0,0,1,5,1.59q1.62,1.59,1.62,5s0,.32.07.89.07,1.06.07,1.47a7.23,7.23,0,0,1,0,.77Q321.42,213.7,321.37,213.89ZM316,210.68v-.53a5.84,5.84,0,0,0-.27-2.13,1.41,1.41,0,0,0-1-.79,2,2,0,0,0-.43,0,1.32,1.32,0,0,0-1.21.71,4.7,4.7,0,0,0-.41,2.28v.49Z"/><path class="cls-15" d="M322.49,216.29h5.34v.52q0,2,1.64,2h.33a1.36,1.36,0,0,0,1.34-1.12,1.94,1.94,0,0,0,0-.43,1.68,1.68,0,0,0-.59-1.25l-.26-.2-.17-.07-.17-.07-3.77-1.38a5.09,5.09,0,0,1-3.5-4.17,8.85,8.85,0,0,1-.07-.92,4.34,4.34,0,0,1,.13-1.12,5.05,5.05,0,0,1,1.72-3,7.48,7.48,0,0,1,3.82-1.33l.64,0,.77,0h.85a3.27,3.27,0,0,0,.52.07,6.76,6.76,0,0,1,3.93,1.46,4.29,4.29,0,0,1,1.25,3.29v.82h-5.11v-.52q0-1.54-1.44-1.54h-.36a1.25,1.25,0,0,0-.9.33,1.09,1.09,0,0,0-.34.82,1.27,1.27,0,0,0,.85,1.41l.23.1.2.07,4.23,1.51a4.92,4.92,0,0,1,2.26,1.56,4.59,4.59,0,0,1,.72,2.78,6.4,6.4,0,0,1-1.67,4.73,7.14,7.14,0,0,1-5.28,1.81,14.08,14.08,0,0,1-1.61-.1q-5.57-.59-5.57-5.51Z"/><path class="cls-15" d="M337.37,216.29h5.34v.52q0,2,1.64,2h.33a1.36,1.36,0,0,0,1.34-1.12,1.94,1.94,0,0,0,0-.43,1.68,1.68,0,0,0-.59-1.25l-.26-.2-.17-.07-.17-.07-3.77-1.38a5.09,5.09,0,0,1-3.5-4.17,8.85,8.85,0,0,1-.07-.92,4.34,4.34,0,0,1,.13-1.12,5.05,5.05,0,0,1,1.72-3,7.48,7.48,0,0,1,3.82-1.33l.64,0,.77,0h.85a3.27,3.27,0,0,0,.52.07,6.76,6.76,0,0,1,3.93,1.46,4.29,4.29,0,0,1,1.25,3.29v.82h-5.11v-.52q0-1.54-1.44-1.54h-.36a1.25,1.25,0,0,0-.9.33,1.09,1.09,0,0,0-.34.82,1.27,1.27,0,0,0,.85,1.41l.23.1.2.07,4.23,1.51a4.92,4.92,0,0,1,2.26,1.56,4.59,4.59,0,0,1,.72,2.78,6.4,6.4,0,0,1-1.67,4.73,7.14,7.14,0,0,1-5.28,1.81,14.08,14.08,0,0,1-1.61-.1q-5.57-.59-5.57-5.51Z"/><path class="cls-15" d="M353.07,221.86v-23.6H359v23.6Z"/><path class="cls-15" d="M359.79,204.16H366l1.8,11.6,1.74-11.6h5.93l-4.69,18.32q-.85,3.28-2.21,4.34a7.27,7.27,0,0,1-4.44,1.07l-2.69-.16v-3.93h1.18a4.61,4.61,0,0,0,1.11-.13,1.89,1.89,0,0,0,.79-.52,1,1,0,0,0,.23-.62l-.07-.62Z"/></g></g></svg>