<svg xmlns="http://www.w3.org/2000/svg" viewBox="0 0 420.85 744"><defs><style>.cls-1{isolation:isolate;}.cls-2,.cls-5{fill:#2c103a;}.cls-3{fill:#5f2c84;}.cls-4{fill:#4f206b;}.cls-5{opacity:0.23;}.cls-6,.cls-7{fill:#290f36;}.cls-7{opacity:0.28;}.cls-8{fill:#7641a3;}.cls-9{fill:#1a0923;}.cls-10{fill:#d13434;}.cls-11{fill:#421111;opacity:0.21;mix-blend-mode:darken;}.cls-12{fill:#ff8039;opacity:0.68;}.cls-13{fill:#ffd93b;opacity:0.94;}.cls-14{fill:#fff;opacity:0.42;}</style></defs><title>dragon towerAsset 14</title><g class="cls-1"><g id="Layer_2" data-name="Layer 2"><g id="page_1" data-name="page 1"><path class="cls-2" d="M237.2.26s-49,83.92-140,114.48v25.42s22.17-5.92,31.91-9.53S139.18,127,139.18,127V744h209V113.68s.72,7.32,16.36,9.53l15.64,2.22V95.68S275.21,83.19,237.2.26Z"/><polygon class="cls-2" points="237.39 0 183.38 0 163.25 172.01 157.83 719.93 251.16 719.11 269.17 86.07 237.39 0"/><polygon class="cls-3" points="326.18 96 380.18 96 380.18 125.33 326.18 125.43 326.18 96"/><path class="cls-4" d="M326.36,125.43s-24.36,2-39.19-7.51S293,107.33,293,107.33Z"/><path class="cls-4" d="M183.09.26S141.18,73,61.18,107.7V135A122.34,122.34,0,0,0,75,130.63C84.72,127,85.18,127,85.18,127V744h209V113.68s.72,7.32,16.36,9.53l15.64,2.22V95.68S221.1,83.19,183.09.26Z"/><path class="cls-5" d="M85.06,139.63l-.88-12.18V110.51L184.33,31.07l114.85,79.48V137S218.6,110.56,183.51,63.89C183.51,63.89,149.67,113.15,85.06,139.63Z"/><rect class="cls-6" x="169.87" y="99.92" width="14.3" height="30.71"/><rect class="cls-6" x="193.97" y="99.92" width="14.3" height="30.71"/><rect class="cls-6" x="116.17" y="573.59" width="20.35" height="30.71"/><rect class="cls-6" x="158.51" y="573.59" width="20.35" height="30.71"/><rect class="cls-6" x="200.86" y="573.59" width="20.35" height="30.71"/><rect class="cls-6" x="243.2" y="573.59" width="20.35" height="30.71"/><rect class="cls-7" x="135.49" y="618.35" width="20.35" height="30.71"/><rect class="cls-7" x="177.84" y="618.35" width="20.35" height="30.71"/><rect class="cls-7" x="220.18" y="618.35" width="20.35" height="30.71"/><rect class="cls-7" x="262.53" y="618.35" width="20.35" height="30.71"/><rect class="cls-5" x="84.88" y="159.23" width="209.7" height="2.12"/><rect class="cls-5" x="84.88" y="138.57" width="209.7" height="2.12"/><rect class="cls-5" x="84.88" y="117.92" width="209.7" height="2.12"/><path class="cls-5" d="M278.42,97.27H84.88v2.12H280.64Q279.52,98.34,278.42,97.27Z"/><path class="cls-5" d="M244.39,76.62H131.82a8.05,8.05,0,0,1-1.2,2.12h114A9.33,9.33,0,0,1,244.39,76.62Z"/><rect class="cls-5" x="84.88" y="183.59" width="209.7" height="2.12"/><rect class="cls-5" x="84.88" y="207.94" width="209.7" height="2.12"/><rect class="cls-5" x="84.88" y="232.3" width="209.7" height="2.12"/><rect class="cls-5" x="84.88" y="256.66" width="209.7" height="2.12"/><rect class="cls-5" x="84.88" y="281.02" width="209.7" height="2.12"/><rect class="cls-5" x="84.88" y="305.38" width="209.7" height="2.12"/><rect class="cls-5" x="84.88" y="329.74" width="209.7" height="2.12"/><rect class="cls-5" x="84.88" y="354.1" width="209.7" height="2.12"/><rect class="cls-5" x="84.88" y="378.46" width="209.7" height="2.12"/><rect class="cls-5" x="84.88" y="402.82" width="209.7" height="2.12"/><rect class="cls-5" x="84.88" y="427.18" width="209.7" height="2.12"/><rect class="cls-5" x="84.88" y="451.54" width="209.7" height="2.12"/><rect class="cls-5" x="84.88" y="475.9" width="209.7" height="2.12"/><rect class="cls-5" x="84.88" y="500.26" width="209.7" height="2.12"/><rect class="cls-5" x="84.88" y="524.62" width="209.7" height="2.12"/><rect class="cls-5" x="84.88" y="548.98" width="209.7" height="2.12"/><rect class="cls-5" x="84.88" y="573.34" width="209.7" height="2.12"/><rect class="cls-5" x="84.88" y="597.7" width="209.7" height="2.12"/><rect class="cls-5" x="84.88" y="622.06" width="209.7" height="2.12"/><rect class="cls-5" x="84.88" y="646.42" width="209.7" height="2.12"/><rect class="cls-5" x="84.88" y="670.78" width="209.7" height="2.12"/><path class="cls-8" d="M326.36,95.68S227.67,85.95,183.18.26c0,0-44,75-122,107.44V135s66.39-13.86,119.35-90.64c0,0,72.12,83.34,145.73,81.12"/><rect class="cls-8" x="75.38" y="349.87" width="228.71" height="33.19"/><polygon class="cls-3" points="303.64 350.04 362.18 335.04 362.18 366.81 303.94 383.05 303.64 350.04"/><polygon class="cls-9" points="294.58 349.85 348.6 335 362.37 335 303.73 350.01 294.58 349.85"/><polygon class="cls-9" points="75.38 350 85.18 343.25 85.18 350 75.38 350"/><path class="cls-2" d="M177.59,231.1h3.72a31.5,31.5,0,0,1,31.5,31.5v68.9a0,0,0,0,1,0,0H146.09a0,0,0,0,1,0,0V262.6a31.5,31.5,0,0,1,31.5-31.5Z"/><path class="cls-3" d="M188.49,231.1h3.72a31.5,31.5,0,0,1,31.5,31.5v68.9a0,0,0,0,1,0,0H157a0,0,0,0,1,0,0V262.6a31.5,31.5,0,0,1,31.5-31.5Z"/><path class="cls-2" d="M315.11,231.1h18.65a0,0,0,0,1,0,0v91.08a9.32,9.32,0,0,1-9.32,9.32h0a9.32,9.32,0,0,1-9.32-9.32V231.1A0,0,0,0,1,315.11,231.1Z" transform="translate(648.87 562.61) rotate(180)"/><path class="cls-3" d="M312.06,231.1h18.65a0,0,0,0,1,0,0v91.08a9.32,9.32,0,0,1-9.32,9.32h0a9.32,9.32,0,0,1-9.32-9.32V231.1A0,0,0,0,1,312.06,231.1Z" transform="translate(642.77 562.61) rotate(180)"/><path class="cls-10" d="M118.44,508.27C184.94,487.79,346.72,439,398.18,353h0c17.33-31,28.09-70.62,19.11-103.86-15.89-58.78-69.07-68.73-69.07-68.73v77.31a3.88,3.88,0,0,0,.92-.08c2.38,12.55,6.68,60.67-58.5,95.4C215,393.29,173.44,419.41,112,432.48S2.75,482.56,3.45,552.16s81.73,81.55,81.73,81.55V559.57S51.95,528.75,118.44,508.27Z"/><path class="cls-10" d="M56.58,456.84s61.21-27.85,97.77-40.22S284.7,380.23,353.89,285.26c0,0,38.24-32.13,41-22.24s-43.06,107.68-43.06,107.68L94.77,479.08,62.64,491.82Z"/><path class="cls-11" d="M405.46,221.51s-20.84-31.06-33-23.1,13.81,33.66,16.42,43c6.06,21.64,5.3,74.39-21.32,112.73C338.45,396,259.27,434,201.12,460.15c0,0-190.24,45.37-116.24,99.41,0,0-17.2-22.38,2.14-36.27,23.3-16.73,119-38.57,159.9-60.52,40.77-21.85,126.39-49.36,158.54-126.15C405.46,336.63,440.08,279.56,405.46,221.51Z"/><path class="cls-12" d="M47.07,501.12c-6.17-4.53-11.51-9.77-8.09-16.63,4.53-9.07,12.89-17.87,27.89-13.51,27.89,8.1,30.59,36.7,30.59,36.7s-12.39-34.82-12.59-44.48c-.26-13.24,16.95-26.48,29.66-19.06s19.06,43.46,19.06,43.46.53-17.51,0-36c-.49-17.07,10.47-37.73,24.3-27.87s26.27,48.78,26.27,48.78,1-19.86-1.85-34c-2.62-13.13-8.44-29.74,10.61-26.84s30.71,35.73,32.88,40c3.12,6.09,6-5.3,0-27.87-4.72-17.66-3.24-30.69,13.71-28.95s28.6,41.72,28.6,41.72-.79-29.39-3.66-41.72-.56-23.77,17.44-22.67S309,414.47,309,414.47s-.66-19-4.45-36c-3.68-16.49-4.74-35.48,11.7-33.1S346,383.05,346,383.05s.14-22.24-7.61-33S335.58,327,353.89,326.3,377.72,359,377.72,359s3.71-22.74-10.06-35.56S359,303,378.18,301s27.61,29.79,27.61,29.79,1.59-36.1-28.07-41.88-3.24-31.2,17.18-25.9,23.46,14,23.46,14,1.07-21.47-19.52-23.58-46-4.83-31.18-15.65S409,231.1,409,231.1s-20.12-17.86-31.24-13.63-12.18,0-10.06-12.7,1.4-15.62,1.4-15.62L348.6,207.94v49.78l-.75,31.48S310.22,340.77,277.51,358,224.25,395.41,103.2,429.3C-13.46,462-15.23,570.78,20.2,597.7c.6.46,5.86,8,5.43,7.36-6-9-7.48-38.43,5.23-50.08,14.72-13.49,18.61-13.42,39-6,0,0-31-11.65-44.78-19.59-11-6.35-.17-30.2,21.22-19.61s28,12.72,28,12.72S61.77,511.91,47.07,501.12Z"/><path class="cls-13" d="M10.67,500.26s15.06-46.6,92.53-71,161.33-45.85,218.49-108.57c0,0-29.79,56.54-134.43,86.33S42.68,459.25,9.68,502.38"/><path class="cls-14" d="M61.18,107.7S135.72,79.14,179.45,6.07C179.45,6.07,146.18,91.4,61.18,107.7Z"/></g></g></g></svg>