<svg xmlns="http://www.w3.org/2000/svg" viewBox="0 0 824.41 401.17"><defs><style>.cls-1{fill:#254208;}.cls-2{opacity:0.31;}.cls-3{fill:#6d841a;}</style></defs><title>grass 2 finalAsset 55</title><g id="Layer_2" data-name="Layer 2"><g id="page_1" data-name="page 1"><path class="cls-1" d="M818.41,314.17c-9-57-67-32-67-32l-8-14c-8-14-27,4-27,4s25-31,0-37-15,50-15,50l-26-41c-26-41-73-3-73-3l19-20c19-20,4-42-11-53-9.66-7.09-16.41-1.73-20,3V163c-2-25.42-20-15.89-20-15.89,12.28-38.13-36.71-27.5-36.71-27.5,5.26-51.32-36.77-13.81-36.77-13.81,52.62-95.32-12.25-33.36-12.25-33.36-19.29-62-42.08,4.77-42.08,4.77-1.75-6.35-15.78-7.94-15.78-7.94,16.27-28.43.2-29.64-12.5-27.22,12.84-4.58,29.4-14,14.26-29.53C405.8-10.91,356.69,32.7,356.69,32.7c-7-76.25-36.83,4.77-36.83,4.77,0-47.66-29.82-15.89-29.82-15.89C256.72-5.43,229,45.41,229,45.41c-7.31-15.45-31.54-7.95-45.54-1.93v.14c-8.1.83-42.33,6.43-38.21,41.95,4.68,40.25,19.63,57.19,19.63,57.19s-78.21-33.89-52.49,14.83c6.45,12.21,11.77,20.29,16.14,25.55-18.41-5.28-44.13-8.41-39.55,17.46,7,39.6,6.8,39.6,6.8,39.6S46.41,229.6,46.41,252.9v23.3s-51.24,12.71-18.5,38.13,32.85,25.42,32.85,25.42S-14,344,2.34,365.16s16.4,21.18,16.4,21.18l21.07,14.83H824.41v-87ZM402.29,45.41a77.68,77.68,0,0,1,12-3.39A92.94,92.94,0,0,1,402.29,45.41Z"/><g class="cls-2"><path class="cls-3" d="M596.87,206.85c-3.37,24.78-14.13,35.21-14.13,35.21s56.3-20.87,37.78,9.13c-4.64,7.52-8.47,12.49-11.62,15.73,13.25-3.25,31.77-5.17,28.47,10.75-5.05,24.38-4.68,24.38-4.68,24.38s35.72-6.52,35.72,7.83v14.35s36.67,7.83,13.1,23.48-23.75,15.65-23.75,15.65,53.78,2.61,42,15.65-11.83,13-11.83,13l-15.2,9.13H567.93l.22-220.23S600.23,182.07,596.87,206.85Z"/><path class="cls-3" d="M110.84,348.17c6.48-36,48.23-20,48.23-20s0-.14,5.76-8.76,19.44,2.39,19.44,2.39-18-19.12,0-22.82,10.8,30.77,10.8,30.77l18.72-25.25c18.72-25.24,52.55-1.85,52.55-1.85l-13.68-12.32c-13.68-12.31-3.15-25.86,7.64-32.63,7-4.36,12.12-1.06,14.12,1.84v-5c2-15.65,14.67-9.78,14.67-9.78-8.84-23.47,26.56-16.93,26.56-16.93-3.79-31.6,26.54-8.5,26.54-8.5C304.3,160.61,351,198.76,351,198.76c13.89-38.15,30.31,2.93,30.31,2.93,1.26-3.91,11.37-4.89,11.37-4.89-11.71-17.5-.14-18.25,9-16.76-9.24-2.82-21.16-8.62-10.26-18.18,16.41-14.4,51.76,12.45,51.76,12.45,5-46.95,26.51,2.93,26.51,2.93,0-29.34,21.46-9.78,21.46-9.78,24-16.63,44.21,14.67,44.21,14.67,5.26-9.51,23-4.89,33-1.19V401.17h-462v-53ZM401.71,180a76,76,0,0,0,8.66,2.09A63.27,63.27,0,0,0,401.71,180Z"/></g><g class="cls-2"><path class="cls-3" d="M432.93,273.18c2.09,16.32,8.79,23.19,8.79,23.19s-35-13.74-23.5,6a61.22,61.22,0,0,0,7.22,10.36c-8.24-2.14-19.76-3.41-17.71,7.08,3.14,16.06,2.9,16.06,2.9,16.06s-22.23-4.29-22.23,5.15v9.45s-22.8,5.15-8.14,15.46S395,376.26,395,376.26s-33.44,1.72-26.12,10.31,7.36,8.59,7.36,8.59l9.45,6h65.18l-.13-145.05S430.83,256.86,432.93,273.18Z"/><path class="cls-3" d="M735.21,366.17c-4-24-30-13.12-30-13.12s0-.07-3.58-5.75-12.09,1.59-12.09,1.59,11.19-12.59,0-15-6.72,20.27-6.72,20.27l-11.64-16.63c-11.64-16.63-32.68-1.22-32.68-1.22l8.51-8.11c8.51-8.11,1.93-17-4.79-21.49-4.33-2.87-7.82-.7-8.82,1.21v-3.32c-1-10.31-9.09-6.44-9.09-6.44,5.5-15.46-16.5-11.15-16.5-11.15,2.36-20.81-16.5-5.6-16.5-5.6,23.56-38.65-5.5-13.53-5.5-13.53-8.64-25.12-18.85,1.93-18.85,1.93-.79-2.58-7.07-3.22-7.07-3.22,7.29-11.53.09-12-5.6-11,5.75-1.86,13.16-5.68,6.38-12-10.21-9.49-32.19,8.2-32.19,8.2-3.14-30.92-16.49,1.93-16.49,1.93,0-19.33-13.35-6.44-13.35-6.44-14.92-11-27.61,9.66-27.61,9.66-3.27-6.26-14.65-3.22-20.65-.78V401.17h288v-35ZM554.31,255.52a45.08,45.08,0,0,1-5.39,1.38A37.57,37.57,0,0,1,554.31,255.52Z"/></g></g></g></svg>